<svg xmlns="http://www.w3.org/2000/svg" viewBox="0 0 120 85" xmlns:v="https://vecta.io/nano"><path d="M0 .102h120v84.897H0z"/><linearGradient id="A" gradientUnits="userSpaceOnUse" x1="5.119" y1="-6.069" x2="4.692" y2="12.962"><stop offset="0" stop-color="#090a0b"/><stop offset="1"/></linearGradient><path d="M0 0v8.52L9.966 0z" fill="url(#A)"/><linearGradient id="B" gradientUnits="userSpaceOnUse" x1="12.521" y1="-4.337" x2="39.662" y2="7.898"><stop offset="0" stop-color="#111"/><stop offset="1" stop-color="#050505"/></linearGradient><path d="M12.808 0l25.307 11.331L31.476 0z" fill="url(#B)"/><linearGradient id="C" gradientUnits="userSpaceOnUse" x1="51.726" y1="-16.485" x2="41.753" y2="12.579"><stop offset="0" stop-color="#292927"/><stop offset="1" stop-color="#161615"/></linearGradient><path d="M42.029 0l-3.914 11.331L50.137 0z" fill="url(#C)"/><linearGradient id="D" gradientUnits="userSpaceOnUse" x1="42.023" y1="9.056" x2="31.728" y2="-8.635"><stop offset="0" stop-color="#111"/><stop offset="1"/></linearGradient><path d="M31.476 0l6.639 11.331L42.029 0z" fill="url(#D)"/><linearGradient id="E" gradientUnits="userSpaceOnUse" x1="91.685" y1="-13.515" x2="83.03" y2="1.999"><stop offset="0" stop-color="#0d0d0d"/><stop offset="1"/></linearGradient><path d="M80.565 0l5.84 2.367L86.24 0z" fill="url(#E)"/><linearGradient id="F" gradientUnits="userSpaceOnUse" x1="104.302" y1="-1.614" x2="91.062" y2="8.477"><stop offset="0" stop-color="#111"/><stop offset="1"/></linearGradient><path d="M89.532 0l-3.127 2.367 25.16.142L108.623 0z" fill="url(#F)"/><linearGradient id="G" gradientUnits="userSpaceOnUse" x1="88.042" y1="2.254" x2="86.697" y2="-17.216"><stop offset="0" stop-color="#161616"/><stop offset="1"/></linearGradient><path d="M86.24 0l.165 2.367L89.532 0z" fill="url(#G)"/><linearGradient id="H" gradientUnits="userSpaceOnUse" x1="111.622" y1="1.089" x2="127.669" y2="1.726"><stop offset="0" stop-color="#10100f"/><stop offset="1"/></linearGradient><path d="M120 0h-1.4l-7.035 2.509 8.435.332z" fill="url(#H)"/><linearGradient id="I" gradientUnits="userSpaceOnUse" x1="113.682" y1=".061" x2="101.761" y2="-10.173"><stop offset="0" stop-color="#151515"/><stop offset="1" stop-color="#0f0f0f"/></linearGradient><path d="M108.623 0l2.942 2.509L118.6 0z" fill="url(#I)"/><linearGradient id="J" gradientUnits="userSpaceOnUse" x1="1.131" y1="24.265" x2="-5.861" y2="27.926"><stop offset="0" stop-color="#121212"/><stop offset="1"/></linearGradient><path d="M0 19.768v4.129l5.236 3.308z" fill="url(#J)"/><linearGradient id="K" gradientUnits="userSpaceOnUse" x1="5.712" y1="13.514" x2="22.578" y2="14.101"><stop offset="0" stop-color="#151515"/><stop offset="1"/></linearGradient><path d="M10.772 0L5.236 27.205l16.866.583L11.268 0z" fill="url(#K)"/><linearGradient id="L" gradientUnits="userSpaceOnUse" x1=".845" y1="19.388" x2="16.644" y2="5.789"><stop offset="0" stop-color="#161716"/><stop offset="1"/></linearGradient><path d="M9.966 0L0 8.52v11.248l5.236 7.437L10.772 0z" fill="url(#L)"/><linearGradient id="M" gradientUnits="userSpaceOnUse" x1="30.554" y1="26.846" x2="29.643" y2="11.845"><stop offset="0" stop-color="#1f1f20"/><stop offset="1" stop-color="#1a1a1b"/></linearGradient><path d="M38.115 11.331L22.102 27.788l16.931-1.451-.918-15.006h0z" fill="url(#M)"/><linearGradient id="N" gradientUnits="userSpaceOnUse" x1="28.343" y1="1.887" x2="12.386" y2="18.398"><stop offset="0" stop-color="#1f201f"/><stop offset="1"/></linearGradient><path d="M11.268 0l10.834 27.788 16.013-16.457h0L12.808 0z" fill="url(#N)"/><linearGradient id="O" gradientUnits="userSpaceOnUse" x1="38.671" y1="13.341" x2="64.892" y2="12.613"><stop offset="0" stop-color="#252525"/><stop offset="1"/></linearGradient><path d="M50.519 0L39.032 26.337l26.221-.722L51.125 0z" fill="url(#O)"/><linearGradient id="P" gradientUnits="userSpaceOnUse" x1="42.097" y1="15.49" x2="54.71" y2="3.52"><stop offset="0" stop-color="#242424"/><stop offset="1" stop-color="#222"/></linearGradient><path d="M50.137 0L38.115 11.331l.917 15.006L50.519 0z" fill="url(#P)"/><linearGradient id="Q" gradientUnits="userSpaceOnUse" x1="74.437" y1="25.399" x2="67.811" y2=".601"><stop offset="0" stop-color="#1f1f1f"/><stop offset="1" stop-color="#1c1c1c"/></linearGradient><path d="M75.705 0L65.253 25.615l17.81-2.521L76.85 0z" fill="url(#Q)"/><linearGradient id="R" gradientUnits="userSpaceOnUse" x1="74.632" y1="20.477" x2="60.242" y2="-5.792"><stop offset="0" stop-color="#181818"/><stop offset="1" stop-color="#070707"/></linearGradient><path d="M51.125 0l14.128 25.615L75.705 0z" fill="url(#R)"/><linearGradient id="S" gradientUnits="userSpaceOnUse" x1="82.68" y1="12.809" x2="102.976" y2="12.053"><stop offset="0" stop-color="#171619"/><stop offset="1"/></linearGradient><path d="M86.405 2.367l-3.342 20.728 20.296-.751L86.405 2.367h0z" fill="url(#S)"/><linearGradient id="T" gradientUnits="userSpaceOnUse" x1="87.188" y1="21.992" x2="80.562" y2="-2.804"><stop offset="0" stop-color="#191919"/><stop offset="1"/></linearGradient><path d="M76.85 0l6.213 23.094 3.342-20.727L80.565 0z" fill="url(#T)"/><linearGradient id="U" gradientUnits="userSpaceOnUse" x1="119.734" y1="31.867" x2="104.176" y2="7.161"><stop offset="0" stop-color="#191c1b"/><stop offset="1" stop-color="#0d100f"/></linearGradient><path d="M120 15.811l-8.435-13.302-8.206 19.834L120 25.719z" fill="url(#U)"/><linearGradient id="V" gradientUnits="userSpaceOnUse" x1="86.349" y1="12.306" x2="111.51" y2="12.449"><stop offset="0" stop-color="#121212"/><stop offset="1"/></linearGradient><path d="M111.566 2.509l-8.207 19.834L86.405 2.367l25.161.142h0z" fill="url(#V)"/><linearGradient id="W" gradientUnits="userSpaceOnUse" x1="111.309" y1="8.981" x2="127.35" y2="9.617"><stop offset="0" stop-color="#0f100f"/><stop offset="1" stop-color="#030404"/></linearGradient><path d="M120 2.841l-8.435-.332L120 15.811z" fill="url(#W)"/><linearGradient id="X" gradientUnits="userSpaceOnUse" x1="4.383" y1="38.823" x2="1.402" y2="28.29"><stop offset="0" stop-color="#1c1c1c"/><stop offset="1" stop-color="#111"/></linearGradient><path d="M0 38.039l8.236-.307-3-10.527L0 31.163z" fill="url(#X)"/><linearGradient id="Y" gradientUnits="userSpaceOnUse" x1="-13.529" y1="18.913" x2="3.586" y2="29.8"><stop offset="0" stop-color="#151515"/><stop offset="1"/></linearGradient><path d="M0 31.163l5.236-3.958h0L0 23.897z" fill="url(#Y)"/><linearGradient id="Z" gradientUnits="userSpaceOnUse" x1="20.758" y1="40.147" x2="15.271" y2="32.872"><stop offset="0" stop-color="#131313"/><stop offset="1" stop-color="#0c0c0c"/></linearGradient><path d="M22.101 27.788L8.236 37.732l19.344-2.729-5.479-7.215h0z" fill="url(#Z)"/><linearGradient id="a" gradientUnits="userSpaceOnUse" x1="19.073" y1="23.594" x2="5.239" y2="33.583"><stop offset="0" stop-color="#161616"/><stop offset="1"/></linearGradient><path d="M22.101 27.788L8.236 37.732l-3-10.528 16.865.584h0z" fill="url(#a)"/><linearGradient id="b" gradientUnits="userSpaceOnUse" x1="27.723" y1="30.493" x2="43.192" y2="30.984"><stop offset="0" stop-color="#191919"/><stop offset="1"/></linearGradient><path d="M39.033 26.338L27.58 35.003l15.469.487-4.016-9.152h0z" fill="url(#b)"/><linearGradient id="c" gradientUnits="userSpaceOnUse" x1="22.43" y1="31.603" x2="39.361" y2="30.144"><stop offset="0" stop-color="#1b1a1a"/><stop offset="1" stop-color="#100f10"/></linearGradient><path d="M39.033 26.338L27.58 35.003l-5.478-7.215 16.931-1.45h0z" fill="url(#c)"/><linearGradient id="d" gradientUnits="userSpaceOnUse" x1="70.429" y1="53.734" x2="55.479" y2="32.378"><stop offset="0" stop-color="#191919"/><stop offset="1"/></linearGradient><path d="M65.253 25.615L43.049 35.49l37.185 11.38-14.981-21.255h0z" fill="url(#d)"/><linearGradient id="e" gradientUnits="userSpaceOnUse" x1="54.175" y1="30.641" x2="50.182" y2="21.478"><stop offset="0" stop-color="#1f1f1f"/><stop offset="1"/></linearGradient><path d="M65.253 25.615L43.049 35.49l-4.017-9.153 26.221-.722h0z" fill="url(#e)"/><linearGradient id="f" gradientUnits="userSpaceOnUse" x1="85.339" y1="23.363" x2="82.528" y2="47.141"><stop offset="0" stop-color="#121212"/><stop offset="1"/></linearGradient><path d="M83.062 23.094L80.233 46.87l5.371-6.073-2.542-17.703h0z" fill="url(#f)"/><linearGradient id="g" gradientUnits="userSpaceOnUse" x1="86.734" y1="42.319" x2="71.821" y2="21.017"><stop offset="0" stop-color="#1a1a1a"/><stop offset="1" stop-color="#171717"/></linearGradient><path d="M83.062 23.094L80.233 46.87l-14.98-21.255 17.809-2.521h0z" fill="url(#g)"/><linearGradient id="h" gradientUnits="userSpaceOnUse" x1="102.985" y1="43.43" x2="93.138" y2="29.642"><stop offset="0" stop-color="#0e0e0e"/><stop offset="1" stop-color="#070707"/></linearGradient><path d="M103.359 22.343L85.604 40.797l27.646-4.698-9.891-13.756h0z" fill="url(#h)"/><linearGradient id="i" gradientUnits="userSpaceOnUse" x1="95.586" y1="39.374" x2="93.062" y2="21.669"><stop offset="0" stop-color="#101010"/><stop offset="1"/></linearGradient><path d="M103.359 22.343L85.604 40.797l-2.541-17.703 20.296-.751h0z" fill="url(#i)"/><linearGradient id="j" gradientUnits="userSpaceOnUse" x1="132.323" y1="44.398" x2="120.812" y2="36.732"><stop offset="0" stop-color="#0b0b0b"/><stop offset="1"/></linearGradient><path d="M120 31.788l-6.75 4.311 6.75-.346z" fill="url(#j)"/><linearGradient id="k" gradientUnits="userSpaceOnUse" x1="102.211" y1="27.965" x2="126.045" y2="32.833"><stop offset="0" stop-color="#0c0c0c"/><stop offset="1"/></linearGradient><path d="M120 25.719l-16.641-3.376 9.891 13.756 6.75-4.311z" fill="url(#k)"/><linearGradient id="l" gradientUnits="userSpaceOnUse" x1="2.043" y1="62.174" x2="-10.92" y2="39.155"><stop offset="0" stop-color="#0b0a0b"/><stop offset="1"/></linearGradient><path d="M0 55.269v6.597l3.462-.491z" fill="url(#l)"/><linearGradient id="m" gradientUnits="userSpaceOnUse" x1="8.02" y1="55.793" x2="2.475" y2="39.719"><stop offset="0" stop-color="#141316"/><stop offset="1"/></linearGradient><path d="M8.236 37.732L3.462 61.375l10.359-7.561-5.585-16.082h0z" fill="url(#m)"/><linearGradient id="n" gradientUnits="userSpaceOnUse" x1="10.32" y1="57.513" x2="-2.628" y2="34.521"><stop offset="0" stop-color="#141412"/><stop offset="1" stop-color="#0d0d0c"/></linearGradient><path d="M0 38.039v17.23l3.462 6.106 4.774-23.643z" fill="url(#n)"/><linearGradient id="o" gradientUnits="userSpaceOnUse" x1="38.871" y1="43.205" x2="25.173" y2="62.061"><stop offset="0" stop-color="#1b1b1b"/><stop offset="1" stop-color="#040404"/></linearGradient><path d="M27.58 35.003L13.821 53.814l29.061 7.743L27.58 35.003h0z" fill="url(#o)"/><linearGradient id="p" gradientUnits="userSpaceOnUse" x1="22.851" y1="50.7" x2="17.3" y2="34.606"><stop offset="0" stop-color="#1e1d1d"/><stop offset="1" stop-color="#0d0c0d"/></linearGradient><path d="M27.58 35.003L13.821 53.814 8.236 37.732l19.344-2.729h0z" fill="url(#p)"/><linearGradient id="q" gradientUnits="userSpaceOnUse" x1="55.972" y1="60.8" x2="36.533" y2="42.359"><stop offset="0" stop-color="#211f20"/><stop offset="1" stop-color="#0c0b0b"/></linearGradient><path d="M43.049 35.49l-.167 26.067 19.669-7.692L43.049 35.49h0z" fill="url(#q)"/><linearGradient id="r" gradientUnits="userSpaceOnUse" x1="27.167" y1="48.023" x2="42.63" y2="48.513"><stop offset="0" stop-color="#1a1a1a"/><stop offset="1"/></linearGradient><path d="M43.049 35.49l-.167 26.067L27.58 35.003l15.469.487h0z" fill="url(#r)"/><linearGradient id="s" gradientUnits="userSpaceOnUse" x1="64.442" y1="48.091" x2="75.947" y2="51.859"><stop offset="0" stop-color="#141414"/><stop offset="1"/></linearGradient><path d="M80.233 46.869L62.55 53.865l11.492 3.739 6.191-10.735h0z" fill="url(#s)"/><linearGradient id="t" gradientUnits="userSpaceOnUse" x1="68.486" y1="47.673" x2="49.015" y2="29.202"><stop offset="0" stop-color="#121211"/><stop offset="1"/></linearGradient><path d="M80.233 46.869L62.55 53.865 43.049 35.49l37.184 11.379h0z" fill="url(#t)"/><linearGradient id="u" gradientUnits="userSpaceOnUse" x1="72.942" y1="50.242" x2="95.703" y2="46.838"><stop offset="0" stop-color="#111"/><stop offset="1" stop-color="#0f0f0f"/></linearGradient><path d="M85.603 40.798l-11.56 16.807 22.765-3.382-11.205-13.425h0z" fill="url(#u)"/><linearGradient id="v" gradientUnits="userSpaceOnUse" x1="81.15" y1="47.67" x2="86.498" y2="41.583"><stop offset="0" stop-color="#111"/><stop offset="1"/></linearGradient><path d="M85.603 40.798l-11.56 16.807 6.19-10.734 5.37-6.073h0z" fill="url(#v)"/><linearGradient id="w" gradientUnits="userSpaceOnUse" x1="114.255" y1="58.625" x2="103.441" y2="42.803"><stop offset="0" stop-color="#0e0f10"/><stop offset="1"/></linearGradient><path d="M120 45.907l-6.75-9.808v.001L96.808 54.223 120 52.248z" fill="url(#w)"/><linearGradient id="x" gradientUnits="userSpaceOnUse" x1="106.79" y1="30.278" x2="90.409" y2="48.456"><stop offset="0" stop-color="#151515"/><stop offset="1" stop-color="#121212"/></linearGradient><path d="M113.25 36.1L96.808 54.223 85.604 40.797 113.25 36.1h0z" fill="url(#x)"/><linearGradient id="y" gradientUnits="userSpaceOnUse" x1="126.452" y1="50.304" x2="115.631" y2="34.472"><stop offset="0"/></linearGradient><path d="M120 35.753l-6.75.346 6.75 9.808z" fill="url(#y)"/><linearGradient id="z" gradientUnits="userSpaceOnUse" x1="7.544" y1="64.153" x2=".407" y2="74.64"><stop offset="0" stop-color="#121212"/><stop offset="1" stop-color="#080808"/></linearGradient><path d="M0 73.351l5.711 2.306-2.249-14.282L0 66.428z" fill="url(#z)"/><linearGradient id="AA" gradientUnits="userSpaceOnUse" x1=".483" y1="63.294" x2="-14.646" y2="55.931"><stop offset="0" stop-color="#030504"/><stop offset="1"/></linearGradient><path d="M0 66.428l3.462-5.053h0L0 61.866z" fill="url(#AA)"/><linearGradient id="AB" gradientUnits="userSpaceOnUse" x1="18.843" y1="84.909" x2="6.405" y2="57.136"><stop offset="0" stop-color="#101010"/><stop offset="1" stop-color="#030303"/></linearGradient><path d="M13.821 53.814l-8.11 21.843 20.619 5.899-12.509-27.742h0z" fill="url(#AB)"/><linearGradient id="AC" gradientUnits="userSpaceOnUse" x1="10.489" y1="52.586" x2="2.428" y2="74.446"><stop offset="0" stop-color="#111"/><stop offset="1"/></linearGradient><path d="M13.821 53.814l-8.11 21.843-2.25-14.282 10.36-7.561h0z" fill="url(#AC)"/><linearGradient id="AD" gradientUnits="userSpaceOnUse" x1="24.051" y1="75.698" x2="51.101" y2="65.175"><stop offset="0" stop-color="#111010"/><stop offset="1"/></linearGradient><path d="M42.882 61.557l-16.552 20 27.074-10.461-10.522-9.539h0z" fill="url(#AD)"/><linearGradient id="AE" gradientUnits="userSpaceOnUse" x1="10.777" y1="65.164" x2="39.824" y2="72.956"><stop offset="0" stop-color="#0e0e0e"/><stop offset="1"/></linearGradient><path d="M42.882 61.557l-16.552 20-12.509-27.743 29.061 7.743h0z" fill="url(#AE)"/><linearGradient id="AF" gradientUnits="userSpaceOnUse" x1="68.036" y1="56.757" x2="58.939" y2="74.014"><stop offset="0" stop-color="#171717"/><stop offset="1" stop-color="#070707"/></linearGradient><path d="M62.55 53.865l-9.146 17.231 13.352 1.506-4.206-18.737h0z" fill="url(#AF)"/><linearGradient id="AG" gradientUnits="userSpaceOnUse" x1="56.441" y1="50.645" x2="47.345" y2="67.901"><stop offset="0" stop-color="#111"/><stop offset="1"/></linearGradient><path d="M62.55 53.865l-9.146 17.231-10.522-9.538 19.668-7.693h0z" fill="url(#AG)"/><linearGradient id="AH" gradientUnits="userSpaceOnUse" x1="84.301" y1="62.554" x2="77.055" y2="77.571"><stop offset="0" stop-color="#131314"/><stop offset="1"/></linearGradient><path d="M74.043 57.604l-7.286 14.997 22.595 5.797-15.309-20.794h0z" fill="url(#AH)"/><linearGradient id="AI" gradientUnits="userSpaceOnUse" x1="68.65" y1="55.003" x2="61.405" y2="70.019"><stop offset="0" stop-color="#0e0e0e"/><stop offset="1"/></linearGradient><path d="M74.043 57.604l-7.286 14.997-4.206-18.736 11.492 3.739h0z" fill="url(#AI)"/><linearGradient id="AJ" gradientUnits="userSpaceOnUse" x1="103.993" y1="56.424" x2="96.583" y2="80.613"><stop offset="0" stop-color="#1b1b1b"/><stop offset="1"/></linearGradient><path d="M96.808 54.223l-7.456 24.176 17.702-6.143-10.246-18.033h0z" fill="url(#AJ)"/><linearGradient id="AK" gradientUnits="userSpaceOnUse" x1="97.506" y1="72.436" x2="82.266" y2="51.592"><stop offset="0" stop-color="#121212"/><stop offset="1"/></linearGradient><path d="M96.808 54.223l-7.456 24.176-15.309-20.795 22.765-3.381h0z" fill="url(#AK)"/><linearGradient id="AL" gradientUnits="userSpaceOnUse" x1="128.412" y1="55.47" x2="111.413" y2="75.886"><stop offset="0" stop-color="#0f100f"/><stop offset="1"/></linearGradient><path d="M120 56.813l-12.946 15.443L120 74.439z" fill="url(#AL)"/><linearGradient id="AM" gradientUnits="userSpaceOnUse" x1="116.219" y1="67.083" x2="106.025" y2="49.021"><stop offset="0" stop-color="#0e0d0d"/><stop offset="1"/></linearGradient><path d="M120 52.248l-23.192 1.975 10.246 18.033L120 56.813z" fill="url(#AM)"/><linearGradient id="AN" gradientUnits="userSpaceOnUse" x1="-8.459" y1="85.326" x2="16.893" y2="78.28"><stop offset="0" stop-color="#171716"/><stop offset="1"/></linearGradient><path d="M2.371 85h10.96l-7.62-9.343h0z" fill="url(#AN)"/><linearGradient id="AO" gradientUnits="userSpaceOnUse" x1="2.818" y1="102.14" x2="2.859" y2="71.859"><stop offset="0" stop-color="#101010"/><stop offset="1"/></linearGradient><path d="M5.711 75.657L0 73.351V85h2.371l3.34-9.343z" fill="url(#AO)"/><linearGradient id="AP" gradientUnits="userSpaceOnUse" x1="21.909" y1="83.179" x2="50.184" y2="83.914"><stop offset="0" stop-color="#110f0e"/><stop offset="1" stop-color="#050303"/></linearGradient><path d="M31.996 85l-5.666-3.443h0L25.129 85z" fill="url(#AP)"/><linearGradient id="AQ" gradientUnits="userSpaceOnUse" x1="26.338" y1="91.342" x2="10.493" y2="71.784"><stop offset="0" stop-color="#1b1c1c"/><stop offset="1"/></linearGradient><path d="M25.129 85l1.201-3.443h0l-20.619-5.9L13.331 85z" fill="url(#AQ)"/><linearGradient id="AR" gradientUnits="userSpaceOnUse" x1="52.393" y1="101.831" x2="52.419" y2="71.095"><stop offset="0" stop-color="#0e0e0e"/><stop offset="1" stop-color="#030303"/></linearGradient><path d="M53.393 85l.011-13.902L51.421 85z" fill="url(#AR)"/><linearGradient id="AS" gradientUnits="userSpaceOnUse" x1="28.561" y1="87.291" x2="55.611" y2="76.768"><stop offset="0" stop-color="#111"/><stop offset="1"/></linearGradient><path d="M51.421 85l1.983-13.903v-.001L26.33 81.557 31.996 85z" fill="url(#AS)"/><linearGradient id="AT" gradientUnits="userSpaceOnUse" x1="85.812" y1="103.953" x2="62.092" y2="76.655"><stop offset="0" stop-color="#1a1a1a"/><stop offset="1" stop-color="#020202"/></linearGradient><path d="M77.604 85L66.757 72.602 61.082 85z" fill="url(#AT)"/><linearGradient id="AU" gradientUnits="userSpaceOnUse" x1="60.056" y1="101.837" x2="60.082" y2="71.101"><stop offset="0" stop-color="#0e0e0e"/><stop offset="1"/></linearGradient><path d="M61.082 85l5.676-12.398h-.001l-13.353-1.506L53.393 85z" fill="url(#AU)"/><linearGradient id="AV" gradientUnits="userSpaceOnUse" x1="97.664" y1="95.857" x2="88.078" y2="79.128"><stop offset="0" stop-color="#0c0c0c"/><stop offset="1"/></linearGradient><path d="M93.159 85l-3.807-6.602.375 6.602z" fill="url(#AV)"/><linearGradient id="AW" gradientUnits="userSpaceOnUse" x1="95.509" y1="95.587" x2="71.759" y2="68.255"><stop offset="0" stop-color="#191919"/><stop offset="1" stop-color="#0c0c0c"/></linearGradient><path d="M89.727 85l-.375-6.602h0l-22.595-5.796L77.604 85z" fill="url(#AW)"/><linearGradient id="AX" gradientUnits="userSpaceOnUse" x1="103.279" y1="78.241" x2="126.369" y2="84.097"><stop offset="0" stop-color="#050605"/><stop offset="1"/></linearGradient><path d="M113.734 85l-6.68-12.744-4.5 12.744z" fill="url(#AX)"/><linearGradient id="AY" gradientUnits="userSpaceOnUse" x1="106.944" y1="90.583" x2="97.34" y2="73.821"><stop offset="0" stop-color="#181818"/><stop offset="1" stop-color="#050505"/></linearGradient><path d="M102.554 85l4.5-12.744h0l-17.702 6.142L93.159 85z" fill="url(#AY)"/><linearGradient id="AZ" gradientUnits="userSpaceOnUse" x1="117.52" y1="69.719" x2="106.623" y2="94.031"><stop offset="0" stop-color="#020302"/><stop offset="1"/></linearGradient><path d="M120 85V74.439l-12.946-2.183L113.734 85z" fill="url(#AZ)"/></svg>