<svg xmlns="http://www.w3.org/2000/svg" xmlns:xlink="http://www.w3.org/1999/xlink" width="500" height="500" fill="none" xmlns:v="https://vecta.io/nano"><style><![CDATA[.B{fill:#092b96}.C{fill:#379cf7}.D{fill:#1d88d8}.E{fill:#ffa683}.F{fill:#2b56e0}.G{fill:#fff65a}.H{fill:#abd0dd}.I{fill:#ef7f5e}.J{fill-rule:evenodd}]]></style><path d="M113.667 355.214h276.067c27.045 0 50.496-19.659 54.175-46.453.086-.629.162-1.262.228-1.898 1.202-11.637-1.174-23.147-10.628-32.011-30.254-28.363 11.975-64.919 5.673-90.131s-28.363-10.715-69.332-50.423-34.575-61.825-105.783-13.131c-57.146 39.078-125.637-4.412-159.673 12.606s.105 67.335-41.494 121.54c-26.244 34.196-6.581 65.132 11.511 83.31a57.89 57.89 0 0 0 20.868 13.417c5.873 2.184 12.122 3.174 18.388 3.174z" class="G"/><path opacity=".48" d="M439.181 184.721c-6.303-25.212-28.363-10.715-69.332-50.423-27.891-27.033-33.838-45.903-57.256-39.837 18.704 6.537 24.016 12.465 29.208 24.605 29.833 69.752-31.935 139.924 10.085 171.438 23.14 17.355-24.953 42.737-68.771 64.71h106.618c27.045 0 50.496-19.659 54.175-46.453.086-.629.162-1.262.228-1.898 1.202-11.637-1.174-23.147-10.628-32.011-30.254-28.362 11.976-64.919 5.673-90.131z" fill="#ade4f2"/><path d="M200.342 126.17l-51.841-11.199 19.271 37.546 12.703-10.052 5.045 8.72 1.625-15.726 13.197-9.289z" class="C"/><path d="M185.698 134.704l1.447.755-1.625 15.726-5.045-8.72-31.974-27.494 37.197 19.733z" class="B"/><path d="M174.794 146.956l10.727 4.231-5.048-8.724-5.679 4.493z" fill="#1574bc"/><path d="M189.052 152.984l-1.335-1.414.365-.316 1.308 1.386-.338.344zm136.266 79.11l-3.82-.328.053-.479 3.797.326-.03.481zm-7.62-.844l-3.77-.702.1-.472 3.747.699-.077.475zm-7.501-1.585l-3.685-1.059.143-.461 3.665 1.053-.123.467zm-7.317-2.289l-3.571-1.399.187-.445 3.551 1.39-.167.454zm-7.073-2.959l-3.427-1.721.226-.426 3.408 1.71-.207.437zm-6.772-3.596l-3.255-2.026.264-.403 3.236 2.014-.245.415zm-6.414-4.199l-3.054-2.317.3-.378 3.037 2.304-.283.391zm-5.998-4.775l-2.825-2.593.335-.348 2.808 2.578-.318.363zm-5.521-5.317l-2.564-2.852.366-.314 2.549 2.834-.351.332zm-4.987-5.826l-2.268-3.092.396-.275 2.255 3.072-.383.295zm-4.378-6.296l-.481-.782-1.461-2.526.422-.233 1.452 2.509.478.778-.41.254zm-3.694-6.723l-1.518-3.527.45-.174 1.503 3.495-.435.206zm-2.753-7.167l-.9-3.738.475-.089a39.14 39.14 0 0 0 .888 3.693l-.463.134zm2.766-6.995l-.019-.482c1.367-.052 2.622-.224 3.73-.51l.121.467c-1.142.294-2.432.471-3.832.525zm-3.85-.116c-1.314-.12-2.594-.321-3.807-.598l.107-.47a28.24 28.24 0 0 0 3.374.551l-.055-1.609c0-.748.038-1.481.112-2.178l.481.052c-.074.68-.11 1.395-.11 2.127l.058 1.649-.118.008-.042.468zm-7.49-1.747a19.96 19.96 0 0 1-3.428-1.783l.264-.403c1.021.667 2.146 1.253 3.345 1.74l-.181.446zm18.73-.224l-.27-.399.281-.197a7.73 7.73 0 0 0 2.191-2.52l.424.232c-.583 1.063-1.388 1.99-2.331 2.678l-.295.206zm-25.148-4.01c-.866-.877-1.69-1.881-2.449-2.985l.398-.273c.743 1.081 1.549 2.063 2.395 2.919l-.344.339zm14.966-1.925l-.45-.172c.489-1.275 1.164-2.396 2.008-3.33l.358.323c-.804.889-1.448 1.96-1.916 3.179zm13.271-.721c-.034-.813-.24-1.571-.614-2.252-.209-.38-.466-.728-.767-1.033l.345-.338a5.16 5.16 0 0 1 .844 1.14c.411.747.638 1.576.674 2.464l-.482.019zm-54.637-3.256l-.002-.482 3.807-.132.03.481-3.835.133zm-3.838-.115l-3.82-.416.073-.477 3.779.412-.032.481zm25.833-.287l-1.567-3.511.448-.177 1.549 3.469-.43.219zm-14.341-.062l-.052-.48 3.02-.37.766-.107.068.478-.769.107-3.033.372zm38.694-.74l-.156-.456c1.246-.429 2.622-.571 3.881-.394l-.068.478c-1.184-.167-2.482-.032-3.657.372zm-57.775-.096a34.99 34.99 0 0 1-3.668-1.164l.171-.451a34.17 34.17 0 0 0 3.617 1.148l-.12.467zm26.665-.287l-.096-.473 3.686-.922.14.462c-1.152.352-2.372.657-3.73.933zm7.336-2.297l-.203-.437c1.183-.549 2.284-1.183 3.27-1.883l.279.393c-1.011.718-2.136 1.366-3.346 1.927zm-41.18-.162c-1.155-.61-2.259-1.289-3.281-2.02l.281-.392a28.06 28.06 0 0 0 3.225 1.985l-.225.427zm37.747-3.485c-.43-1.363-.739-2.584-.946-3.734l.475-.086c.203 1.13.507 2.332.931 3.675l-.46.145zm9.647-.881l-.367-.314c.822-.96 1.519-2.014 2.069-3.132l.432.213c-.567 1.154-1.285 2.242-2.134 3.233zm-10.413-6.692l-.482-.017c.021-.581.076-1.157.164-1.712.111-.709.295-1.417.545-2.105l.453.165a10.91 10.91 0 0 0-.522 2.016c-.085.535-.138 1.092-.158 1.653zm13.774-.222l-.475-.084c.117-.663.177-1.326.177-1.97 0-.594-.051-1.182-.151-1.749l.475-.084c.106.594.159 1.211.159 1.833 0 .673-.063 1.364-.185 2.054zm-11.238-6.67l-.367-.313c.903-1.058 1.952-1.846 3.118-2.34l.188.444c-1.096.465-2.085 1.209-2.939 2.209zm9.425-.566c-.523-.762-1.137-1.328-1.823-1.682-.328-.169-.687-.296-1.067-.378l.102-.472c.421.091.82.232 1.186.421.758.39 1.431 1.008 2 1.837l-.398.274zm85.65 93.271a125.67 125.67 0 0 1-.615-.002l.004-.482 1.926-.009.009.482-1.324.011z" class="B"/><path d="M334.312 144.215l-2.099-1.019c11.583 7.596 15.619 22.918 8.926 35.328-6.696 12.416-21.716 17.46-34.426 11.954.644.426 1.311.821 2.004 1.195 13.104 7.067 29.456 2.174 36.526-10.936 7.067-13.103 2.173-29.455-10.931-36.522z" class="D"/><g class="C"><path d="M330.205 142.001c-13.105-7.068-29.458-2.174-36.526 10.931s-2.174 29.458 10.931 36.526 29.458 2.174 36.526-10.931 2.174-29.459-10.931-36.526zm-21.989 40.77c-9.412-5.076-12.927-16.821-7.851-26.233s16.821-12.927 26.233-7.851 12.927 16.821 7.851 26.233-16.821 12.927-26.233 7.851z"/><path d="M297.789 155.145c6.693-12.411 21.722-17.457 34.423-11.949-.644-.426-1.317-.824-2.01-1.198-13.104-7.067-29.456-2.173-36.523 10.93-7.07 13.109-2.177 29.461 10.927 36.529a26.44 26.44 0 0 0 2.105 1.022c-11.579-7.588-15.618-22.918-8.922-35.334z"/></g><path opacity=".05" d="M326.309 148.534c-9.497-4.916-21.181-1.203-26.096 8.294s-1.203 21.18 8.294 26.097 21.18 1.203 26.096-8.294 1.202-21.181-8.294-26.097z" fill="#fff"/><path d="M334.419 156.487l-36.3 10.859a19.16 19.16 0 0 1 2.045-10.415l26.81-8.023a19.18 19.18 0 0 1 7.445 7.579z" fill="url(#A)"/><path d="M334.603 174.631l-.293.531-25.859 7.734c-4.478-2.337-7.661-6.177-9.25-10.578l37.039-11.085a19.28 19.28 0 0 1-1.637 13.398z" fill="url(#B)"/><path d="M311.924 189.166l-8.562-4.617-27.98 51.882 8.561 4.617 27.981-51.882z" class="C"/><path d="M420.453 174.966v-5.085c0-1.107-.898-2.005-2.005-2.005h-2.588c-1.219 0-2.277-.797-2.663-1.953a20.48 20.48 0 0 0-1.109-2.677c-.547-1.092-.364-2.405.5-3.269l1.83-1.83c.783-.783.783-2.053 0-2.836l-3.596-3.596c-.783-.783-2.052-.783-2.835 0l-1.83 1.83c-.864.864-2.177 1.047-3.269.5-.859-.43-1.754-.801-2.677-1.109-1.157-.386-1.953-1.444-1.953-2.663v-2.588c0-1.107-.898-2.005-2.005-2.005h-5.085c-1.107 0-2.005.898-2.005 2.005v2.588c0 1.219-.796 2.277-1.953 2.663a20.48 20.48 0 0 0-2.677 1.109c-1.093.547-2.405.364-3.269-.5l-1.83-1.83c-.783-.783-2.052-.783-2.835 0l-3.596 3.596c-.783.783-.783 2.053 0 2.836l1.83 1.83c.864.864 1.047 2.176.5 3.269a20.48 20.48 0 0 0-1.109 2.677c-.386 1.157-1.444 1.953-2.663 1.953h-2.589c-1.107 0-2.005.898-2.005 2.005v5.085c0 1.107.898 2.005 2.005 2.005h2.589c1.219 0 2.277.796 2.663 1.953a20.48 20.48 0 0 0 1.109 2.677c.546 1.092.363 2.405-.5 3.269l-1.83 1.83c-.783.783-.783 2.053 0 2.835l3.596 3.596c.783.783 2.052.783 2.835 0l1.83-1.83c.864-.864 2.176-1.047 3.269-.5a20.48 20.48 0 0 0 2.677 1.109c1.157.385 1.953 1.444 1.953 2.663v2.588c0 1.107.898 2.005 2.005 2.005h5.085c1.107 0 2.005-.898 2.005-2.005v-2.588c0-1.219.797-2.277 1.953-2.663a20.48 20.48 0 0 0 2.677-1.109c1.093-.547 2.405-.363 3.269.5l1.83 1.83c.783.783 2.052.783 2.835 0l3.596-3.596c.783-.783.783-2.053 0-2.835l-1.83-1.83c-.864-.864-1.047-2.176-.5-3.269a20.48 20.48 0 0 0 1.109-2.677c.385-1.157 1.444-1.953 2.663-1.953h2.588c1.108 0 2.005-.898 2.005-2.005zm-26.742 3.597a6.14 6.14 0 0 1-6.139-6.139 6.14 6.14 0 0 1 6.139-6.139 6.14 6.14 0 0 1 6.139 6.139 6.14 6.14 0 0 1-6.139 6.139z" class="D"/><path d="M445.441 206.587v-2.878c0-.627-.508-1.135-1.135-1.135h-1.465c-.69 0-1.289-.451-1.507-1.106a11.5 11.5 0 0 0-.628-1.515c-.309-.618-.206-1.361.283-1.85l1.036-1.036c.443-.443.443-1.161 0-1.605l-2.035-2.035c-.443-.443-1.161-.443-1.605 0l-1.036 1.036c-.489.489-1.232.592-1.85.283a11.52 11.52 0 0 0-1.515-.628c-.655-.218-1.105-.817-1.105-1.507v-1.465c0-.627-.508-1.135-1.135-1.135h-2.878c-.627 0-1.135.508-1.135 1.135v1.465c0 .69-.451 1.289-1.105 1.507a11.5 11.5 0 0 0-1.515.628c-.618.309-1.361.206-1.85-.283l-1.036-1.036c-.443-.443-1.162-.443-1.605 0l-2.035 2.035c-.443.443-.443 1.161 0 1.605l1.036 1.036c.489.489.592 1.232.283 1.85a11.52 11.52 0 0 0-.628 1.515c-.218.655-.817 1.105-1.507 1.105h-1.465c-.627 0-1.135.508-1.135 1.135v2.878c0 .627.508 1.134 1.135 1.134h1.465c.69 0 1.289.451 1.507 1.105a11.5 11.5 0 0 0 .628 1.515c.309.618.206 1.361-.283 1.85l-1.036 1.036c-.443.443-.443 1.161 0 1.605l2.035 2.035c.443.443 1.162.443 1.605 0l1.036-1.036c.489-.489 1.232-.592 1.85-.283a11.72 11.72 0 0 0 1.515.628c.655.218 1.105.817 1.105 1.507v1.465c0 .627.508 1.135 1.135 1.135h2.878c.627 0 1.135-.508 1.135-1.135v-1.465c0-.69.451-1.289 1.105-1.507a11.5 11.5 0 0 0 1.515-.628c.618-.309 1.361-.206 1.85.283l1.036 1.036c.443.443 1.161.443 1.605 0l2.035-2.035c.443-.443.443-1.162 0-1.605l-1.036-1.036c-.489-.489-.592-1.232-.283-1.85a11.66 11.66 0 0 0 .628-1.515c.218-.655.817-1.105 1.507-1.105h1.465c.627.001 1.135-.506 1.135-1.133zm-15.134 4.602a6.04 6.04 0 0 1 0-12.08 6.04 6.04 0 0 1 0 12.08z" class="C"/><path d="M455.634 173.879v-2.878c0-.627-.508-1.135-1.135-1.135h-1.465c-.69 0-1.289-.451-1.507-1.105a11.5 11.5 0 0 0-.628-1.515c-.309-.618-.206-1.361.283-1.85l1.036-1.036c.443-.443.443-1.161 0-1.605l-2.035-2.035c-.443-.443-1.161-.443-1.605 0l-1.036 1.036c-.489.489-1.232.592-1.85.283a11.72 11.72 0 0 0-1.515-.628c-.655-.218-1.105-.817-1.105-1.507v-1.465c0-.627-.508-1.135-1.135-1.135h-2.878c-.627 0-1.135.508-1.135 1.135v1.465c0 .69-.451 1.289-1.105 1.507-.523.174-1.028.384-1.515.628-.618.309-1.361.206-1.85-.283l-1.036-1.036c-.443-.443-1.161-.443-1.604 0l-2.035 2.035c-.443.443-.443 1.161 0 1.605l1.036 1.036c.489.489.592 1.232.283 1.85a11.52 11.52 0 0 0-.628 1.515c-.218.655-.817 1.105-1.507 1.105h-1.465c-.627 0-1.134.508-1.134 1.135v2.878c0 .627.508 1.135 1.134 1.135h1.465c.69 0 1.289.451 1.507 1.105a11.5 11.5 0 0 0 .628 1.515c.309.618.206 1.361-.283 1.85l-1.036 1.036c-.443.443-.443 1.162 0 1.605l2.035 2.035c.443.443 1.161.443 1.604 0l1.036-1.036c.489-.489 1.232-.592 1.85-.283a11.58 11.58 0 0 0 1.515.628c.655.218 1.105.817 1.105 1.507v1.465c0 .627.508 1.135 1.135 1.135h2.878c.627 0 1.135-.508 1.135-1.135v-1.465c0-.69.451-1.289 1.105-1.507a11.5 11.5 0 0 0 1.515-.628c.618-.309 1.361-.206 1.85.283l1.036 1.036c.443.443 1.161.443 1.605 0l2.035-2.035c.443-.443.443-1.162 0-1.605l-1.036-1.036c-.489-.489-.592-1.232-.283-1.85a11.72 11.72 0 0 0 .628-1.515c.218-.655.817-1.105 1.507-1.105h1.465c.627 0 1.135-.508 1.135-1.135zm-15.134 1.602a3.04 3.04 0 1 1 0-6.082 3.04 3.04 0 1 1 0 6.082z" class="F"/><path d="M125.507 265.385s-28.957-37.78-90.214-33.89c0 0 32.464 38.829 90.214 33.89z" class="D"/><g fill="#7dc4f9"><path d="M107.822 239.683s6.267-47.187-39.774-87.779c0 0-4.531 50.409 39.774 87.779z"/><path d="M103.336 245.783s40.796-22.066 46.453-81.605c0 0-42.343 25.278-46.453 81.605z"/></g><path d="M112.603 242.436s-33.98-20.854-21.586-31.425c9.283-7.918-9.017-18.082-2.054-22.009s8.41-.324 5.956-10.448 5.725-12.872 8.673-23.177 17.506-6.516 16.442 8.453 3.32-.893 8.142 5.409-11.181 30.563-5.096 28.495 10.767 2.561 8.664 9.867c-4.916 17.075-19.141 34.835-19.141 34.835z" class="D"/><path opacity=".39" d="M113.779 249.932c-.06-.03-.096-.079-.11-.152-2.282-11.554-5.044-26.796-6.157-42.245l-.009-.121-.092-.079c-3.51-3.003-6.576-6.557-9.542-9.994l-2.951-3.384c-.057-.064-.062-.113-.016-.172.064-.084.202-.138.306-.087.026.013.05.032.073.057l2.888 3.311c2.738 3.172 5.57 6.451 8.76 9.296l.531.473-.047-.71c-.427-6.515-.573-13.169-.445-20.346l.003-.19-.174-.08c-.037-.019-.056-.035-.073-.06a77.45 77.45 0 0 1-6.965-13.043c-.034-.08-.023-.139.033-.192.071-.066.19-.09.265-.053.037.018.065.051.086.102 1.736 4.169 3.863 8.216 6.319 12.029l.514.797.022-.948c.159-6.781.552-13.789 1.201-21.422.008-.091.047-.113.062-.121.056-.031.146-.028.22.009.087.043.127.114.119.211-.887 10.433-1.3 19.866-1.263 28.834l.002.566.459-.331a48.53 48.53 0 0 0 12.85-13.736c.039-.063.078-.092.158-.051a.3.3 0 0 1 .149.18c.018.064.008.125-.029.186-3.491 5.595-8.007 10.355-13.425 14.15l-.151.092.001.165c.045 5.036.222 9.701.541 14.259l.006.081.047.066a.17.17 0 0 1 .008.188l-.037.073.006.081c.292 4.026.717 8.251 1.3 12.918l.095.764.434-.637c4.089-5.997 8.546-11.806 13.247-17.265.068-.079.15-.095.244-.048.068.034.122.097.134.156.006.027.007.072-.047.134-4.956 5.756-9.624 11.87-13.873 18.175l-.061.091.014.109c1.064 8.169 2.55 16.988 4.676 27.755.019.098-.019.127-.037.141-.069.053-.186.06-.269.018z" class="B"/><path d="M117.194 243.751s-39.071 15.014-39.972-2.065c-.675-12.792-20.828-4.025-19.657-12.335s5.098-7.217-4.908-11.633-7.076-12.987-13.784-22.022 5.742-18.751 17.54-8.31 1.375-3.337 9.705-3.335 18.339 28.826 20.499 22.434 9.007-7.34 13.755-.924c11.097 14.996 16.822 38.19 16.822 38.19z" class="C"/><path opacity=".39" d="M124.193 247.555c-.063.031-.127.029-.196-.005-11.087-5.472-25.555-12.898-39.142-21.831l-.107-.07-.125.026c-4.743 1.009-9.663 1.297-14.421 1.575l-4.704.3c-.09.007-.133-.02-.154-.096-.029-.107.014-.257.123-.311a.27.27 0 0 1 .094-.024l4.603-.294c4.391-.258 8.932-.525 13.34-1.368l.733-.141-.621-.414c-5.703-3.803-11.343-7.928-17.243-12.615l-.156-.124-.177.094c-.039.019-.064.024-.097.022-5.169-.349-10.323-1.196-15.317-2.519-.088-.023-.131-.069-.139-.15-.01-.102.046-.216.125-.254.039-.019.084-.022.14-.007 4.583 1.214 9.314 2.025 14.06 2.411l.992.08-.776-.623c-5.551-4.461-11.141-9.261-17.09-14.673-.071-.064-.064-.111-.061-.129.009-.066.07-.14.148-.178.091-.045.176-.033.251.036 8.131 7.399 15.729 13.763 23.229 19.457l.473.359.017-.594a50.95 50.95 0 0 0-3.248-19.477c-.027-.073-.027-.123.058-.165a.32.32 0 0 1 .245-.009c.065.026.11.073.136.143 2.436 6.481 3.521 13.284 3.226 20.221l-.02.185.139.104c4.226 3.177 8.227 6.007 12.231 8.649l.071.047.085.004c.074.003.128.041.162.113l.037.078.071.047c3.542 2.326 7.335 4.669 11.597 7.161l.698.408-.254-.768c-2.389-7.236-4.387-14.659-5.937-22.061-.022-.107.016-.186.116-.234.072-.035.158-.04.216-.012.026.013.064.04.082.124 1.634 7.805 3.752 15.599 6.295 23.164l.036.109.1.058c7.489 4.327 15.788 8.717 26.12 13.817.094.046.094.098.094.122a.29.29 0 0 1-.158.232z" class="B"/><path d="M400.637 209.137H94.707a5.21 5.21 0 0 0-5.211 5.211l-.63 149.178a5.21 5.21 0 0 0 5.211 5.211l306.56-2.521a5.21 5.21 0 0 0 5.211-5.211V214.348a5.21 5.21 0 0 0-5.211-5.211z" fill="#fff"/><g class="G"><path d="M365.914 251.277H124.142c-2.403 0-4.352 1.948-4.352 4.352v22.546c0 2.403 1.948 4.352 4.352 4.352h241.772c2.403 0 4.352-1.948 4.352-4.352v-22.546a4.35 4.35 0 0 0-4.352-4.352z" fill-opacity=".3"/><path d="M178.989 251.277h-54.847c-2.403 0-4.352 1.948-4.352 4.352v22.546c0 2.403 1.948 4.352 4.352 4.352h54.847c2.444 0 4.425-1.981 4.425-4.425v-22.399c0-2.445-1.981-4.426-4.425-4.426zm-20.175 47.543h-30.971c-2.813 0-5.093 2.28-5.093 5.093v30.971c0 2.813 2.28 5.093 5.093 5.093h30.971c2.813 0 5.092-2.28 5.092-5.093v-30.971c0-2.813-2.28-5.093-5.092-5.093z"/></g><path d="M240.505 298.82h-30.971c-2.813 0-5.093 2.28-5.093 5.093v30.971c0 2.813 2.28 5.093 5.093 5.093h30.971c2.813 0 5.092-2.28 5.092-5.093v-30.971c.001-2.813-2.279-5.093-5.092-5.093z" class="D"/><g class="H"><use xlink:href="#C"/><use xlink:href="#D"/><use xlink:href="#E"/><use xlink:href="#C" y="19.927"/><use xlink:href="#D" y="19.927"/><use xlink:href="#F"/><use xlink:href="#C" x="83.286"/><use xlink:href="#D" x="83.286"/><use xlink:href="#E" x="83.286"/><use xlink:href="#C" x="83.286" y="19.927"/><use xlink:href="#D" x="83.286" y="19.927"/><use xlink:href="#F" x="83.286"/></g><path d="M324.5 298.82h-30.971c-2.813 0-5.093 2.28-5.093 5.093v30.971c0 2.813 2.28 5.093 5.093 5.093H324.5c2.813 0 5.092-2.28 5.092-5.093v-30.971c0-2.813-2.279-5.093-5.092-5.093z" class="B"/><g class="H"><use xlink:href="#C" x="167.281"/><use xlink:href="#D" x="167.281"/><use xlink:href="#E" x="167.281"/><use xlink:href="#C" x="167.281" y="19.927"/><use xlink:href="#D" x="167.281" y="19.927"/><use xlink:href="#F" x="167.281"/></g><g class="C"><g class="J"><use xlink:href="#G"/><use xlink:href="#G" y="3.793"/><use xlink:href="#G" y="7.522"/></g><use xlink:href="#H"/></g><use xlink:href="#H" x="19.145" class="B"/><use xlink:href="#H" x="38.713" class="D"/><path d="M235.64 323.489l-9.048-12.876c-.985-1.402-3.063-1.402-4.048 0l-9.048 12.876c-1.152 1.639.021 3.896 2.024 3.896h18.097c2.003-.001 3.175-2.257 2.023-3.896zm73.15 8.089a10.64 10.64 0 0 0 10.636-10.636 10.64 10.64 0 0 0-10.636-10.636 10.64 10.64 0 0 0-10.636 10.636 10.64 10.64 0 0 0 10.636 10.636zm155.917 40.654c0-5.57-92.981-10.085-207.679-10.085s-207.679 4.515-207.679 10.085 92.981 10.085 207.679 10.085 207.679-4.516 207.679-10.085z" class="G"/><g class="J"><path d="M230.266 181.988c-.351-2.4-1.647-7.657-6.143-5.831-8.772-3.395-12.687.89-13.31 6.588-.783 7.155-4.799 10.015-3.311 12.066 1.862 2.567 7.611 6.316 13.55 6.453 6.201.125 11.642-4.891 13.276-7.609 1.305-2.171-3.02-4.543-4.062-11.667z" class="B"/><path d="M260.004 217.636c-3.14-5.718-15.477-18.685-16.856-19.154-3.857-1.312-9.978-1.902-13.598-2.21-2.358-.394-8.988-.315-8.988-.315l-2.625.042c-3.397-.001-12.855.421-19.539 2.694-1.378.469-14.138 13.225-17.278 18.944-.739 1.346-.797 2.982-.155 4.381l13.452 26.947 6.701-1.426-5.307-23.254c-.382-1.792.195-3.659 1.509-4.882l8.536-10.055h12.081 17.228l8.639 10.055c1.314 1.223 1.891 3.09 1.509 4.882l-5.307 23.254 6.819.96 13.334-26.481c.642-1.4.584-3.036-.155-4.382z" class="C"/><g class="E"><path d="M200.484 247.665l2.912 2.514c.394.332.195.995-.311 1.034l-1.233.095.807 2.166c.841 2.256-3.858 5.712-5.797 1.247l-1.984-5.862 5.606-1.194zm40.265-.025l-3.012 2.539c-.394.332-.195.995.311 1.034l1.234.095-.807 2.166c-.841 2.256 3.858 5.712 5.797 1.247l2.081-6.314-5.604-.767zm-12.544-62.524l.111 5.437c.041 2.02-.749 3.964-2.188 5.378l-.715.688a6.6 6.6 0 0 1-9.038.185l-.733-.659a7.28 7.28 0 0 1-2.414-5.268l-.111-5.452s7.661-.075 10.585-3.71c0 0 1.48 2.815 4.503 3.401z"/><path d="M228.205 185.116l.111 5.437c.041 2.02-.749 3.964-2.188 5.378l-.715.688a6.6 6.6 0 0 1-9.038.185l-.733-.659a7.28 7.28 0 0 1-2.414-5.268l-.111-5.452s7.593-.069 10.518-3.704c0 0 1.547 2.809 4.57 3.395z"/><path d="M215.123 191.902c1.413-2.37-1.101-4.784-3.412-3.276-.18.118-.336.28-.446.464-1.418 2.372 1.102 4.79 3.413 3.276a1.45 1.45 0 0 0 .445-.464zm15.024-.306c1.382-2.315-.985-4.672-3.248-3.377-.299.171-.546.429-.705.735-1.202 2.314 1.251 4.582 3.507 3.107.181-.118.336-.28.446-.465zm-5.044 5.572c0-2.379-1.913-4.307-4.273-4.307s-4.274 1.928-4.274 4.307 1.913 4.808 4.274 4.808 4.273-2.43 4.273-4.808z"/></g><path d="M216.576 196.968c-.003.068-.02.131-.02.2 0 .173 2.215 2.393 4.39 2.387 2.097-.005 4.157-2.23 4.157-2.387 0-.085-.02-.164-.025-.247-2.432 2.078-6.033 2.109-8.502.047z" class="I"/></g><path d="M201.118 247.538l-5.307-23.254c-.382-1.792.195-3.659 1.509-4.882l8.536-10.055s1.891-3.249.945-2.828-13.551 11.293-14.707 13.919c-.881 2.003 4.102 19.46 6.517 27.634l2.507-.534zm42.03-49.055l-.702-.223c2.444 2.872 17.258 20.51 15.619 24.174-1.478 3.305-10.727 20.063-13.57 25.736l2.33.328 13.334-26.481c.642-1.399.584-3.035-.155-4.381-3.14-5.718-15.477-18.684-16.856-19.153z" class="D"/><path d="M119.73 329.376l.765 2.145 11.34-1.156s12.496 15.928 17.681 21.355a32.68 32.68 0 0 1 1.772 2.005c3.301-8.001 9.987-33.208 3.189-35.212-10.044-2.966-34.747 10.863-34.747 10.863z" class="B"/><path d="M142.456 343.57c2.686 3.236 5.297 6.304 7.059 8.15a32.68 32.68 0 0 1 1.772 2.005c2.061-4.98 5.427-16.627 6.033-25.197-2.265.326-9.912 9.101-14.864 15.042z" fill="#052575"/><path d="M131.837 330.364s12.495 15.927 17.682 21.361 17.043 21.489-14.82 20.254-46.334-6.129-46.334-6.129l-.659-6.916 33.344-3.54s-20.83-2.429-18.278-22.065l29.065-2.965z" fill="#173acc"/><path d="M132.433 332.825l.568-.986c3.219 4.071 12.293 15.458 16.518 19.885 2.04 2.137 5.11 5.917 6.148 9.642-2.439-5.666-9.936-10.967-16.324-17.196-8.251-8.044-6.91-11.345-6.91-11.345z" class="F"/><path d="M81.944 360.374l-.287.019c-1.142.086-4.292.259-4.931 1.679-.741 1.646-.998 9.828 4.353 10.075s-.988-4.024.834-5.784l.031-5.989zm5.763-1.441l33.344-3.54s3.623 1.564 14.82 6.01l17.784 7.245c-2.844 2.3-8.581 3.732-18.955 3.33-31.862-1.235-46.334-6.129-46.334-6.129l-.659-6.916z" class="B"/><path d="M88.366 365.849s-4.034-1.688-6.175.576c-3.085 3.263-.247-6.051-.247-6.051l5.763-1.441.659 6.916z" class="E"/><path d="M163.646 277.391l-9.698-7.985a.93.93 0 0 1-.238-1.124c1.708-3.482.735-7.849-2.667-10.209-3.123-2.161-7.431-1.821-10.167.805-.543.52-.992 1.094-1.357 1.699-2.019 3.362-1.337 7.787 1.764 10.37 2.924 2.435 7.053 2.449 9.976.28.092-.068.195-.116.302-.148.289-.083.607-.021.846.178l9.698 7.985a1.18 1.18 0 0 0 .88.27 1.19 1.19 0 0 0 .813-.428 1.2 1.2 0 0 0-.152-1.693zm-12.641-8.869a5.92 5.92 0 0 1-9.099-7.577 5.92 5.92 0 0 1 9.099 7.577z" fill="#0d1f2b"/><path d="M150.244 260.185a5.92 5.92 0 0 0-7.577 9.099 5.92 5.92 0 0 0 7.577-9.099z" class="G"/><path d="M158.462 272.61c-.861-.117-1.817.556-2.657 1.401-.245-.817-.676-2.034-1.122-2.217-.679-.278-1.482 5.341-1.482 5.341l.479-.406-.118.189 4.721 2.448c3.012-4.154 2.324-6.463.179-6.756z" class="E"/><path d="M102.786 315.286c.942-9.708 2.341-20.087 4.15-22.875.914-1.408 1.734-2.387 2.742-3.04-.009-.009-8.794 5.586-12.421 14.231-1.754 4.196 1.603 8.429 5.529 11.684z" class="C"/><path d="M126.712 288.987l-.305-3.822c1.214-.195 2.349-.74 3.245-1.668 2.375-2.473 2.336-7.132.201-9.773-1.979.597-4.497.188-4.588 1.272l-.312 3.096c-1.635-1.032-3.362-.883-3.135 1.311.091.876.714 2.278 1.356 2.388 0 0 .493 3.725-3.18 5.172l-.013 1.318 6.731.706z" class="E"/><path d="M113.612 276.122c1.612-6.634 4.211-10.376 11.288-10.55 6.453-.158 7.308 5.21 7.308 5.21-.202 4.645-6.798 2.449-6.946 4.211-.145 1.722-.31 3.096-.31 3.096-1.636-1.03-3.358-.882-3.134 1.311.09.881.716 2.279 1.36 2.392 0 0 .492 3.723-3.183 5.17 0 0-7.989-4.227-6.383-10.84z" class="B"/><path d="M113.612 276.122c1.612-6.634 4.211-10.376 11.288-10.55 4.282-.105 6.098 2.223 6.836 3.802-3.146-2.977-10.03-4.78-14.347 2.146-3.734 5.991-1.38 13.234 5.531 12.439-.357 1.082-1.156 2.305-2.926 3.002 0 0-7.988-4.226-6.382-10.839z" fill="#09256b"/><path d="M124.944 286.382c-.608-.376-1.302-2.315-1.302-2.315.724.839 2.769 1.099 2.769 1.099l.299 3.821-1.51-.16c.041-1.195.003-2.284-.256-2.445z" class="I"/><path d="M101.337 334.166s1.972-36.159 5.594-41.757c1.513-2.339 2.778-3.486 5.063-3.952 1.424-.29 6.564-.454 8.011-.317 3.15.298 11.037 1.344 12.943 2.118 2.635 1.07 13.099 10.182 13.099 10.182l7.031-24.045 5.804 2.161s-5.66 35.053-10.189 35.135-16.117-6.381-16.117-6.381-.868 22.048 3.413 26.082c.002.001-18.098 8.355-34.652.774z" class="C"/><path d="M106.967 291.37l2.702-2.009c-.998.662-1.819 1.641-2.733 3.049-1.809 2.788-3.208 13.167-4.15 22.875-.963-.798-1.89-1.655-2.717-2.556.427-5.775 1.892-15.977 6.898-21.359z" fill="#147ac6"/><path d="M126.09 304.617c-.619-1.238 6.488 2.693 6.488 2.693s-.868 22.048 3.413 26.082c0 0-1.265.581-3.417 1.296-2.468-7.373-1.907-17.327-2.359-20.789-.618-4.744-3.506-8.044-4.125-9.282z" fill="#63b8f7"/><path d="M366.802 367.775l-.071 1.122c-.136 1.249-1.447 1.936-1.749 2.078.167.015.318.047.445.103 2.154.937 3.387 1.178 5.48.285.163-.069.333-.071.482-.022l-.447-3.567h-4.14v.001z" class="E"/><path d="M371.858 374.596c.046-.889.026-1.888-.003-2.641-.018-.472-.505-.78-.939-.595-2.099.897-3.333.658-5.49-.282-1.656-.721-7.019 2.272-8.337 3.146l-.021.014c-.681.458-.338 1.528.483 1.528h13.073c.658.001 1.2-.513 1.234-1.17z" class="F"/><path d="M388.448 366.97l-.071 1.122c-.136 1.249-1.447 1.936-1.749 2.078.167.015.318.047.445.103 2.154.937 3.386 1.178 5.48.285.163-.069.333-.071.482-.022l-.447-3.567h-4.14v.001z" class="E"/><path d="M393.504 373.792a31.32 31.32 0 0 0-.003-2.641c-.018-.472-.505-.78-.939-.595-2.099.897-3.333.658-5.49-.282-1.656-.722-7.019 2.272-8.337 3.146l-.021.014c-.681.458-.338 1.528.483 1.528h13.073c.657 0 1.2-.514 1.234-1.17z" class="F"/><path d="M389.455 291.583c.02 1.834 1.303 6.813 1.303 12.382 0 10.688-5.44 25.032-5.44 25.032l9.075 38.571-7.679.233-17.012-37.736 1.233-40.374 18.52 1.892z" class="B"/><path d="M383.346 289.416s-1.212 12.569-3.767 21.831c-2.135 7.741-17.617 19.486-17.617 19.486l10.054 37.547h-6.276l-22.463-36.48c-.562-1.563-.475-3.286.241-4.784l21.443-40.921 18.385 3.321z" class="F"/><path d="M330.358 282.663l-8.057.011s.403 4.823 8.782 4.823l-.725-4.834zm43.326-40.906c.06-.403.195-1.491.133-2.113-.246-2.49-1.737-2.931-3.457-1.39 0 0-1.56-.97-2.414-2.902-.507-1.147-2.654-.268-4.327-.599-1.448 3.519-.12 8.361 2.93 10.617 1.24.917 2.394 1.029 3.861 1.021l.412 6.22 7.55-2.013-.112-3.66c-2.894.086-4.993-2.4-4.576-5.181z" class="E"/><path opacity=".4" d="M367.818 368.279c-1.592-2.698-21.305-36.296-18.402-40.395 3.025-4.271 16.549-30.785 16.549-30.785l-3.203-4.093-2.502 2.059-16.742 31.95a6.21 6.21 0 0 0-.241 4.784l22.463 36.48h2.078z" class="B"/><g class="C"><path d="M365.205 259.225c.405-7.681 12.354-8.284 13.64-8.304 1.711-.025 3.312.893 4.407 2.105 1.921 2.127 5.554 6.784 4.388 13.348-2.989 16.827 3.203 27.56 3.995 32.843-11.111 4.496-34.641-1.082-34.641-1.082l7.178-27.348 1.033-11.562z"/><path d="M356.29 277.569s7.315-26.529 16.638-25.002c10.321 1.691-6.673 34.611-6.673 34.611l-35.234.712-.712-5.605 25.981-4.716z"/></g><path d="M371.567 286.289c-1.73 5.221-7.474 4.803-7.474 4.803l-3.202 7.852-3.894-.805 2.84-10.828 6.42-.129s11.818-22.912 9.75-31.488c.371.741 3.179 7.627-4.44 30.595z" fill="#147ac6"/><path d="M381.536 268.627c-11.919-.613-7.896-23.823-7.761-28.317.076-2.497-1.698-3.596-3.419-2.06 0 0-1.553-.965-2.413-2.896-.507-1.15-3.173-.275-4.847-.605 3.403-13.724 19.505-13.081 26.626 5.494 6.139 16.017 10.855 29.363-8.186 28.384z" class="B"/><path d="M371.438 247.651c.3-.3 1.568-2.803 1.568-2.803-.634.609-1.805 1.183-2.329 1.423l-.266.118.412 6.22.846-.226c-.192-1.884-.424-4.539-.231-4.732z" class="I"/><path d="M362.94 265.78c1.557-7.318 6.383-11.945 7.566-12.988-8.138 2.742-14.217 24.777-14.217 24.777l-25.981 4.716 29.073-1.735s1.78-6.406 3.559-14.77z" fill="#63b8f7"/><path d="M376.109 228.766c8.663 3.889 13.633 17.969 11.255 39.614 12.058-2.001 7.765-14.031 2.358-28.136-7.12-18.575-23.223-19.219-26.626-5.494 0 0 4.293-9.898 13.013-5.984z" fill="#052575"/><path d="M450.851 295.631c-.565 3.059-10.614 20.777-16.824 32.632-4.86 9.277-3.822 18.092-3.141 21.491h1.191c-.714-4.098-1.003-3.471.026-9.863 1.129-7.011 12.086-11.884 18.973-25.395s.34-21.924-.225-18.865zm-23.101 46.852l.754 7.271h.604c.204-5.7.552-15.546.319-22.125-.344-9.688 2.324-13.681 3.825-30.018s-2.727-39.46-2.727-39.46-10.152 20.75-6.613 43.845 2.3 25.669 3.838 40.487zm-2.866-3.256c.072 3.656.694 8.135 1.066 10.527h.643c-.108-1.695-.234-4.802-.36-10.322-.39-16.73-2.099-16.536-4.997-27.734-2.893-11.19-7.555-15.839-12.395-21.469 0 0-4.993 8.044 2.056 19.994s9.838 12.776 11.504 18.66c1.659 5.884 2.373 5.092 2.483 10.344zm-1.649 10.527h.702c.345-2.287.372-5.708-1.513-8.899-3.213-5.441-5.717-12.619-10.672-17.36-6.771-6.477-11.475-22.671-11.475-22.671s-3.557 14.38 3.328 25.781 12.646 13.555 15.721 15.416c3.286 1.988 3.931 5.328 3.909 7.733z" class="C"/><path d="M428.543 349.754h.114l.53-2.218c.201-5.8.446-14.119.241-19.908-.344-9.688 2.324-13.681 3.825-30.018s-2.727-39.46-2.727-39.46-3.864 32.223-2.796 46.998c.987 13.67.84 40.648.813 44.606zm22.692-54.718c.098 4.346-.247 19.133-8.953 26.998-10.086 9.112-13.305 19.171-10.296 27.721h.092c-.714-4.098-1.003-3.471.026-9.863 1.129-7.011 12.086-11.884 18.973-25.395 6.125-12.018 1.626-19.993.158-19.461zm-24.98 54.718h.337c-.108-1.694-.234-4.799-.36-10.322-.39-16.73-2.099-16.536-4.997-27.734-2.893-11.19-7.555-15.839-12.395-21.469 0 0-.203 11.119 7.007 21.814s9.212 18.574 9.412 21.529l.996 16.182zm-2.871 0h.553c.345-2.287.372-5.708-1.513-8.899-3.213-5.441-5.717-12.619-10.672-17.36-6.771-6.477-11.475-22.671-11.475-22.671s.216 18.325 5.557 23.673 5.207 3.799 9.346 9.076 5.407 6.754 7.009 9.991c1.025 2.07 1.201 4.615 1.195 6.19z" class="D"/><path d="M436.533 346.803h-18.717c-1.909 0-3.347 1.738-2.989 3.613l3.667 19.191c.274 1.434 1.528 2.472 2.988 2.472h11.383a3.04 3.04 0 0 0 2.988-2.472l3.667-19.191c.359-1.874-1.078-3.613-2.987-3.613z" fill="#d8e8ef"/><g class="H"><path d="M439.485 349.114c-.325-1.305-1.501-2.31-2.952-2.31h-18.717c-1.451 0-2.628 1.005-2.952 2.31h24.621z"/><path d="M436.533 346.803h-4.15c1.909 0 3.347 1.738 2.988 3.613l-3.667 19.191c-.274 1.434-1.528 2.472-2.988 2.472h4.151a3.04 3.04 0 0 0 2.988-2.472l3.667-19.191c.357-1.874-1.08-3.613-2.989-3.613z"/></g><defs><linearGradient id="A" x1="282.64" y1="165.872" x2="343.439" y2="150.125" gradientUnits="userSpaceOnUse"><stop stop-color="#fff"/><stop offset="1" stop-color="#fff" stop-opacity="0"/></linearGradient><linearGradient id="B" x1="286.639" y1="181.312" x2="347.438" y2="165.565" gradientUnits="userSpaceOnUse"><stop stop-color="#fff"/><stop offset="1" stop-color="#fff" stop-opacity="0"/></linearGradient><path id="C" d="M169.243 303.249c-.354 0-.643-.288-.643-.642s.288-.643.643-.643h27.325c.354 0 .643.289.643.643s-.288.642-.643.642h-27.325z"/><path id="D" d="M169.243 309.892c-.354 0-.643-.289-.643-.643s.288-.642.643-.642h27.325c.354 0 .643.288.643.642s-.288.643-.643.643h-27.325z"/><path id="E" d="M169.243 316.534c-.354 0-.643-.288-.643-.642s.288-.642.643-.642h27.325c.354 0 .643.288.643.642s-.288.642-.643.642h-27.325z"/><path id="F" d="M169.243 336.461c-.354 0-.643-.288-.643-.642s.288-.642.643-.642h11.687c.354 0 .643.288.643.642s-.288.642-.643.642h-11.687z"/><path id="G" d="M398.743 217.359h-8.052a.8.8 0 0 0-.798.798.8.8 0 0 0 .798.798h8.052a.8.8 0 0 0 .798-.798.8.8 0 0 0-.798-.798z"/><path id="H" d="M108.54 221.468c0 1.957-1.587 3.544-3.544 3.544s-3.544-1.587-3.544-3.544 1.587-3.544 3.544-3.544 3.544 1.587 3.544 3.544z"/></defs></svg>