<svg xmlns="http://www.w3.org/2000/svg" xmlns:xlink="http://www.w3.org/1999/xlink" width="800" height="800" fill="none" xmlns:v="https://vecta.io/nano"><style><![CDATA[.B{stroke-miterlimit:10}.C{stroke-linejoin:round}.D{fill:#3a5c7f}.E{fill:#ff577e}.F{fill:#fff}.G{stroke:#e3e3e3}.H{stroke:#ff577e}.I{stroke:#fff}.J{fill:#57a8dd}.K{stroke:#57a8dd}.L{stroke-width:3}.M{stroke-linecap:round}.N{fill:#e3e3e3}.O{fill:#fff65a}.P{stroke:#fff65a}.Q{fill:#0d1f2b}]]></style><g class="B C"><path d="M553.183 375.375l-.038-1.22c-.991-39.204-17.115-75.903-45.404-103.336-28.338-27.481-65.771-42.616-105.404-42.616-39.149 0-76.255 14.812-104.482 41.707-28.145 26.817-44.574 62.848-46.263 101.455-.079 1.802-.168 4.181-.168 6.6 0 26.952 7.291 53.344 21.096 76.402l-26.472 78.092a2.32 2.32 0 0 0 .54 2.366c.442.451 1.041.694 1.654.694a2.32 2.32 0 0 0 .701-.109l81.328-25.843c22.003 11.878 46.9 18.153 72.067 18.153 40.307 0 78.201-15.574 106.701-43.854s44.203-65.894 44.203-105.9c0-.883-.03-1.751-.059-2.591z" class="O P"/><path d="M278.654 641.859h69.534c3.847 0 6.965 3.118 6.965 6.965v49.451c0 3.729-2.938 6.747-6.621 6.93l.933 16.518s-13.604-16.484-19.049-16.484h-51.762c-3.847 0-6.965-3.118-6.965-6.965v-49.451c0-3.845 3.118-6.964 6.965-6.964z" class="J K"/><g class="G L"><g class="M"><path d="M619.022 260.723v52.195"/><path d="M645.512 286.407H592.531"/></g><use xlink:href="#B"/><use xlink:href="#B"/><path d="M634.39 286.412c0 14.602-7.021 26.439-15.681 26.439s-15.681-11.837-15.681-26.439 7.021-26.439 15.681-26.439 15.681 11.837 15.681 26.439z"/><path d="M597.886 270.528s10.041 6.078 21.135 6.078 20.969-6.296 20.969-6.296m0 32.016s-10.041-6.078-21.135-6.078-20.969 6.295-20.969 6.295" class="M"/></g><path d="M380.909 587.651a13.91 13.91 0 0 0-19.669 0l-1.124 1.124-1.124-1.124a13.91 13.91 0 0 0-19.67 19.67l1.124 1.124 19.67 19.67 19.669-19.67 1.124-1.124a13.91 13.91 0 0 0 0-19.67z" class="E H"/></g><path d="M202.675 321.229a11.57 11.57 0 0 0-16.359 0l-.935.935-.935-.935a11.57 11.57 0 0 0-16.359 16.359l.935.935 16.359 16.359 16.359-16.359.935-.935a11.57 11.57 0 0 0 0-16.359z" class="N"/><g class="B C"><path d="M223.14 187.187c-.111-28.883-27.879-52.19-62.022-52.059s-61.73 23.652-61.619 52.535 27.879 52.19 62.022 52.059c.9-.004 1.792-.032 2.682-.068 5.904 8.334 16.226 17.935 34.256 24.905-1.533-3.791-8.274-16.768-8.544-30.803 19.806-8.782 33.303-26.356 33.225-46.569z" class="O P"/><path d="M636.854 347.691h5.816c3.882-12.596 15.61-21.751 29.48-21.751 17.036 0 30.847 13.81 30.847 30.847 0 .467-.049.922-.07 1.384h5.211a21.36 21.36 0 0 1 21.356 21.355 21.36 21.36 0 0 1-21.356 21.355h-71.284c-14.688 0-26.596-11.907-26.596-26.595s11.907-26.595 26.596-26.595z" class="J K"/></g><path d="M330.214 343.109c-.238-2.014-1.206-3.578-2.902-4.692s-3.777-1.67-6.243-1.67c-1.802 0-3.379.292-4.731.875-1.339.583-2.386 1.385-3.141 2.406-.742 1.02-1.114 2.18-1.114 3.479 0 1.086.259 2.021.776 2.803a6.87 6.87 0 0 0 2.028 1.928 14.53 14.53 0 0 0 2.584 1.253l2.485.775 4.135 1.113c1.06.279 2.24.663 3.539 1.153 1.312.491 2.564 1.16 3.757 2.008 1.206.835 2.2 1.909 2.982 3.221s1.173 2.922 1.173 4.831c0 2.2-.576 4.188-1.729 5.964-1.14 1.776-2.81 3.187-5.01 4.234-2.187 1.047-4.844 1.571-7.972 1.571-2.916 0-5.441-.471-7.575-1.412-2.12-.941-3.79-2.253-5.009-3.936-1.207-1.683-1.889-3.638-2.048-5.865h5.089c.133 1.538.65 2.81 1.551 3.817.914.994 2.067 1.737 3.459 2.227 1.405.477 2.916.716 4.533.716 1.882 0 3.572-.305 5.069-.915 1.498-.623 2.684-1.484 3.559-2.584.875-1.113 1.312-2.412 1.312-3.897 0-1.352-.378-2.452-1.133-3.3s-1.75-1.537-2.982-2.067a31.41 31.41 0 0 0-3.996-1.392l-5.01-1.431c-3.181-.915-5.699-2.22-7.555-3.917s-2.783-3.916-2.783-6.66c0-2.279.616-4.267 1.849-5.964 1.246-1.71 2.916-3.035 5.01-3.976 2.107-.954 4.46-1.431 7.057-1.431 2.625 0 4.957.47 6.998 1.411 2.041.928 3.658 2.2 4.851 3.817 1.206 1.617 1.842 3.453 1.909 5.507h-4.772zm47.788 10.179c0 4.294-.776 8.005-2.326 11.133s-3.678 5.54-6.382 7.236-5.792 2.545-9.264 2.545-6.561-.848-9.264-2.545-4.831-4.108-6.382-7.236-2.326-6.839-2.326-11.133.775-8.005 2.326-11.133 3.678-5.54 6.382-7.237 5.791-2.544 9.264-2.544 6.56.848 9.264 2.544 4.831 4.109 6.382 7.237 2.326 6.839 2.326 11.133zm-4.772 0c0-3.526-.589-6.501-1.769-8.926-1.166-2.426-2.75-4.261-4.751-5.507-1.988-1.246-4.215-1.869-6.68-1.869s-4.699.623-6.7 1.869c-1.988 1.246-3.572 3.081-4.751 5.507-1.167 2.425-1.75 5.4-1.75 8.926s.583 6.501 1.75 8.926c1.179 2.425 2.763 4.261 4.751 5.507 2.001 1.246 4.235 1.869 6.7 1.869s4.692-.623 6.68-1.869c2.001-1.246 3.585-3.082 4.751-5.507 1.18-2.425 1.769-5.401 1.769-8.926zm45.825-7.634h-4.931c-.291-1.418-.802-2.664-1.531-3.738a10.17 10.17 0 0 0-2.624-2.703c-1.02-.743-2.153-1.299-3.399-1.67s-2.545-.557-3.897-.557c-2.465 0-4.698.623-6.7 1.869-1.988 1.246-3.571 3.081-4.751 5.507-1.166 2.425-1.749 5.4-1.749 8.926s.583 6.501 1.749 8.926c1.18 2.425 2.763 4.261 4.751 5.507 2.002 1.246 4.235 1.869 6.7 1.869 1.352 0 2.651-.186 3.897-.557s2.379-.921 3.399-1.65a10.45 10.45 0 0 0 2.624-2.724c.729-1.086 1.24-2.332 1.531-3.737h4.931c-.372 2.081-1.047 3.943-2.028 5.586s-2.2 3.042-3.658 4.195c-1.458 1.14-3.095 2.008-4.911 2.604-1.802.597-3.731.895-5.785.895-3.472 0-6.56-.848-9.264-2.545s-4.831-4.108-6.382-7.236-2.326-6.839-2.326-11.133.776-8.005 2.326-11.133 3.678-5.54 6.382-7.237 5.792-2.544 9.264-2.544c2.054 0 3.983.298 5.785.894 1.816.597 3.453 1.471 4.911 2.625 1.458 1.139 2.677 2.531 3.658 4.174.981 1.631 1.656 3.493 2.028 5.587zm12.897-12.724v40.715h-4.93V332.93h4.93zm11.555 40.715h-5.169l14.95-40.715h5.09l14.95 40.715h-5.169l-12.167-34.273h-.318l-12.167 34.273zm1.909-15.904h20.834v4.374h-20.834v-4.374zm34.254 15.904V332.93h4.93v36.342h18.926v4.373H479.67zM300.603 386.84h6.494l15.268 37.293h.526l15.268-37.293h6.494v44.927h-5.09v-34.134h-.439l-14.039 34.134h-4.914l-14.04-34.134h-.438v34.134h-5.09V386.84zm54.958 44.927V386.84h27.114v4.826h-21.674v15.18h20.27v4.827h-20.27v15.268h22.025v4.826h-27.465zm50.784 0h-13.864V386.84h14.478c4.358 0 8.087.899 11.188 2.698 3.1 1.784 5.477 4.351 7.129 7.7 1.653 3.335 2.479 7.327 2.479 11.978 0 4.68-.833 8.709-2.501 12.087-1.667 3.364-4.095 5.952-7.283 7.766-3.188 1.798-7.063 2.698-11.626 2.698zm-8.424-4.826h8.073c3.714 0 6.793-.717 9.235-2.15s4.263-3.473 5.462-6.121 1.799-5.798 1.799-9.454c0-3.627-.592-6.75-1.777-9.367-1.184-2.633-2.954-4.651-5.308-6.055-2.355-1.419-5.287-2.128-8.797-2.128h-8.687v35.275zm44.4-40.101v44.927h-5.44V386.84h5.44zm12.751 44.927h-5.703l16.496-44.927h5.616l16.497 44.927h-5.704l-13.425-37.819h-.351l-13.426 37.819zm2.106-17.55h22.99v4.826h-22.99v-4.826z" class="Q"/><g fill-rule="evenodd"><path d="M154.375 578.899h11.862v-10.973c0-28.142 18.966-26.807 18.966-26.807h22.425v18.877H194.04c-8.898 0-9.712 6.398-9.712 10.155v8.749h21.946l-3.262 18.684h-18.684v56.942h-18.091v-56.942h-11.862v-18.685z" class="D"/><path d="M68.509 358.128c7.58 14.362 20.065 25.048 39.396 30.603 0 0 1.705-27.098 23.639-23.673 7.653 1.195 12.8 4.788 15.787 9.835 4.215-.309 8.447-1.336 12.699-3.202-1.82 4.577-5.173 7.83-9.612 10.148 3.631-.034 7.337-.601 11.126-1.773-2.379 4.441-6.197 7.325-11.022 9.117-.496 14.375-9.539 31.981-23.926 43.884-18.656 15.434-48.977 21.906-75.887-1.976 10.822 2.746 21.436 1.62 31.779-4.496-10.172-2.384-15.617-8.646-17.132-18.13 3.192.996 6.241 1.361 9.063.73-10.597-5.379-13.953-13.966-13.074-24.43 2.561 2.165 5.396 3.804 8.862 4.229-7.853-10.31-7.959-20.597-1.698-30.866z" class="B C J K"/><g class="E"><path d="M702.454 422.194a24.98 24.98 0 0 1 17.721 7.34c4.535 4.535 7.341 10.801 7.341 17.721s-2.805 13.186-7.341 17.721-10.801 7.341-17.721 7.341-13.186-2.805-17.721-7.341-7.341-10.801-7.341-17.721 2.805-13.186 7.341-17.721a24.98 24.98 0 0 1 17.721-7.34zm15.456 9.605c-3.956-3.956-9.42-6.402-15.457-6.402s-11.501 2.447-15.457 6.402-6.402 9.421-6.402 15.457 2.447 11.501 6.402 15.457 9.421 6.402 15.457 6.402 11.501-2.447 15.457-6.402 6.402-9.42 6.402-15.457-2.446-11.501-6.402-15.457z"/><path d="M695.078 424.344c.044.05 15.459 16.998 19.86 43.425l-3.153.526c-4.248-25.512-19.041-41.776-19.084-41.823l2.377-2.128z"/><path d="M685.161 463.745c.038-.069 12.89-24.033 41.073-15.406l-.926 3.053c-25.679-7.861-37.31 13.829-37.344 13.891l-2.803-1.538zm-5.848-20.863c.075.007 26.029 2.784 38.836-12.876l2.477 2.027c-13.9 16.996-41.547 14.035-41.627 14.027l.314-3.178z"/></g></g><path d="M220.327 487.406a5.35 5.35 0 0 1-5.347 5.347h-32.526a5.35 5.35 0 0 1-5.347-5.347v-59.705a5.35 5.35 0 0 1 5.347-5.347h32.526a5.35 5.35 0 0 1 5.347 5.347v59.705z" class="B C G L"/><path d="M215.203 430.82h-32.971v45.224h32.971V430.82zm-12.559 53.718c0 2.168-1.758 3.926-3.926 3.926a3.93 3.93 0 0 1-3.927-3.926 3.93 3.93 0 0 1 3.927-3.926c2.168 0 3.926 1.758 3.926 3.926z" class="N"/><g class="B C"><g class="G L"><path d="M524.966 558.224h-72.619v43.402h72.619v-43.402z"/><path d="M524.966 558.224l-36.768 30.063-35.851-30.063m0 43.402l25.298-21.911m46.545 21.346l-24.842-21.537" class="M"/></g><path d="M133.773 472.149c-6.273.058-22.537 5.001-22.537 25.122 0 20.164 22.368 37.355 22.537 37.485.17-.13 22.537-17.321 22.537-37.485 0-20.121-16.264-25.064-22.537-25.122z" class="E H"/></g><path d="M144.848 496.529c0 6.602-4.959 11.954-11.076 11.954s-11.075-5.352-11.075-11.954 4.959-11.954 11.075-11.954 11.076 5.352 11.076 11.954z" fill="#fcfcfc"/><path d="M144.196 290.438c-.428-16.94-14.389-30.544-31.564-30.544-16.979 0-30.821 13.292-31.55 29.96-.02.458-.035.918-.035 1.382 0 5.919 1.656 11.457 4.531 16.181l-5.7 16.816 17.487-5.557c4.527 2.483 9.73 3.899 15.268 3.899 17.444 0 31.584-14.03 31.584-31.339-.001-.268-.015-.532-.021-.798z" class="D"/><path d="M126.133 299.226c-4.685-3.765-5.995-1.914-8.12.211-1.484 1.484-5.239-1.616-8.482-4.858s-6.342-6.998-4.859-8.482c2.126-2.125 3.976-3.436.21-8.12s-6.274-1.088-8.334.971c-2.377 2.376-.125 11.232 8.627 19.986s17.609 11.003 19.985 8.628c2.06-2.06 5.658-4.569.973-8.336z" fill="#fcfcfc"/><path d="M157.873 197.772l-10.308-8.644-21.817 19.029h65.128l-22.257-19.173-10.746 8.788zm32.885-29.996h-64.914l32.047 26.873 32.867-26.873zm2.166 38.973v-37.64l-22.415 18.33 22.415 19.31zm-69.181-37.599v37.565l21.957-19.151-21.957-18.414z" class="Q"/><g class="D"><path d="M693.145 284.903c16.306 0 29.525-13.219 29.525-29.525s-13.219-29.525-29.525-29.525-29.525 13.219-29.525 29.525 13.219 29.525 29.525 29.525z"/><path d="M693.145 286.024a30.44 30.44 0 0 1-21.669-8.976c-11.949-11.949-11.949-31.39 0-43.339 5.788-5.788 13.484-8.976 21.669-8.976s15.882 3.188 21.67 8.976a30.44 30.44 0 0 1 0 43.34c-5.788 5.787-13.484 8.975-21.67 8.975zm0-59.051a28.22 28.22 0 0 0-20.086 8.32c-11.075 11.076-11.075 29.096 0 40.171a28.22 28.22 0 0 0 40.172 0c5.365-5.365 8.32-12.498 8.32-20.086a28.22 28.22 0 0 0-28.406-28.405z"/></g><g class="B F I"><path d="M693.145 279.367c13.249 0 23.989-10.74 23.989-23.989s-10.74-23.989-23.989-23.989-23.989 10.74-23.989 23.989 10.74 23.989 23.989 23.989z"/><path d="M693.145 280.488c-6.707 0-13.012-2.612-17.755-7.354a24.94 24.94 0 0 1 0-35.51 24.94 24.94 0 0 1 35.51 0c9.79 9.79 9.79 25.719 0 35.51-4.743 4.742-11.048 7.354-17.755 7.354zm0-47.979a22.72 22.72 0 0 0-16.171 6.698 22.71 22.71 0 0 0 0 32.342 22.72 22.72 0 0 0 16.171 6.698c6.109 0 11.852-2.379 16.171-6.698 8.917-8.917 8.917-23.426 0-32.342-4.319-4.319-10.062-6.698-16.171-6.698z"/></g><g class="D"><path d="M716.051 274.024l-4.271 4.27 15.319 15.319 4.27-4.27-15.318-15.319z"/><path d="M727.106 294.73c-.287 0-.573-.109-.792-.328l-15.319-15.319a1.12 1.12 0 0 1 0-1.584l4.27-4.27a1.12 1.12 0 0 1 1.584 0l15.319 15.319a1.12 1.12 0 0 1 0 1.584l-4.27 4.27a1.12 1.12 0 0 1-.792.328zm-13.735-16.439l13.735 13.735 2.686-2.686-13.735-13.735-2.686 2.686z"/><path d="M740.578 310.444a5.4 5.4 0 0 0 7.633 0 5.4 5.4 0 0 0 0-7.633l-20.606-20.606a5.4 5.4 0 0 0-7.633 0 5.4 5.4 0 0 0 0 7.633l20.606 20.606z"/></g><path d="M678.206 352.841l-10.418-13.743c-.212-.279-.543-.443-.893-.443s-.68.164-.893.443l-10.532 13.891a1.12 1.12 0 0 0 .893 1.797h4.327v12.542a1.12 1.12 0 0 0 1.12 1.12h10.167a1.12 1.12 0 0 0 1.12-1.12v-12.542h4.327c.008.001.016.001.022 0a1.12 1.12 0 0 0 1.12-1.12c.002-.327-.137-.621-.36-.825zm-5.798 24.569l10.418 13.743a1.12 1.12 0 0 0 1.785 0l10.532-13.891a1.12 1.12 0 0 0-.893-1.797h-4.327v-12.542a1.12 1.12 0 0 0-1.12-1.12h-10.167a1.12 1.12 0 0 0-1.12 1.12v12.542h-4.327c-.008-.001-.016-.001-.022 0a1.12 1.12 0 0 0-1.12 1.12 1.11 1.11 0 0 0 .361.825z" class="B F I"/><path d="M266.321 172.397a7.1 7.1 0 0 0-7.098-7.098 7.1 7.1 0 0 0-7.098 7.098 7.1 7.1 0 0 0 7.098 7.097 7.1 7.1 0 0 0 7.098-7.097zm-23.372-15.094c1.09 1.123 2.836 1.168 4.044.173 3.332-2.744 7.587-4.401 12.231-4.401s8.896 1.656 12.228 4.397c1.208.994 2.954.948 4.043-.175 1.18-1.216 1.129-3.207-.172-4.292-4.37-3.642-9.977-5.845-16.098-5.845s-11.732 2.205-16.103 5.85c-1.302 1.086-1.353 3.077-.173 4.293zm-10.112-10.42c1.086 1.12 2.863 1.211 4.032.178 5.963-5.27 13.789-8.476 22.354-8.476s16.385 3.204 22.348 8.47c1.169 1.033 2.946.941 4.032-.179 1.18-1.216 1.101-3.178-.171-4.297-7-6.162-16.173-9.908-26.21-9.908s-19.216 3.749-26.217 9.915c-1.27 1.119-1.348 3.081-.168 4.297zm-11.131-11.47c1.098 1.132 2.903 1.215 4.07.154 8.844-8.04 20.581-12.952 33.448-12.952s24.595 4.908 33.438 12.943c1.167 1.061 2.972.977 4.07-.156 1.178-1.215 1.085-3.154-.169-4.289-9.886-8.95-22.985-14.413-37.34-14.413s-27.463 5.466-37.35 14.423c-1.254 1.137-1.346 3.076-.167 4.29z" class="N"/><path d="M504.266 136.819c-1.426 1.384-1.543 3.647-.227 5.135 6.711 7.594 10.794 17.56 10.794 28.468s-4.08 20.867-10.786 28.461c-1.315 1.489-1.198 3.752.228 5.135 1.549 1.503 4.047 1.403 5.473-.217 7.847-8.914 12.617-20.597 12.617-33.379s-4.774-24.472-12.627-33.388c-1.425-1.619-3.923-1.718-5.472-.215zm16.848-14.174c-1.442 1.398-1.548 3.697-.197 5.183 10.24 11.263 16.495 26.211 16.495 42.596 0 16.38-6.25 31.322-16.483 42.585-1.351 1.486-1.244 3.785.198 5.183 1.547 1.5 4.016 1.382 5.462-.215 11.398-12.59 18.355-29.272 18.355-47.553 0-18.287-6.962-34.975-18.368-47.565-1.447-1.598-3.916-1.715-5.462-.214z" class="B C E H"/><g class="N"><path d="M437.66 113.51a10.83 10.83 0 0 0 0-15.31 10.83 10.83 0 0 0-15.31 0 10.83 10.83 0 0 0 0 15.31 10.83 10.83 0 0 0 15.31 0zm32.525 10.773a10.83 10.83 0 0 0-8.035-13.032 10.83 10.83 0 0 0-13.032 8.035 10.83 10.83 0 0 0 8.035 13.032 10.83 10.83 0 0 0 13.032-8.035zm-12.478-25.569a8.62 8.62 0 0 0 8.617-8.617 8.62 8.62 0 0 0-8.617-8.617 8.62 8.62 0 0 0-8.617 8.617 8.62 8.62 0 0 0 8.617 8.617z"/><path d="M458.175 92.54l-22.941 14.784-2.358-4.716.149-.149 18.947-11.895 6.203 1.976zm.057 31.882l-23.769-13.411 3.074-4.283.201.062 19.353 11.223 1.141 6.409z"/><g class="B C G"><path d="M631.443 451.175l-.074 32.015 1.065.003.074-32.015-1.065-.003z"/><path d="M632.081 481.82c1.115 2.234-.734 5.419-4.13 7.114s-7.052 1.257-8.167-.978.734-5.42 4.129-7.114 7.053-1.256 8.168.978zm26.628-30.589l-.07 32.015 1.065.002.07-32.015-1.065-.002z"/><path d="M659.352 481.879c1.115 2.234-.734 5.419-4.13 7.114s-7.052 1.257-8.167-.978.734-5.42 4.13-7.114 7.052-1.256 8.167.978zm-27.905-33.158l-.01 4.81 28.335.063.01-4.81-28.335-.063zm-.012 7.321l-.006 2.453 28.335.062.006-2.453-28.335-.062z"/></g></g><path d="M504.01 661.93v38.181l31.117-12.447 60.299-59.71-91.416 33.976z" stroke="#3a5c7f" class="B C D"/><g class="J K B C"><path d="M595.426 627.954l-45.077 92.509-40.536-45.414 85.613-47.095z"/><path d="M504.01 666.303l-29.182-24.557 120.598-13.792-91.416 38.349z"/></g><g class="G L B C"><path d="M301.599 598.952h-55.815a5.59 5.59 0 0 0-5.591 5.591v39.695c0 2.993 2.358 5.416 5.315 5.563l-.749 13.259s10.92-13.232 15.291-13.232h41.549a5.59 5.59 0 0 0 5.591-5.591v-39.695a5.59 5.59 0 0 0-5.591-5.59z"/><path d="M250.07 612.37h47.802m-47.802 11.182h47.802m-47.802 11.181h47.802" class="M"/></g><path d="M622.251 120.145c-30.728 0-55.637 23.366-55.637 52.19 0 16.4 8.071 31.025 20.682 40.593l.121 19.775 18.888-10.365c5.052 1.416 10.402 2.187 15.945 2.187 30.727 0 55.637-23.366 55.637-52.19s-24.908-52.19-55.636-52.19z" class="D"/><path d="M586.5 189.86l29.895-31.861 14.685 14.685 27.578-14.991-30.244 32.167-14.773-14.685L586.5 189.86z" class="B F I"/><g class="D"><path d="M376.33 116.739c6.533-3.31 11.02-10.071 11.02-17.896 0-11.083-8.985-20.068-20.069-20.068s-20.068 8.985-20.068 20.068c0 7.824 4.488 14.586 11.02 17.896-14.853 5.348-22.782 23.711-22.782 42.87 0 16.615 26.696 17.362 31.549 17.362h.56c4.854 0 31.549-.747 31.549-17.362.002-19.159-7.926-37.522-22.779-42.87z"/><path d="M333.943 180.057c-3.69-.007-6.686-3.016-6.679-6.706l.021-10.797-10.797-.021a6.7 6.7 0 0 1-6.679-6.705c.007-3.683 3.009-6.679 6.692-6.679l10.811.021.021-10.797c.007-3.683 3.009-6.679 6.691-6.679 1.801.003 3.481.703 4.742 1.969s1.954 2.948 1.951 4.736l-.021 10.797 10.797.021c1.788.004 3.467.703 4.728 1.97a6.65 6.65 0 0 1 1.951 4.736c-.007 3.683-3.009 6.679-6.692 6.679l-10.811-.021-.022 10.797c-.007 3.683-3.009 6.679-6.692 6.679h-.012z"/></g><path d="M334.024 133.193c2.878.006 5.198 2.335 5.192 5.202l-.024 12.297 12.297.024c2.868.006 5.188 2.335 5.182 5.202s-2.329 5.182-5.192 5.182l-12.307-.024-.024 12.297c-.006 2.864-2.329 5.182-5.192 5.182-2.878-.006-5.198-2.335-5.192-5.202l.024-12.298-12.297-.024c-2.868-.006-5.188-2.335-5.182-5.202s2.329-5.182 5.192-5.182l12.307.024.024-12.298c.005-2.862 2.329-5.18 5.192-5.18zm0-3a8.21 8.21 0 0 0-8.192 8.176l-.018 9.297-9.297-.018a8.21 8.21 0 0 0-8.208 8.176 8.14 8.14 0 0 0 8.176 8.208l9.297.018-.018 9.297c-.004 2.188.844 4.247 2.388 5.798a8.14 8.14 0 0 0 5.788 2.411 8.21 8.21 0 0 0 8.208-8.176l.018-9.298 9.297.018a8.21 8.21 0 0 0 8.208-8.176c.004-2.188-.844-4.247-2.388-5.798a8.14 8.14 0 0 0-5.788-2.411l-9.297-.018.018-9.298c.009-4.517-3.659-8.199-8.176-8.208h-.003l-.013.002z" class="F"/><g class="B C"><path d="M481.039 139.137l-22.817 17.437h-22.19v28.512h22.688l22.319 16.613v-62.562z" class="E H"/><path d="M707.271 513.603H575.36c-6.026 0-10.911 4.885-10.911 10.911v52.219c0 6.026 4.885 10.911 10.911 10.911h23.362l21.745 21.745 21.745-21.745h65.059c6.026 0 10.911-4.885 10.911-10.911v-52.219c0-6.026-4.885-10.911-10.911-10.911z" class="O P"/></g><path d="M646.082 568.744c0 1.446-1.198 2.543-2.693 2.543-1.547 0-2.693-1.097-2.693-2.543v-5.037h-11.721c-1.646 0-2.793-1.296-2.793-2.743 0-.199.15-.997.449-1.546l9.576-23.041c.399-.948 1.397-1.547 2.394-1.547 1.296 0 2.693 1.198 2.693 2.594 0 .249 0 .549-.15.898l-8.529 20.398h8.08v-8.678c0-1.446 1.146-2.543 2.693-2.543 1.446 0 2.693 1.097 2.693 2.543v8.678h1.396c1.447 0 2.594 1.146 2.594 2.493 0 1.397-1.146 2.494-2.594 2.494h-1.396l.001 5.037zm17.009-10.723c-5.784 0-10.673-3.64-10.673-11.171 0-6.283 3.492-11.62 11.023-11.62 8.727 0 11.32 7.082 11.32 17.306 0 12.219-3.79 18.752-11.77 18.752-1.945 0-8.378-.349-8.378-3.441 0-1.146.947-2.294 2.444-2.294 1.296 0 2.992.947 5.336.947 5.386 0 6.583-4.538 6.733-10.423-1.895 1.445-3.99 1.944-6.035 1.944zm6.185-8.179c0-5.187-1.346-9.525-6.035-9.525-3.989 0-5.386 3.192-5.386 6.532 0 4.189 2.145 6.134 5.586 6.134 2.343 0 4.588-.897 5.834-2.244l.001-.897zm20.251 21.495c-6.832 0-11.819-4.339-11.819-10.324 0-4.139 2.393-6.882 5.536-8.728-2.544-1.746-4.29-4.239-4.29-7.68 0-5.785 4.789-9.326 10.524-9.326 5.885 0 10.523 3.74 10.523 9.176 0 3.141-1.546 5.635-4.289 7.481 3.192 1.896 5.585 4.638 5.585 8.878 0 6.034-4.837 10.523-11.77 10.523zm-.149-16.657c-3.492.698-6.235 2.892-6.235 6.134s2.743 5.635 6.384 5.635c3.691 0 6.334-2.494 6.334-5.635.001-3.441-3.142-5.486-6.483-6.134zm.149-14.663c-2.943 0-5.186 1.896-5.186 4.589 0 2.843 2.444 4.688 5.286 5.236 2.793-.649 5.037-2.543 5.037-5.236s-2.294-4.589-5.137-4.589z" class="Q"/><g class="F"><path d="M614.258 538.225a9.68 9.68 0 0 0-13.686 0l-.782.782-.782-.782a9.68 9.68 0 0 0-13.687 13.686l.782.782 13.686 13.686 13.687-13.686.782-.782a9.68 9.68 0 0 0 0-13.686z" class="B I"/><use xlink:href="#C"/><use xlink:href="#C" x="18.79"/><use xlink:href="#C" x="37.58"/></g><g class="B"><path d="M446.651 632.065c-1.19-1.191-2.835-1.93-4.646-1.93H393.38c-1.81 0-3.455.739-4.646 1.93s-1.93 2.835-1.93 4.645v48.625c0 1.81.739 3.455 1.93 4.645s2.835 1.93 4.646 1.93h48.625c1.811 0 3.455-.739 4.646-1.93s1.93-2.835 1.93-4.645V636.71a6.55 6.55 0 0 0-1.93-4.645zm-37.383 22.533c2.156-2.156 5.134-3.49 8.425-3.49s6.269 1.333 8.425 3.49 3.489 5.134 3.489 8.424-1.333 6.269-3.489 8.425-5.135 3.489-8.425 3.489-6.269-1.333-8.425-3.489a11.88 11.88 0 0 1-3.489-8.425c0-3.29 1.334-6.269 3.489-8.424zm33.023 29.219c0 .494-.204.945-.531 1.273a1.8 1.8 0 0 1-1.273.532H394.9a1.8 1.8 0 0 1-1.805-1.805V656.14h7.861c-.873 2.122-1.355 4.446-1.355 6.882 0 4.996 2.025 9.52 5.299 12.793s7.797 5.299 12.793 5.299a18.04 18.04 0 0 0 12.793-5.299c3.274-3.274 5.299-7.797 5.299-12.793 0-2.437-.482-4.76-1.355-6.882h7.861v27.677zm1.589-38.575c0 1.937-1.585 3.522-3.523 3.522h-6.209c-1.938 0-3.523-1.585-3.523-3.522v-6.281c0-1.938 1.585-3.523 3.523-3.523h6.209c1.938 0 3.523 1.585 3.523 3.523v6.281z" class="C E H"/><path d="M440.357 635.439h-6.209c-1.938 0-3.523 1.585-3.523 3.523v6.281c0 1.937 1.585 3.522 3.523 3.522h6.209c1.938 0 3.523-1.585 3.523-3.522v-6.281c0-1.938-1.585-3.523-3.523-3.523z" class="F I"/></g><defs ><path id="B" d="M619.021 312.851c14.602 0 26.439-11.837 26.439-26.439s-11.837-26.439-26.439-26.439-26.439 11.837-26.439 26.439 11.837 26.439 26.439 26.439z"/><path id="C" d="M301.033 673.866c0 3.405-2.76 6.165-6.165 6.165s-6.165-2.76-6.165-6.165 2.76-6.165 6.165-6.165 6.165 2.76 6.165 6.165z"/></defs></svg>