<svg xmlns="http://www.w3.org/2000/svg" xmlns:xlink="http://www.w3.org/1999/xlink" width="798" height="55" fill="none" xmlns:v="https://vecta.io/nano"><path d="M594.863 15.168l-.773-.764c-.513-.496-1.243-1.269-2.314-2.115-2.076-1.762-5.356-4.083-9.871-6.091l-1.737-.759-1.854-.695-.96-.353-.992-.312-2.047-.63c-2.801-.769-5.842-1.414-9.073-1.881-3.233-.434-6.648-.705-10.191-.78-3.542-.067-7.205.083-10.936.413-10.149.923-19.438 3.152-27.128 5.675-3.848 1.264-7.302 2.608-10.294 3.917s-5.514 2.601-7.537 3.657c-4.314 1.531-10.54 3.918-18.009 6.75l-12.102 4.36c-4.314 1.448-8.883 2.863-13.652 4.087-7.022 1.77-13.82 2.908-20.073 3.383-6.117.589-11.682-.486-16.328-1.586-2.324-.558-4.419-1.152-6.264-1.68l-4.749-1.343c-1.309-.356-2.336-.605-3.034-.755l-1.066-.222 1.014.395c.663.259 1.632.662 2.871 1.202l4.52 1.974c1.769.762 3.801 1.612 6.105 2.438s4.881 1.639 7.744 2.244c.717.148 1.445.306 2.2.407.751.118 1.516.239 2.303.298l1.188.112c.4.029.806.032 1.213.048l1.233.036 1.212-.032c6.509-.091 13.669-1.017 20.943-2.853 4.938-1.267 9.605-2.842 13.94-4.512s8.327-3.475 11.977-5.171c7.274-3.444 13.157-6.547 17.22-8.646 2.157-.776 4.776-1.73 7.843-2.681 3.065-.957 6.568-1.939 10.424-2.872 7.711-1.864 16.843-3.559 26.662-4.451 3.611-.319 7.142-.528 10.552-.576 3.409-.04 6.694.06 9.815.285 3.116.256 6.061.652 8.798 1.153.682.134 1.346.289 2.003.426l.976.209.945.248 1.837.485c.593.176 1.167.371 1.732.548 4.518 1.447 7.971 3.248 10.244 4.668 1.168.674 1.995 1.314 2.58 1.721l.89.621z" fill="url(#A)"/><path d="M593.721 12.568l-.982-.447-2.841-1.253c-2.511-.974-6.212-2.324-11.004-3.262-4.78-.946-10.644-1.419-17.118-.979-3.226.27-6.609.692-10.055 1.402s-6.969 1.615-10.505 2.737c-4.811 1.518-9.344 3.285-13.569 5.08s-8.149 3.622-11.743 5.331l-17.176 8.297-7.879 2.412c-3.081.892-6.534 1.799-10.411 2.794l-12.381 3.222c-4.385 1.08-9.013 2.109-13.814 2.823-7.054 1.061-13.843 1.227-19.812.098l-1.11-.215-1.084-.258c-.724-.155-1.414-.385-2.109-.574l-1.998-.676c-.614-.224-1.209-.515-1.794-.812-2.332-1.236-4.4-2.835-6.33-4.252-1.927-1.432-3.731-2.722-5.432-3.684-1.694-.973-3.284-1.603-4.622-1.924-1.338-.332-2.409-.37-3.12-.341-.356-.003-.626.045-.807.056l-.273.027.274.02c.181.019.45.017.797.077.695.084 1.715.285 2.929.784 1.217.489 2.613 1.282 4.096 2.409 1.491 1.118 3.065 2.557 4.822 4.189 1.769 1.617 3.697 3.469 6.221 5.112.639.4 1.304.798 2.034 1.136.716.332 1.409.619 2.141.918.736.263 1.476.566 2.249.79l1.163.36 1.192.312c.799.22 1.621.366 2.449.545.833.135 1.675.301 2.532.394 1.711.235 3.468.345 5.253.394 3.572.084 7.25-.193 10.954-.738 5.036-.75 9.788-1.937 14.208-3.234s8.517-2.711 12.27-4.024l5.383-1.924 1.266-.468 1.218-.484 2.323-.934a174.47 174.47 0 0 0 7.575-3.387c4.337-1.363 10.589-3.576 18.01-6.42 7.434-2.809 16.031-6.273 25.37-9.235 3.435-1.09 6.815-2.02 10.1-2.815s6.491-1.35 9.559-1.802c6.143-.801 11.76-.869 16.466-.464 4.71.396 8.486 1.216 11.094 1.81l4.021 1.077z" fill="url(#B)"/><path d="M594.863 15.168l-.888-.626-1.1-.732-1.55-.932a30.25 30.25 0 0 0-4.52-2.116c-1.832-.683-4.005-1.302-6.475-1.644s-5.225-.423-8.144-.147c-2.922.263-5.993.872-9.138 1.716-3.141.854-6.361 1.935-9.635 3.126l-4.964 1.836-5.076 2.036-6.837 2.825c-2.223.948-4.423 1.83-6.493 2.83l-11.688 5.579-5.131 2.568-4.583 2.367-7.351 3.889-17.921 6.853c-3.678 1.416-7.724 2.773-12.065 3.858-4.339 1.079-8.985 1.851-13.786 2.039-3.527.131-6.979-.013-10.24-.597l-.614-.088c-.203-.036-.402-.087-.602-.129l-1.196-.261-1.187-.255c-.39-.1-.77-.224-1.153-.333-.76-.236-1.532-.42-2.265-.687l-2.17-.812-.535-.201-.515-.239-1.022-.472c-.662-.315-1.394-.612-1.942-.932-1.17-.672-2.288-1.524-3.348-2.395-2.119-1.763-4.047-3.59-5.895-5.177-1.841-1.597-3.617-2.967-5.301-3.994-.847-.508-1.671-.926-2.452-1.258-.793-.311-1.533-.552-2.222-.677-1.372-.28-2.467-.18-3.168-.032-.356.047-.613.156-.79.198l-.265.077.275-.031c.182-.011.446-.075.8-.065.699-.033 1.746.039 2.977.485.619.209 1.273.531 1.963.917.683.409 1.395.898 2.125 1.475 1.456 1.168 2.981 2.665 4.605 4.416 1.635 1.743 3.355 3.738 5.427 5.792 1.046 1.021 2.183 2.06 3.567 3.001.726.493 1.401.815 2.115 1.218l1.071.583.542.294.565.255 2.307 1.02c.783.334 1.61.581 2.429.877.413.139.824.293 1.245.421l1.283.336 1.298.336c.218.054.435.116.655.163l.666.121c3.549.754 7.318.983 11.131.84 5.193-.204 10.131-1.161 14.637-2.493 4.51-1.339 8.611-3.021 12.267-4.775l17.12-8.745 7.77-2.959 10.128-3.987 11.964-4.826c2.104-.905 4.311-1.702 6.538-2.592l6.81-2.722 5.015-2.063 4.909-1.958c3.203-1.287 6.275-2.486 9.231-3.489 2.955-.992 5.795-1.78 8.494-2.262 2.697-.493 5.248-.67 7.582-.605 4.674.151 8.414 1.29 10.895 2.264a27.5 27.5 0 0 1 1.647.681c.478.2.875.388 1.192.547l.982.469z" fill="url(#C)"/><path d="M586.476 11.721l1.216.359c.383.11.835.309 1.347.487.493.246 1.06.468 1.595.836 1.09.687 2.151 1.672 2.727 3.008.174.314.264.687.393 1.036l.133.564c.056.184.059.393.096.588.1.798.145 1.651.044 2.548-.216 2.441-1.079 4.763-2.129 6.601-.514.938-1.129 1.714-1.698 2.408-.591.666-1.166 1.227-1.679 1.642-1.29.304-3.157.478-5.218.123-1.09-.219-2.274-.414-3.366-.801-.545-.188-1.076-.399-1.551-.65-.25-.115-.437-.275-.669-.397l-.278-.225-.144-.107-.113-.121a3.05 3.05 0 0 1-.88-1.519c-.135-.589-.094-1.297.076-1.983.344-1.387 1.176-2.634 2.063-3.309.446-.349.912-.544 1.36-.598l.17-.029.163.006.324.013c.197.056.406.078.575.152l.466.206.323.21.279.181-.143-.299-.191-.37-.355-.461c-.142-.174-.349-.322-.569-.51-.12-.076-.254-.145-.396-.222l-.221-.113-.244-.077c-.666-.229-1.532-.253-2.382-.008-1.709.485-3.429 1.812-4.505 3.915-.523 1.053-.892 2.345-.772 3.796.08.718.245 1.471.593 2.162l.263.518.328.475c.216.329.48.598.75.866l.276.27.294.227.594.435c.407.221.814.477 1.222.634.817.348 1.618.555 2.387.694l1.129.151 1.075.041c.353.019.691-.001 1.023-.021l.971-.064.967-.146.461-.079.443-.122.837-.246.758-.315c.965-.415 1.712-.927 2.272-1.372.701-.163 1.544-.465 2.475-.943.905-.504 1.929-1.165 2.853-2.106 1.865-1.837 3.585-4.664 3.904-8.137.135-1.265.009-2.553-.295-3.757-.09-.301-.148-.6-.271-.888l-.351-.848c-.292-.539-.564-1.068-.943-1.521-.335-.477-.759-.867-1.153-1.241-.202-.183-.431-.33-.641-.487s-.418-.308-.647-.415c-.445-.232-.863-.463-1.3-.589l-.625-.208c-.204-.061-.411-.087-.607-.128-.784-.179-1.499-.163-2.103-.18l-1.534.166-1.252.294z" fill="url(#D)"/><path d="M421.409 17.883l-.537-.222c-.357-.133-.885-.338-1.615-.492a6.32 6.32 0 0 0-1.261-.148c-.476-.004-1.027.042-1.62.302-.6.252-1.193.81-1.475 1.559-.291.738-.304 1.533-.193 2.289.246 1.516.958 2.972 2.054 4.313.555.666 1.216 1.304 2.041 1.845.817.539 1.824.992 3.019 1.12.594.062 1.23.033 1.853-.112a5.93 5.93 0 0 0 1.754-.734c.535-.328 1.008-.727 1.409-1.155.412-.427.756-.885 1.061-1.354a11.88 11.88 0 0 0 .797-1.44c.233-.492.434-.97.606-1.513l.259-.801.183-.849.086-.428.044-.446.067-.899a9.28 9.28 0 0 0-1.187-4.757c-.793-1.41-1.892-2.519-3.047-3.352-2.336-1.671-4.86-2.358-7.138-2.627-2.292-.261-4.39-.046-6.158.401-1.773.438-3.203 1.165-4.244 1.882a9.83 9.83 0 0 0-1.913.964l-.509.344c-.169.124-.327.27-.497.41-.353.284-.643.594-.967.914-.623.661-1.258 1.421-1.818 2.342s-1.039 2.009-1.28 3.259c-.25 1.245-.195 2.641.15 3.973s.969 2.594 1.734 3.728c1.538 2.28 3.576 4.143 5.747 5.821 3.216 2.455 6.464 4.311 9.386 5.98 2.928 1.657 5.555 3.096 7.673 4.433 2.125 1.325 3.734 2.557 4.746 3.539.514.483.877.9 1.122 1.186l.361.45-.207-.543c-.15-.351-.383-.87-.762-1.499-.738-1.271-2.07-2.971-3.965-4.781-1.886-1.822-4.314-3.756-7.047-5.755l-8.752-6.334c-2.007-1.544-3.844-3.112-5.166-4.765-1.343-1.652-2.038-3.358-1.975-5.055.049-1.706.813-3.359 1.653-4.723.222-.335.43-.684.65-.954.11-.142.21-.29.323-.423l.351-.379c.465-.496.964-.896 1.434-1.235 1.09-.392 2.472-.716 4.081-.769 1.603-.062 3.423.097 5.293.606.931.258 1.875.59 2.787 1.026.905.445 1.776.988 2.533 1.639s1.388 1.408 1.806 2.242.632 1.743.612 2.732c-.001.181-.032.367-.042.55l-.019.275-.056.279-.104.558-.167.559c-.096.366-.244.763-.394 1.12-.147.366-.313.703-.487 1.017-.346.627-.748 1.126-1.15 1.435-.404.315-.8.471-1.295.489-.997.054-2.26-.589-3.205-1.416-.962-.831-1.716-1.858-2.086-2.82-.18-.479-.261-.938-.214-1.304.037-.357.213-.679.502-.904.292-.237.684-.392 1.066-.487.383-.101.763-.141 1.108-.166.693-.046 1.249-.006 1.625.015l.576.045z" fill="url(#E)"/><path d="M777.93 16.599l1.672 7.372a.63.63 0 0 1-.003.286l-1.741 6.959a.62.62 0 0 0 .906.685l5.181-2.969a21.92 21.92 0 0 1 5.693-2.274l7.697-1.88a.62.62 0 0 0 .037-1.189l-8.964-2.789c-1.148-.357-2.258-.831-3.31-1.413l-6.265-3.465a.62.62 0 0 0-.903.677z" fill="url(#F)"/><path d="M619.346 22.456c-1.75-1.643-5.34-3.773-7.468-3.773-2.89 0-5.232 2.342-5.232 5.232s2.342 5.232 5.232 5.232c2.242 0 6.105-1.978 7.73-3.773h146.911v-1.459-1.459H619.346z" fill="url(#G)"/><path d="M770.266 20.166a3.75 3.75 0 0 0-3.748 3.748 3.75 3.75 0 0 0 3.748 3.748 3.75 3.75 0 0 0 3.748-3.748 3.75 3.75 0 0 0-3.748-3.748z" fill="url(#H)"/><path d="M203.137 15.168l.774-.764c.513-.496 1.243-1.269 2.314-2.115 2.076-1.762 5.356-4.083 9.871-6.091l1.738-.759 1.853-.695.96-.353.992-.312 2.047-.63c2.801-.769 5.842-1.414 9.073-1.881 3.233-.434 6.648-.705 10.191-.78 3.542-.067 7.205.083 10.936.413 10.15.923 19.438 3.152 27.128 5.675 3.848 1.264 7.303 2.608 10.294 3.917s5.514 2.601 7.537 3.657c4.314 1.531 10.54 3.918 18.009 6.75l12.102 4.36c4.314 1.448 8.883 2.863 13.652 4.087 7.021 1.77 13.82 2.908 20.073 3.383 6.117.589 11.682-.486 16.328-1.586 2.324-.558 4.419-1.152 6.263-1.68l4.749-1.343c1.309-.356 2.336-.605 3.034-.755l1.066-.222-1.014.395c-.663.259-1.632.662-2.871 1.202l-4.52 1.974c-1.77.762-3.801 1.612-6.105 2.438s-4.881 1.639-7.744 2.244c-.717.148-1.445.306-2.2.407-.751.118-1.515.239-2.303.298l-1.188.112c-.4.029-.806.032-1.214.048l-1.233.036-1.212-.032c-6.509-.091-13.669-1.017-20.943-2.853-4.938-1.267-9.605-2.842-13.94-4.512s-8.327-3.475-11.977-5.171c-7.274-3.444-13.157-6.547-17.22-8.646-2.157-.776-4.777-1.73-7.843-2.681-3.066-.957-6.568-1.939-10.424-2.872-7.711-1.864-16.843-3.559-26.662-4.451-3.611-.319-7.142-.528-10.552-.576-3.409-.04-6.694.06-9.815.285-3.116.256-6.061.652-8.798 1.153-.681.134-1.346.289-2.003.426l-.976.209-.945.248-1.837.485c-.593.176-1.166.371-1.732.548-4.518 1.447-7.97 3.248-10.244 4.668-1.168.674-1.995 1.314-2.58 1.721l-.889.621z" fill="url(#I)"/><path d="M204.279 12.568l.982-.447 2.841-1.253c2.511-.974 6.212-2.324 11.004-3.262 4.78-.946 10.644-1.419 17.118-.979 3.226.27 6.609.692 10.055 1.402a105.34 105.34 0 0 1 10.505 2.737c4.811 1.518 9.344 3.285 13.569 5.08s8.149 3.622 11.743 5.331l17.176 8.297 7.879 2.412c3.081.892 6.534 1.799 10.411 2.794l12.381 3.222c4.385 1.08 9.013 2.109 13.814 2.823 7.053 1.061 13.843 1.227 19.812.098l1.11-.215 1.084-.258c.724-.155 1.414-.385 2.109-.574l1.998-.676c.614-.224 1.209-.515 1.794-.812 2.332-1.236 4.4-2.835 6.33-4.252 1.927-1.432 3.731-2.722 5.432-3.684 1.694-.973 3.284-1.603 4.622-1.924 1.338-.332 2.409-.37 3.12-.341.356-.003.626.045.807.056l.273.027-.274.02c-.181.019-.45.017-.797.077-.695.084-1.715.285-2.929.784-1.217.489-2.613 1.282-4.096 2.409-1.491 1.118-3.065 2.557-4.822 4.189-1.769 1.617-3.697 3.469-6.221 5.112-.639.4-1.304.798-2.034 1.136-.716.332-1.409.619-2.141.918-.736.263-1.476.566-2.249.79l-1.163.36-1.192.312c-.799.22-1.621.366-2.449.545-.833.135-1.675.301-2.532.394-1.711.235-3.468.345-5.253.394-3.571.084-7.251-.193-10.954-.738-5.036-.75-9.788-1.937-14.208-3.234s-8.517-2.711-12.27-4.024l-5.383-1.924-1.266-.468-1.218-.484-2.323-.934a174.47 174.47 0 0 1-7.575-3.387c-4.337-1.363-10.589-3.576-18.01-6.42-7.434-2.809-16.031-6.273-25.369-9.235-3.435-1.09-6.815-2.02-10.1-2.815s-6.491-1.35-9.559-1.802c-6.143-.801-11.76-.869-16.466-.464-4.71.396-8.486 1.216-11.094 1.81l-4.022 1.077z" fill="url(#J)"/><path d="M203.137 15.168l.888-.626 1.1-.732 1.549-.932a30.25 30.25 0 0 1 4.52-2.116c1.832-.683 4.005-1.302 6.475-1.644s5.225-.423 8.144-.147c2.922.263 5.993.872 9.138 1.716 3.141.854 6.362 1.935 9.634 3.126l4.964 1.836 5.076 2.036 6.837 2.825c2.223.948 4.423 1.83 6.493 2.83l11.688 5.579 5.131 2.568 4.583 2.367 7.351 3.889 17.921 6.853c3.678 1.416 7.724 2.773 12.065 3.858 4.339 1.079 8.985 1.851 13.786 2.039 3.527.131 6.979-.013 10.24-.597l.614-.088c.203-.036.402-.087.603-.129l1.196-.261 1.187-.255c.39-.1.77-.224 1.153-.333.76-.236 1.532-.42 2.265-.687l2.17-.812.536-.201.515-.239 1.022-.472c.662-.315 1.393-.612 1.942-.932 1.17-.672 2.288-1.524 3.348-2.395 2.119-1.763 4.047-3.59 5.896-5.177 1.841-1.597 3.617-2.967 5.301-3.994.847-.508 1.671-.926 2.452-1.258.793-.311 1.533-.552 2.222-.677 1.372-.28 2.467-.18 3.168-.032.356.047.613.156.79.198l.265.077-.275-.031c-.182-.011-.446-.075-.8-.065-.699-.033-1.746.039-2.977.485-.619.209-1.273.531-1.963.917-.683.409-1.395.898-2.125 1.475-1.456 1.168-2.981 2.665-4.605 4.416-1.635 1.743-3.356 3.738-5.427 5.792-1.046 1.021-2.183 2.06-3.567 3.001-.726.493-1.401.815-2.115 1.218l-1.071.583-.542.294-.565.255-2.307 1.02c-.783.334-1.61.581-2.429.877-.413.139-.824.293-1.245.421l-1.283.336-1.298.336c-.218.054-.435.116-.655.163l-.666.121c-3.549.754-7.318.983-11.131.84-5.193-.204-10.131-1.161-14.637-2.493-4.51-1.339-8.611-3.021-12.267-4.775l-17.12-8.745-7.77-2.959-10.128-3.987-11.964-4.826c-2.104-.905-4.311-1.702-6.538-2.592l-6.81-2.722-5.015-2.063-4.909-1.958c-3.203-1.287-6.275-2.486-9.231-3.489-2.955-.992-5.795-1.78-8.494-2.262-2.697-.493-5.248-.67-7.582-.605-4.674.151-8.414 1.29-10.895 2.264a27.5 27.5 0 0 0-1.647.681c-.478.2-.875.388-1.192.547l-.983.469z" fill="url(#K)"/><path d="M211.524 11.721l-1.216.359c-.383.11-.835.309-1.347.487-.493.246-1.06.468-1.595.836-1.09.687-2.151 1.672-2.728 3.008-.173.314-.264.687-.393 1.036l-.133.564c-.056.184-.059.393-.096.588-.1.798-.145 1.651-.044 2.548.215 2.441 1.079 4.763 2.129 6.601.514.938 1.129 1.714 1.698 2.408.591.666 1.166 1.227 1.679 1.642 1.29.304 3.157.478 5.217.123 1.09-.219 2.275-.414 3.366-.801.545-.188 1.076-.399 1.551-.65.25-.115.437-.275.669-.397l.278-.225.144-.107.113-.121c.467-.46.733-.929.879-1.519.135-.589.094-1.297-.076-1.983-.344-1.387-1.176-2.634-2.063-3.309-.446-.349-.912-.544-1.36-.598l-.17-.029-.162.006-.324.013c-.196.056-.406.078-.575.152l-.466.206-.323.21-.279.181.143-.299.191-.37.355-.461c.142-.174.349-.322.569-.51.12-.076.254-.145.396-.222l.221-.113.244-.077c.666-.229 1.533-.253 2.382-.008 1.709.485 3.429 1.812 4.505 3.915.523 1.053.892 2.345.772 3.796-.08.718-.246 1.471-.593 2.162l-.263.518-.329.475c-.215.329-.48.598-.75.866l-.276.27-.294.227-.594.435c-.407.221-.814.477-1.222.634-.817.348-1.618.555-2.387.694l-1.13.151-1.075.041c-.353.019-.691-.001-1.023-.021l-.971-.064-.967-.146-.461-.079-.443-.122-.837-.246-.758-.315c-.965-.415-1.712-.927-2.272-1.372-.701-.163-1.544-.465-2.475-.943-.905-.504-1.929-1.165-2.853-2.106-1.865-1.837-3.585-4.664-3.904-8.137-.135-1.265-.009-2.553.295-3.757.09-.301.148-.6.271-.888l.351-.848c.292-.539.564-1.068.943-1.521.335-.477.759-.867 1.153-1.241.202-.183.431-.33.641-.487s.418-.308.647-.415c.446-.232.864-.463 1.3-.589l.625-.208c.204-.061.411-.087.607-.128.784-.179 1.499-.163 2.103-.18l1.534.166 1.256.294z" fill="url(#L)"/><path d="M376.591 17.883l.537-.222c.357-.133.885-.338 1.615-.492a6.32 6.32 0 0 1 1.261-.148c.476-.004 1.027.042 1.62.302.6.252 1.193.81 1.475 1.559.291.738.304 1.533.194 2.289-.246 1.516-.958 2.972-2.054 4.313-.555.666-1.216 1.304-2.041 1.845-.817.539-1.824.992-3.019 1.12-.594.062-1.23.033-1.853-.112a5.93 5.93 0 0 1-1.754-.734c-.535-.328-1.008-.727-1.409-1.155-.412-.427-.756-.885-1.061-1.354a11.88 11.88 0 0 1-.797-1.44c-.233-.492-.435-.97-.606-1.513l-.259-.801-.183-.849-.086-.428-.044-.446-.067-.899a9.28 9.28 0 0 1 1.187-4.757c.793-1.41 1.892-2.519 3.047-3.352 2.336-1.671 4.86-2.358 7.138-2.627 2.292-.261 4.39-.046 6.158.401 1.773.438 3.203 1.165 4.244 1.882a9.83 9.83 0 0 1 1.913.964l.509.344c.169.124.327.27.497.41.353.284.643.594.967.914.623.661 1.258 1.421 1.818 2.342s1.039 2.009 1.28 3.259c.25 1.245.194 2.641-.15 3.973-.35 1.334-.969 2.594-1.734 3.728-1.538 2.28-3.576 4.143-5.747 5.821-3.216 2.455-6.464 4.311-9.386 5.98-2.928 1.657-5.555 3.096-7.673 4.433-2.124 1.325-3.734 2.557-4.746 3.539-.514.483-.877.9-1.121 1.186l-.361.45.207-.543c.15-.351.383-.87.762-1.499.738-1.271 2.07-2.971 3.965-4.781 1.886-1.822 4.314-3.756 7.047-5.755l8.752-6.334c2.007-1.544 3.844-3.112 5.166-4.765 1.343-1.652 2.039-3.358 1.975-5.055-.049-1.706-.813-3.359-1.653-4.723-.222-.335-.43-.684-.65-.954-.11-.142-.21-.29-.323-.423l-.351-.379c-.465-.496-.964-.896-1.434-1.235-1.09-.392-2.472-.716-4.081-.769-1.603-.062-3.423.097-5.293.606-.931.258-1.875.59-2.787 1.026-.905.445-1.776.988-2.533 1.639s-1.388 1.408-1.806 2.242-.632 1.743-.612 2.732c.002.181.032.367.043.55l.019.275.056.279.104.558.167.559c.096.366.244.763.394 1.12.147.366.313.703.487 1.017.346.627.748 1.126 1.15 1.435.404.315.8.471 1.295.489.997.054 2.26-.589 3.205-1.416.962-.831 1.716-1.858 2.086-2.82.18-.479.261-.938.213-1.304-.037-.357-.213-.679-.502-.904-.292-.237-.684-.392-1.066-.487-.383-.101-.763-.141-1.108-.166-.693-.046-1.249-.006-1.625.015l-.578.045z" fill="url(#M)"/><path d="M20.07 16.599l-1.672 7.372a.63.63 0 0 0 .003.286l1.741 6.959a.62.62 0 0 1-.906.685l-5.181-2.969c-1.782-1.021-3.698-1.786-5.693-2.274l-7.697-1.88a.62.62 0 0 1-.037-1.189L9.592 20.8c1.148-.357 2.258-.831 3.31-1.413l6.265-3.465a.62.62 0 0 1 .903.677z" fill="url(#N)"/><path d="M178.654 22.456c1.75-1.643 5.341-3.773 7.468-3.773 2.889 0 5.232 2.342 5.232 5.232s-2.342 5.232-5.232 5.232c-2.242 0-6.105-1.978-7.73-3.773H31.482v-1.459-1.459h147.172z" fill="url(#O)"/><path d="M27.734 20.166a3.75 3.75 0 0 1 3.748 3.748 3.75 3.75 0 0 1-3.748 3.748 3.75 3.75 0 0 1-3.748-3.748 3.75 3.75 0 0 1 3.748-3.748z" fill="url(#P)"/><defs><linearGradient id="A" x1="403.88" y1="18.682" x2="594.863" y2="18.682" xlink:href="#Q"><stop stop-color="#9a7a5f"/><stop offset=".077" stop-color="#c9a885"/><stop offset=".147" stop-color="#d4b895"/><stop offset=".266" stop-color="#e2cdab"/><stop offset=".382" stop-color="#ebdab8"/><stop offset=".489" stop-color="#eedebc"/><stop offset=".588" stop-color="#ebdab8"/><stop offset=".69" stop-color="#e3ceab"/><stop offset=".794" stop-color="#d5b997"/><stop offset=".862" stop-color="#c9a885"/><stop offset="1" stop-color="#9a7a5f"/></linearGradient><linearGradient id="B" x1="405.752" y1="26.043" x2="593.721" y2="26.043" xlink:href="#Q"><stop stop-color="#9a7a5f"/><stop offset=".077" stop-color="#c9a885"/><stop offset=".147" stop-color="#d4b895"/><stop offset=".266" stop-color="#e2cdab"/><stop offset=".382" stop-color="#ebdab8"/><stop offset=".489" stop-color="#eedebc"/><stop offset=".588" stop-color="#ebdab8"/><stop offset=".69" stop-color="#e3ceab"/><stop offset=".794" stop-color="#d5b997"/><stop offset=".862" stop-color="#c9a885"/><stop offset="1" stop-color="#9a7a5f"/></linearGradient><linearGradient id="C" x1="410.637" y1="31.764" x2="594.863" y2="31.764" xlink:href="#Q"><stop stop-color="#9a7a5f"/><stop offset=".077" stop-color="#c9a885"/><stop offset=".147" stop-color="#d4b895"/><stop offset=".266" stop-color="#e2cdab"/><stop offset=".382" stop-color="#ebdab8"/><stop offset=".489" stop-color="#eedebc"/><stop offset=".588" stop-color="#ebdab8"/><stop offset=".69" stop-color="#e3ceab"/><stop offset=".794" stop-color="#d5b997"/><stop offset=".862" stop-color="#c9a885"/><stop offset="1" stop-color="#9a7a5f"/></linearGradient><linearGradient id="D" x1="572.303" y1="23.17" x2="598.257" y2="23.17" xlink:href="#Q"><stop stop-color="#9a7a5f"/><stop offset=".077" stop-color="#c9a885"/><stop offset=".147" stop-color="#d4b895"/><stop offset=".266" stop-color="#e2cdab"/><stop offset=".382" stop-color="#ebdab8"/><stop offset=".489" stop-color="#eedebc"/><stop offset=".588" stop-color="#ebdab8"/><stop offset=".69" stop-color="#e3ceab"/><stop offset=".794" stop-color="#d5b997"/><stop offset=".862" stop-color="#c9a885"/><stop offset="1" stop-color="#9a7a5f"/></linearGradient><linearGradient id="E" x1="401.029" y1="27.737" x2="432.102" y2="27.737" xlink:href="#Q"><stop stop-color="#9a7a5f"/><stop offset=".077" stop-color="#c9a885"/><stop offset=".147" stop-color="#d4b895"/><stop offset=".266" stop-color="#e2cdab"/><stop offset=".382" stop-color="#ebdab8"/><stop offset=".489" stop-color="#eedebc"/><stop offset=".588" stop-color="#ebdab8"/><stop offset=".69" stop-color="#e3ceab"/><stop offset=".794" stop-color="#d5b997"/><stop offset=".862" stop-color="#c9a885"/><stop offset="1" stop-color="#9a7a5f"/></linearGradient><linearGradient id="F" x1="777.838" y1="23.914" x2="797.804" y2="23.914" xlink:href="#Q"><stop stop-color="#9a7a5f"/><stop offset=".077" stop-color="#c9a885"/><stop offset=".147" stop-color="#d4b895"/><stop offset=".266" stop-color="#e2cdab"/><stop offset=".382" stop-color="#ebdab8"/><stop offset=".489" stop-color="#eedebc"/><stop offset=".588" stop-color="#ebdab8"/><stop offset=".69" stop-color="#e3ceab"/><stop offset=".794" stop-color="#d5b997"/><stop offset=".862" stop-color="#c9a885"/><stop offset="1" stop-color="#9a7a5f"/></linearGradient><linearGradient id="G" x1="606.646" y1="23.915" x2="766.518" y2="23.915" xlink:href="#Q"><stop stop-color="#9a7a5f"/><stop offset=".077" stop-color="#c9a885"/><stop offset=".147" stop-color="#d4b895"/><stop offset=".266" stop-color="#e2cdab"/><stop offset=".382" stop-color="#ebdab8"/><stop offset=".489" stop-color="#eedebc"/><stop offset=".588" stop-color="#ebdab8"/><stop offset=".69" stop-color="#e3ceab"/><stop offset=".794" stop-color="#d5b997"/><stop offset=".862" stop-color="#c9a885"/><stop offset="1" stop-color="#9a7a5f"/></linearGradient><linearGradient id="H" x1="766.518" y1="23.914" x2="774.014" y2="23.914" xlink:href="#Q"><stop stop-color="#9a7a5f"/><stop offset=".077" stop-color="#c9a885"/><stop offset=".147" stop-color="#d4b895"/><stop offset=".266" stop-color="#e2cdab"/><stop offset=".382" stop-color="#ebdab8"/><stop offset=".489" stop-color="#eedebc"/><stop offset=".588" stop-color="#ebdab8"/><stop offset=".69" stop-color="#e3ceab"/><stop offset=".794" stop-color="#d5b997"/><stop offset=".862" stop-color="#c9a885"/><stop offset="1" stop-color="#9a7a5f"/></linearGradient><linearGradient id="I" x1="203.137" y1="18.682" x2="394.12" y2="18.682" xlink:href="#Q"><stop stop-color="#9a7a5f"/><stop offset=".077" stop-color="#c9a885"/><stop offset=".147" stop-color="#d4b895"/><stop offset=".266" stop-color="#e2cdab"/><stop offset=".382" stop-color="#ebdab8"/><stop offset=".489" stop-color="#eedebc"/><stop offset=".588" stop-color="#ebdab8"/><stop offset=".69" stop-color="#e3ceab"/><stop offset=".794" stop-color="#d5b997"/><stop offset=".862" stop-color="#c9a885"/><stop offset="1" stop-color="#9a7a5f"/></linearGradient><linearGradient id="J" x1="204.279" y1="26.043" x2="392.248" y2="26.043" xlink:href="#Q"><stop stop-color="#9a7a5f"/><stop offset=".077" stop-color="#c9a885"/><stop offset=".147" stop-color="#d4b895"/><stop offset=".266" stop-color="#e2cdab"/><stop offset=".382" stop-color="#ebdab8"/><stop offset=".489" stop-color="#eedebc"/><stop offset=".588" stop-color="#ebdab8"/><stop offset=".69" stop-color="#e3ceab"/><stop offset=".794" stop-color="#d5b997"/><stop offset=".862" stop-color="#c9a885"/><stop offset="1" stop-color="#9a7a5f"/></linearGradient><linearGradient id="K" x1="203.137" y1="31.764" x2="387.363" y2="31.764" xlink:href="#Q"><stop stop-color="#9a7a5f"/><stop offset=".077" stop-color="#c9a885"/><stop offset=".147" stop-color="#d4b895"/><stop offset=".266" stop-color="#e2cdab"/><stop offset=".382" stop-color="#ebdab8"/><stop offset=".489" stop-color="#eedebc"/><stop offset=".588" stop-color="#ebdab8"/><stop offset=".69" stop-color="#e3ceab"/><stop offset=".794" stop-color="#d5b997"/><stop offset=".862" stop-color="#c9a885"/><stop offset="1" stop-color="#9a7a5f"/></linearGradient><linearGradient id="L" x1="199.744" y1="23.17" x2="225.697" y2="23.17" xlink:href="#Q"><stop stop-color="#9a7a5f"/><stop offset=".077" stop-color="#c9a885"/><stop offset=".147" stop-color="#d4b895"/><stop offset=".266" stop-color="#e2cdab"/><stop offset=".382" stop-color="#ebdab8"/><stop offset=".489" stop-color="#eedebc"/><stop offset=".588" stop-color="#ebdab8"/><stop offset=".69" stop-color="#e3ceab"/><stop offset=".794" stop-color="#d5b997"/><stop offset=".862" stop-color="#c9a885"/><stop offset="1" stop-color="#9a7a5f"/></linearGradient><linearGradient id="M" x1="365.898" y1="27.737" x2="396.971" y2="27.737" xlink:href="#Q"><stop stop-color="#9a7a5f"/><stop offset=".077" stop-color="#c9a885"/><stop offset=".147" stop-color="#d4b895"/><stop offset=".266" stop-color="#e2cdab"/><stop offset=".382" stop-color="#ebdab8"/><stop offset=".489" stop-color="#eedebc"/><stop offset=".588" stop-color="#ebdab8"/><stop offset=".69" stop-color="#e3ceab"/><stop offset=".794" stop-color="#d5b997"/><stop offset=".862" stop-color="#c9a885"/><stop offset="1" stop-color="#9a7a5f"/></linearGradient><linearGradient id="N" x1=".196" y1="23.914" x2="20.162" y2="23.914" xlink:href="#Q"><stop stop-color="#9a7a5f"/><stop offset=".077" stop-color="#c9a885"/><stop offset=".147" stop-color="#d4b895"/><stop offset=".266" stop-color="#e2cdab"/><stop offset=".382" stop-color="#ebdab8"/><stop offset=".489" stop-color="#eedebc"/><stop offset=".588" stop-color="#ebdab8"/><stop offset=".69" stop-color="#e3ceab"/><stop offset=".794" stop-color="#d5b997"/><stop offset=".862" stop-color="#c9a885"/><stop offset="1" stop-color="#9a7a5f"/></linearGradient><linearGradient id="O" x1="31.482" y1="23.915" x2="191.354" y2="23.915" xlink:href="#Q"><stop stop-color="#9a7a5f"/><stop offset=".077" stop-color="#c9a885"/><stop offset=".147" stop-color="#d4b895"/><stop offset=".266" stop-color="#e2cdab"/><stop offset=".382" stop-color="#ebdab8"/><stop offset=".489" stop-color="#eedebc"/><stop offset=".588" stop-color="#ebdab8"/><stop offset=".69" stop-color="#e3ceab"/><stop offset=".794" stop-color="#d5b997"/><stop offset=".862" stop-color="#c9a885"/><stop offset="1" stop-color="#9a7a5f"/></linearGradient><linearGradient id="P" x1="23.986" y1="23.914" x2="31.482" y2="23.914" xlink:href="#Q"><stop stop-color="#9a7a5f"/><stop offset=".077" stop-color="#c9a885"/><stop offset=".147" stop-color="#d4b895"/><stop offset=".266" stop-color="#e2cdab"/><stop offset=".382" stop-color="#ebdab8"/><stop offset=".489" stop-color="#eedebc"/><stop offset=".588" stop-color="#ebdab8"/><stop offset=".69" stop-color="#e3ceab"/><stop offset=".794" stop-color="#d5b997"/><stop offset=".862" stop-color="#c9a885"/><stop offset="1" stop-color="#9a7a5f"/></linearGradient><linearGradient id="Q" gradientUnits="userSpaceOnUse"/></defs></svg>