<svg xmlns="http://www.w3.org/2000/svg" xmlns:xlink="http://www.w3.org/1999/xlink" viewBox="0 0 750 500" xmlns:v="https://vecta.io/nano"><style><![CDATA[.B{fill:#263238}.C{fill:#455a64}.D{fill:#e8505b}.E{fill:#fff}.F{fill:#e0e0e0}.G{fill:#f5f5f5}.H{fill:#ebebeb}.I{fill:#fafafa}.J{opacity:.5}.K{opacity:.4}.L{opacity:.2}.M{fill:#ffb29d}.N{fill:#b78876}.O{fill:#aa6550}.P{fill:#ffbe9d}.Q{fill:#eb9078}]]></style><path d="M540.722 49.062h119.58V263.88h-119.58z" class="H"/><path d="M545.5 55.291h108.792V257.48H545.5z" class="I"/><path d="M654.292 57.673L545.5 196.061V55.291h108.792z" class="G"/><g class="H"><path d="M545.5 113.455h111.154v2.153H545.5zm0 48.149h111.154v2.153H545.5zm0 48.149h111.154v2.153H545.5z"/><path d="M597.147 263.213V114.531h5.497v148.682zM566.448 55.291h2.49v59.24h-2.49zm21.477 0h2.49v59.24h-2.49zm21.476 0h2.49v59.24h-2.49zm21.477 0h2.49v59.24h-2.49z"/></g><path d="M535.664 45.418h5.058v219.791h-5.058z" class="G"/><g class="F"><path d="M665.36 265.816l-5.058-1.937V45.418h5.058z"/><path d="M535.664 43.201H665.36v5.861H535.664zm-3.588 223.338h136.708V272H532.076z"/></g><path d="M660.302 263.879l8.481 2.66H532.076l8.646-2.66zm28.142 86.874c4.835-2.495 10.528-2.819 15.896-1.932 2.884.477 5.89 1.339 7.852 3.505s2.334 5.978.081 7.839c-1.341 1.108-3.212 1.276-4.951 1.256-4.202-.049-8.865-.789-12.221 1.74-1.915 1.442-3.19 3.84-5.48 4.55-2.24.694-4.768-.628-5.956-2.65s-1.228-4.55-.674-6.828c-.001 0 .582-4.967 5.453-7.48zm-11.077-21.384c2.956 4.223 8.703 2.824 11.367.247s3.79-6.313 4.815-9.875c2.342-8.139 4.703-16.677 2.962-24.966-.521-2.478-1.447-4.949-3.188-6.788s-4.419-2.932-6.867-2.285c-2.897.765-4.698 3.603-5.999 6.302-3.825 7.935-5.851 16.731-5.881 25.54-.015 4.115.47 8.429 2.791 11.825m-8.119 6.059c3.21-3.81 3.819-9.366 2.391-14.139s-4.656-8.833-8.374-12.148a45.1 45.1 0 0 0-14.996-8.848c-2.169-.762-4.456-1.364-6.744-1.146s-4.593 1.388-5.66 3.424c-1.578 3.01-.065 6.661 1.572 9.639 2.883 5.248 6.18 10.268 9.849 14.999 2.952 3.806 6.334 7.561 10.833 9.281s9.173 1.518 11.558-1.602" class="H"/><g class="F"><path d="M677.166 393.066c.055.003.145-.681.268-1.919l.51-5.236 1.178-7.681c.61-2.848 1.565-5.935 2.792-9.065 1.27-3.112 2.819-5.94 4.629-8.202 1.797-2.272 3.887-3.917 5.852-4.865 1.958-.967 3.714-1.36 4.928-1.535l1.911-.276c0-.055-.686-.064-1.944-.03-1.246.083-3.075.399-5.139 1.337-2.071.918-4.288 2.588-6.173 4.908-1.9 2.309-3.506 5.2-4.798 8.367-1.248 3.185-2.189 6.304-2.772 9.214-.581 2.905-.847 5.556-1.021 7.778l-.26 5.269.039 1.936z"/><path d="M677.527 389.037c.027-.001.044-.308.052-.891l-.007-2.546.113-9.355c.196-7.897.875-16.395 2.189-28.377 1.244-11.267 2.913-24.378 4.674-32.903a141.43 141.43 0 0 1 1.116-5.211l.914-3.92.595-2.475c.128-.568.182-.871.156-.878s-.132.28-.309.835l-.739 2.439c-.328 1.058-.664 2.37-1.047 3.895-.4 1.521-.819 3.262-1.233 5.198-1.743 7.724-3.588 18.52-4.914 30.531-1.316 12.007-1.909 22.939-1.961 30.855-.047 3.958.037 7.162.138 9.373l.156 2.545c.044.582.08.887.107.885z"/><path d="M677.58 367.952c.055-.002.045-.947-.019-2.66-.098-1.709-.333-4.179-.814-7.205-.51-3.019-1.223-6.603-2.344-10.498-.485-1.781-1.626-6.047-4.39-12.422-3.641-8.638-8.589-15.7-12.892-20.075-1.009-1.161-2.134-1.998-3.033-2.819-.465-.393-.877-.786-1.296-1.097l-1.177-.811c-1.417-.969-2.21-1.479-2.239-1.434-.127.173 3.173 2.115 7.339 6.547 4.15 4.423 8.958 11.437 12.57 20.002 2.014 4.646 3.419 8.79 4.415 12.308 1.151 3.857 1.916 7.405 2.493 10.394a105.01 105.01 0 0 1 1.059 7.134c.16 1.697.274 2.638.328 2.636zm-20.38 37.195l2.113 28.945h37.186l2.113-28.945z"/><path d="M653.608 393.737h49.44v11.409h-49.44z"/></g><path d="M653.608 432.985v3.162h2.323 46.3v-3.162z" class="H"/><path d="M658.208 441.713l-2.277-5.566h44.529l-2.656 5.566z" class="F"/><path d="M697.921 414.607c.008.007-.051.097-.173.266l-.556.737-2.166 2.772-.096.123-.093-.129-5.322-7.361h.306l-5.24 7.419-.164.233-.184-.219-6.214-7.393.358-.005-.342.43-5.557 6.966-.185.232-.171-.242-5.242-7.417.305.014-6.456 7.356-.115.131-.087-.147-2.021-3.396-.519-.904-.159-.323c.01-.006.083.092.217.287l.574.87 2.122 3.334-.202-.016 6.353-7.445.16-.188.145.202 5.289 7.384-.356-.01 5.543-6.976.342-.43.177-.222.182.217 6.197 7.408-.348.014 5.292-7.382.155-.216.151.216 5.21 7.441-.189-.006 2.254-2.702.603-.698c.138-.155.213-.232.222-.225zm1.208-9.652c0 .128-9.318.231-20.809.231s-20.811-.104-20.811-.231 9.316-.231 20.811-.231l20.809.231zm1.879 31.504c0 .128-10.126.232-22.615.232s-22.617-.104-22.617-.232 10.124-.231 22.617-.231l22.615.231z" class="G"/><path d="M71.654 230.802s-7.577-.545-6.879 16.451 2.432 26.05 2.432 26.05-.223 3.769-3.142 3.029-8.409-4.407-11.121-1.666c-2.812 2.843-1.812 7.204 1.918 12.341s11.491 16.691 12.188 17.739c.685 1.028.96 2.956-1.109 2.771s-16.035-4.919-17.884 1.843 10.895 19.364 12.262 20.769 1.44 2.291.886 3.141-5.099-1.184-9.126-2.367-8.904-1.85-9.644 2.141 4.873 15.668 25.894 27.94l10.112 5.049 9.572-6.105c19.688-14.314 24.105-26.494 22.969-30.391s-5.922-2.745-9.81-1.165-8.206 4.058-8.843 3.268-.652-1.68.567-3.214 12.639-15.349 10.123-21.891-15.938-.436-17.978-.044-1.96-1.554-1.381-2.646l10.353-18.869c3.198-5.484 3.757-9.924.674-12.471-2.972-2.457-8.069 1.742-10.899 2.77s-3.429-2.7-3.429-2.7.82-9.181-.186-26.162-8.672-15.61-8.672-15.61" class="H"/><g class="F"><path d="M72.253 246.025a5.27 5.27 0 0 0 .041.355l.081 1.043.272 4.014.875 14.77 2.335 48.756 2.222 48.767.752 14.774.2 4.017.042 1.045.001.357s-.02-.12-.041-.354l-.081-1.043-.272-4.013-.874-14.769-2.336-48.764-2.222-48.758-.752-14.775-.2-4.018-.042-1.046-.001-.358z"/><path d="M60.418 280.107c.019-.019.242.168.629.523l1.604 1.541 5.071 5.302 4.946 5.412 1.505 1.632.527.626c-.018.019-.243-.166-.633-.519l-1.597-1.55-5.032-5.338-4.983-5.374-1.514-1.626-.523-.629zm15.286 14.702c-.076-.075 3.622-3.948 8.259-8.65s8.46-8.453 8.536-8.378-3.621 3.947-8.26 8.65-8.459 8.453-8.535 8.378zm-.042 29.305c-.012-.024.24-.182.705-.449l1.978-1.11 6.456-3.77 6.289-4.044 1.887-1.259.719-.425c.016.022-.21.215-.631.548l-1.819 1.361-6.243 4.15-6.529 3.681-2.038 1.003-.774.314zm-16.753-10.256c.014-.023.262.095.699.328l1.833 1.019 5.974 3.487 5.917 3.585 1.771 1.125c.414.273.636.435.622.458s-.262-.095-.699-.328l-1.833-1.019-5.975-3.487-5.916-3.584-1.771-1.124-.622-.46zm-3.323 25.867c.013-.023.33.131.89.43l2.354 1.298 7.691 4.41 7.636 4.508 2.292 1.405.814.561c-.013.023-.33-.131-.89-.43l-2.354-1.298-7.693-4.41-7.634-4.508-2.292-1.405-.814-.561z"/><path d="M76.828 351.889c-.013-.023.301-.232.879-.589l2.458-1.497 8.037-5.044 7.866-5.311 2.363-1.642.894-.566c.016.021-.271.265-.804.688l-2.293 1.743-7.814 5.413-8.11 4.956-2.522 1.392-.954.457zm15.199 17.452H64.05l9.131 69.122h9.715z"/></g><path d="M65.502 377.838c-.011.007.031.098.149.246s.338.338.675.483c.663.289 1.828.312 2.955-.363 1.13-.623 2.114-1.847 3.628-2.388 1.502-.573 3.362-.471 5.145.102 1.804.558 3.371 1.471 4.791 2.321l3.896 2.09c1.161.507 2.173.741 2.873.83.351.047.625.061.812.055.186 0 .283-.008.284-.023.016-.091-1.583-.077-3.838-1.157-1.13-.517-2.398-1.289-3.81-2.156-1.404-.867-3.009-1.82-4.872-2.397-1.841-.592-3.82-.7-5.43-.059-.805.307-1.48.788-2.044 1.264l-1.601 1.241c-1.023.661-2.098.689-2.725.473-.646-.223-.852-.601-.888-.562zm1.021 12.731c.037.023.222-.285.659-.742.445-.443 1.175-1.024 2.234-1.417 1.05-.403 2.398-.642 3.89-.586 1.499.052 3.132.381 4.869.663 1.733.291 3.451.422 4.985.207a13.71 13.71 0 0 0 3.922-1.12 12.5 12.5 0 0 0 2.359-1.402c.516-.391.762-.654.747-.672-.052-.076-1.133.892-3.235 1.779a14.32 14.32 0 0 1-3.843.998c-1.49.185-3.139.049-4.862-.24l-4.928-.633c-1.548-.035-2.944.247-4.024.707-1.09.449-1.827 1.101-2.245 1.597-.201.259-.348.465-.423.62-.083.151-.119.233-.105.241zm22.335 6.815c.011-.021-.248-.196-.771-.4s-1.316-.417-2.318-.497-2.203-.015-3.506.2l-4.172.884c-1.467.309-2.884.518-4.166.47s-2.422-.325-3.307-.715c-1.8-.79-2.441-1.94-2.509-1.867-.018.01.11.299.473.73s.99.981 1.9 1.43 2.09.773 3.425.843 2.794-.131 4.279-.444l4.15-.916c1.276-.234 2.441-.329 3.416-.293 1.961.065 3.077.659 3.106.575zm-19.863 9.586c.014.073.999-.623 2.716-.274.842.152 1.783.579 2.842 1.059 1.054.492 2.325.912 3.689 1.017 2.749.264 5.193-.624 6.693-1.551.768-.455 1.303-.946 1.666-1.281.34-.362.515-.571.493-.593-.061-.067-.796.76-2.32 1.594-1.498.829-3.858 1.629-6.49 1.375-2.649-.151-4.682-1.731-6.518-1.94-.895-.134-1.644-.006-2.11.183-.475.187-.675.395-.661.411zm1.558 13.267c0 .052.938.046 2.333-.464 1.406-.47 3.147-1.548 5.18-2.356 1.02-.389 2.042-.628 2.973-.623s1.761.232 2.391.546c1.285.64 1.657 1.549 1.728 1.491.02-.009-.037-.237-.265-.59s-.654-.81-1.311-1.186-1.535-.652-2.536-.681-2.085.214-3.142.617c-2.106.84-3.792 1.949-5.135 2.482-1.328.573-2.227.691-2.216.764zm1.372 6.173c-.015.057.655.298 1.771.575s2.68.573 4.428.746 3.341.185 4.489.13 1.853-.16 1.849-.219c-.007-.138-2.835-.017-6.294-.365l-6.243-.867z" class="G"/><path d="M709.468 440.365c0 .144-149.347.26-333.532.26-184.249 0-333.564-.117-333.564-.26s149.314-.26 333.564-.26l333.532.26z" class="B"/><g class="C"><path d="M177.111 340.297h7.314v87.635h-7.314z"/><path d="M231.833 340.297H127.22h0a11.36 11.36 0 0 1 11.355-11.355h81.903c6.271-.001 11.355 5.083 11.355 11.355h0z"/></g><path d="M187.185 340.521c0 .149-2.873.269-6.417.269s-6.418-.121-6.418-.269 2.873-.269 6.418-.269l6.417.269z" class="B"/><path d="M212.762 435.871h-1.035c0-17.162-13.962-31.124-31.123-31.124s-31.123 13.962-31.123 31.124h-1.035c0-17.732 14.426-32.158 32.157-32.158s32.159 14.426 32.159 32.158z" class="C"/><path d="M153.786 435.286c0 2.663-2.159 4.822-4.822 4.822s-4.822-2.159-4.822-4.822 2.159-4.822 4.822-4.822 4.822 2.16 4.822 4.822z" class="B"/><g class="C"><use xlink:href="#B"/><use xlink:href="#C"/><path d="M124.836 253.539v64.512c0 8.461 6.859 15.319 15.319 15.319h49.71l-6.752-79.831a6.83 6.83 0 0 0-6.827-6.827h-44.622a6.83 6.83 0 0 0-6.828 6.827z"/></g><g class="B"><path d="M142.407 328.941c-.015.012-.208-.195-.553-.61-.353-.408-.844-1.036-1.435-1.875-1.166-1.68-2.718-4.259-3.876-7.759-.576-1.745-1.071-3.711-1.333-5.861-.294-2.152-.25-4.473-.259-6.882l-.021-15.732.076-28.584.083-8.662.049-2.355.053-.821s.035.283.052.821l.049 2.355.083 8.662.076 28.584-.02 15.732.208 6.83c.239 2.123.707 4.068 1.254 5.8 1.1 3.473 2.586 6.056 3.694 7.76l1.349 1.923.471.674z"/><path d="M169.474 328.748c0 .036-.563.074-1.58.113l-4.306.113-14.204.177-7.824.051c-2.403.017-4.557.11-6.296.572-1.746.436-3.013 1.201-3.806 1.812l-1.21 1.005c-.013-.012.072-.124.248-.328.171-.21.441-.502.834-.835.769-.672 2.052-1.515 3.838-2.01 1.777-.521 3.984-.653 6.382-.696l7.823-.092 14.215-.025 4.308.052 1.578.091z"/></g><g class="N"><path d="M280.26 219.754l-4.849 4.978-9.712-10.346 3.23-5.529.52-2.389c.198-1.046.214-2.12.059-3.173-.187-1.276-.503-2.961-.955-3.831-.559-1.075.442-2.279 1.412-1.796s2.581 3.407 2.81 7.314 3.731-1.071 5.039-2.861 5.61-7.133 6.468-7.153c1.258-.029 1.529 1.347.182 3.104-1.363 1.778-5.024 7.318-4.064 7.986l.038-.005a4.73 4.73 0 0 1 4.803 2.692c.831 1.765 1.739 4.254.883 5.333-1.616 2.033-5.864 5.676-5.864 5.676z"/><path d="M265.698 214.385l-34.87 28.71 14.005 19.555 30.578-37.918z"/></g><g class="O"><path d="M283.694 206.896c.05.051-.618.792-1.739 1.948l-1.987 2.01-1.188 1.176c-.432.387-.942.889-1.742.875a1.23 1.23 0 0 1-.954-.559c-.201-.309-.272-.661-.253-.999.059-.697.462-1.199.816-1.604a25.36 25.36 0 0 1 2.037-1.992c1.223-1.063 2.069-1.603 2.109-1.551.048.061-.715.702-1.859 1.821l-1.925 2.037c-.329.387-.641.839-.669 1.319s.258.998.732 1.009c.469.029.96-.356 1.355-.725l1.206-1.15 2.065-1.93 1.996-1.685z"/><path d="M284.946 209.424c.05.052-.591.766-1.667 1.878l-1.91 1.935-1.169 1.13c-.227.186-.48.367-.791.486-.302.125-.701.157-1.046.006-.725-.342-.9-1.163-.745-1.774.165-.624.563-1.069.909-1.448.704-.755 1.381-1.391 1.97-1.901 1.181-1.017 1.995-1.536 2.035-1.483.048.061-.683.68-1.786 1.754l-1.863 1.952c-.329.375-.657.781-.77 1.25-.113.436.059 1.009.456 1.173.404.185.909-.082 1.307-.409.398-.333.786-.737 1.158-1.079l1.987-1.855 1.925-1.615z"/><path d="M286.341 211.812c.05.051-.563.738-1.594 1.807l-1.83 1.858c-.349.337-.693.737-1.186 1.057-.244.155-.531.297-.872.324a1.23 1.23 0 0 1-.967-.345c-.504-.517-.524-1.278-.28-1.825.237-.555.622-.95.956-1.308.68-.718 1.333-1.326 1.9-1.812 1.137-.971 1.919-1.467 1.959-1.413.048.061-.652.657-1.711 1.685l-1.796 1.865c-.324.361-.659.737-.837 1.175-.187.416-.131.953.173 1.261s.798.232 1.201-.039c.412-.256.761-.635 1.124-.97l1.908-1.778 1.852-1.542zm-11.07 6.033c-.077-.031.12-.572.234-1.469a7.65 7.65 0 0 0-.343-3.45 7.63 7.63 0 0 0-1.883-2.911c-.648-.63-1.139-.931-1.099-1.003.026-.055.592.135 1.342.726.745.581 1.643 1.622 2.131 3.016s.434 2.767.214 3.686c-.217.93-.541 1.431-.596 1.405z"/></g><g class="D"><path d="M206.325 246.871l5.199 52.234-64.166 1.399.348-42.049-4.639-36.263c3.045-16.965 26.827-18.132 26.827-18.132l18.664-.303s8.78-1.162 18.361 4.075c0 0 18.947 10.313 18.775 36.517"/><path d="M147.951 213.357c-5.599 5.353-11.023 16.098-9.012 37.611l29.84-1.231-.769-29.434a9.94 9.94 0 0 0-3.849-7.598h0c-4.843-3.753-11.781-3.582-16.21.652z"/></g><path d="M210.403 291.632c.009.013-.17.156-.536.397-.372.228-.943.542-1.733.813-1.569.558-4.051.849-6.985.27-2.944-.53-6.195-1.991-9.937-2.984a33.4 33.4 0 0 0-12.506-.778c-4.462.52-8.451 2.164-12.083 3.583-3.627 1.439-7.036 2.53-10.013 2.795-2.971.301-5.403-.13-6.968-.682-.782-.287-1.365-.567-1.744-.784s-.569-.345-.56-.361c.027-.052.805.449 2.367.953 1.561.484 3.949.851 6.866.508 2.924-.307 6.264-1.414 9.877-2.875 3.607-1.437 7.655-3.124 12.193-3.653a33.33 33.33 0 0 1 12.693.83c1.906.496 3.648 1.159 5.285 1.726 1.635.574 3.17 1.06 4.604 1.361 2.869.613 5.294.385 6.849-.102 1.568-.484 2.301-1.072 2.331-1.017z" class="I"/><g class="L"><path d="M147.434 291.259l.257.205c6.904 5.396 17.003 6.398 24.807 2.382 3.012-1.55 5.696-3.769 8.902-4.863 4.554-1.554 9.528-.65 14.28.107s10.425 1.271 14.724-.89l-.561-6.594-62.25 1.624"/></g><path d="M210.514 436.678l-.153-6.243-16.688.577.093 9.744 1.031.068c4.588.264 23.347 1.017 26.416.093 3.423-1.03-10.699-4.239-10.699-4.239z" class="D"/><g class="J E"><path d="M199.795 440.638c-.234-1.39-.896-2.787-2.007-3.655s-2.136-1.36-4.069-1.127l.064 4.663 6.012.119z"/></g><path d="M217.413 438.492s4.949 1.438 4.33 2.252-19.605.766-27.977.012l.027-.371 22.145.245c0 0 .507-2.099 1.475-2.138z" class="E J"/><g class="B"><path d="M193.532 440.374c0 .007.098.018.286.032l.821.052 3.022.138 9.978.201 9.981-.135 3.023-.118.821-.046.286-.03c0-.007-.099-.01-.287-.011l-.822.008-3.023.054-9.977.076-9.974-.142-3.023-.074-.822-.014-.29.009z"/><path d="M215.933 440.889c.061.008.111-.714.568-1.441.445-.735 1.068-1.103 1.033-1.154-.012-.05-.725.262-1.205 1.049-.488.78-.446 1.558-.396 1.546zm-4.9-2.502c.047.03.282-.255.526-.637s.403-.715.356-.745-.282.255-.526.637-.403.715-.356.745zm-1.345-.715c.037.042.3-.133.587-.39s.49-.498.453-.54-.3.133-.587.39-.49.498-.453.54zm-.847-1.572c-.001.056.387.106.867.113s.869-.033.87-.089-.387-.106-.867-.113-.869.033-.87.089zm-.289-1.107c-.019.05.404.242.967.284s1.011-.079 1-.131c-.009-.058-.449-.027-.984-.07s-.965-.139-.983-.083z"/><path d="M211.601 436.938c-.001.022.409.074 1.068-.004a6.29 6.29 0 0 0 1.138-.248c.208-.074.426-.129.652-.267.106-.07.224-.169.265-.331s-.041-.34-.161-.428c-1.02-.532-2.044.04-2.425.567-.21.269-.306.531-.35.712s-.04.287-.029.289c.038.014.073-.421.489-.91a1.93 1.93 0 0 1 .914-.591c.378-.111.915-.14 1.273.09.169.126.103.326-.086.438-.176.113-.404.182-.601.255a7.37 7.37 0 0 1-1.101.283l-1.046.145z"/><path d="M211.877 436.992c.015.012.174-.261.125-.742a1.74 1.74 0 0 0-.29-.781c-.188-.238-.43-.565-.888-.547-.248.031-.369.313-.331.493.019.187.103.348.18.478.158.267.337.484.503.648.334.328.599.454.61.434.019-.026-.212-.192-.506-.531-.146-.169-.305-.385-.446-.642-.146-.226-.246-.632.023-.68.268-.025.54.242.703.455.167.232.26.481.3.696.082.433-.018.71.017.719zm-17.994-1.166c.004.038.476-.044 1.228.046a5.37 5.37 0 0 1 2.677 1.112c.898.72 1.424 1.663 1.669 2.371.252.713.275 1.192.313 1.188.012-.001.019-.12.001-.335s-.067-.526-.179-.897c-.216-.738-.742-1.732-1.678-2.484a5.14 5.14 0 0 0-2.79-1.096 4.36 4.36 0 0 0-.915.021c-.212.029-.328.061-.326.074zm8.009 3.196c-.007.052 1.076.233 2.427.247s2.438-.136 2.432-.189-1.091.005-2.43-.013l-2.429-.045zm-3.259-.013c-.041.041.088.23.199.48s.17.47.228.467.086-.262-.044-.549-.347-.438-.383-.398zm-1.224-1.532c-.04.039.067.212.239.387s.343.285.383.246-.067-.212-.239-.387-.344-.285-.383-.246zm-1.756-.703c.012.056.232.055.477.142.246.081.42.217.463.18.045-.03-.095-.268-.398-.37s-.559-.003-.542.048zm-1.25-.332c-.02.052.075.138.213.191s.266.055.286.004-.075-.137-.213-.191-.266-.056-.286-.004z"/></g><path d="M193.71 434.924l16.777-.706v-.681h-16.814z" opacity=".3"/><path d="M265.228 435.789l-.156-6.389-17.08.591.095 9.972 1.055.07c4.696.27 23.895 1.041 27.036.096 3.503-1.056-10.95-4.34-10.95-4.34z" class="D"/><g class="J E"><path d="M254.258 439.842c-.24-1.422-.917-2.853-2.054-3.74s-2.187-1.392-4.165-1.154l.066 4.773 6.153.121z"/></g><path d="M272.289 437.646s5.065 1.472 4.431 2.305-20.065.784-28.634.012l.028-.38 22.664.251c.001 0 .52-2.149 1.511-2.188z" class="E J"/><g class="B"><path d="M247.848 439.572c0 .007.1.018.292.033l.84.053 3.093.141a299.98 299.98 0 0 0 10.212.206 300.51 300.51 0 0 0 10.215-.138l3.094-.121.841-.047.292-.031s-.101-.011-.294-.011l-.842.008-3.094.055-10.211.078-10.209-.145-3.094-.076-.842-.014c-.192-.001-.293.002-.293.009z"/><path d="M270.774 440.099c.063.008.113-.73.581-1.475.456-.753 1.093-1.129 1.057-1.182-.012-.051-.742.268-1.233 1.073-.499.8-.456 1.596-.405 1.584zm-5.015-2.561c.048.031.289-.261.538-.652s.412-.732.364-.763-.289.261-.538.652-.412.733-.364.763zm-1.376-.732c.038.043.307-.136.601-.399s.501-.51.464-.552-.307.136-.601.399-.502.509-.464.552zm-.867-1.608c-.001.057.397.109.888.115s.89-.034.89-.091-.396-.109-.888-.115-.889.034-.89.091zm-.296-1.134c-.019.051.413.247.99.291s1.035-.081 1.023-.134c-.009-.059-.46-.027-1.007-.072s-.988-.142-1.006-.085z"/><path d="M266.34 436.055c-.002.023.418.076 1.093-.004a6.37 6.37 0 0 0 1.165-.254c.213-.075.436-.132.667-.273.108-.072.229-.173.272-.339s-.042-.348-.165-.438c-1.044-.544-2.092.041-2.482.58-.214.275-.313.544-.359.729s-.041.294-.029.295c.039.014.075-.43.501-.932.21-.246.527-.484.936-.605.386-.113.936-.143 1.303.092.173.129.105.333-.088.448-.18.116-.413.186-.615.261a7.54 7.54 0 0 1-1.127.29l-1.072.15z"/><path d="M266.623 436.11c.015.012.178-.267.128-.759-.026-.241-.114-.528-.296-.8-.193-.243-.44-.578-.909-.56-.254.032-.378.32-.338.504.02.192.105.356.185.489a3.32 3.32 0 0 0 .515.663c.342.336.613.465.625.444.019-.027-.217-.197-.518-.544-.15-.173-.312-.393-.456-.657-.15-.232-.251-.647.023-.696.274-.026.553.247.719.466a1.81 1.81 0 0 1 .308.712c.081.446-.022.73.014.738zm-18.416-1.193c.004.038.488-.045 1.257.047.762.087 1.821.402 2.74 1.138a5.48 5.48 0 0 1 1.708 2.427c.258.73.282 1.221.32 1.216.012-.001.019-.123.001-.343s-.069-.538-.183-.918c-.221-.756-.759-1.773-1.718-2.542a5.26 5.26 0 0 0-2.855-1.122 4.49 4.49 0 0 0-.936.021c-.218.03-.336.063-.334.076zm8.197 3.271c-.007.053 1.101.238 2.484.253s2.496-.139 2.49-.193c-.006-.06-1.117.005-2.487-.013l-2.487-.047zm-3.336-.013c-.042.042.09.236.203.491s.174.481.233.478.088-.269-.045-.562-.354-.449-.391-.407zm-1.253-1.568c-.041.04.069.217.244.396s.351.292.392.252-.069-.217-.244-.396-.351-.292-.392-.252zm-1.797-.719c.012.058.238.056.488.145.252.083.43.222.474.184.046-.031-.097-.274-.408-.379s-.571-.003-.554.05zm-1.28-.341c-.021.053.077.141.218.196s.272.057.293.004-.077-.141-.218-.196-.272-.057-.293-.004z"/></g><path d="M248.03 433.994l17.17-.723v-.696h-17.208z" opacity=".3"/><g class="B"><path d="M250.93 299.716l-68.169-.855 14.25 32.052 39.098.299c2.633.02 4.787 2.1 4.9 4.731l4.2 98.034 26.37-1.996-2.666-112.224a20.7 20.7 0 0 0-17.983-20.041h0z"/><path d="M186.151 333.527l2.894 101.253 32.702-2.332s-1.803-95.496-4.249-121.715c-1.674-17.946-70.141-10.229-70.141-10.229-.992 35.724 38.794 33.023 38.794 33.023"/></g><path d="M185.76 325.612c.149-.008.385 2.028.528 4.548s.139 4.57-.01 4.579-.385-2.028-.528-4.548-.139-4.571.01-4.579zm-1.193-26.566c.001-.019.202-.026.583-.024l1.668.036 6.13.258 9.069.88c3.388.549 7.139 1.555 10.51 3.774.839.556 1.591 1.225 2.255 1.958.659.741 1.15 1.621 1.472 2.525.603 1.8.887 3.6 1.082 5.308.368 3.425.36 6.518.379 9.107l.004 6.13.015 1.666c.001.381-.008.582-.026.583s-.046-.198-.082-.578a36.4 36.4 0 0 1-.116-1.665c-.079-1.448-.125-3.545-.176-6.132-.067-2.585-.1-5.671-.491-9.055-.205-1.687-.498-3.457-1.087-5.192-.572-1.715-1.932-3.129-3.532-4.211-3.254-2.146-6.954-3.165-10.283-3.728-3.37-.529-6.44-.793-9.018-.991l-6.115-.429-1.663-.137c-.38-.036-.579-.065-.578-.083z" class="C"/><path d="M138.939 250.967c.001.018.181.025.522.024l1.491-.03 5.48-.203 18.07-.861 3.616-.19.239-.012-.001-.237-.084-15.646-.076-4.636-.044-1.25c-.015-.285-.031-.434-.047-.434s-.031.149-.046.434l-.044 1.25-.076 4.636-.084 15.646.237-.25-3.617.185-18.063 1.009-5.472.364-1.487.124-.514.077zm13.849-42.33c.017.106 1.337-.321 3.481-.108 2.114.188 5.07 1.21 7.381 3.538 2.306 2.338 3.375 5.243 3.789 7.334.428 2.115.341 3.475.437 3.474.031.001.081-.334.102-.948a13.79 13.79 0 0 0-.187-2.592c-.332-2.152-1.379-5.187-3.782-7.625-2.415-2.432-5.52-3.437-7.711-3.538-1.105-.063-2 .04-2.6.177s-.917.26-.91.288zm53.56 15.051c-.069 0-.134 1.068-.176 2.822l-.003 6.888.148 6.739.03 2.616.03-2.968.148-6.744-.003-6.592-.174-2.761z" class="B"/><path d="M142.406 250.992l.716 29.416c.372 6.884 6.821 11.798 13.557 10.329l44.471-12.301 3.342-16.432-41.592 7.982-.53-19.993-19.964.999z" class="N"/><path d="M158.199 277.165c-.062.007-.202-.526-.144-1.408.053-.874.356-2.101 1.106-3.24s1.758-1.902 2.54-2.295c.787-.401 1.332-.483 1.35-.423.082.137-2.044.847-3.456 3.005-1.423 2.149-1.237 4.382-1.396 4.361z" class="O"/><path d="M167.598 231.247c.018.004.006.126-.033.357-.029.235-.123.568-.255.996-.294.839-.885 2.038-2.022 3.189-1.118 1.142-2.822 2.249-4.968 2.565-2.15.322-4.494-.255-6.771-1.027-2.288-.766-4.451-1.554-6.505-1.657-2.047-.14-3.861.493-5.185 1.28a9.64 9.64 0 0 0-2.739 2.431l-.793 1.114c-.016-.008.027-.123.124-.337s.261-.52.504-.895c.491-.741 1.345-1.762 2.711-2.627 1.346-.859 3.246-1.566 5.402-1.446 2.153.083 4.372.883 6.644 1.642 2.266.769 4.512 1.325 6.541 1.047 2.022-.27 3.669-1.286 4.776-2.352 1.125-1.072 1.747-2.203 2.091-2.999l.478-1.281zm-2.793-18.219c.024.022-.15.266-.514.663s-.935.937-1.71 1.517c-1.535 1.162-4.006 2.426-6.971 2.791s-5.67-.263-7.44-1.019c-.893-.375-1.577-.759-2.027-1.058s-.678-.492-.66-.519c.048-.08 1.039.586 2.819 1.233 1.764.651 4.384 1.197 7.244.845s5.268-1.515 6.822-2.575c1.571-1.057 2.371-1.943 2.437-1.878zm55.595 10.928c-.058.049-.413-.707-1.569-1.53-1.124-.827-3.136-1.601-5.66-1.426-2.529.143-5.324 1.479-8.14 3.295l-4.514 2.807c-1.619.891-3.402 1.707-5.373 2.05-1.968.372-3.982.099-5.731-.546-1.765-.629-3.323-1.53-4.775-2.397-2.869-1.768-5.526-3.31-8.035-3.699-2.494-.424-4.566.241-5.735.99-1.19.768-1.584 1.502-1.633 1.457-.014-.009.086-.18.307-.491a5.66 5.66 0 0 1 1.214-1.135c1.175-.827 3.306-1.576 5.904-1.184 2.61.357 5.351 1.912 8.224 3.65 1.451.852 2.991 1.727 4.7 2.329 1.699.616 3.59.867 5.471.514 1.884-.326 3.621-1.113 5.216-1.984l4.505-2.767c2.849-1.806 5.738-3.155 8.373-3.256 2.614-.134 4.681.727 5.803 1.632.58.44.932.889 1.157 1.192l.291.499zm-14.05-15.759c.03.049-.729.6-2.104 1.23s-3.382 1.284-5.684 1.537c-2.303.247-4.409.042-5.883-.28s-2.338-.695-2.319-.749c.03-.175 3.623 1.033 8.145.511 4.529-.461 7.779-2.413 7.845-2.249zm-8.241 44.501c-.035.038-.399-.351-1.201-.829-.795-.48-2.09-.971-3.756-1.056-1.667-.103-3.648.266-5.703 1.103-2.069.803-4.208 2.031-6.626 3.013-4.831 1.988-9.725 2.359-13.078 1.669-1.682-.322-2.985-.821-3.837-1.245-.434-.197-.742-.409-.959-.531-.214-.13-.321-.206-.312-.222.049-.121 1.844 1.093 5.172 1.635 3.298.583 8.068.164 12.819-1.789 2.372-.961 4.528-2.182 6.648-2.978 2.102-.83 4.18-1.18 5.9-1.023 1.724.136 3.054.703 3.839 1.252.4.267.677.52.85.702s.257.286.244.299z" class="I"/><path d="M182.014 216.746h0c5.925 0 10.706-4.84 10.64-10.765l-.102-6.897s8.553-.794 9.18-9.258.359-28.003.359-28.003h0c-9.544-4.819-20.949-4.094-29.807 1.893l-1.315.889.405 41.603c.057 5.837 4.804 10.538 10.64 10.538z" class="N"/><path d="M192.574 198.963s-5.38.105-10.848-3.819c0 0 2.234 6.257 10.732 6.015l.116-2.196z" class="O"/><path d="M173.154 173.964c-.157-.059-5.359-.736-4.867 5.407s6.533 3.615 6.529 3.438-1.662-8.845-1.662-8.845z" class="N"/><path d="M172.762 180.805c-.029-.017-.101.084-.275.181s-.469.175-.798.081c-.668-.186-1.297-1.173-1.415-2.278a3.53 3.53 0 0 1 .177-1.556c.151-.464.417-.801.739-.886.319-.101.566.076.655.243.096.165.067.291.1.299.019.014.124-.113.054-.363a.68.68 0 0 0-.273-.365.81.81 0 0 0-.604-.109c-.471.071-.862.541-1.041 1.042-.205.506-.302 1.116-.234 1.742.138 1.235.865 2.342 1.773 2.528.441.078.791-.081.966-.241.177-.169.198-.309.176-.318z" class="O"/><g class="B"><path d="M202.148 163.285c2.092-.516 2.845-3.647 2.767-5.8s-1.563-4.132-3.523-5.028-4.302-.772-6.272.102c-.595-3.129-3.658-5.594-6.842-5.506s-6.106 2.72-6.526 5.877c-.204-1.634-2.054-2.548-3.699-2.647s-3.401.385-4.468 1.637-1.173 3.351.04 4.462c-1.832-.207-3.765.174-5.256 1.259s-2.474 2.914-2.337 4.753 1.503 3.578 3.308 3.954c.621.129.775-.288 1.11.251.186.299.253 1.422.242 1.773-.059 2.031-.064 3.773.345 5.796 1.073-.541 2.433.237 2.954 1.32s.434 2.347.335 3.545c.521.784 1.837.553 2.406-.198s.604-1.764.616-2.705l.125-9.8a3.31 3.31 0 0 0 4.822-2.676 6.57 6.57 0 0 0 5.268 1.758 6.57 6.57 0 0 0 4.69-2.973c1.011.802 2.037 1.612 3.215 2.138s2.547.745 3.766.324 2.933-.326 2.914-1.616m-2.291 12.088c.022.627-.49 1.163-1.145 1.198s-1.202-.443-1.224-1.07.49-1.163 1.143-1.199 1.204.444 1.226 1.071z"/><path d="M200.116 174.038c-.147.155-1.047-.511-2.324-.507-1.276-.015-2.214.642-2.352.486-.068-.069.082-.349.49-.646a3.26 3.26 0 0 1 1.883-.581c.796.004 1.465.297 1.85.597.392.302.525.582.453.651zm-12.77 1.635c.022.627-.491 1.163-1.145 1.198s-1.202-.443-1.224-1.07.49-1.163 1.144-1.199 1.202.444 1.225 1.071zm.212-1.397c-.147.155-1.048-.511-2.325-.507-1.276-.015-2.214.642-2.352.486-.068-.069.081-.349.49-.646a3.26 3.26 0 0 1 1.883-.581c.796.005 1.465.297 1.85.597.392.302.526.582.454.651zm4.637 9.475c-.006-.073.788-.21 2.075-.374.326-.034.635-.099.69-.321.077-.236-.06-.587-.218-.967l-.965-2.484-2.167-6.498c.143-.053 1.345 2.771 2.684 6.308l.924 2.499c.123.371.336.791.169 1.28-.088.244-.327.421-.536.477-.209.064-.393.067-.554.077-1.294.07-2.097.075-2.102.003zm-3.76.884c.208-.012.21 1.375 1.397 2.359s2.663.832 2.674 1.026c.019.087-.329.269-.953.286-.612.021-1.506-.176-2.232-.778s-1.035-1.409-1.083-1.978c-.053-.58.102-.924.197-.915zm-.547-15.365c-.126.347-1.402.183-2.9.363-1.503.151-2.711.589-2.91.278-.089-.149.122-.476.611-.812s1.257-.655 2.157-.755 1.724.044 2.27.267.826.494.772.659zm11.758 1.071c-.225.29-1.105-.011-2.163-.025-1.058-.051-1.954.195-2.161-.109-.09-.147.051-.438.442-.713.386-.274 1.031-.497 1.758-.475s1.357.286 1.725.583c.376.298.498.597.399.739z"/></g><path d="M165.48 161.499c.037-.013.002.38.397.91.388.529 1.264 1.05 2.485 1.332 1.217.274 2.788.581 4.518.176.851-.209 1.733-.624 2.436-1.318.682-.667 1.25-1.732.92-2.736-.146-.484-.626-.829-1.143-.883-.526-.076-.997.307-1.035.86-.083 1.128.869 2.238 2 2.747 1.16.544 2.576.566 3.841.035 1.269-.517 2.397-1.483 3.262-2.646.414-.581.746-1.263.768-1.956.024-.687-.394-1.341-1.077-1.515-.66-.193-1.467-.023-1.93.504-.483.525-.665 1.317-.544 2.056.234 1.519 1.712 2.619 3.248 3.021 1.562.43 3.31.214 4.803-.532 1.497-.736 2.714-2.023 3.243-3.54.251-.748.258-1.578-.176-2.183-.405-.625-1.205-.901-1.817-.528-.613.356-.987 1.097-.909 1.813.053.729.433 1.42.907 1.994.969 1.158 2.352 1.915 3.775 2.148 2.84.483 5.852-1.242 6.568-3.693.375-1.202-.296-2.562-1.382-2.903-1.099-.35-2.209.606-2.4 1.623-.235 1.048.131 2.13.72 2.9.599.785 1.427 1.304 2.255 1.57s1.681.268 2.397.054c.725-.198 1.308-.605 1.762-1.022.896-.873 1.253-1.834 1.372-2.474.122-.65.076-1.006.106-1.006 0 0 .088.352-.003 1.024-.089.661-.421 1.668-1.334 2.601-.463.447-1.066.888-1.833 1.115-.759.242-1.663.251-2.553-.014a4.9 4.9 0 0 1-2.432-1.646c-.645-.83-1.067-1.987-.816-3.184.125-.591.47-1.165.984-1.55.504-.39 1.227-.585 1.893-.375 1.338.403 2.094 2.022 1.683 3.395-.367 1.383-1.42 2.505-2.682 3.238-1.272.73-2.837 1.079-4.381.822-1.536-.247-3.023-1.05-4.079-2.303-.518-.626-.957-1.391-1.028-2.275-.092-.882.352-1.828 1.161-2.295.404-.234.928-.307 1.388-.16s.84.46 1.103.839c.555.776.527 1.81.245 2.637-.584 1.681-1.9 3.053-3.504 3.846-1.6.799-3.472 1.033-5.171.566-.847-.23-1.647-.625-2.312-1.2-.659-.569-1.175-1.36-1.304-2.243-.138-.864.066-1.81.677-2.476.62-.683 1.608-.882 2.444-.639.421.124.818.384 1.07.762.259.364.358.817.354 1.24-.035.857-.419 1.595-.867 2.226-.926 1.232-2.107 2.236-3.481 2.791-1.365.566-2.935.538-4.194-.068-.632-.297-1.19-.734-1.602-1.279-.394-.544-.696-1.203-.615-1.906.038-.346.198-.698.483-.927s.658-.307.99-.27c.66.069 1.267.528 1.453 1.146.378 1.241-.303 2.381-1.036 3.094-.768.738-1.705 1.158-2.6 1.364-1.82.394-3.411.042-4.634-.263-1.243-.319-2.139-.889-2.521-1.467-.196-.283-.267-.541-.3-.71-.024-.176-.024-.264-.016-.264z" class="C"/><path d="M178.334 278.436h77.569l12.79-49.537h-64.722l-10.245 46.311-15.392.363z" class="F"/><path d="M573.66 425.769h-7.314v-87.635h7.314z" class="C"/><g class="B"><path d="M518.25 342.1h104.613 0a11.36 11.36 0 0 0-11.355-11.355h-81.903c-6.272 0-11.355 5.084-11.355 11.355h0z"/><path d="M562.897 342.325c0 .149 2.873.269 6.417.269l6.418-.269c0-.149-2.873-.269-6.418-.269l-6.417.269z"/></g><path d="M538.008 433.709h1.035c0-17.162 13.961-31.124 31.123-31.124s31.123 13.962 31.123 31.124h1.034c0-17.732-14.426-32.158-32.157-32.158s-32.158 14.426-32.158 32.158z" class="C"/><path d="M596.985 435.306c0 2.663 2.159 4.822 4.822 4.822s4.821-2.159 4.821-4.822-2.159-4.822-4.821-4.822-4.822 2.159-4.822 4.822z" class="B"/><path d="M533.463 434.641c0 2.663 2.159 4.822 4.822 4.822s4.822-2.159 4.822-4.822-2.159-4.822-4.822-4.822-4.822 2.159-4.822 4.822zm4.856-8.872c0 .149 13.993.269 31.251.269l31.254-.269c0-.148-13.99-.269-31.254-.269l-31.251.269z" class="C"/><path d="M625.935 251.377v64.512c0 8.461-6.859 15.319-15.319 15.319h-49.71l6.752-79.831a6.83 6.83 0 0 1 6.828-6.828h44.622a6.83 6.83 0 0 1 6.827 6.828z" class="B"/><g class="C"><path d="M608.364 330.745c-.007-.006.032-.069.114-.189l.365-.529 1.367-2.048a33.89 33.89 0 0 0 3.703-8.217c.547-1.825.998-3.873 1.232-6.101.264-2.225.197-4.625.196-7.164l-.021-16.49.076-29.962.083-9.079.049-2.468.052-.861s.036.296.052.861l.049 2.468.083 9.079.076 29.962-.02 16.49-.247 7.212c-.255 2.255-.733 4.322-1.309 6.16-1.148 3.688-2.706 6.428-3.885 8.219l-1.454 2.002-.561.655z"/><path d="M581.297 330.78c0-.036.562-.066 1.579-.09l4.308-.052 14.215.025 7.823.092c2.398.043 4.606.175 6.382.696 1.786.495 3.068 1.338 3.838 2.01.393.333.664.625.834.835.176.204.261.316.248.328-.045.043-.405-.398-1.21-1.005-.794-.611-2.06-1.376-3.806-1.812-1.739-.462-3.893-.555-6.296-.572l-7.824-.051-14.204-.178-4.306-.113-1.581-.113z"/></g><use xlink:href="#D" class="P"/><path d="M480.697 216.186s-5.771-5.882-6.889-6.116-11.929-5.656-11.929-5.656-1.284 1.482.318 2.752 5.382 3.562 5.382 3.562l-2.672 5.219s2.563 8.556 3.028 8.381.898-1.68.898-1.68l-.796-2.697 5.233 4.368 2.273-.262 5.154-7.871z" class="M"/><path d="M476.249 213.365c-.042.076-1.468-.625-3.642-1.771l.044.018-2.851-.766.316-.216c-.067.794.217 1.656.762 2.396.799 1.079 1.906 1.864 2.911 2.422l.19.105-.072.19c-.588 1.559-.39 3.036-.119 3.989.276.969.589 1.483.54 1.513-.038.03-.445-.441-.813-1.424-.36-.962-.652-2.536-.055-4.241l.118.295c-1.092-.575-2.237-1.359-3.122-2.543-.598-.807-.936-1.82-.838-2.751l.032-.301.285.085 2.83.841.027.008.018.01 3.439 2.141z" class="Q"/><path d="M466.59 216.092c.498 2.26 1.252 4.464 2.243 6.556.507-.604.836-1.325 1.02-2.091" class="M"/><g class="Q"><path d="M469.853 220.556c.069-.003.057 1.036-.847 2.237l-.21.279-.168-.327c-.307-.6-.639-1.324-.943-2.115-.938-2.42-1.231-4.515-1.095-4.538.147-.031.661 1.978 1.581 4.351l.866 2.108-.377-.049c.883-1.019 1.078-1.987 1.193-1.946z"/><path d="M469.975 212.156c.057-.022.5.798 1.03 2.222.255.714.518 1.594.62 2.613.095 1.015.014 2.18-.465 3.291a4.98 4.98 0 0 1-.752 1.224l-.26.307-.169-.363c-.842-1.803-1.38-3.475-1.681-4.688s-.389-1.965-.33-1.978c.144-.037.777 2.913 2.475 6.446l-.429-.055c.264-.32.491-.694.668-1.102.872-2.057.376-4.188-.027-5.584l-.68-2.333z"/></g><path d="M480.697 216.186l40.988 27.747-11.964 14.949-34.179-34.826z" class="M"/><path d="M524.233 434.948l-.207-10.076 18.871-.508.458 14.738-1.168.107c-5.199.429-26.468 1.816-29.977.854-3.914-1.073 12.023-5.115 12.023-5.115z" class="D"/><g class="J E"><path d="M536.509 439.138c.226-1.584 1.064-3.073 2.3-4.088s2.776-1.575 4.374-1.49l.146 5.274-6.82.304z"/></g><g class="K E"><path d="M516.453 437.202s-5.576 1.772-4.85 2.679 22.271.314 31.752-.779l-.042-.421-25.125.906c0 0-.635-2.369-1.735-2.385z"/></g><g class="B"><path d="M543.61 438.661c0 .008-.111.023-.323.044l-.93.082-3.426.242c-2.894.184-6.896.385-11.319.51s-8.432.15-11.331.13l-3.434-.048-.933-.029c-.213-.009-.325-.018-.325-.026s.112-.015.326-.021l.934-.014 3.433-.025 11.325-.197 11.316-.443 3.429-.17.933-.039c.212-.004.324-.004.325.004z"/><path d="M518.201 439.879c-.069.011-.146-.807-.686-1.619-.526-.822-1.243-1.222-1.205-1.281.012-.057.831.276 1.397 1.156.577.873.552 1.757.494 1.744zm5.491-2.978c-.052.035-.328-.282-.615-.708s-.478-.8-.425-.835.328.281.615.708.477.8.425.835zm1.506-.849c-.041.048-.344-.142-.677-.426s-.57-.552-.529-.6.344.142.677.425.569.552.529.601zm.916-1.808c.003.063-.437.132-.981.153s-.987-.013-.99-.076.437-.131.981-.153.988.013.99.076zm.297-1.265c.023.056-.451.286-1.09.35s-1.15-.061-1.139-.12c.009-.065.509-.043 1.115-.108s1.093-.185 1.114-.122z"/><path d="M523.006 435.273c.002.026-.462.095-1.213.026-.375-.035-.819-.111-1.299-.249-.239-.078-.488-.134-.747-.284-.122-.077-.258-.186-.31-.368s.036-.387.17-.49c1.143-.632 2.321-.012 2.768.575a2.18 2.18 0 0 1 .418.798c.054.206.054.324.04.327-.042.017-.095-.475-.581-1.019a2.19 2.19 0 0 0-1.054-.645c-.432-.115-1.042-.133-1.443.138-.189.148-.107.372.11.494.203.123.463.195.69.272.463.145.893.236 1.258.291l1.193.134z"/><path d="M522.694 435.342c-.017.014-.204-.291-.163-.838a1.99 1.99 0 0 1 .307-.895c.207-.275.472-.654.993-.646.282.028.428.345.389.55-.016.213-.107.398-.191.547-.172.308-.369.559-.552.75-.37.382-.666.532-.681.51-.022-.029.236-.224.559-.617a4.22 4.22 0 0 0 .488-.742c.159-.261.261-.724-.045-.771-.304-.021-.606.29-.784.537-.183.268-.281.553-.321.798-.081.495.041.807.001.817zm20.389-1.833c-.003.043-.542-.037-1.392.087-.842.117-2.008.496-3.007 1.337s-1.569 1.928-1.827 2.738c-.266.817-.279 1.361-.321 1.357-.014 0-.025-.136-.011-.381a4.99 4.99 0 0 1 .178-1.023c.224-.844.793-1.987 1.834-2.866s2.265-1.244 3.135-1.323a4.94 4.94 0 0 1 1.039-.002c.242.028.373.062.372.076z"/><path d="M540.911 425.71c.063-.003.184 1.731.27 3.871l.042 3.881c-.063.002-.184-1.731-.27-3.872l-.042-3.88zm-6.827 11.653c.01.059-1.214.295-2.747.349-1.533.059-2.771-.086-2.766-.145.005-.066 1.239-.025 2.757-.083l2.756-.121zm3.698-.107c.047.045-.094.264-.212.55s-.18.539-.245.536-.105-.296.034-.625.381-.506.423-.461zm1.346-1.773c.046.043-.07.243-.26.446s-.381.333-.427.29.07-.243.26-.446.381-.333.427-.29zm1.973-.848c-.011.064-.262.069-.537.174-.277.099-.47.258-.521.217-.052-.033.1-.306.441-.431s.635-.018.617.04zm1.409-.412c.024.058-.081.158-.236.223s-.3.07-.325.012.081-.158.236-.223.301-.071.325-.012z"/></g><path d="M478.659 381.041l4.375-9.079 17.058 8.086-6.26 13.35-1.09-.433c-4.831-1.97-24.425-10.357-27.12-12.802-3.004-2.728 13.037.878 13.037.878z" class="D"/><g class="J E"><path d="M487.711 390.332a6.55 6.55 0 0 1 3.901-2.605c1.562-.347 3.189-.148 4.575.65l-2.256 4.769-6.22-2.814z"/></g><g class="K E"><path d="M470.701 379.531s-5.775-.943-5.537.195 19.719 10.357 28.668 13.672l.153-.394-22.816-10.561c.001 0 .506-2.399-.468-2.912z"/></g><g class="B"><path d="M494.259 393.12c-.003.007-.109-.03-.308-.107l-.867-.348-3.164-1.334c-2.664-1.145-6.323-2.777-10.325-4.666s-7.587-3.681-10.163-5.011l-3.04-1.597-.819-.448c-.186-.105-.282-.163-.278-.17s.107.038.3.129l.839.41 3.073 1.531 10.188 4.949 10.292 4.725 3.134 1.4.85.388c.19.091.291.142.288.149z"/><path d="M471.049 382.71c-.067-.022.235-.785.121-1.755-.097-.971-.556-1.652-.495-1.688.037-.046.616.622.723 1.663.119 1.04-.304 1.817-.349 1.78zm6.243-.171c-.063.008-.165-.399-.228-.909s-.064-.93-.001-.937.165.399.228.909.064.929.001.937zm1.728-.077c-.058.024-.242-.283-.411-.686s-.259-.75-.201-.775.243.283.411.686.259.751.201.775zm1.635-1.197c-.026.058-.449-.08-.944-.308s-.875-.458-.848-.516.449.08.944.308.875.458.848.516zm.838-.994c-.005.06-.532.051-1.13-.181s-.998-.574-.961-.622c.037-.055.473.192 1.043.409s1.056.329 1.048.394z"/><path d="M477.418 380.776c-.01.024-.455-.124-1.093-.526-.319-.2-.68-.47-1.046-.81-.178-.177-.374-.34-.538-.592-.074-.124-.147-.283-.11-.469a.48.48 0 0 1 .374-.36c1.305-.047 2.076 1.039 2.208 1.765.083.378.054.694.011.901s-.099.314-.112.31c-.045-.004.13-.467-.057-1.172-.093-.346-.297-.737-.649-1.052-.333-.298-.869-.59-1.349-.529-.235.047-.264.283-.125.49.125.202.325.383.492.555.347.339.69.615.99.828l1.004.661z"/><path d="M477.108 380.696c-.021.005-.051-.352.234-.821.141-.229.366-.474.678-.659.309-.152.716-.369 1.177-.127.239.153.226.501.098.666-.111.183-.275.307-.418.402-.293.197-.582.331-.832.418-.503.173-.835.173-.837.147-.007-.036.312-.093.778-.297.233-.102.5-.245.771-.441.26-.161.56-.528.309-.708-.262-.156-.672-.016-.943.124a1.99 1.99 0 0 0-.647.566c-.295.406-.327.739-.368.73zm19.012 7.591c-.022.037-.467-.278-1.281-.552-.804-.277-2.015-.466-3.287-.168a6.09 6.09 0 0 0-2.868 1.615c-.607.608-.864 1.088-.901 1.065-.012-.007.04-.132.163-.344a5.07 5.07 0 0 1 .621-.832 5.83 5.83 0 0 1 6.327-1.487c.41.16.723.332.927.468s.307.223.299.235z"/><path d="M497.712 380.349c.057.026-.619 1.627-1.511 3.575l-1.719 3.48c-.057-.026.619-1.626 1.511-3.575l1.719-3.48zm-11.361 7.304c-.018.057-1.216-.287-2.608-.932s-2.432-1.33-2.401-1.381c.034-.057 1.116.538 2.497 1.173l2.512 1.14zm3.347 1.577c.022.061-.203.193-.438.395s-.404.399-.461.367c-.055-.026.04-.311.313-.542s.568-.278.586-.22zm2.002-.972c.022.059-.173.185-.434.28s-.491.125-.512.065.173-.185.434-.28.49-.124.512-.065zm2.143.137c-.039.052-.265-.057-.557-.087-.292-.037-.536.018-.563-.042-.031-.053.228-.228.589-.185s.573.27.531.314zm1.444.27c-.005.063-.144.104-.312.092s-.3-.073-.295-.136.144-.104.312-.092.299.073.295.136zm108.116-140.564c.001.161-4.895.309-10.932.331s-10.935-.092-10.935-.253 4.893-.309 10.933-.33 10.933.09 10.934.252z"/></g><path d="M603.107 249.156l-4.013-20.126c-2.957-16.473-26.05-17.607-26.05-17.607l-18.124-.294s-13.435-1.806-21.728 7.543l-19.124 21.11 8.053 20.253 19.066-15.735s-2.557 4.156-2.557 9.154c0 5.365 5.598 7.839 5.598 7.839l1.715 16.332-5.691 26.368 59.182-2.373c-1.155-9.56-4.207-17.747-8.725-24.87l1.1-27.594h11.298z" class="D"/><path d="M539.074 249.727c-.075-.028.218-1.058.711-2.72l.933-2.906.641-1.694.381-.845c.084-.264.116-.563.107-.868-.017-.613-.172-1.243-.282-1.858l-.328-1.768-.523-3-.336-2.793c.079-.015.356 1.023.741 2.714l.646 2.976.362 1.761c.114.609.281 1.241.304 1.954a3.16 3.16 0 0 1-.14 1.065c-.12.352-.297.626-.406.885l-.663 1.656-1.047 2.852c-.592 1.629-1.025 2.617-1.101 2.589z" class="B"/><g class="L"><path d="M578.392 232.051c.734 11.225 1.172 21.567 1.388 32.814 1.679-.19 3.199-.528 4.223-1.329.58-4.793-3.054-19.391-5.611-31.485z"/></g><g class="C"><path d="M599.615 298.974s-77.389-16.212-84.883-12.662-42.045 88.956-42.045 88.956l27.819 11.969 29.941-72.571s54.182 19.79 63.646 17.824 5.522-33.516 5.522-33.516z"/><path d="M565.026 303.527c-1.183.394-45.95 18.796-49.105 24.712s4.596 104.141 4.596 104.141h25.462l-1.577-87.299 49.691-12.59-29.067-28.964z"/></g><g class="B"><path d="M594.353 332.689c-.004.02-.257-.012-.734-.09l-2.083-.369-7.627-1.529c-6.426-1.357-15.273-3.408-24.913-6.172a290.18 290.18 0 0 1-13.48-4.262c-4.094-1.457-7.765-2.82-10.787-4.114-1.524-.616-2.879-1.227-4.068-1.768a62.46 62.46 0 0 1-3.03-1.423l-1.889-.952c-.429-.224-.65-.349-.641-.368s.247.073.692.262l1.934.852a84.85 84.85 0 0 0 3.066 1.331l4.092 1.684c3.035 1.242 6.712 2.562 10.806 3.988 4.111 1.382 8.658 2.817 13.467 4.21 9.622 2.759 18.441 4.87 24.84 6.329l7.584 1.71 2.06.477c.47.114.715.184.711.204zm-78.421 18.114c-.04.003-.122-.521-.235-1.471l-.425-4.028-.556-5.98c-.182-2.24-.501-4.766-.011-7.407.473-2.664 2.025-4.87 3.716-6.401 1.7-1.561 3.538-2.553 5.093-3.275 1.565-.719 2.876-1.176 3.78-1.489l1.43-.417c.043.104-1.968.804-5.031 2.279-1.513.76-3.285 1.769-4.905 3.297-1.616 1.507-3.061 3.595-3.51 6.117-.469 2.516-.182 5.005-.026 7.252l.431 5.99.24 4.043.009 1.49zm22.335-8.438c.065-.147 1.467.327 3.131 1.059s2.961 1.446 2.896 1.593-1.467-.327-3.131-1.059-2.961-1.445-2.896-1.593z"/><path d="M540.512 339.68c.157-.067.863 1.345 2.027 2.874l2.211 2.736c-.087.124-1.47-.776-2.677-2.384-1.215-1.6-1.704-3.176-1.561-3.226z"/><path d="M550.286 343.71c.019.013-.075.211-.392.4-.31.2-.844.335-1.476.349-.627.031-1.378-.067-2.116.054-.759.098-1.269.706-1.265 1.621l-.317 6.795c-.156-.007-.296-3.034-.266-6.828.027-.485.127-1.036.481-1.447.334-.418.847-.613 1.279-.671.883-.106 1.604.047 2.207.064 1.226.125 1.807-.399 1.865-.337z"/></g><path d="M544.18 285.803l52.753 4.238-2.253-5.899-49.985-.725z" class="L"/><path d="M545.539 163.962c-3.865 1.25-8.361 3.822-6.134 15.928.98 5.326 2.224 10.758 5.796 14.828.543.619 1.255 1.26 2.07 1.143.582-.083 1.032-.536 1.43-.969 4.061-4.424 7.517-9.648 8.613-15.552s-.548-12.559-5.196-16.361" class="B"/><path d="M552.96 216.545l-.365-11.548s-8.475-1.069-8.84-9.719-.453-23.803-.453-23.803l16.547-12.258 11.625 15.992.285 41.051c.036 5.217-4.183 9.466-9.4 9.466h0a9.4 9.4 0 0 1-9.399-9.181z" class="M"/><path d="M552.595 204.997s5.669.163 11.222-3.674c0 0-2.638 6.301-11.076 5.797l-.146-2.123zm.765-10.078c-.149-.325-.11-.728.099-1.018a1.04 1.04 0 0 1 .934-.417c.051-.792.827-1.446 1.621-1.416s1.499.691 1.638 1.473-.26 1.615-.924 2.05-1.55.477-2.281.167c-.573-.243-1.081-.741-1.15-1.359" class="Q"/><g class="B"><path d="M545.362 182.325c-.022.627.49 1.163 1.145 1.198s1.202-.443 1.224-1.07-.49-1.163-1.143-1.199-1.204.444-1.226 1.071zm-.259-1.335c.147.155 1.047-.511 2.324-.507 1.276-.015 2.214.642 2.352.486.068-.069-.082-.349-.49-.646a3.26 3.26 0 0 0-1.883-.581c-.796.004-1.465.297-1.85.597-.393.302-.526.582-.453.651zm12.77 1.635c-.022.627.491 1.163 1.145 1.198s1.202-.443 1.224-1.07-.491-1.163-1.144-1.199-1.203.444-1.225 1.071zm-.213-1.396c.147.155 1.048-.511 2.324-.507 1.276-.015 2.214.642 2.353.486.068-.069-.081-.348-.49-.646a3.26 3.26 0 0 0-1.883-.581c-.796.005-1.465.297-1.85.597-.392.302-.526.582-.454.651zm-4.636 9.474c.006-.073-.788-.21-2.075-.374-.326-.034-.635-.098-.69-.321-.077-.236.06-.587.218-.967l.965-2.484 2.167-6.498c-.143-.053-1.345 2.771-2.685 6.308l-.924 2.499c-.123.371-.336.791-.169 1.28.088.244.327.421.536.477.209.064.393.067.554.077 1.295.07 2.098.076 2.103.003zm3.76.884c-.208-.012-.21 1.375-1.397 2.359s-2.663.832-2.674 1.026c-.019.087.329.269.953.286.612.021 1.506-.176 2.232-.778s1.036-1.409 1.083-1.978c.052-.58-.102-.923-.197-.915zm.302-13.211c.126.347 1.402.183 2.9.363 1.503.15 2.711.589 2.91.278.089-.149-.122-.476-.611-.812s-1.257-.655-2.157-.755-1.724.044-2.27.267-.826.495-.772.659zm-11.514-1.083c.225.29 1.105-.011 2.163-.025 1.058-.051 1.954.195 2.161-.109.09-.147-.051-.438-.442-.713s-1.031-.497-1.758-.475-1.357.286-1.725.583c-.375.299-.498.597-.399.739zm18.217.385c1.544-.037 3.037-.5 4.211-1.502.765 2.042.751 4.304 1.451 6.368s2.351 10.576 4.507 10.252c1.979-.298 3.384-8.882 3.889-10.819 1.396-5.352-.353-11.249-3.911-15.483-4.223-5.025-11.263-9.31-17.81-8.847-2.904.205-5.83 1.054-8.115 2.858 0 0-3.533 2.724-3.238 6.199.411 4.843 7.473 7.962 12.331 7.815l.691.673c1.607 1.563 3.752 2.54 5.994 2.486z"/><path d="M543.254 176.092c1.233-.939 2.004-2.381 2.412-3.876s.486-3.057.562-4.604c.022-.448-.044-1.025-.476-1.144-.418-.115-.769.318-.973.701-1.511 2.844-2.057 6.191-1.529 9.368.092-.085-.289.243-.197.158m31.52 35.295a10.25 10.25 0 0 0 3.379-8.833c-.309-2.487-1.543-4.852-1.423-7.356.095-1.974 1.023-3.795 1.657-5.667 1.035-3.055 1.297-6.367.756-9.547-.428-2.516-1.456-5.083-3.528-6.573s-5.353-1.456-6.882.588l-.746.232c-3.508 7.032-2.422 16.102 2.645 22.108-3.862 4.07-3.773 11.237.189 15.21-2.711 3.447-3.337 8.413-1.566 12.424.022.051.053.1.077.151-1.491 1.611-2.521 3.653-2.854 5.824-.476 3.101.453 6.39 2.481 8.784-1.827 1.694-3.367 3.858-3.684 6.33-.31 2.425.837 5.123 3.06 6.111-1.689 1.477-2.638 3.785-2.411 6.022a7.18 7.18 0 0 0 4.3 5.784c1.079-1.093 2.276-2.07 3.562-2.91-.696-.335-1.28-.898-1.64-1.582.797.579 1.785.89 2.771.873l-1.194-5.441c-.215-.981-.445-1.995-1.046-2.801-.042-.057-.093-.11-.14-.164 1.38-.693 2.549-1.92 3.109-3.368 1.079-2.792.337-6.002-1.105-8.625 1.523-3.129 2.968-6.426 3.002-9.906.016-1.562-.341-3.163-1.011-4.582 1.265-2.131 2.234-4.519 2.151-6.99-.084-2.559-1.516-5.19-3.909-6.096z"/></g><g class="C"><path d="M573.469 239.278c.09.104-.879.85-2.32.864-1.441.029-2.431-.687-2.345-.794.07-.136 1.056.305 2.337.273 1.282-.007 2.255-.478 2.328-.343zm2.248-12.391c.093.144-2.746 1.362-4.963 4.29-2.265 2.893-2.717 5.948-2.88 5.895-.057-.007-.033-.771.299-1.954s1.021-2.763 2.169-4.258 2.505-2.566 3.563-3.184 1.79-.842 1.812-.789zm-.998-1.696c.086.107-.875.811-2.281.807-1.407.01-2.37-.691-2.284-.798.07-.136 1.032.292 2.283.277 1.251.01 2.212-.422 2.282-.286zm1.562-1.69c-.166.013.021-2.592-1.378-5.35-1.352-2.783-3.54-4.208-3.429-4.333.031-.05.618.225 1.416.896s1.765 1.773 2.479 3.205c.709 1.434 1.005 2.874 1.054 3.912s-.083 1.675-.142 1.67zm-1.296-12.913c.116.075-.413.904-1.497 1.322-1.08.427-2.031.176-1.997.042.016-.15.868-.15 1.807-.527.947-.359 1.574-.937 1.687-.837zm-3.096.581c-.03.038-.675-.55-1.101-1.843-.435-1.273-.5-3.234.236-5.165.739-1.924 1.93-3.371 2.816-4.336.899-.965 1.524-1.487 1.572-1.441.056.054-.477.668-1.293 1.681-.805 1.014-1.908 2.454-2.608 4.28-.693 1.822-.691 3.653-.369 4.879.31 1.242.827 1.893.747 1.945zm3.596-13.997c.048.127-1.079.541-2.481.249-1.405-.28-2.279-1.103-2.185-1.201.088-.125 1.014.44 2.289.69 1.271.27 2.345.113 2.377.262zm3.998-13.755c.01.055-.867.266-2.306.167-1.427-.091-3.429-.579-5.285-1.8s-3.097-2.866-3.746-4.14c-.661-1.283-.815-2.17-.76-2.183.082-.028.36.808 1.081 2.003.711 1.191 1.941 2.722 3.711 3.886a12.31 12.31 0 0 0 5.037 1.869l2.268.198zm-.771 5.147c.015.02-.19.226-.667.429s-1.242.343-2.158.195c-1.847-.265-4.108-1.679-5.875-3.821-1.783-2.159-2.61-4.639-2.844-6.427a10.87 10.87 0 0 1-.101-2.139c.045-.504.087-.779.123-.777.101.002-.004 1.119.341 2.854a13.9 13.9 0 0 0 2.884 6.158c1.702 2.062 3.831 3.455 5.537 3.788 1.739.384 2.736-.36 2.76-.26zm-1.848-15.838c.011.022-.322.214-.975.477s-1.65.544-2.93.665a12.19 12.19 0 0 1-4.522-.436 11.92 11.92 0 0 1-4.95-2.811l.261.058c-1.102.372-2.292.629-3.525.692a13.32 13.32 0 0 1-6.807-1.405c-1.935-.979-3.374-2.355-4.369-3.632a12.66 12.66 0 0 1-1.869-3.339l-.304-.994c-.055-.231-.075-.354-.057-.359.11-.055.514 1.981 2.518 4.463 1.005 1.214 2.423 2.514 4.297 3.433a13.12 13.12 0 0 0 6.561 1.314c1.186-.061 2.329-.305 3.389-.655l.149-.049.112.107a11.72 11.72 0 0 0 4.721 2.75 12.39 12.39 0 0 0 4.371.533c2.511-.153 3.897-.917 3.929-.812zM573 165.761c.002.036-.367.095-1.037.172l-2.84.275-4.217.342c-1.585.116-3.356.258-5.217.048-3.736-.404-6.829-2.041-8.735-3.525-.964-.744-1.661-1.442-2.112-1.948-.445-.512-.661-.819-.636-.84.072-.069 1.023 1.102 2.966 2.491 1.924 1.379 4.952 2.913 8.574 3.304 1.798.204 3.54.081 5.127-.01l4.224-.23 2.851-.11c.676-.014 1.05-.005 1.052.031zm.448 84.806c.102.092-.92 1.007-2.527 1.096-1.606.107-2.732-.677-2.642-.781.066-.139 1.175.364 2.61.261 1.437-.072 2.477-.705 2.559-.576z"/><path d="M571.441 252.101c-.082-.025.068-.613.136-1.568s.007-2.286-.412-3.68a10.42 10.42 0 0 0-1.699-3.291c-.587-.758-1.037-1.164-.983-1.23.034-.047.576.263 1.264.992.687.722 1.468 1.907 1.917 3.378.443 1.473.45 2.892.279 3.874s-.448 1.545-.502 1.525z"/></g><use xlink:href="#D" class="M"/><path d="M466.683 227.959l17.244 50.389h78.079l-.575-2.595-31.573-.976-14.545-46.845z" class="F"/><path d="M501.283 251.627c.516 2.065-.369 4.087-1.975 4.517s-3.326-.896-3.842-2.961.369-4.087 1.975-4.517 3.326.896 3.842 2.961z" class="E"/><path d="M159.691 278.338v6.535h201.297V432.11h45.499V284.873h200.836v-6.535z" class="B"/><path d="M353.457 435.674l-1.01-50.431 19.322-3.199-3.035 53.41z" fill="#eb996e"/><path d="M369.554 435.902l-.052-1.781-16.766.415.108 5.871 1.036.043c4.612.152 23.458.447 26.516-.555 3.411-1.12-10.842-3.993-10.842-3.993z" class="D"/><g class="K E"><path d="M358.893 440.139c-.269-1.389-1.074-2.667-2.21-3.511s-2.521-1.27-3.929-1.125l.102 4.665 6.037-.029z"/></g><g class="K E"><use xlink:href="#E"/></g><g class="B"><path d="M352.6 440.029c0 .007.099.015.288.025l.825.032 3.036.064a292.97 292.97 0 0 0 10.02-.044 292.29 292.29 0 0 0 10.015-.381l3.031-.193.823-.067.286-.037s-.1-.008-.289-.004l-.825.029-3.033.128-10.012.321-10.015.103h-3.036l-.826.006-.288.018z"/><path d="M375.097 439.994c.062.006.094-.719.535-1.461.429-.749 1.045-1.133 1.009-1.184-.013-.05-.722.28-1.184 1.082-.471.797-.41 1.577-.36 1.563zm-4.98-2.39c.048.029.277-.263.512-.652s.387-.728.339-.757-.277.263-.512.652-.387.728-.339.757zm-1.367-.685c.038.041.298-.141.58-.405s.479-.512.441-.553-.298.141-.58.406-.479.511-.441.552zm-.889-1.557c.001.056.392.097.873.092s.872-.055.871-.111-.392-.097-.873-.092-.872.055-.871.111zm-.318-1.104c-.018.05.411.233.978.261s1.013-.104 1-.156-.451-.016-.99-.046-.971-.115-.988-.059z"/><path d="M370.651 436.135c-.001.023.412.064 1.072-.03.329-.047.719-.134 1.136-.277.207-.079.425-.14.648-.284.105-.073.22-.175.258-.339s-.049-.34-.172-.425c-1.037-.509-2.051.091-2.42.629-.204.275-.294.541-.334.723s-.033.289-.021.29c.038.013.063-.424.468-.926a1.93 1.93 0 0 1 .903-.615c.376-.121.915-.163 1.28.059.173.122.111.324-.076.441-.174.118-.401.192-.597.271-.403.149-.779.248-1.098.312l-1.047.171z"/><path d="M370.93 436.182c.015.011.168-.266.107-.747-.031-.236-.124-.515-.31-.777-.195-.234-.445-.557-.905-.527-.248.037-.363.323-.32.503a1.18 1.18 0 0 0 .193.475 3.24 3.24 0 0 0 .521.638c.344.321.612.441.623.421.018-.027-.218-.188-.521-.521-.151-.167-.315-.378-.463-.634-.152-.224-.262-.628.006-.683.268-.032.548.229.717.44.174.228.273.476.319.691.091.434-.003.714.033.721zm-18.089-.728c.004.038.477-.056 1.233.016a5.39 5.39 0 0 1 4.448 3.389c.271.71.306 1.19.343 1.185.012-.001.016-.121-.007-.337a4.34 4.34 0 0 0-.202-.896c-.235-.736-.787-1.721-1.746-2.452a5.17 5.17 0 0 0-2.827-1.032 4.29 4.29 0 0 0-.917.044c-.213.036-.328.071-.325.083z"/><use xlink:href="#F"/><path d="M357.686 438.533c-.04.042.094.229.211.477s.182.468.24.463.08-.266-.057-.551-.359-.431-.394-.389zm-1.266-1.508c-.039.04.073.212.249.383s.351.278.39.237-.073-.211-.249-.383-.351-.277-.39-.237z"/><use xlink:href="#G"/><path d="M353.377 436.06c-.019.052.079.136.218.187s.268.049.287-.003-.079-.136-.218-.187-.268-.05-.287.003z"/></g><path d="M374.715 435.349l-1.322-51.127 19.412-2.178-2.525 53.185z" class="P"/><path d="M322.941 291.98c18.926.123 37.878.247 56.726 1.968 7.519.686 15.652 1.93 20.883 7.375 4.897 5.098 6.037 12.625 6.94 19.636l8.256 64.135a295.71 295.71 0 0 1-78.541-2.493l.55-47.668.415-7.465-29.145-1.898 13.916-33.59z" class="D"/><path d="M387.289 316.812c-.13-.061.713-2.139 1.883-4.642s2.224-4.483 2.354-4.422-.712 2.139-1.883 4.642-2.224 4.483-2.354 4.422zm9.411 21.452c-.114.088-1.385-1.375-2.839-3.267s-2.541-3.497-2.427-3.585 1.385 1.375 2.84 3.268 2.54 3.496 2.426 3.584zm-3.373 12.635c.099.105-1.108 1.405-2.694 2.905s-2.953 2.631-3.052 2.526 1.107-1.405 2.694-2.905 2.953-2.631 3.052-2.526zm14.035 12.715c-.139.035-.72-1.803-1.295-4.105s-.93-4.197-.79-4.232.719 1.803 1.295 4.106.93 4.196.79 4.231zm-11.769 13.462c-.135.048-.805-1.479-1.494-3.412s-1.14-3.539-1.004-3.587.805 1.479 1.495 3.412 1.138 3.539 1.003 3.587zm-14.907-34.722c.14.033-.197 1.973-.753 4.332s-1.12 4.245-1.26 4.212.197-1.972.753-4.332 1.12-4.245 1.26-4.212z" class="I"/><g class="B"><path d="M438.642 276.291h-77.013v-3.746h77.013z"/><path d="M450.577 276.291l14.445-54.133H404.89l-13.082 54.133z"/></g><path d="M395.412 272.193h53.72l12.504-47.534h-53.997z" class="G"/><path d="M408.975 233.866l-3.329 13.462h35.619l3.799-13.462z" class="F"/><path d="M437.551 232.092c0 .144-6.248.26-13.953.26s-13.954-.117-13.954-.26 6.246-.26 13.954-.26 13.953.116 13.953.26z" class="C"/><path d="M421.316 236.442c0 .144-2.518.26-5.624.26s-5.624-.117-5.624-.26 2.517-.26 5.624-.26l5.624.26zm9.019-.212c0 .144-1.639.26-3.661.26s-3.661-.117-3.661-.26 1.639-.26 3.661-.26 3.661.116 3.661.26z" class="B"/><path d="M440.522 238.883c0 .144-6.889.26-15.385.26s-15.387-.117-15.387-.26 6.887-.26 15.387-.26 15.385.116 15.385.26z" class="C"/><path d="M419.088 241.111c0 .144-2.233.26-4.987.26s-4.987-.117-4.987-.26 2.233-.26 4.987-.26 4.987.116 4.987.26z" class="D"/><path d="M437.763 244.294c0 .144-6.39.26-14.271.26s-14.272-.117-14.272-.26 6.389-.26 14.272-.26 14.271.116 14.271.26zm-21.01 6.897c0 .144-2.471.26-5.517.26s-5.518-.117-5.518-.26 2.47-.26 5.518-.26l5.517.26z" class="C"/><path d="M426.197 251.233c-.001.144-1.689.247-3.769.23s-3.766-.147-3.765-.291 1.688-.247 3.769-.23 3.767.148 3.765.291zm5.305-.254c0 .144-.713.26-1.592.26s-1.592-.117-1.592-.26.712-.26 1.592-.26 1.592.116 1.592.26z" class="B"/><path d="M409.432 253.95c0 .144-.784.26-1.751.26s-1.751-.117-1.751-.26.784-.26 1.751-.26 1.751.117 1.751.26z" class="D"/><path d="M419.936 253.95c0 .144-1.877.26-4.191.26s-4.191-.117-4.191-.26 1.876-.26 4.191-.26 4.191.117 4.191.26z" class="B"/><path d="M444.978 253.632c0 .144-5.012.26-11.194.26s-11.195-.117-11.195-.26 5.011-.26 11.195-.26 11.194.116 11.194.26z" class="C"/><path d="M408.901 256.815c0 .144-.808.26-1.804.26s-1.804-.117-1.804-.26.807-.26 1.804-.26 1.804.116 1.804.26zm5.518-.106c0 .144-.974.26-2.175.26s-2.175-.117-2.175-.26.974-.26 2.175-.26 2.175.116 2.175.26z" class="B"/><path d="M430.866 256.497c0 .144-3.159.26-7.056.26s-7.057-.117-7.057-.26 3.159-.26 7.057-.26l7.056.26zm-8.701 4.987c0 .144-3.825.26-8.541.26s-8.542-.117-8.542-.26 3.824-.26 8.542-.26l8.541.26z" class="C"/><path d="M432.139 261.272c0 .144-1.734.26-3.873.26s-3.873-.117-3.873-.26 1.734-.26 3.873-.26 3.873.116 3.873.26z" class="D"/><path d="M446.941 261.272c0 .144-2.874.26-6.419.26s-6.42-.117-6.42-.26 2.874-.26 6.42-.26l6.419.26zm-3.448-29.392c0 .144-.594.26-1.326.26s-1.326-.117-1.326-.26.594-.26 1.326-.26 1.326.116 1.326.26z" class="B"/><path d="M416.435 230.076c0 .144-1.306.26-2.918.26s-2.918-.117-2.918-.26 1.306-.26 2.918-.26 2.918.116 2.918.26z" class="D"/><path d="M460.737 228.076h-54.006l.908-3.417h53.997l-.899 3.417z" class="H"/><g class="I"><circle cx="409.914" cy="226.386" r=".59"/><circle cx="411.945" cy="226.386" r=".59"/><circle cx="413.977" cy="226.386" r=".59"/></g><g class="P"><path d="M349.952 248.012l7.711 23.22c2.082 6.271 7.561 7.344 14.169 7.344h42.893v-9.623l-39.187-5.595-9.338-23.857-16.248 8.511z"/><path d="M419.439 266.953l3.403-1.611s3.667-7.09 4.512-6.806 1.088 2.371-.385 5.628l4.522-1.292s9.802 4.529 9.368 5.139-1.236 2.055-3.371.963-4.932-2.373-4.932-2.373l-5.282 1.509 6.81.864 6.405 5.828s-2.103 1.573-3.917-.097l-16.636 3.574-5.211.295v-9.623l4.714-1.998z"/></g><path d="M436.571 274.706c-.071.047-.38-.445-.979-1.099-.302-.32-.708-.655-1.211-.936-.484-.27-1.113-.388-1.797-.469-2.772-.329-5.01-.709-4.992-.852s2.278.006 5.057.335c.697.084 1.405.222 1.973.571a4.64 4.64 0 0 1 1.25 1.112c.565.762.749 1.308.699 1.338zm-2.602.668c-.063 0-.115-.344-.582-.444-.475-.087-1.233-.176-2.021-.258l-2.925-.298c-.017-.138 1.32-.387 2.976-.221.832.089 1.541.223 2.094.429.285.117.469.35.505.523.043.18-.016.274-.047.269z" fill="#eb996e"/><path d="M318.866 162.577l-2.329 47.176 20.198 1.903 1.116-11.449s7.124 1.76 9.288-4.831c1.382-4.211 2.612-37.188 2.612-37.188l-30.885 4.389z" class="P"/><g class="B"><path d="M351.496 163.696c.559 4.415-5.614 6.971-5.614 6.971l-1.079 10.444c-.856-.137-2.902-.025-2.902-.025.52-4.9-5.791-3.945-6.434-.602-.618 3.214 3.042 5.358 3.042 5.358-2.526 3.876-3.55 5.921-7.135 9.553-3.88 3.931-5.966 4.249-9.971 4.131l-4.413-.204s-1.571-3.77-2.723-12.675c-.554-4.284-3.898-9.896-2.946-16.861 2.705-19.791 21.668-17.7 21.668-17.7 9.838.273 17.21 1.365 18.507 11.61z"/><path d="M336.962 152.656c4.284.111 8.723.448 12.484 2.503s6.785 7.55 6.013 11.765c-.713.128-1.484.417-2.197.545-.294-.526-.655-2.489-.95-3.015.008.841-.258 2.733-.25 3.573-1.255.351-2.236-.35-3.491 0-.557-3.202-1.692-6.304-3.333-9.11"/></g><path d="M351.532 251.835l3.887 12.642 23.236-5.439c-.752-2.339-7.196-17.117-13.824-33.654-3.693-9.214-11.909-15.864-21.701-17.493-6.851-1.139-14.305-2.029-20.046-1.966-11.739.13-26.946 5.063-29.268 16.572-1.773 8.785 2.171 23.136 2.171 41.98l-2.778 39.566 58.322 1.978-5.908-34.726 5.909-19.46z" class="D"/><g class="L"><path d="M291.741 259.706c7.321 1.497 14.837-.012 22.296-.455 4.523-.268 9.54-.757 13.117 2.023 2.837 2.204 3.978 5.91 4.797 9.408 1.774 7.581 2.991 23.261 3.84 37.893.572 9.863 6.382 18.657 15.225 23.061 2.334 1.163 8.479 1.202 8.519 1.985l-59.795 2.451-7.999-76.366z"/></g><g class="C"><path d="M327.046 338.645h7.314v87.635h-7.314zm-61.372-85.064v64.512c0 8.461 6.859 15.319 15.319 15.319h42.958v-79.831a6.83 6.83 0 0 0-6.828-6.827h-44.622a6.83 6.83 0 0 0-6.827 6.827z"/><path d="M381.768 338.645H277.155h0a11.36 11.36 0 0 1 11.355-11.355h81.903c6.271 0 11.355 5.083 11.355 11.355h0z"/></g><path d="M323.951 325.784c.018 0 .028.169.029.493.007.324-.033.806-.17 1.409-.255 1.191-1.014 2.963-2.803 4.347-.886.675-2.013 1.256-3.321 1.478-1.325.222-2.688.114-4.133.155l-9.4.031c-6.671.007-12.709-.017-17.079-.061l-5.176-.08-1.407-.049c-.322-.017-.491-.035-.491-.054s.169-.037.491-.055l1.407-.052 5.176-.091 17.079-.097 9.4.011c1.439-.024 2.839.092 4.056-.098 1.237-.19 2.312-.72 3.17-1.343 1.731-1.278 2.52-2.949 2.829-4.094.313-1.165.282-1.854.343-1.85zm13.17 13.086c0 .149-2.873.269-6.417.269s-6.418-.121-6.418-.269 2.873-.269 6.418-.269l6.417.269z" class="B"/><path d="M368.95 333.975c-.074.01-.301-1.084-.649-3.072l-1.372-8.434c-.598-3.564-.941-7.87-2.905-12.148-.986-2.125-2.281-4.228-3.886-6.205-1.62-1.966-3.603-3.738-5.832-5.253s-4.632-2.676-7.07-3.408c-2.43-.736-4.867-1.209-7.212-1.244l-12.654-.157-8.542-.171c-2.017-.064-3.132-.135-3.132-.21s1.115-.145 3.132-.21l8.542-.171 12.686-.074c2.43.01 4.965.477 7.494 1.229 2.537.747 5.037 1.949 7.357 3.522s4.373 3.424 6.044 5.475a30.02 30.02 0 0 1 3.979 6.472c.238.558.436 1.124.65 1.675l.312.823.233.836.454 1.635.292 1.618c.37 2.118.561 4.065.811 5.858l1.033 8.482c.221 2.008.308 3.122.235 3.132zm-6.252 100.245h-1.035c0-17.162-13.962-31.124-31.123-31.124s-31.123 13.962-31.123 31.124h-1.035c0-17.732 14.426-32.158 32.157-32.158s32.159 14.425 32.159 32.158z" class="C"/><g class="B"><use xlink:href="#B" x="86.448" y="0.308"/><use xlink:href="#B" x="149.97" y="-0.357"/></g><use xlink:href="#C" x="149.935" y="-1.651" class="C"/><g class="B"><path d="M317.698 199.425c3.715.125 7.046.214 11.928-.385 3.837-.471 9.353-2.966 12.205-5.577 2.023-1.852 2.531-2.827 2.647-6.707l.324-5.646-5.68-15.522-14.527-1.198-13.443 6.148-1.226 20.351a8.06 8.06 0 0 0 7.772 8.536z"/><path d="M343.354 189.097c-.037 2.315-2.098 4.033-4.041 5.291s-4.134 2.626-4.707 4.87c-1.115 4.365 4.549 7.66 5.088 12.132.393 3.259-1.994 6.095-3.509 9.006-2.517 4.836-2.691 10.826-.461 15.8-6.114.531-12.262 1.061-18.403 1.293l-4.251-8.322-3.159 8.439c-5.394-.049-10.768-.421-16.095-1.318 3.164-2.501 3.407-7.146 3.201-11.174s-.968-11.157 1.708-14.175c1.846-2.082 4.734-2.988 6.636-5.019 2.754-2.941 1.443-4.107.086-7.304-1.575-3.709-2.012-7.96-1.379-11.939.634-3.991 3.123-7.39 5.13-10.897s2.125-5.998 3.237-10.86"/><path d="M311.309 164.39c-2.12 3.961-6.28 6.757-10.749 7.221 2.066 1.369 4.751 1.759 7.122 1.036a16.91 16.91 0 0 1-6.911 4.017c.867 2.237 3.528 3.199 5.921 3.364a16.61 16.61 0 0 0 11.81-3.91c3.23-2.767 6.284-9.407 3.595-16.41"/><path d="M315.641 163.408c2.15.113 4.16-1.436 5.023-3.408s.734-4.261.12-6.324c-.553-1.859-1.599-3.714-3.354-4.541-2.113-.995-4.688-.213-6.561 1.183-2.195 1.636-3.78 4.154-4.032 6.88s.93 5.604 3.184 7.158 5.528 1.579 7.661-.137"/></g><g class="C"><path d="M303.28 178.958c.028-.125 1.831.711 4.91.692 1.528-.004 3.354-.275 5.245-.979a14.53 14.53 0 0 0 5.426-3.556c1.577-1.704 2.635-3.709 3.214-5.636.586-1.932.743-3.771.653-5.296-.171-3.075-1.118-4.822-.994-4.858.016-.007.077.097.178.303.092.209.262.507.399.921.317.813.65 2.047.785 3.61s.019 3.456-.561 5.458c-.573 1.996-1.653 4.084-3.295 5.856-1.667 1.747-3.683 2.955-5.64 3.65-1.961.702-3.846.94-5.412.897s-2.821-.294-3.652-.56c-.422-.111-.73-.262-.944-.341-.211-.09-.318-.144-.312-.161zm8.013-4.399c-.087-.144 2.41-1.189 4.341-3.756 1.974-2.535 2.331-5.218 2.492-5.171.059.006.059.678-.212 1.725s-.861 2.445-1.867 3.763-2.207 2.255-3.145 2.784c-.938.535-1.587.711-1.609.655zm-3.398-19.509c-.022-.01.072-.314.39-.785s.884-1.092 1.76-1.627a6.64 6.64 0 0 1 3.44-.934c1.37.003 2.855.511 4.116 1.443 1.259.938 2.172 2.187 2.675 3.443.516 1.254.672 2.478.677 3.488-.005 1.014-.151 1.823-.294 2.366s-.275.827-.304.819c-.098-.02.306-1.214.229-3.176-.051-.973-.24-2.135-.751-3.31-.498-1.174-1.364-2.331-2.543-3.211-1.18-.871-2.552-1.354-3.816-1.382a6.54 6.54 0 0 0-3.248.774c-1.722.944-2.247 2.166-2.331 2.092zm14.962 7.355c.081-.044.777 1.367 2.106 3.499.678 1.052 1.547 2.28 2.756 3.387 1.197 1.122 2.81 1.992 4.667 2.384 1.851.412 3.689.462 5.355.54s3.158.07 4.391-.118c2.5-.34 3.715-1.472 3.761-1.38.016.018-.251.316-.856.706-.607.379-1.578.812-2.844 1.037-1.263.241-2.793.285-4.468.235-1.668-.053-3.53-.085-5.453-.512-1.927-.403-3.654-1.35-4.877-2.539-1.243-1.174-2.097-2.455-2.745-3.547-.643-1.099-1.088-2.024-1.386-2.667s-.438-1.01-.407-1.025z"/><path d="M322.857 162.404c.038-.013.214.398.55 1.133l1.492 3.076 2.402 4.468c.939 1.667 1.954 3.496 3.37 5.162 1.395 1.676 2.999 3.038 4.643 3.953 1.641.922 3.302 1.396 4.713 1.57 2.858.35 4.583-.421 4.599-.304.006.017-.095.067-.294.148-.197.088-.5.18-.895.29-.791.196-1.984.372-3.451.232-1.461-.132-3.191-.584-4.904-1.516-1.715-.924-3.381-2.321-4.811-4.04-1.452-1.707-2.478-3.59-3.391-5.264l-2.313-4.538-1.349-3.161c-.278-.761-.391-1.198-.361-1.209zm-2.021-1.458c-.019-.024.344-.379 1.063-.952a24.8 24.8 0 0 1 3.236-2.165c1.438-.799 3.245-1.623 5.374-2.146a17.39 17.39 0 0 1 7.085-.286c2.501.434 4.782 1.453 6.489 2.857 1.715 1.397 2.855 3.085 3.523 4.601.66 1.529.876 2.878.905 3.8.01.463.002.82-.032 1.062-.025.242-.047.367-.064.365-.134.026.235-2.113-1.144-5.074a12.48 12.48 0 0 0-3.488-4.379c-1.655-1.328-3.857-2.298-6.277-2.718a17.43 17.43 0 0 0-6.885.24c-2.084.485-3.871 1.257-5.311 2.004a32.37 32.37 0 0 0-3.291 2.004l-1.183.787zm12.705-8.753c.031.168-3.01.302-6.174 2.098-3.191 1.75-4.901 4.267-5.028 4.153-.049-.033.302-.702 1.092-1.627s2.054-2.068 3.682-2.98c1.63-.906 3.27-1.385 4.469-1.568s1.957-.135 1.959-.076z"/></g><path d="M312.37 165.547c.027-.099.996.321 2.616.24 1.579-.058 3.887-.787 5.414-2.713 1.505-1.945 1.66-4.36 1.338-5.907-.309-1.591-.949-2.432-.859-2.482.025-.018.204.171.457.566s.552 1.016.761 1.837c.432 1.602.344 4.195-1.287 6.307a7.49 7.49 0 0 1-5.815 2.76c-.846-.007-1.522-.146-1.966-.299s-.67-.281-.659-.309z" class="D"/><path d="M321.738 236.62c-.017.007-.131-.231-.334-.689l-.85-2.02c-.691-1.768-1.746-4.342-2.363-7.717-.298-1.685-.452-3.577-.255-5.593.2-2.006.756-4.163 1.953-6.127 1.155-1.945 2.914-3.686 3.383-6.03.486-2.347-.505-4.804-1.752-7.017l-1.948-3.309a28.21 28.21 0 0 1-1.657-3.379c-.926-2.283-1.445-4.717-1.115-7.013.301-2.324 1.575-4.209 2.73-5.815 1.178-1.618 2.252-3.127 2.837-4.707.611-1.565.886-3.079 1.041-4.411s.187-2.496.21-3.444l.021-2.188.032-.764c.018-.001.042.262.073.762l.077 2.191-.123 3.474c-.13 1.35-.383 2.895-.987 4.512-.58 1.635-1.673 3.207-2.828 4.825-1.141 1.618-2.337 3.432-2.607 5.632-.302 2.183.2 4.526 1.112 6.755.456 1.12 1.013 2.224 1.634 3.314l1.953 3.313c.635 1.141 1.203 2.319 1.568 3.562.357 1.238.495 2.56.229 3.808-.24 1.258-.868 2.359-1.524 3.342l-1.95 2.837c-1.164 1.882-1.72 3.965-1.933 5.922-.211 1.966-.082 3.824.189 5.487.561 3.336 1.557 5.92 2.189 7.706l.758 2.054.237.727z" class="C"/><path d="M313.963 179.085c.014.011-.109.199-.353.548l-1.069 1.526c-.892 1.336-2.258 3.281-3.18 6.001-.446 1.356-.751 2.917-.677 4.588.033.834.183 1.689.454 2.53s.692 1.665 1.145 2.502c.88 1.658 2.088 3.436 2.183 5.656.054 1.094-.268 2.199-.788 3.175-.522.982-1.231 1.857-2.013 2.659-1.577 1.593-3.338 2.864-4.583 4.488-1.277 1.597-1.797 3.57-1.901 5.444-.115 1.886.131 3.687.366 5.369l.505 4.729c.128 2.939-.711 5.297-1.662 6.628-.471.673-.938 1.118-1.279 1.379-.162.141-.309.219-.399.282s-.143.085-.148.078c-.049-.052.778-.502 1.657-1.851.874-1.332 1.634-3.628 1.463-6.502-.059-1.435-.305-2.996-.565-4.68-.253-1.682-.522-3.512-.417-5.459.09-1.927.63-4.037 1.975-5.728 1.302-1.704 3.088-2.993 4.615-4.541 1.506-1.53 2.749-3.431 2.663-5.456-.07-2.02-1.208-3.762-2.095-5.443-.451-.849-.882-1.699-1.158-2.589a9.89 9.89 0 0 1-.449-2.653c-.058-1.74.28-3.342.759-4.724.991-2.771 2.418-4.695 3.364-6.001l1.151-1.472.436-.483z" class="B"/><path d="M332.749 236.014c-.005.008-.063-.021-.174-.084s-.28-.153-.478-.304c-.402-.293-.96-.796-1.485-1.594-1.066-1.568-1.819-4.437-1.133-7.791.326-1.668.94-3.422 1.603-5.28.655-1.858 1.353-3.849 1.61-6.031.269-2.175.167-4.511-.384-6.833-.523-2.339-1.609-4.576-2.986-6.729-1.346-2.158-2.739-4.341-3.315-6.757-.612-2.388-.634-4.78-.478-7.002.342-4.456 1.196-8.379 1.096-11.729-.003-3.346-.76-6-1.623-7.648-.879-1.648-1.669-2.363-1.615-2.406 0 0 .842.661 1.793 2.31.936 1.646 1.763 4.348 1.813 7.738.147 3.397-.677 7.366-.986 11.766-.142 2.198-.105 4.537.493 6.842.56 2.323 1.909 4.438 3.265 6.611 1.383 2.159 2.514 4.489 3.04 6.885.558 2.385.652 4.781.363 7.01-.279 2.241-1.007 4.264-1.68 6.116-.682 1.854-1.307 3.578-1.648 5.208-.714 3.257-.039 6.056.944 7.609.988 1.593 2.024 2.032 1.965 2.093z" class="C"/><path d="M391.102 435.879l-.052-1.781-16.766.415.108 5.871 1.036.043c4.612.152 23.459.447 26.516-.555 3.411-1.119-10.842-3.993-10.842-3.993z" class="D"/><g class="K E"><path d="M380.44 440.116c-.269-1.389-1.074-2.667-2.21-3.511s-2.521-1.27-3.929-1.125l.102 4.665 6.037-.029z"/></g><g class="K E"><use xlink:href="#E" x="21.548" y="-0.023"/></g><g class="B"><path d="M374.148 440.006c0 .007.099.015.288.025l.825.032 3.036.064c2.564.036 6.108.038 10.02-.044s7.454-.236 10.015-.381l3.031-.193.823-.066c.188-.017.286-.03.286-.037s-.1-.008-.288-.004l-.825.029-3.033.128-10.012.321-10.015.103h-3.036l-.826.007c-.19.004-.289.009-.289.016z"/><path d="M396.644 439.972c.062.006.094-.719.535-1.46.429-.749 1.045-1.133 1.009-1.184-.013-.05-.722.28-1.184 1.082-.47.795-.41 1.575-.36 1.562zm-4.979-2.391c.048.029.277-.263.512-.652s.387-.728.339-.757-.277.263-.512.652-.387.728-.339.757zm-1.368-.685c.038.041.298-.141.58-.405s.479-.512.441-.553-.298.141-.58.405-.479.512-.441.553zm-.889-1.557c.001.056.392.097.873.092s.872-.055.871-.111-.392-.097-.873-.092-.871.056-.871.111zm-.317-1.104c-.018.05.411.233.978.261s1.013-.104 1.001-.156-.451-.015-.99-.046-.973-.115-.989-.059z"/><path d="M392.199 436.113c-.001.023.412.064 1.073-.03.329-.047.719-.134 1.136-.277.207-.079.425-.14.648-.284.104-.073.22-.175.258-.339s-.049-.34-.172-.425c-1.037-.509-2.051.091-2.42.629-.204.275-.294.541-.334.723s-.034.289-.022.29c.038.013.063-.424.469-.926a1.93 1.93 0 0 1 .903-.615c.376-.121.915-.163 1.28.059.173.122.111.324-.076.441-.174.118-.401.192-.597.271-.403.149-.779.248-1.098.312l-1.048.171z"/><path d="M392.478 436.16c.015.011.168-.266.107-.747-.031-.236-.124-.515-.31-.777-.195-.234-.445-.557-.905-.527-.248.037-.363.323-.32.503.024.188.112.347.193.475a3.24 3.24 0 0 0 .521.638c.344.321.612.441.623.421.018-.027-.218-.188-.521-.521-.151-.167-.315-.378-.463-.634-.152-.224-.262-.628.006-.683.268-.032.548.229.717.44.174.228.273.476.319.691.091.433-.003.713.033.721zm-18.09-.729c.005.038.477-.056 1.233.016a5.39 5.39 0 0 1 2.715 1.05c.919.701 1.47 1.634 1.734 2.339.27.71.306 1.19.343 1.185.012-.001.016-.121-.007-.337a4.34 4.34 0 0 0-.202-.896 5.16 5.16 0 0 0-1.745-2.452 5.17 5.17 0 0 0-2.827-1.032 4.29 4.29 0 0 0-.917.044c-.214.036-.329.071-.327.083z"/><use xlink:href="#F" x="21.547" y="-0.023"/><path d="M379.234 438.51c-.04.042.094.229.211.477s.182.468.24.463.08-.266-.058-.551-.358-.43-.393-.389zm-1.267-1.507c-.039.04.073.212.249.383s.351.278.39.237-.073-.211-.249-.383-.351-.277-.39-.237z"/><use xlink:href="#G" x="21.548" y="-0.023"/><path d="M374.925 436.037c-.019.053.079.136.218.187s.268.049.287-.003-.079-.136-.218-.187-.268-.049-.287.003zm-7.356-57.138c-.143-.01.357-8.955 1.117-19.976l1.637-19.942c.143.01-.357 8.953-1.117 19.978l-1.637 19.94zm9.645 2.277c-.036.001-.095-.586-.17-1.649l-.299-4.502-1.137-14.834-1.525-14.802-.508-4.482-.126-1.653a20.8 20.8 0 0 0 .327 1.625c.177 1.051.41 2.576.673 4.464.527 3.775 1.157 9.006 1.679 14.802s.832 11.052.986 14.861l.134 4.513c.011 1.065.002 1.655-.034 1.657z"/></g><g class="L"><path d="M381.248 338.082c-6.308 11.782-18.069 20.496-31.177 23.1-2.716.539-5.704.787-8.098-.604-3.27-1.9-4.285-6.165-4.24-9.947l-.014-12.55h43.529z"/></g><g class="B"><path d="M323.122 274.14c-.019-.143 4.986-.916 11.177-1.727s11.227-1.353 11.245-1.211-4.985.916-11.178 1.727-11.225 1.354-11.244 1.211z"/><path d="M338.391 272.288c-.045.056-.69-.384-1.694-1.139l-1.75-1.352c-.319-.267-.718-.606-.848-1.16-.134-.56.139-1.141.549-1.495.407-.364.974-.555 1.503-.462.515.082.947.36 1.262.682.64.657.849 1.488.89 2.127.053 1.301-.184 2.052-.229 2.049-.097-.001.005-.8-.137-2.008-.084-.595-.31-1.295-.863-1.828-.526-.542-1.451-.77-2.081-.171-.307.269-.474.659-.396.995.067.348.359.643.659.904l1.673 1.433c.945.829 1.507 1.369 1.462 1.425z"/><path d="M337.722 272.337c-.06-.013.013-.687.473-1.671.234-.487.567-1.047 1.031-1.598.236-.278.483-.543.798-.816.345-.256.741-.475 1.277-.436.269.013.576.239.66.506.106.279.034.563-.061.76-.207.408-.468.658-.706.931-.49.526-.996.933-1.448 1.229-.907.593-1.559.771-1.582.714-.035-.074.553-.368 1.366-1.012a9.68 9.68 0 0 0 1.307-1.251c.212-.257.47-.545.598-.823.133-.284.043-.509-.201-.538-.63-.051-1.198.563-1.648 1.05-.457.502-.804 1.011-1.068 1.455l-.796 1.5z"/></g><path d="M369.261 382.745c-.134-.052.618-2.296 1.679-5.011l2.164-4.822c.134.052-.618 2.296-1.679 5.012s-2.03 4.873-2.164 4.821zm-17.649-5.233c-.07.116-2.044-.995-4.142-2.821-2.106-1.819-3.484-3.615-3.38-3.701.114-.1 1.648 1.518 3.721 3.308l3.801 3.214zm5.515-22.977c-.117.083-1.215-1.26-2.451-3.001s-2.143-3.22-2.026-3.303 1.214 1.26 2.451 3.001 2.143 3.22 2.026 3.303zm-8.878-31.856c-.113.09-1.503-1.472-3.104-3.486s-2.81-3.721-2.697-3.811 1.502 1.471 3.105 3.487 2.809 3.72 2.696 3.81zm21.595-4.044c.006.144-2.068.343-4.632.446s-4.648.069-4.653-.074 2.068-.343 4.633-.446 4.647-.069 4.652.074zm4.992-12.936c-.125.07-1.016-1.282-1.989-3.021s-1.66-3.205-1.535-3.276 1.016 1.282 1.989 3.021 1.661 3.206 1.535 3.276zm-22.452-2.788c.061.13-1.418.953-3.304 1.838s-3.465 1.496-3.526 1.366 1.418-.953 3.305-1.838 3.464-1.496 3.525-1.366zm-12.657 1.001c-.097.112-1.978-1.363-4.335-3.126l-4.218-3.282c.075-.118 2.159 1.086 4.53 2.866 2.373 1.774 4.114 3.437 4.023 3.542zm-1.146-24.243c.048.147-2.245.964-4.902 2.325l-4.764 2.597c-.084-.104 1.818-1.688 4.528-3.061 2.703-1.384 5.103-1.99 5.138-1.861zm-4.311-17.85c-.097.106-1.582-1.21-3.318-2.94s-3.056-3.212-2.95-3.309 1.591 1.219 3.318 2.94 3.046 3.203 2.95 3.309zm12.669-13.197c.08.12-1.126 1.067-2.694 2.116s-2.904 1.803-2.984 1.683 1.126-1.067 2.695-2.116 2.903-1.803 2.983-1.683zm-10.224-2.33c-.11.092-1.36-1.22-2.791-2.932s-2.502-3.174-2.392-3.266 1.36 1.22 2.791 2.932 2.502 3.173 2.392 3.266zm15.884-19.123c.059.137-1.763 1.031-3.942 2.243l-3.992 2.154c-.081-.112 1.528-1.388 3.739-2.61s4.143-1.916 4.195-1.787zm8.372 11.956c-.137-.043.263-1.731.895-3.77s1.255-3.659 1.392-3.616-.263 1.73-.895 3.77-1.254 3.658-1.392 3.616zm3.774 13.601c-.048.127-1.861-.488-3.831-1.761-1.977-1.265-3.289-2.658-3.194-2.754.102-.113 1.543 1.081 3.475 2.316l3.55 2.199zm-22.856-32.507c-.123-.075.867-1.925 2.21-4.133s2.532-3.938 2.655-3.863-.867 1.925-2.21 4.134-2.532 3.937-2.655 3.862zm-22.834 21.966c-.027.141-2.467-.21-5.45-.784l-5.352-1.296c.027-.141 2.467.21 5.451.785l5.351 1.295z" class="I"/><path d="M390.827 153.537h74.157v56.161h-74.157z" class="G"/><path d="M445.3 166.755h8.665v34.496H445.3zm-14.246-2.613h8.665v37.109h-8.665zm-13.814 4.595h8.665v32.514h-8.665z" class="D"/><path d="M417.24 168.737h8.665v32.514h-8.665z" opacity=".3" class="E"/><path d="M403.215 173.814h8.665v27.437h-8.665zm42.085-7.059h8.665v34.496H445.3z" class="D"/><path d="M460.536 201.376c0 .144-14.24.26-31.801.26-17.568 0-31.804-.117-31.804-.26s14.237-.26 31.804-.26l31.801.26zm-3.617-32.488c-.005.057-.991-.122-2.773-.035-1.761.116-4.383.541-7.146 2.128-1.379.781-2.758 1.862-3.984 3.266-1.24 1.396-2.347 3.078-3.665 4.756-1.307 1.663-2.934 3.365-5.117 4.322-2.156.986-4.609 1.298-7.058 1.385-2.46.087-4.848-.034-7.138.072s-4.491.38-6.527.892c-2.03.525-3.896 1.278-5.473 2.269-1.592.964-2.842 2.201-3.808 3.451-1.928 2.538-2.531 5.16-2.573 6.917-.007 1.78.359 2.732.291 2.746 0 0-.436-.927-.493-2.747-.021-1.794.54-4.503 2.481-7.137.97-1.296 2.244-2.587 3.874-3.596 1.608-1.033 3.515-1.819 5.582-2.367 2.073-.535 4.308-.828 6.624-.937l7.142-.082c2.42-.085 4.803-.392 6.867-1.329 2.084-.906 3.648-2.52 4.952-4.156l3.718-4.744a15.57 15.57 0 0 1 4.126-3.3c2.852-1.582 5.532-1.954 7.318-2.009.903-.011 1.602.042 2.071.105l.709.13zm-65.355 8.355c0 .012-.158.02-.462.025l-1.347.005-5.114-.047-18.282-.295-.218-.004v-.219l-.038-26.851.076-36.816.083-11.157.049-3.033.026-.789.027-.269a2.09 2.09 0 0 0 .027.269l.026.789.049 3.033.083 11.157.076 36.816-.038 26.851-.218-.223 18.278.481 5.112.17 1.345.062.46.045zm108.528-42.686c0 .018-.225.035-.653.052l-1.873.049-6.888.083-22.726.076-13.163-.023.237-.237-.094 13.692-.067 3.898-.037 1.034c-.013.234-.026.356-.039.356s-.026-.122-.039-.356l-.037-1.034-.067-3.898-.094-13.692-.002-.237h.239l13.163-.023 22.726.076 6.888.083 1.873.049.653.052zM390.827 196.22c0 .009-.122.017-.359.023l-1.053.016-4.048.012-14.888-.051-49.116-.367-39.076-.397-.141-.002-.055-.128-8.68-20.302-2.385-5.664-.612-1.494-.189-.521s.095.164.25.495l.67 1.469 2.493 5.617 8.848 20.229-.195-.13 39.077.307 49.114.519 14.886.217 4.047.085 1.052.035.36.032z" class="B"/><path d="M289.493 195.451a4.55 4.55 0 0 1-4.547 4.547 4.55 4.55 0 0 1-4.547-4.547 4.55 4.55 0 0 1 4.547-4.547 4.55 4.55 0 0 1 4.547 4.547z" class="F"/><use xlink:href="#H" class="C"/><path d="M256.845 92.658h63.746v42.325h-63.746z" class="G"/><path d="M291.708 105.418h42.329v16.806h-42.329z" class="D"/><g class="F"><use xlink:href="#I"/><use xlink:href="#I" y="3.071"/><use xlink:href="#I" y="6.141"/><use xlink:href="#I" y="9.212"/><use xlink:href="#I" y="12.283"/><path d="M275.717 121.497c0 .144-2.604.26-5.816.26s-5.817-.117-5.817-.26 2.604-.26 5.817-.26l5.816.26zm44.369-22.625c0 .144-14.158.26-31.619.26-17.467 0-31.622-.117-31.622-.26s14.155-.26 31.622-.26l31.619.26z"/></g><path d="M434.703 137.533c-.009-.008-.017-.165-.025-.46l-.026-1.291-.059-4.843-.115-17.118.225.225-23.71.035c-.06.056.491-.491.258-.256v.006.013.025.051.102.203.406.809l-.001 1.608-.002 3.17-.007 6.129-.026 11.185-.225-.225 17.118.115 4.842.059 1.291.026.462.026s-.131.017-.411.025l-1.247.026-4.792.059-17.262.115-.225.001-.001-.227-.026-11.185-.007-6.129-.002-3.17v-1.608-.809-.406-.203-.102-.051-.025-.013-.006c-.233.231.316-.322.263-.264l23.71.035h.227l-.001.225-.115 17.261-.059 4.792-.026 1.248-.026.411z" class="B"/><path d="M439.55 103.672h11.856v11.856H439.55z" class="F"/><use xlink:href="#H" x="257.838" y="-27.781" class="C"/><g class="F"><circle cx="454.664" cy="134.646" r="4.547"/><circle cx="366.858" cy="176.086" r="4.547"/></g><use xlink:href="#H" x="106.589" y="-63.466" class="C"/><defs ><path id="B" d="M217.273 435.508c0 2.663-2.159 4.822-4.822 4.822s-4.822-2.159-4.822-4.822 2.159-4.822 4.822-4.822 4.822 2.159 4.822 4.822z"/><path id="C" d="M212.452 427.931c0 .149-13.993.269-31.251.269-17.264 0-31.254-.121-31.254-.269s13.99-.269 31.254-.269l31.251.269z"/><path id="D" d="M605.662 266.336c-1.17-9.667-2.726-17.908-2.726-17.908h-20.954s2.602 12.265 2.021 15.109c-.507 2.477-41.113 4.119-51.694 4.285-.629-.474-1.545.321-2.36-.388-.721-.627-1.325-1.383-1.8-2.22-.576-1.016-1.287-2.399-1.448-3.279-.198-1.089-1.584-1.366-2.008-.46s.054 3.923 2.064 6.837-3.26 1.4-5.19.884-7.975-1.826-8.599-1.343c-.914.708-.341 1.846 1.598 2.315 1.963.475 7.659 2.299 7.346 3.331-.308 1.018-10.1-1.75-10.1-1.75s-2-.939-2.401.242c-.722 2.13 9.897 4.284 10.913 4.464.706.124.405 1.259-.346 1.084-.773-.181-9.705-2.993-10.461-.832-.579 1.658 8.719 1.856 10.259 3.495s-7.038-.886-7.529.721c-.183.599 3.385.876 8.513 1.596 4.797.674 13.718.614 15.854.564 11.895.652 53.94 1.521 62.914.886 10.463-.738 6.536-14.313 6.134-17.633z"/><path id="E" d="M376.524 437.553s5.003 1.322 4.401 2.154-19.659 1.251-28.081.699l.018-.374 22.233-.298c0 .001.458-2.119 1.429-2.181z"/><path id="F" d="M360.958 438.466c-.006.053 1.086.207 2.442.188s2.444-.197 2.437-.249c-.007-.059-1.095.032-2.439.047s-2.435-.045-2.44.014z"/><path id="G" d="M354.64 436.363c.013.056.235.049.482.13.249.075.427.208.47.169.044-.032-.102-.266-.409-.362s-.561.012-.543.063z"/><path id="H" d="M273.46 169.277h-27.372a6.94 6.94 0 0 1-6.939-6.939h0a6.94 6.94 0 0 1 6.939-6.939h27.372a6.94 6.94 0 0 1 6.939 6.939h0a6.94 6.94 0 0 1-6.939 6.939z"/><path id="I" d="M283.894 106.144c0 .144-4.435.26-9.905.26s-9.906-.117-9.906-.26 4.434-.26 9.906-.26l9.905.26z"/></defs></svg>