<svg xmlns="http://www.w3.org/2000/svg" width="6945.334" height="6946.667" viewBox="0 0 5209 5210" preserveAspectRatio="xMidYMid meet" xmlns:v="https://vecta.io/nano"><path d="M2953.3 710.1c-6 6.1-11.2 11.8-11.7 12.6-1.2 2.2.8 5.9 3.6 6.7 2 .5 4-1.1 14.1-11.6 11.5-12.1 13.2-14.9 10.5-17.6-2.9-2.9-5.7-1.2-16.5 9.9zm-83.8-6.7c-.8 1.3-1.3 3-1 3.8.8 2 24.2 23.8 25.6 23.8 2.6 0 4.9-2.2 4.9-4.8 0-2.3-2.3-4.9-11.9-14-7.2-6.8-12.8-11.2-14-11.2-1.1 0-2.7 1.1-3.6 2.4zM2593 758.6c-213.2 22.3-410.9 75.6-594 160.2-19.3 8.9-73.7 35.9-87.8 43.6l-17.7 9.6c-86.3 46.6-180.7 111-261 178-22.5 18.7-31.5 27-31.5 28.8 0 1.6 3.7 5.2 5.3 5.2.8 0 5.4-3.5 10.3-7.8 69.2-60 137.5-109.3 227.4-164.2 47.2-28.8 122.4-67.6 185.5-95.7 177-78.7 383.5-132 579.5-149.3 15.9-1.4 16.7-1.6 18-4.1.9-1.6.8-2.6-.5-4.5-1.9-3-3.2-3-33.5.2zm350.7 15.5c-.8 1.1-1.3 2.8-1 3.8.7 2.7 23.8 24.1 26 24.1 2.6 0 4.3-1.9 4.3-5 0-1.9-2.7-5.1-11.9-13.8-7.1-6.6-12.8-11.2-14-11.2-1.1 0-2.6.9-3.4 2.1zm-60.5 10c-5.9 6.1-11.1 12.1-11.7 13.5-1.9 5 3.6 8.4 7.7 4.7 4.4-3.9 21.8-23.3 21.8-24.3 0-1.5-3.8-5-5.5-5-.9 0-6.4 5-12.3 11.1zm694.1 45.7c-1 1-5.6 9.3-10.3 18.5l-8.5 16.6-10.6.3-10.7.3-9.3-17.4c-5.2-9.6-10.2-17.9-11.1-18.5-2.2-1.3-40.7 8.8-42.6 11.3-1 1.2-1.2 5.4-.7 18.6.3 9.3.8 18.3 1 20 .4 2.8 0 3.2-6.3 6.7l-9.3 5.4c-2.5 1.6-2.7 1.5-19.5-9-9.4-5.8-17.7-10.6-18.5-10.6-1.5 0-31.9 30-31.9 31.4 0 1.3 2.9 6.3 12.4 21.1l9.5 14.9-2.5 4.1c-1.4 2.2-3.7 6.4-5.2 9.4l-2.7 5.3-6.5-.6c-3.6-.3-12.7-.7-20.3-.8-10.8-.1-14.1.1-15.1 1.3-1.9 1.8-11.8 40.2-11 42.3.3.8 8.6 5.7 18.5 10.8l17.9 9.3v10.7 10.6l-17.7 9.4c-15.7 8.3-17.8 9.8-18.1 12.1-.4 3 9.4 39.4 11 41.5.8.9 4.9 1.1 18.2.5l20.5-.7c3.1-.1 3.6.4 7 6.4l5.4 9c1.6 2.5 1.5 2.8-8.8 19.3-5.8 9.2-10.5 17.6-10.5 18.7s1.2 3.3 2.8 4.9c7 7.4 28.1 27.1 29 27.1.5 0 8.6-4.9 18-10.9l17.1-11 8.3 5c4.6 2.7 8.7 4.9 9.2 4.9s.6 8.4.2 20c-.4 12.6-.3 20.7.3 21.8.7 1.4 6.2 3.2 21.6 7.2 18.7 4.8 20.7 5.2 22.2 3.8.8-.9 5.5-9.2 10.3-18.4l8.8-16.9h10.7 10.7l9.4 17.5c5.2 9.8 10.1 17.7 11.1 18.1 2 .7 39.7-9.4 42-11.3 1.2-1 1.4-4.3.8-21.7l-.6-20.6 9-5.1 8.9-5.2 16.6 10.4c9.1 5.7 17.6 10.4 18.9 10.4 2.1 0 6.5-4.1 26.1-24.7 7.1-7.4 7.7-5.2-6.4-26.9l-9.9-15.3 5-8.3c2.7-4.6 4.9-8.7 4.9-9.2s8.4-.6 20.3-.2c15.8.5 20.6.4 21.9-.6 1-.8 3.6-8.7 6.9-21.6 5.1-20 5.2-20.4 3.3-22.2-1-1-9.3-5.6-18.4-10.3l-16.5-8.6-.3-10.8-.2-10.8 12.2-6.4c18.2-9.4 22.7-12.1 23.7-14 1-1.8-9.1-40.6-11-42.6-1-1-5.5-1-29 .1l-13.6.6-1.2-2.9c-.6-1.6-2.9-5.8-5-9.3l-3.8-6.3 10.3-16.5c5.7-9.1 10.4-17.5 10.4-18.6 0-2.9-28.7-31.6-31.6-31.6-1.1 0-7.9 3.7-15 8.3l-16.6 10.5-3.7 2.3-9.1-5.2-9.2-5.2.7-20.1c.3-11.8.2-20.7-.3-21.4-.7-1-39.1-12.1-41.9-12.2-.2 0-1.1.8-2 1.8zm22.2 13.5l12 3.2-.3 19.9c-.2 14.7 0 20.2.9 21.3.7.8 4 2.8 7.3 4.5 3.4 1.7 8.8 4.8 12.2 6.9 3.4 2.2 6.7 3.9 7.4 3.9 1.4 0 4-1.6 22.3-13.3l11.9-7.7 10.9 10.3c6 5.6 10.9 10.5 10.9 10.9s-4.5 7.9-10 16.7c-5.5 8.7-10 16.8-10 18 0 1.1 1.5 4.4 3.4 7.3 1.8 2.9 5.2 8.8 7.6 13.1l4.3 7.9 15.1-.7c8.3-.3 17.4-.8 20.3-1.1l5.2-.5 1.1 4.3 6.6 23.9c.3 1.3-3.6 3.8-16.8 10.9-9.5 5-17.6 9.7-18 10.3-.3.6-.6 8-.6 16.4v15.4l3.7 2.3c2 1.2 10 5.6 17.9 9.6 7.8 4 14.2 7.7 14.2 8.2s-1.7 7.2-3.7 14.9l-3.6 14-20.6-.3-20.5-.3-2.5 4.5c-1.3 2.5-4.7 8.3-7.4 13-2.8 4.7-5 9.3-5 10.2.1.9 4.7 8.8 10.2 17.4 5.6 8.7 10.1 16.3 10.1 16.9s-4.7 5.7-10.4 11.4l-10.3 10.3-17.1-10.7c-19.6-12.2-15.9-11.9-30.8-2.9l-11.4 6.7-3.2 1.8.7 20.4.7 20.4-5.9 1.6-21.5 6.1c-1.8.5-3.1-1.6-13.3-21.1-3.2-6.1-6.4-11.8-7.2-12.7-1.3-1.4-3.7-1.7-16.7-1.7-13.4-.1-15.5.1-16.8 1.6-.8 1-5.2 9-9.8 17.8l-8.6 16.4c-.2.2-6.9-1.3-15-3.4l-14.5-3.8.3-20.6.3-20.5-4.5-2.5c-2.5-1.3-8.3-4.7-13-7.4-4.7-2.8-9.3-5-10.3-4.9-1 0-9 4.6-17.6 10.1-8.7 5.6-16.2 10.1-16.7 10.1s-5.6-4.7-11.3-10.4l-10.4-10.4 10.3-16.4c5.6-8.9 10.2-17.2 10.2-18.3s-3-7-6.6-13c-9.9-16.7-8.8-15.6-15.4-15l-19.9 1-14.2.6-1.1-4.3-4.1-14.7-2.6-10.6c.1-.1 7.6-4.1 16.7-8.9l17.8-9.8c.9-.8 1.2-5.1 1-17.2l-.3-16.1-17.2-9-17.8-9.6c-.3-.4 1.1-7.2 3.2-15.2l3.8-14.6 11.5.5 19.5.8c4.4.2 8.6.1 9.3-.1.7-.3 3.1-4.1 5.3-8.5s5.6-10.5 7.6-13.4c1.9-2.9 3.3-6 3-6.8s-5.1-8.5-10.6-17.1c-5.6-8.6-10.1-16-10.1-16.4 0-1.6 20.9-21.3 22.2-20.9.7.3 8.2 4.9 16.6 10.2s15.9 9.6 16.7 9.6 4.5-2 8.2-4.4 9.6-5.8 13.1-7.5c5.7-2.9 6.5-3.8 6.5-7.6 0-.6-.3-9.1-.7-19l-.7-18.1 13.4-3.7c7.5-2 14.1-3.7 14.9-3.7.7 0 5.4 7.6 10.3 17.1 5 9.4 9.8 17.4 10.7 17.7.9.4 8.5.5 17 .2l15.3-.5 5.9-11.5c11.3-22.2 12.5-24.1 14.9-23.4l14.2 3.7zm-62 83.8c-27.7 2.9-54.3 18.1-71.6 40.8-6.8 8.9-14.5 25-17.6 36.9-2.2 8.4-2.6 11.8-2.6 25.2 0 13.6.3 16.7 2.5 25.1 3.5 12.9 7.8 22.7 14.5 32.7 19.8 29.8 55.3 47.8 90.3 45.8 36.2-2.1 66.6-20.5 85-51.5 11.6-19.5 16.5-46.6 12.5-69.2-9.4-54-58.7-91.4-113-85.8zM3571 939c17.5 4.2 38.6 17.4 49.6 31.1 14 17.5 20.2 34 21.1 55.9 1.2 27.7-8 51.4-27.1 70.5-16.8 16.8-37.3 25.9-61.3 27.2-17.6.9-30.7-1.8-47-9.9-24.2-12-41.9-34.4-48.9-61.8-2.8-11-2.6-34.4.4-45.5 2.7-9.9 8.9-22.9 14.6-30.9 5-7 17-18.8 23.6-23.3 10.7-7.3 27-13.5 40-15.3 9.1-1.2 25-.3 35 2zm-1147.5-77.6c-69.8 14.8-130 30.9-193.5 51.8-170.1 56-325.5 136.2-461.5 238.2-23 17.2-53.4 41.5-54.4 43.5-1.3 2.3.8 6.5 3.5 6.9 1.3.2 7.6-4.3 18.9-13.3 126.2-101.4 275.5-185.3 435.5-244.8 83.5-31.1 171.2-56.1 257-73.3 23.3-4.7 26.7-6.1 25.3-10.2-.7-2-3.2-4.2-4.7-4.1-.6 0-12.4 2.4-26.1 5.3z"/><path d="M2761.8 1028.7c-1.2 1.4-84.5 144.4-103.3 177.3l-28.4 49-39.8 68.5-17.8 30.5-55.6 96.4c-1.1 2.3.4 5.1 15.8 31.3l114.8 194.3 111.2 188.2 3.4 5.8h101.2 101.2l13.8 13.8c7.5 7.5 13.7 14 13.7 14.4s-5.2 9.6-11.5 20.5-11.5 20.6-11.5 21.7c0 1.7 5.8 11.8 43 74.6l58.5 99 50.5 85.5 18 30.5 22.5 38 29.5 50 22.2 37.2 1.9 2.8H3334h118.8l.6 2.2c.3 1.3.6 9.2.6 17.5v15.3h-121.3l-122.9 1.7c-1.8 2-3.1 4.2-35 59.3l-117.3 202-92.8 164c.5 1.4 42 72 92.3 157l96 162.5 47.2 80 9.5 16 210.9.5 210.9.5 2.7 22c1.5 12.1 5.2 47 8.2 77.5l18.7 164.2c14.2 99.7 29.1 163 61.5 260.8 10.1 30.6 11.8 34.9 14.6 37.7 1.8 1.6 4.1 3.3 5.1 3.6 5.3 1.9-2.3 28.6-13.3 46l-5.3 8.5-4.9-5.3c-8.3-9.1-17.9-11-29.9-6-10.8 4.5-46.6 23-61.4 31.6-45.2 26.4-78.7 54.8-92.7 78.7-6.5 11-5.6 22.1 2.3 30.7 8 8.7-6.9 8 169.9 8h156.5l4.8-2.4c5.4-2.7 9.2-6.8 12-13 1.5-3.5 2-7.1 2.2-18.5.6-32.7-4.7-60.4-16-84.1-6.8-14.1-15.1-21-26.9-22.2l-5.5-.6-2.1-7.8c-3.5-13-4.9-21.8-5.6-33.4l-.6-11 3.7-2.3c2.3-1.4 4.4-3.9 5.5-6.5 2-4.5 7.4-35.3 11.4-64.2 2.3-16.8 3.6-28 7.1-60.5 3.4-32.4 5-69 5-115.5 0-40.4-.7-60.5-3.1-85.5-6.2-67-18.4-120-38.8-168.5-7.3-17.2-9.1-23.7-10.7-39-1.1-10.3-.7-42.6.7-54.5 4.5-39.8 8-62.2 23.8-152.1 9.2-52.2 14.3-86.9 16.6-113.9l1.9-19.8.6-6.3 7.9 18.8c42.6 101.1 84.7 187.2 110.7 226 7.1 10.7 12.7 17.7 25.5 32.3 17.9 20.3 35.2 45.2 87.9 127 32.1 49.7 59.5 90.7 78.3 117 62.1 86.7 112.9 138.3 159.7 162 15 7.6 24.3 10.6 29.4 9.3 3.5-.9 4.1-.8 7.8 2.3 5.5 4.6 14.6 15.9 17.4 21.6l2.2 4.7-3 3.4c-5.1 5.8-5 6.3 1.2 53.2 9.4 71.1 24.4 137.3 39 171.7 6.1 14.5 21.6 38.1 33.5 51.1 10.8 11.9 27.3 13.8 39.8 4.7 5.2-3.7 8.9-10.1 15.2-26.2 17.3-44.3 30.5-107.1 37.5-178.3 2.3-24.2 2.4-25.4 3.1-41.2.6-13.5.4-15.4-1.5-21.1-3.1-9.1-5.6-12.5-17.2-23.7-21.5-20.7-52.4-41.4-63.9-43-5.2-.7-12.2 1.4-15.7 4.7l-2.2 2.1-6.8-5.9c-11.7-10.2-18.3-16.6-27-26.6l-8.5-9.8 1.5-4.3c1.7-4.9 2.6-1.6-9.3-31.7-30.3-76.2-66.5-141.3-113.9-205-14-18.8-27.9-36.6-57-72.9-63.6-79.1-68.3-85.4-76-101.4-7.7-16.1-14.1-37.3-18-59.7-1.9-10.8-3-20.2-8.1-68.5l-9.5-84c-1.1-7.7-6.5-52.5-6.5-53.8 0-1 2.2-1.8 7.8-2.6 18.1-2.9 26.8-5.9 28.3-9.9 1-2.5.6-35.1-.5-42.2-.2-1.4-.7-6.1-1.1-10.5-1.9-23.9-10.4-72.4-18-102.5-14.9-59.5-34.4-112.8-61.4-168.5-19.4-39.9-36-69-84.6-148-45.1-73.3-59.7-99-71.5-125.5-13.8-31.1-18.5-54.4-18.9-94.1-.4-35.8 2.3-61.4 16.8-160.9 12.6-86.3 14.7-132.4 8.2-182.6-4.3-33.2-9.9-46.5-26.6-62.9-17-16.8-40.3-27.6-74-34.4-11.6-2.3-31.9-5.1-37.4-5.1h-3.9l-7.8-13.7c-9.6-16.7-9.2-15.7-6.3-15 6.9 1.8 34.6 2.8 47.4 1.7 27.1-2.1 39.8-5.9 69-20.5 22.5-11.3 29.1-13.5 41.8-13.5 9.4 0 20.9 2.5 29.2 6.4 3.9 1.8 14.2 8.1 22.9 14 48.2 32.4 93.5 54.3 133.9 64.6 20.1 5.1 34.9 7.1 53.2 7.1 42.7.1 77-14.2 106.2-44.4 20.8-21.4 38.8-52.3 48.8-83.7 4.8-15.1 14.3-28.9 25.5-37.3 8.4-6.4 16.4-9.9 30.1-13.6 17-4.5 28.1-8.6 40.4-15 39.4-20.4 69-56.1 80.2-96.8 2.4-8.6 2.7-11.6 2.7-24.3.1-16.2-1.6-24-7.8-37.5-17-36.8-61.2-68.2-121.6-86.4-28.5-8.6-55.8-12.8-86-13.2-55.5-.7-91.3-6.8-116.4-19.7-6.6-3.4-11.3-6.9-19-14-39.9-37.4-81.9-61-123.2-69.3-15.3-3-40.9-3.7-56.2-1.5-24 3.6-43 10.2-71.2 24.8-20.3 10.5-23.8 12.6-58 34.3-47.9 30.4-74.3 44.6-96.2 52-10.9 3.7-11.8 3.9-25.3 3.9-7.7.1-17.6-.2-22-.6-37.1-3.5-64.1-3.1-83.4 1.1-43.1 9.4-68.6 35.4-81 82.6-4.4 16.8-5.3 22.4-5.8 35-.9 22 4 37.6 15.4 49.4l5.4 5.6-5.4 10.5c-3 5.8-6.5 13.5-7.7 17.2l-2.2 6.8H3464h-51.8l15-24.8 16.6-27.9 1.5-3.2-11-19.3-26-45.3-30.8-53.5-29-50.5-56.3-98-44.2-77-37-64.5c-6.7-11.8-13-22.1-13.8-22.8-1.3-.9-46.3-1.2-217.7-1.2l-217.7 1.7zm444.9 34.5l78.3 136.3 48.5 84.5 46.3 80.5 54.2 95c0 .4-6.4 11.3-14.3 24.3l-53.7 88.7-57.5 95-30.6 50.5-24.2 40-37 61.2-25.2 41.8h-40.9-41l-19.5-12.9c-22.6-14.8-35.1-22.2-65.1-38.6-46.7-25.6-58.1-34.2-71.7-54.2-8.3-12-14.6-19.6-31.8-38.3-21.2-23-30.5-34.6-30.5-37.9 0-.8 20.1-1.1 68.4-1.1l78.7-1c45.9-4.7 81.1-22.7 101.9-52.2 18.1-25.6 27.2-62.6 25.7-103.8-1.8-45.7-19.4-79.2-50.9-97-3.2-1.7-5.8-3.3-5.8-3.4 0-.2 2.5-2 5.5-4 6.1-4.3 17.6-16 22.2-22.7 15.1-22 22.8-56.3 20.3-90.7-4.7-65.3-38.5-106-101-121.6-24.3-6-22.1-5.9-135.8-6.3-78.5-.3-104.7-.1-105.8.8-1.2 1-1.4 37.6-1.4 250.3l1.2 250.4c.8.8 5.9 1.2 16.5 1.2h15.3v3.9c0 2.2.9 6.7 1.9 10.1 1.4 4.4 1.6 6.2.8 6.5-9.4 2.9-12.4 4.2-15.9 6.8-6.1 4.7-8.1 7.9-8.5 13.9-.6 6.8 1.2 11 7.8 18.5 2.8 3.2 6.5 8.7 8.2 12.2 2.7 5.7 3.1 7.9 3.8 19.5 1.1 19.8 5.1 30.1 16 42 14.3 15.7 32.9 23.6 55.5 23.6h9.7l5.4 4c2.9 2.3 9.5 8.1 14.6 13l9.2 8.9-93.3-.2-93.3-.2-40.5-68.5-77.4-131-92.8-157-20.8-35.2c-5.2-8.7-9.4-16-9.4-16.3s4.4-8.1 9.7-17.3l16.3-28.2 37.2-64 48.5-83.5 114-196.5 13.9-23.8 1.4-2.2h211.9 211.8l15 26.2zM3024.1 1186c14.3 1.5 32.9 5.3 43.5 9.1 44.8 15.7 70 45.7 78.1 92.9 2.3 13.2 2.2 43.2-.1 55.9-6.1 33.4-20.4 55.5-45.6 70.4-5.8 3.3-7.6 4.9-7.8 6.9-.4 3.1.7 3.9 8.6 7.1 9.4 3.8 16.8 8.5 24.5 15.7 16.4 15.4 26.4 36.5 29.8 63.7 1.5 11.7.6 43-1.5 55.3-10.5 61.4-46.5 95.3-110 103.4-14.2 1.9-9.7 1.8-89.4 1.7l-68.2-.1-1.1-2.8c-3.4-9.1-14.7-13-25.1-8.7-1.7.7-1.8-10.9-1.8-235.4V1185h77.9l88.2 1zm539.5 301.9c6.4 3.9 12.1 7.1 12.7 7.1.5 0-1.5 2.6-4.6 5.8-6 6.4-14.2 18.4-15.2 22.3-.4 1.8 0 3 1.4 4.3 3.3 3 6.2 1.4 10.1-5.5 4.4-7.8 13.1-17.4 18.1-20 12.8-6.5 20.6 2.3 20.3 22.6-.4 24.1-11.9 45.5-27 50.1-8.9 2.7-10.9 4.9-8 8.9 3.1 4.3 16.5-.1 25-8.3 8.8-8.5 15.2-20.7 18-34.6l1.3-6 1.7 9c9.6 48.9 44.5 94.9 94.7 124.8 6.1 3.7 7.8 5.2 8.2 7.5 1.3 6.4 10.3 29.5 17 43.5l7.1 14.9-8.5 8.1c-18.2 17.3-34.6 21.8-63.9 17.5-18.7-2.7-26-4.7-27-7.3-.4-1.1-1.3-10-1.9-19.6-1.9-30.8-5.9-49.7-14.1-66.6-6.2-12.8-11.6-18.9-19-21.4-7-2.4-13.8-1.9-31.8 2.1-17.8 4-27.9 3.8-36.1-.6-6-3.3-8.7-6.4-12.9-15-6.3-12.7-9.2-28.5-9.9-53.7-.8-25.7 1.9-48.6 7.7-66 3.2-9.3 11-24.6 14.7-28.6 2.9-3 3.7-3.4 6.8-2.9 1.9.3 8.7 3.7 15.1 7.6zm-51.2 43.8c-3.9 20.4-4.2 53.4-.8 73.3 4.9 28.7 13.9 44.8 28.7 51.6 5.7 2.7 7.1 2.9 17.7 2.8 9 0 13.9-.6 22.5-2.7 14-3.5 21.2-4.3 25.8-2.8 10 3.3 20 24.6 24.2 51.5 2 12.6 2 12.6-6.5 12.6-4.9 0-16.9.9-34.5 2.5-11.2 1.1-30 3.5-42.6 5.6l-12.6 2.1-59.4-48.2-63.7-52.4c-2.3-2.2-5.2-6-6.3-8.3-3.6-7.5-3-12.1 6.1-48 7.9-31 8.4-33.5 7.4-38-.6-2.6-1.4-5.6-1.9-6.6-.7-1.6 2-1.7 48.2-1.7h49l-1.3 6.7zm-103.4 5c0 1.7-3.6 17.3-8 34.6-8.8 34.5-9.4 39.7-6 49.3 1 3.1 3.5 7.5 5.3 9.8 2.9 3.5 25.8 22.4 110.3 91.1 6.1 4.9 11 9.1 10.9 9.3-.2.2-13.4 3.7-29.5 7.8l-34.3 8.9-5.2 1.5-17-16.8-56-55.1-39.8-39.7c-.5-.9.8-4.1 3.9-9.1l31.7-52.3 28.4-46.9 1.6-2.4 1.8 3.4c1 1.9 1.8 4.8 1.9 6.6zm-14.7 168.6c25.8 25.3 46.5 46.3 46 46.7-.4.4-10.7 3.8-22.8 7.5-47.7 14.7-88.7 31.1-114 45.4-12.4 7.1-26.1 16.6-28.1 19.7-.8 1.1-1.7 5.6-2 10-.9 12.5-.1 11.4-15.9 22.1-28.8 19.5-37.5 23.8-55.5 27.5-8 1.7-12 1.9-25.5 1.5-19.3-.7-27.4-2.5-42.5-10l-10.5-5.2 36.7-.3 36.7-.2 1.9-2.8c1.8-2.5 16.4-26.6 65.7-108.2l35.7-59 24.2-40 7.3-11.8 1.5-2.4 7.1 6.8c4 3.7 28.3 27.5 54 52.7zm-521-39.3c1.5 1.2 3.2 4.1 4.1 7.3 3.3 11.3 12.3 23.7 33.6 46.7 18.3 19.6 25.7 28.4 33.9 40.3 4.2 6.2 10.9 14 15.9 18.9 13.3 12.7 20.8 17.5 67.7 43.3 25.3 14 40.7 23.4 67.8 41.4 13.9 9.3 28 18.3 31.5 20 26.4 13.3 60.4 15.8 88.7 6.6 12.1-4 20.9-8.6 38.4-20.4 9.1-6.1 16.6-10.9 16.8-10.7s.6 4.8.9 10.2c1.9 35.6 10.6 72.7 24.3 103.3l4.9 11-5.7 1.7c-22.9 6.7-53.2 13.2-75.9 16.4-18.4 2.6-64.6 6.3-70.2 5.7-8.7-1-35.7-16.6-59.4-34.4-27.5-20.7-41.2-33.1-92-83.2-44.5-43.9-59.7-57.9-67.1-62.2-4.7-2.7-5.7-2.9-16.4-2.9-19 0-31.7-4.9-44.7-17.2-11.4-10.8-16.4-22.4-16.4-37.7 0-14.8-4.1-26.8-11.9-35.4-6.8-7.7-8.1-9.8-8.1-13.8 0-5.9 5.7-10.2 16.7-12.7l4.2-1 2.7 4.7c6.8 11.6 16.6 23.1 19.8 23.1 5.4 0 6.2-6.1 1.5-10.6-3.9-3.7-15.6-21.1-19.4-28.9-2-4-3.1-7.9-3.3-12.2-.5-7.8.1-10.3 3.5-14.3 4.4-5.3 9.3-6.3 13.6-3zm872.4 35.5c4.5 7.7 8.2 14.3 8.2 14.7.1.5-1.5.8-3.4.8-3.2 0-3.7-.4-6-5-1.4-2.7-3.4-7.2-4.5-10-6.6-16.5-6.2-15.2-4.3-14.8 1.1.2 5.1 6 10 14.3zm-112.6 26.7c0 .7.2 2.6.4 4.3.2 1.6.6 8.1 1 14.4.3 6.3 1.1 12.3 1.6 13.3 2.2 4.2 29.2 9.8 50.4 10.5 12.1.4 16.3.2 21.4-1.2 14.8-3.8 28.1-12.2 39.7-24.9 7.3-8 8.4-10.7 6.1-14.8l-1.6-2.8h5.7c8.9.1 32.6 2.7 44.3 5 46.4 8.9 74.5 26.2 87.5 53.5 4.3 9.1 5.9 15.6 8.3 33.4l2.6 18.6c.3 2.2.8 16.8 1 32.5.5 39.1-2 68.2-11.1 130.5-16.5 113.5-19.3 145.2-16.4 184 3.9 52.9 18.5 86.7 80 186 72.8 117.4 96 160.4 122 225.5 30.9 77.3 51.9 169.2 53.7 234.6l.6 21.1-11.4 2.2c-28.6 5.3-82.7 10.8-128.4 12.8-35.3 1.6-139.6.8-160.5-1.2-2.5-.3-10.3-.9-17.5-1.5-22.9-1.8-53.3-5.5-76.3-9.2-10.5-1.6-13.8-2.5-15.4-4.2-6-6.4-20.9-43.5-47-117.6-21.8-61.9-33.6-90.4-39.4-94.9-5.3-4.2-10.2-2-13.2 6.2-3.4 9-7.7 31.7-9.7 51.2-.4 3.3-.8 7.1-1.1 8.5-1.5 9.4-6.4 73.4-8 104.8l-.7 13.3-3.1-.7c-5-1.1-33.4-10.9-46.3-16-13.5-5.3-26.4-11.6-28.1-13.6-1.7-2.2-9.5-22-14.1-36.1-18-55.2-31.7-140.6-39.1-242.7l-1.5-20-1-14.8-1-18c-3.2-55.8-4.5-119.8-4.3-213.7l.3-95 1-36 1-35 1-24.6.7-19.7-2.3-1.5c-2.2-1.4-5.8-.7-49.9 9.4l-47.4 11-7.9-7.8c-42.9-42.3-69.9-100.5-76.6-164.8-1-10.2-1.2-35.7-.3-45.5l.7-7.5 7.7-5.5c34.7-24.8 113.8-54 212.6-78.4l31.7-7.5c20.2-4.1 56.1-8.4 87-10.4l7.8-.5c1.6-.1 2.7.3 2.8 1zm-590.3 218.2c38 34.7 86.4 67.5 104.5 70.7 4.4.8 11.7.5 31.5-1.1 47.2-3.9 72.1-8.1 112.3-19l15.2-4c.3 0 2 2.6 3.7 5.7 4.6 8.2 17.2 26.4 24.4 35.3 10.3 12.8 28.7 31 31.2 31 1.2 0 21.7-4.5 45.6-10l44.7-10c1.1 0 1.2 2.7.7 14.7l-3.3 97.3c-.4 14-.7 63-.7 108.7v83.3h-116l-116.1-.1-43.5-73.7-54.1-91.7-88.3-149.5-38.4-65-16.4-28.4c-.1-.4 4.3-8.6 9.7-18.1l10-17.3 16.8 16.2 26.5 25zm412.3 464.3c0 4.3.2 8.9.3 10.3.2 1.4.7 10.5 1 20.2l1.1 20.5.9 16.3 1.1 18.5c.3 2.7.7 7.9 1 11.5l4.1 50.1.6 6.6-7.8-1.6c-6.8-1.3-21.3-1.5-101.4-1.6h-93.4l-1.3 2.5c-1 2-1.2 51.6-1 250.3l1.7 248.7c.9.7 36.5.9 96.5.7 94.3-.2 95.1-.2 105.2-2.5 48-10.6 88.2-40.1 115.6-85l5.2-8.5.7 4.4 26.4 150.9 7.9 41.5 7 38.5 2.6 15.9c.5 3 .9 6.1.9 6.8 0 1.1-36.5 1.3-207 1.3h-206.9l-14.4-24.3L3076 2990l-17.4-29.5-12.8-21.5-36.3-61.5-31.2-52.8c-1.9-3.2-3.2-6.5-2.9-7.3.3-.9 8-14.2 17-29.7l61.6-106.2 127.4-219.5 25.7-44.2 8.4-14.8h119.8H3455l.1 7.7zm-2.6 161.8c12.7 1.9 13.4 2.2 13.9 4.8.3 1.2 1.7 12.3 3.1 24.6l6.1 44.5 3 22.4c-.3.2-2-.7-3.8-2.1-4.5-3.5-17-9.3-24.3-11.3-7.8-2.2-54.7-3.3-57-1.4-1.3 1.1-1.5 21.9-1.5 159.1l1.9 158.9c3.1 1.6 40.3 1.3 50.5-.5 25.6-4.5 44-19.2 57.4-46.1 11.8-23.5 17-51.2 17.9-95.7.3-15.8.8-28.7 1-28.7.3 0 1.8.9 3.4 2.1 3.5 2.5 13.4 7.1 25.9 11.9 5.2 2.1 9.8 4.4 10.2 5.1.3.8 2.5 13.3 4.8 27.9l10.5 65 6.3 38.5-5.9 11c-21.9 40.6-57 71.3-96.4 84.3-22.3 7.4-33.3 8.2-111.2 8.2H3305v-242-242h68.8c56.1 0 70.5.3 78.7 1.5zm-40.3 92.4c17 4.4 29.3 13.4 39.8 29.4 10 15.2 15.9 32.7 20.2 59.7 2.1 13.4 2.2 17.7 2.3 58 0 36.4-.3 45.5-1.8 55.9-8.3 58.1-30.6 89.3-67.4 94.5l-4.3.6v-150l1.8-150c1.1 0 5.3.9 9.4 1.9zM4468 3598.1c17.7 9.7 37.2 24.2 52.1 39.1 13.9 13.7 14.7 17.4 11.4 56.5-6.9 82.9-20.6 150.7-40.2 198.8-5.3 13-8.1 17.1-13.7 19.6-8.3 3.8-16.6 1.8-23.7-5.8-9.5-10.1-23.5-31-29.8-44.6-16.4-34.9-32.7-109.6-43.2-197.7l-2.2-18.5 10.3-9.7c11.5-10.8 14.4-12.1 20.3-9.3 2 .9 4.6 3.2 5.9 5 1.2 1.9 3.3 4 4.5 4.6 3.4 1.8 8.3 1.3 10.8-1.1 1.3-1.2 5.8-10.1 10.1-19.7 10.4-23.5 12.9-25.1 27.4-17.2zM3706.5 3854c2.5 1.2 5.5 3.9 7.6 6.8 8.6 12.1 16 17.4 26.1 18.8 4.1.6 7.7.1 32.8-4.6 66.6-12.5 67.8-12.6 75.3-7.4 3.3 2.3 5.2 5 8.8 12 10.9 21.8 16.7 51.3 15.7 81.3-.4 13.9-1.6 17.3-7.1 21.5l-2.8 2.1-154.2.3c-106.2.2-155.3 0-157.9-.8-4.5-1.3-9.5-6.8-10.4-11.5-1.4-7.8 7.3-21.3 25.3-38.5 25-24.1 67.1-51.3 113.8-73.5 19.5-9.3 20.6-9.6 27-6.5zM2947 1267.2l-2.5 1.4-.3 59.3c-.2 44.6.1 59.7 1 60.8 1.9 2.3 70 1.3 78.2-1.1 20-5.9 31.4-17.6 36.3-37.3 2.4-9.6 2.4-32.2 0-42.3-3.8-15.7-11.8-27.1-23.4-33.3-2.9-1.5-9.7-4-15-5.4-9.3-2.4-11.5-2.6-40.8-3-24.6-.3-31.5-.1-33.5.9zm37.3 11.7c4.2 1.1 9.1 2.7 10.9 3.7 9.5 4.8 16 13.7 19.5 26.5 2.4 9.1 2.4 32.2-.1 40.4-6.5 21.5-18.8 29.3-48.5 31.1l-12.1.7v-52.8-52.8l11.3.6c6.2.4 14.8 1.6 19 2.6zm-39.1 181.3c-.9.9-1.2 16.1-1.2 62.3 0 58 .1 61.3 1.8 62.8s5.7 1.7 36.3 1.7c43.4 0 51.2-1.2 64.4-9.5 10.6-6.7 19-19.8 22.1-34.5 2.1-9.7 1.4-34.4-1.1-44-5.5-20.6-18.4-34.2-36.6-38.5-8.4-1.9-83.8-2.2-85.7-.3zm41.7 8.8c26 3 38.2 20.8 38.2 56 .1 26.1-9 41.5-28.6 49-5.2 2-8.3 2.4-24.2 2.8l-18.3.4-.2-52.9v-54.6c.3-1.5 1.9-1.7 12.5-1.7 6.7 0 16 .4 20.6 1zm1520.9 2187.2c-1.7 1.3-1.9 2.6-3.8 22.8-6.2 67.1-18.6 134.6-34.7 188.4-5.9 19.8-6 21.7-1.4 22.4 1.2.2 2.9-.2 3.7-.8 3.7-3.1 17.3-53.5 25.3-93.7 7-35 11.8-67.2 16.1-108.3 2.6-24.3 2.6-29.6.1-31-2.5-1.3-3.4-1.3-5.3.2zm-75.8 72c-12.9 1.6-24.1 3.4-24.7 4-2 1.6-1.6 6.6.5 7.7 1.3.7 9.2.1 25.8-2 25.1-3.1 26.9-3.7 26.2-8.3-.7-4.4-2.9-4.5-27.8-1.4zm-2.5 52.2c-8.8 1.2-16.6 2.5-17.2 2.9-1.8 1.1-1.6 6.2.2 7.7 2.3 1.9 37.1-2.6 39.7-5.2 1.7-1.7 1.6-3.9-.5-6.6-1.2-1.5-2.7-1.5-22.2 1.2zm-758.7 101c-1 2.3.1 4.4 12.4 23.3 11.3 17.6 13.8 20.8 16 21.1 2 .2 3.1-.4 4.3-2.2 1.9-2.9 2.9-1.1-15.8-29.9-9-13.6-9.9-14.7-12.7-14.7-2.3 0-3.3.6-4.2 2.4zm-36.1 15.7c-.9 1.2-1.3 2.9-.9 3.8.3.9 5.7 8.9 12 17.8 9.9 14.4 11.6 16.3 14 16.3 3.1 0 5.2-1.6 5.2-4 0-.9-5.3-9.3-11.8-18.6-9.6-13.9-12.2-17-14.4-17.2-1.8-.2-3.1.4-4.1 1.9zm21.3 59.9l-73.7 1.3c-2.1 1.3-1.6 6.5.7 7.7 2.6 1.4 256.6.2 259.3-1.2 2.4-1.2 2.3-6.4-.3-7.8-2-1.1-29.4-1.1-186 0zM1304.3 1427.1c-10.7 2.1-20.6 9.7-25.2 19.4-6.6 13.9-2 32.7 10.2 41.7 20.1 14.7 47 5.6 54.1-18.2 2-6.7 2-11.2 0-18.1-4.9-17.1-22.3-28.1-39.1-24.8zm17.7 12.2c8.7 4.5 13.7 14.2 12.7 24.5-2.2 21.1-28.7 29.5-42.7 13.6-4.5-5.2-6-9.3-6-16.4 0-7.2 1.9-12.3 6.3-16.8 7.9-8.3 19.4-10.2 29.7-4.9zm442.4 62.5c-.9.5-60.9 103.3-121.6 208.2l-65.2 112.2-59.6 104.2c0 .8 5 9.9 11.2 20.3l50.1 84.8 27.2 46 96.3 163 32.5 55 22.1 37.5 6.1 10.5h217.9 217.9l17.9-29.5 79.3-131 36-59.5 24.5-40.5 21.5-35.5 67.7-113.7c.1-1.3-3.2-8.1-7.4-15.3l-21.3-37-85-148-58-101-48.3-84-27.5-46.7c-1.6-1-432.8-1-434.3 0zm453 51l44.1 76.7 126.9 221 47.7 82.9-23.9 39.6-47.2 78-39 64.5-34.5 57-29.1 48-39.6 65.5-29.4 48.5h-211.9-211.8l-46.4-78.5-76.8-130-61.5-104-34.4-58.4c-19.1-32.2-21.7-37.1-20.8-39.1.6-1.2 6.1-11 12.3-21.6l14.4-24.9 111.5-192 27.6-47.6 41.9-72.2 32-55.2h212 212l23.9 41.8zm-394.7 120c-1.6 1.7-1.7 20.5-1.7 249.6l1 249.7c1 1.8 2.9 1.9 69.3 1.9 51.8 0 68.6-.3 69.5-1.2s1.2-21.6 1.2-87V2000h4.4 4.3l27.3 67.7 35 86.8 7.7 19 71.8.3 73.1-.9c3.8-3.2 2.4-7-38-103.9l-40.9-98.1-1.5-3.7 7.1-4.8c9.2-6.3 24.1-20.6 31-29.7 15.3-20.3 24.4-44.8 28.2-76.2 1.4-10.9 1.6-18.9 1.2-36.5-.5-22.8-1.6-31.6-5.7-46.9-15.8-58.7-60.6-94.4-126.9-101.1-6.4-.6-48.7-1-113.1-1-98.2 0-102.8.1-104.3 1.8zm219.1 9.3c55.2 6 94.4 34.4 111.9 80.8 14.8 39.5 12.7 102.8-4.8 141.9-9.1 20.1-26.9 40-48.1 53.5-3.1 2-5.9 4.5-6.2 5.5-.4 1.1 14.8 38.8 40.5 100.3l41.6 99.7c.4 1-9 1.2-46.8 1l-47.2-.3-34.8-86.4-36.1-87.2c-.7-.5-13.8-.9-29-.9-27.5 0-27.7 0-29.2 2.2-1.4 2-1.6 12-1.6 87.5v85.3h-43-43v-242-242h83l92.8 1.1zm-86.1 80.6c-1 .2-2.2 1.6-2.8 2.9-.5 1.5-.9 30.2-.9 70.2 0 59.7.2 68 1.6 70l1.5 2.2h36.2c28.5 0 37.5-.3 42.5-1.5 22.4-5.3 37.1-22.5 42.2-49.5 2.8-14.6 1.6-39.4-2.6-53-4.6-15.2-15.9-29.7-27.4-35.3-11.7-5.6-14.6-5.9-53-6.2-19.5-.2-36.3-.1-37.3.2zm35.5 10.3c16.3 2.4 26.9 10 33.8 24.4 5.9 12.3 7.5 21.2 7.3 39.6-.1 12.1-.6 17.2-2.2 23.3-3.8 14.6-11.9 26.5-21.6 32.2-7 4.2-14.6 5.5-31.2 5.5H1962v-63-63h11.3c6.1 0 14.2.5 17.9 1z"/><path d="M1217.4 1767.5c-7.5 1.6-17.7 6.2-30.7 13.9-26.7 15.7-54.2 24.4-87.2 27.6-16.1 1.5-27.6 3.5-35.2 6.1-14.1 4.7-33.2 20.8-42.7 36.2-9.8 15.8-13.7 34-10.1 47.7.9 3.6 4.3 12.8 7.5 20.5 8.6 20.7 10.3 28 10.4 45.5l-.4 27.5c-.4 10.9-.2 13.9 1.4 18.4 3.5 10.1 12.9 16.6 25.2 17.6l5.5.4c.3.1.9 5.2 1.2 11.3 1.2 25.7 12.5 44.3 30.4 49.8 3.6 1.1 8.1 2 10.1 2h3.5l-.6 10.2c-.4 5.7-1.4 12.8-2.3 15.8-4.3 14.6-14.9 28.3-27.5 35.3-7.5 4.2-25.3 10.4-52.1 18.2-28 8.2-67 22.6-83.3 30.8-24.3 12.1-44 35-53.3 61.7-5.9 17.1-13.4 57.5-16.8 90.5-1.8 17.8-2.4 57.7-1.1 77.9 2 31.7 8.2 65.8 17.9 97.9 3.6 12 4.3 13.7 5.9 13.2 1-.4 2.5-.2 3.4.2.8.5 6.2 10.3 11.9 21.8 26 52.1 56.9 94.9 98.5 136.6 24.1 24.1 42.3 39.4 66.6 56.1 22.4 15.4 38.9 24.3 72.4 39.3 92 41.1 155.4 56 267.1 63l17 1c9.2.6 55.9 2.2 88.6 3.1l24 .6 19.7-48.3c10.8-26.6 19.3-48.6 18.9-49s-7.7-2.3-16.2-4.4-15.8-4.1-16.1-4.7c-.3-.5-15.8-5.1-34.5-10.3-78.5-21.7-125.1-39.2-189.4-71.1-58.1-28.8-91.5-52.1-145.5-101.4-23.7-21.6-36.3-35.8-53.6-60.2-16.6-23.3-40-62.7-55.2-92.5-8.6-16.9-8.8-18-4.4-20.7 2.7-1.7 4.8.3 9.1 8.5 19.6 37.7 35.6 65.1 52.3 89.8 21.2 31.3 35.3 47.3 66.3 75.1 37.1 33.3 66.6 55.2 100 74.2 21.3 12.1 82.4 41.8 83.6 40.6.5-.6.8-4.3 2.9-31.8 1.6-21 5.4-56.3 8.1-75 3.2-22.6 8.6-55.5 9.3-56.7.4-.8 3 1.4 7.4 6.6 24.4 28.5 63.6 62.5 92.6 80.5 22 13.6 54.9 27.3 91.3 38.1l8.8 2.6-2 3.7c-1 2-12.9 22.6-26.3 45.7-18.4 31.6-24.1 42.2-23.1 42.8.7.4 3 .9 5 1l3.7.2 29.9-51.5 79.6-137 60.9-105 36.9-63.5 212-.2 211.9-.2 4.6 8.2 160.9 280.2 68.7 119.8 8.4 14.7-20.7 34.3-30.4 50.2-33 54.5-29.9 49.5c-5.4 8.9-7.2 11.1-9.3 11.3-1.4.2-9.9-.8-18.9-2.2-25.5-4-32.3-3.2-36.2 4.4-1.6 3-1.8 5.1-1.2 15.3.5 10.2.4 11.8-1.1 12.4-.8.3-7.6-.4-15.1-1.7-18.7-3-25.2-2.9-35.3.6-6.4 2.2-8.9 3.7-12 7-5.4 5.9-8.4 15.8-8.4 27.9-.1 14.9 3 21.5 18.8 39.8 9.5 11.1 16.6 21 22.1 31.3l3.9 7.1-18 29.6-17.9 29.7h-212-212l-7.4-12.8-20.1-34.2-126.5-214-24.5-41.5-23.8-40.3c-3-5.1-5.8-9-6.2-8.5-.4.4-1.5 2.9-2.5 5.4l-1.7 4.7 36.2 61.3 66.5 112.4 12.7 21.5 36.3 61.5 40.7 69c7.2 12.1 13.7 22.8 14.6 23.7 1.4 1.7 13.1 1.8 217.8 1.8h216.3l2.4-3.3c1.4-1.7 8.5-13.1 15.8-25.2l15.7-26 2.5-4 1.9 4.5c1.1 2.5 4 10.3 6.4 17.5 2.5 7.1 5.8 15.4 7.4 18.2l2.8 5.3-1.4 9.9c-1.2 9.1-1.8 10.8-6.9 19.4-3 5.1-5.5 10.3-5.5 11.5 0 1.1 1.5 4.6 3.4 7.7 2.3 3.8 3.3 6.6 3 8.3-.3 1.5-1 7.2-1.7 12.7-1 7.7-1.6 10-2.7 9.8-.8-.1-3.8-.6-6.6-1.2-6.6-1.3-11.3-.8-25.4 2.8-26.9 6.9-43.1 9.2-79.1 11.1-13.7.7-17.9 1.3-24.5 3.5-27.7 9.3-46 33.7-56.9 76-3.2 12.5-6.8 34-7.9 47.5-1.6 18-1.8 24.6-1.7 50 0 23 1.8 60.5 3.6 76.5 3.7 32.1 4 38.2 4 77.5 0 35.5-.7 62.5-2 74l-1 10c-2.5 28.3-7.1 55.4-12.1 71-1.4 4.7-7.3 17.5-13 28.5l-14 28.5c-13.1 30.4-21.7 64.8-26.3 105-3.9 34.7-3.9 34.2 1.8 37.6l2.9 1.7-1.9 4.8c-3.8 9.9-11 42.6-12.4 57.4-.4 3.8-.9 7.9-1.1 9-1.2 6.2-1.5 33.5-.5 44 4 41.2 17.4 72.4 42.6 98.4 14 14.5 23.1 20.6 43 29.1 33.9 14.4 86.1 28.6 159.5 43.5 20.6 4.1 25.1 4.6 54 6.1 62.6 3.1 127.1 16.3 164.4 33.8 9.8 4.6 11.7 6.6 9.6 10.6-1.6 2.9-4.6 2.5-14.4-2-30.2-14-81-25.7-131.1-30.4-14.7-1.4-20.8-1.8-42.5-3.1-4.1-.3-18.3-.7-31.5-1.1l-26.9-.9c-1.6-.2-23.6-.7-49-1-40.2-.5-105.7.4-137 2l-51.3 3.1-5.3.6-.2 23.7-.3 23.6-3.8-7.4c-10.7-20.5-25.4-43-37-56.4-5.6-6.4-16.4-15.5-21.4-18.1-2.3-1.2-3.3-2.4-3.3-4 0-5.3-11.9-11.9-21.2-11.9-9.2 0-15.9 3.9-23.3 13.8l-60.2 80.5-71.7 96c-20 26.7-21.8 30.3-19.7 39.6 1.5 6.4 5.5 12.2 10.4 14.9 2.1 1.1 4 2.8 4.3 3.8 1 3 6.5 8.7 10.4 10.7 13.3 6.8 32.8 7.3 52 1.4 19.8-6.1 90-40.3 129.3-63l5.8-3.4h25 24.9v19.5 19.5l20.3.2 23.2.3c1.7.1 26.2.5 54.5.9l76 1.1 55.5 1c31.8.6 61.6 2.3 85.5 4.9 23.4 2.6 55.8 5.1 86.5 6.6 18.1 1 94.2.7 99.5-.3 1.4-.3 7.2-.8 13-1.2 22.6-1.4 58.5-6.8 77.2-11.5 9.6-2.5 9.8-2.5 9.8.4 0 3.8 2.8 10.8 6 14.7l2.9 3.7-2.7.5c-1.5.3-32.3.6-68.6.7l-66.6.5c-.4.3-27.7.5-60.6.5l-76.2.7c-15.6.6-16.4.7-17.4 2.8-.7 1.6-.6 2.9.2 4.5l1.2 2.3 128.7-.8 132.6-1c2.2-.1 63.2-.5 135.5-.9l157.5-1.1 99-1 200.5-1.5 201.5-1.5 177.8-3.3c1.6-1.4 1.7-14.5 1.7-247.4V4007h509.3l510.5-1.2c1.9-1.9 1.5-6.6-.7-7.8-1.4-.7-162.7-1-513.3-1l-513.6 1.6-2.2 1.5v246V4492l-7.7.1-11.3.3c-1.9.2-58.6.6-126 .9l-139 1.2c-9.1.3-65.1.7-124.5 1l-131.5 1c-18.4.4-83.1.7-110.7.5h-4.2l1.6-3.7c2.3-5.5 1.3-17-2.2-25.3-7.1-17.1-18.7-29.1-42.1-43.8-23.3-14.6-71.8-41.4-102.4-56.6-10.8-5.4-12-5.7-20.7-6.3l-9.3-.6v-5.1c-.1-11.2-3.4-29.4-7.7-42.6-9.1-28.1-25.8-52.6-56.6-83.2l-15.9-15.8.6-4.7c.5-4.3 1.1-27.6 2-83.3.9-56.1-3-119-10-161.5-9.2-55.6-23.3-90.9-44.5-111-15.8-14.9-30-18.7-53.1-13.9-20.8 4.2-55.4 18.9-89.4 37.9-6.3 3.5-11.4 6-11.4 5.6s1.8-7.3 4-15.2c8.6-31.2 18.1-55.7 34-87.4 15-30 25.4-47.7 48-81.7l18.5-27.8h217.1l219.1-1.7c1.1-1 17.8-27.9 37-59.8l55.3-91.5 44.5-73.5 47.2-78 27.8-46 20.2-33.2c8.4-13.9 15.3-26.2 15.3-27.4 0-1.1-7.8-15.6-17.4-32.2l-81.4-141.7-26.9-46.7-9.4-16.3 1.7-5.6c3.8-13.2-1.6-22.8-13.7-24.2l-5.4-.7-34.7-60.5-46.5-81c-6.5-11.2-12.6-21.2-13.5-22.2-1.7-1.7-12.5-1.8-217.2-1.8h-215.5l-2.4 2.2c-1.4 1.3-11.8 18.5-23.3 38.3l-32.4 56-28.6 49.2-16.9 29.3h-7.2c-9 0-11.7 1-17.3 6.5-2.5 2.4-5.8 4.9-7.5 5.5-3.8 1.5-24 2.6-24.8 1.3-.3-.5 3.4-7.4 8.2-15.3l33.6-55.5 50.5-83.5 26.9-44.7c.9-1.8.8-2.9-.5-5.5-1.7-3.3-18.7-33-81-141.3l-36.7-64-15.2-26.5-58-101-50.7-88.2c-2.1-3.7-4.7-7.2-5.8-7.8-1.2-.6-74.3-1-216.8-1l-217 1.7c-1.1 1-17.2 28-35.7 60l-33.7 58.2-4-2c-14.1-7.2-52.9-30.9-63.7-38.9-35.1-26-62.2-56.9-112.1-128-53.6-76.3-69-92.7-111.2-118.1-41.1-24.7-100.8-47.6-147.6-56.4l-9.2-1.8-6.9-7.3c-12.2-12.8-19.1-30.6-19.1-49.2v-8l7.2-.1c34.3-.5 55.8-31.3 55.8-79.7v-11.1l4.3-1.8c15.3-6.7 18.3-18.8 6.8-28.6-6.8-5.9-17.1-18.4-20.6-25-2.2-4.3-4.2-10.2-5.5-16.5l-2-10.6c0-.3 2.2-1.4 4.9-2.3 14.9-4.9 32.5-22.5 42.8-43 22.7-44.7 6.6-84.1-40.8-99.9-18.7-6.3-36-8.1-49.5-5.1zm-1.6 102.5c10.4 4.9 19.5 15.3 27.1 30.8 4.9 9.8 6.6 15.3 9.6 29.5 3.6 17.3 9.5 27.4 24.9 42.7 10.6 10.4 10.5 11.6-1.1 17.3l-8.8 4.2-.1 11.5c-.3 24-2.8 37.8-9 50.1-13.2 26.4-40.2 32.8-70.2 16.8-13.4-7.1-23.7-16.3-32-28.7-4.3-6.2-6.6-7.5-10.1-5.3-4 2.6 1.6 12.7 13.9 25.2 11.2 11.3 22.4 18.4 37 23.3l7.2 2.4.3 11.8c.3 12.3 1.7 19.2 5.9 29.6 7 17.3 21.2 32.6 38.4 41.2 2.8 1.4 5.2 2.9 5.2 3.2 0 1.1-26.9 13.3-36 16.3-34.8 11.4-71 12.3-108.3 2.7-17.6-4.6-37.5-12.4-50.5-19.9l-4.3-2.4 10.3-3.8c11.9-4.3 18.3-7.7 25.3-13.5 7.3-6.1 13.1-13.5 17.6-22.5 6.4-13 7-17.2 9.4-71l1.1-18.7c.7-8.8.1-10.4-5-12.7-15.3-6.7-22.3-29-13.4-42.1 3.2-4.6 6.6-6.9 11.3-7.7 5.3-.8 23.5-9.6 26.6-12.9 3.8-4 3.1-9.4-3.5-27.3-3.1-8.4-5.6-15.7-5.6-16.1 0-1.5 9.8-4.9 24.4-8.5 16.6-4 24.7-7.4 27.6-11.5 1.1-1.6 2.4-5.8 3-9.7 3.3-23.4 14.9-32.3 31.8-24.3zm44.6 560.2c1.2 2 1.2 3.9-.4 14.8-5.3 36.3-17.9 70.9-37.2 102.7-2.7 4.5-5.6 8.4-6.4 8.7s-2.5.1-3.9-.4c-3.5-1.3-3.2-5 .9-11.5 18.4-28.7 32.9-69.2 37.6-105 1.2-9.2 2.5-11.5 6.2-11.5 1 0 2.4 1 3.2 2.2zm1692.7 487.2l45.9 80.3c0 .3-.8 1.6-1.9 2.9-1 1.3-3.3 6.1-5.1 10.6-4.9 12.2-17.1 37.1-22.9 46.6-2.7 4.6-7.5 11.4-10.4 15.1-3 3.7-7.2 9.4-9.2 12.6-8.4 13.1-18.3 41.5-28.9 83-4.1 16.2-9.2 32.8-13.3 44-6.9 18.6-10.2 26.7-10.3 25v-157l-1.5-158.3-1.6-2.2h-67.2c-40.6 0-67.8.4-68.7 1-1.3.8-1.6 14-2 105.9l-.5 104.9-40-87.1-48.1-105.1c-4.5-9.8-8.8-18.2-9.5-18.7-.8-.5-31.6-.9-68.6-.9h-67.2l-1.5 2.2c-1.5 2-1.6 18.4-1.6 158.3v157.1c0 .7-4.6 1.3-12.7 1.8l-15.8 1.1c-1.6.2-7.9.9-14 1.5-33.2 3.3-73.6 12.1-107.2 23.4l-13.3 4.5v-7.3-7.3l5.1-.6c2.8-.4 8.7-1.7 13.2-3.1 9.2-2.8 32-13.8 38.5-18.6 5.4-3.9 8.7-10.6 7.8-16-.7-4.4-9-24.8-14.6-36-5.2-10.4-5.2-12.1.4-15.4 3.1-1.8 4.8-3.7 6-6.7 2.3-5.7 1-9.5-6.2-18.2-13.3-16.2-34.2-46.9-34.2-50.2 0-1.7 7.6-4.8 20.6-8.5 19.1-5.4 23.4-7.8 26-14.6 3.1-8.3-1-26.4-8.8-38.8-4.4-6.9-13-15.9-18.9-19.7-2.7-1.7-4.9-3.3-4.9-3.5 0-.4 19.8-34.7 63.3-109.4l26.5-45.7 7.7-13.3 211.8.3 211.9.2 45.9 79.9zm-292.1 31.4l12.1 26.7c2.1 4.4 15.1 32.7 28.9 63l35.5 77.5 51.2 112.2c.4 1.5-1.2 1-8.4-2.2-13.5-6-20.5-7.3-34.8-6.6-7.6.3-15.6 1.4-22 3-5.5 1.4-10.3 2.2-10.7 1.8-.7-.7-7.6-15.7-38.7-83.7-7.8-17.1-15.1-31.7-16.1-32.7-2.6-2.1-5.9-1.2-7.1 1.9-.5 1.5-.9 30.2-.9 69.5l-.2 67.3c-.2.1-6.1-.6-13.3-1.7-19-2.6-41-4.7-57.7-5.5l-14.8-.6v-154.4V2930h44.3l44.2.1 8.5 18.7zm226 147.7V3263l-5.6 12.8c-15.6 35.5-37.7 77.2-54 101.9-7.6 11.5-21.1 29-25.6 33.1l-2.6 2.3-3.1-6.8-19.9-43.3-16.8-36.5 10-.6c5.6-.3 12-1.2 14.4-1.9 4.7-1.5 9.2-6 9.2-9.1 0-4.2-5-10.4-13.4-16.7-3.5-2.7-3-2.9 10.4-3.6 23.6-1.3 40.1-6.8 45.7-15.2 2.1-3.2 2-10.2-.2-14.4-3.8-7.3-16.7-18.6-29.8-26-4-2.2-5.6-3.7-5.3-4.7.3-.8.6-69.6.6-152.9V2930h43 43v166.5zm129.5-91.8c3.1 3 1.3 9.7-10.8 40.1-6.8 16.9-11.7 30.6-11.7 32.6 0 3.7 3.7 8.5 6.7 8.7 4.5.4 6.3-.2 13.5-4.6 8.1-5 14.8-6.6 18.6-4.6 2.9 1.5 6.9 10.3 8.8 19.1 2.2 10.1 2.1 29.9 0 41.4-4.2 22.1-15.2 41.9-29.4 53.1-3.1 2.5-10.8 7-17.1 10.1-6.3 3-12.9 6.7-14.8 8.1-6.9 5.3-6.1 2.9-32.7 93.8-41.3 141.3-61.6 200.4-74.9 218.1-18.5 24.4-88.4 44.7-185.7 53.9l-20.5 2a487.33 487.33 0 0 1-13.5 1l-15.5 1c-3.3.3-11.6.8-18.5 1.1l-12.4.7 1.6-2.4c12-18.4 15.7-24.3 21.9-35.4 17.7-31.6 32.3-68 40.9-101.9 1.6-6.6 3.1-12.1 3.3-12.3s9.1 2.6 19.8 6.1c24.6 8.2 40 11.6 55 12.3 13.6.7 19.2-.4 29.6-5.4 36.6-17.9 80.9-86.1 124.8-192.3 12.9-31.1 18.7-48.1 25.5-74.8 14.4-55.9 23.1-78.5 35.9-93.5 10.2-11.9 21.4-31.8 32.2-57 4.2-9.8 7.9-17.1 9.5-18.5 3-2.6 7.6-2.9 9.9-.5zm14 47.5l10.3 18.2c.3.5-1-.2-2.7-1.5-2.6-1.9-4.5-2.4-9.6-2.4-5.5 0-7.4.6-15.4 4.6-5 2.6-9.1 4.5-9.1 4.3s3.2-8.4 7.1-18.1l8-20.1c.5-1.2 1-2.2 1.3-2.2.2 0 4.8 7.8 10.1 17.2zm-671 35.6c6.9 15.1 24.6 41.8 39.2 59 2.9 3.5 5.3 6.9 5.3 7.7s-2.3 2.6-5 4.1c-5.1 2.8-5.2 3-7.4 12.6-.5 2.2-2.1 3.3-11.3 7.1-23.6 9.9-39.4 13.1-45 9.2-2.6-1.8-8.4-12-22.2-38.6-5.5-10.8-13.2-24.3-17.1-30l-7-10.4 7.3-7.1c14.1-13.7 33.9-22.2 51.7-22.3l7.5-.1 4 8.8zm717.8 45.7l50 87.2 22.5 39.2-16.5 27.3-216.3 357.3-9.7 16-211.9.3-211.9.2 7.5-7.6c21.9-22.1 52.7-38.9 86.5-47 9.7-2.4 11.7-3.5 17.1-10.4 3.9-5 5.2-6 7.8-6.1 1.7 0 5.1-.2 7.6-.4s10.4-.6 17.5-.9c50-2.5 105.2-8.8 145-16.7 53.9-10.7 90.1-25.4 106-43.1 14.7-16.3 35.7-76.9 82.5-237.3 17.3-59.3 20.5-69.7 23.1-72.9 1.3-1.6 7.1-5.2 13.8-8.5 14.1-6.9 19.7-10.6 27.2-18.3 11.4-11.6 19.7-27 24.6-45.6 3.4-13 4.3-35.4 1.9-48.8-.8-5-1.9-10-2.2-11-.4-1-.5-1.7-.2-1.4s12.9 22.1 28.1 48.5zm-798.6 3c4.4 1.9 20.3 17.8 20.3 20.3 0 3.2-7.9 9.5-14 11.2-4.5 1.3-10.8-.4-15.3-4.1-8.2-6.7-10.6-20.1-4.8-26 3.4-3.4 8-3.8 13.8-1.4zm16.1 67.6c5.5 2.7 8.7 7 17 23.4 9.9 19.5 15.4 24.5 31.5 27.9 2.4.6 2.7 1.1 2.8 4.9 0 2.3.2 5.8.4 7.7s.6 9.4.9 16.6l.7 13.1-9.8.7c-5.4.3-13.6.9-18.3 1.4-4.7.4-18.8.7-31.5.6-19.6 0-24.4-.3-32.9-2.1-5.4-1.2-10-2.4-10.3-2.6-.2-.3.5-8.1 1.6-17.4l8.3-61.7c.2-.2 2.2-.8 4.5-1.5 2.4-.6 7.3-3.2 11-5.8 11.6-7.9 16.3-8.9 24.1-5.2zm372.6 21.8l6.4 14.5c-3.5 1.9-13 6.6-13.3 6.6s-.5-8.2-.5-18.2.2-17.9.3-17.7c.2.2 3.4 6.9 7.1 14.8zm102.8 6.4c17.6 6.7 42 21.1 51.5 30.3 8.3 8.2 8 12.4-1.3 16.5-8 3.6-30.9 6.9-48.2 6.9-5.4 0-6.7.4-8.8 2.5-1.9 1.9-2.4 3.4-2.2 5.7.3 3.4.7 3.7 14.7 13.7 3.3 2.4 6.1 4.9 6.1 5.6 0 2-4.6 2.7-18.3 2.6-19.4-.2-43.5-3-82.2-9.6-32.6-5.6-44.9-6.1-65.5-2.9-28.4 4.4-78.4 18.7-100.8 28.8l-10.3 4.7-14.2-1.7c-9.8-1.1-18.6-1.5-28.5-1.1-16 .5-21.6-.3-36.9-5.4-9.3-3.1-17.6-8-33.1-19.6-8.5-6.5-17.4-10-27.2-10.9-7.8-.8-7.6-.4-7.5-11.4v-7.5l17-5.7c30.6-10.2 68.3-18.3 103-22.2 49.9-5.7 114.6-4.1 166 4 15.2 2.4 16 2.2 33.9-6 20.2-9.3 32.8-14 46-17.1 19.6-4.8 34.6-4.8 46.8-.2zm-533.6 70.7c6.6 2.1 16 4.7 20.9 5.6 11.7 2.2 43.1 2.6 63 .9 25-2.1 33.3-2.4 42.8-1.4 11 1.1 15.7 3.2 28.7 12.9 14.6 10.9 21.4 14.5 34.5 18.6l12 3.7 26.5.8c14.6.4 28.1 1 30 1.4l16 2.6c31.8 5.2 73.5 19 122 40.4 26.7 11.8 34 15.4 34.7 17.1.3.9-.7 7.7-2.2 15.2-10.9 53.6-33.9 106.3-67.2 153.9-13.8 19.8-14 19.9-26.9 23.3-37.6 9.7-72.3 30.3-93.5 55.3-6.8 8.1-40.7 58.6-52.1 77.7-30.5 51.1-49.6 95.7-61.8 144.2-6.3 25.1-12.1 57.6-14.5 80.8l-1 10c-1.3 12.4-1.6 39-.6 51.5 1.2 14.9 2.2 21.7 4.8 33.2l1.6 7.2-2.7 4c-5.4 7.7-16.2 13.7-30.1 16.7-10.9 2.3-38.5 2.3-56 0-44.1-5.9-99.8-20.8-163-43.8-41.4-15.1-86.4-33.7-110.9-46l-13.8-6.9.6-7.2c2.4-26.6 7.3-57.9 12.2-77.2 6.4-25.4 13.5-43.2 28.8-73 5.7-11.1 11.3-22.9 12.6-26.1 4.6-12.4 10.4-41.5 12.9-65.4 3.2-30.3 4.2-46.9 4.8-84.5.4-30 .2-40.6-1.1-56l-2.1-22c-.5-4-2.3-24.6-3.5-42.5-1.5-20.2-2-65.9-.9-82 3.7-58 15.9-95.7 37.3-115.8 13-12.1 23-15.8 45.8-16.7 28.6-1.2 53-4.6 78.1-11 7.2-1.8 15-3.4 17.3-3.4 2.3-.1 9.3 1.6 16 3.9zm411.1 8.6l2.3.6.2 36.4c.2 20 .1 36.4-.2 36.4-.2 0-9.2-3.8-20-8.4-17-7.3-42.6-17.2-60-23.2l-5.5-1.9-.3-12.8c-.3-12.4-.2-12.7 2-13.6 3.6-1.3 33.4-8.8 42.3-10.5 13.4-2.7 34.4-4.3 39.2-3zm40.6 6l22.8 3.7 2.8 6.1 26.6 58.1 17 37 16 .3 15.9.3-4.9 3.5c-7.1 5.2-16.1 9.2-22.5 10.1-14.8 2.2-43-3.2-71.4-13.6-7.6-2.7-14-5.2-14.2-5.4-.3-.2.1-2.8.7-5.7 1.3-6 .2-11.5-2.9-14.3-1-1-4.6-3.1-8-4.7l-6.2-3v-38.6-38.7l2.8.6c1.5.3 13 2.2 25.5 4.3zm-303 761c22.9 11.5 60.9 34.4 91.7 55.2 32.9 22.3 82.6 58.7 84.4 61.9.5.9.4 2.5-.3 3.9-2.1 4.6-5.2 3.2-23.5-10.6-55.9-41.8-101.1-71.5-147.8-97-17.6-9.5-18.8-10.4-18.8-13s2-4.9 4.3-5c.4 0 4.9 2.1 10 4.6zm-522.8 176.8c1.9.8 3.5 1.9 3.5 2.3s-18.6 25.6-41.3 56l-83.5 111.7c-38.8 52-42.4 56.5-44.3 55.6-3-1.7-5.9-7-5.9-11.1 0-2.2 1.1-5.2 2.9-8 1.6-2.4 36.4-49.2 77.3-103.9 66.4-88.8 74.8-99.7 78.8-101.8 5.2-2.6 7.8-2.7 12.5-.8zm18.4 16.7c15.7 10.5 32.7 34.2 54.7 76.4l8.4 16.2v10.9l-.1 10.9-23.1 18c-12.7 9.9-25.2 20-27.8 22.5-10.1 9.6-108.7 59.7-134.2 68.3-15.6 5.2-32 5.9-42.9 1.7-5.1-1.9-9.9-5.5-9.9-7.3 0-.5 3.2-5.3 7.2-10.6l128.5-171.9c20.7-27.7 29.8-39.2 31.2-39.2 1 0 4.6 1.8 8 4.1zm815.4 110.8c38.4 19.6 78.7 42.4 97.9 55.3 7.4 5 17.2 14.1 21.8 20.3 3.6 4.9 7 10.7 7 12.1 0 .4-15 .4-33.2 0l-79.8-1.1-63.5-1c-9.3-.3-28.9-.5-43.5-.5l-26.5-.1 14-6.8c38.6-18.9 59.8-41.9 65.9-71.4.9-4.2 1.6-10.1 1.6-13.2v-5.5h7.6 7.6l23.1 11.9zm-752.6 45.8c-.2.2-8.8.2-19.1.1l-18.6-.3 18.8-14.8 18.7-14.7.3 14.6c.1 8.1.1 14.9-.1 15.1zm715.8 49.8l70 1 96.8 2.2c1.2.7-.1 7.2-1.9 10.1-.8 1.3-2.9 3.2-4.7 4.3-3.1 1.9-4.5 2-41.7 1.4l-60.5-1-77-1c-65.9-.7-73.9-1-78-3.4-3.6-2.1-7.5-8.5-7.5-12.5v-2.8l36.8.6 67.7 1.1zm-448.7-1076.8c-6.1 7-23.7 37.7-34.6 60.3-23.1 47.8-37.4 95-43.7 144-4.1 32.3-7.9 50-16.2 75.5-8.1 24.7-19.7 50.4-34.2 75.2-3.9 6.8-7.1 13.1-7.1 14.1 0 2.6 2 4.2 5.1 4.2 2.4 0 3.5-1.3 9-10.8 16-27.2 30.5-59.6 38.4-85.7 7.2-23.6 10.7-40.7 14.5-70 3.7-28.2 8.4-49.8 16.6-76.4 11.9-38.1 33.7-84.9 54.5-116.5 5.9-9 6.9-12.2 4.7-14.4-1.7-1.7-5.3-1.5-7 .5zm-368.2 980.5c-1.2 2-1.1 5.1.6 23.2 1 11.6 2.4 21.6 3 22.3 1.7 2.1 5.6 1.5 7.1-1 1.2-1.9 1.2-5-.4-22.2l-1.9-20.7c0-1.4-3.2-3.8-5-3.8-1.1 0-2.6 1-3.4 2.2zm-27.5 14.7c-1.6 1.6-1.9 2.9-1.5 7.3l1.9 21.1c.8 9.1 1.9 16.4 2.6 17.3 1.6 1.9 5.9 1.4 7.3-.8 1.7-2.7-1.9-42.6-4.1-45-2.1-2.3-3.8-2.3-6.2.1zm860.4 4.3c-7.1 6.6-13.3 12.8-13.6 13.7-1.2 3 .8 6.1 3.8 6.1 2.2 0 5.6-2.6 15.8-12.2 7.2-6.7 13.3-13 13.7-13.9.9-2.3-1.8-5.9-4.5-5.9-1.4 0-6.8 4.3-15.2 12.2zm41 1.8c-2.6 1-27.5 26.3-27.5 27.8 0 1.7 3.7 5.2 5.5 5.2.9 0 7.6-5.9 15-13.1 11-10.8 13.5-13.7 13.5-16 0-1.8-.7-3.2-1.9-3.9-2.2-1.1-2-1.1-4.6 0zm-220.7-2461.3c-.8 1-6.8 11-13.3 22.3l-90.2 155.5-45 77.5-92.9 160.1c-2.4 4.2-4.4 7.9-4.4 8.4 0 .4 3.8 7.1 8.4 14.9l81.9 138.6 52 88 53.4 90.2c3.4 6 9.2 15.6 12.7 21.5 3.4 6 13.4 22.8 22.1 37.5l15.7 26.8h217.3l218.7-1.8c.8-.9 4.3-6.4 7.8-12.2l29.3-48.5 27.2-45 22.7-37.5 57.8-95.5 49-81 53-88.9c0-.8-35.4-63-78.6-138.3L2977.3 2020l-45.5-78.8c-.8-.9-45.6-1.2-217.8-1.2l-218.2 1.7zm432.4 12.5l62.8 109.3 95 165.4 82.4 143.4-2 3.6-56.9 94.1-118 195-36 59.5-24.4 40.2-5.6 9.3h-211.7-211.6l-2.8-4.8-15.4-26.2-47-79.5-47.3-80-32-54.3-49.2-83.2-45.2-76.6-2.3-4.2 15.8-27.3 79.2-136.4 28.7-49.5 72.3-124.5 29-50 14.6-25.3 1.4-2.2h211.9 211.9l2.4 4.2z"/><path d="M2667 2099.6c-60.4 9.2-110.6 41.1-144.5 91.9-29 43.4-41 101.1-31 150 8.1 40.3 27.7 77 57.5 108 31.6 32.7 47.8 59.8 57.9 96.5 3.9 13.8 8.5 23.7 15 32.4l4.9 6.4-2.4 2.3c-1.3 1.3-3.8 5-5.4 8.3-4 7.9-4.2 16.9-.5 24.2 3.1 6 3.1 6 0 12.6-6 13-1.5 27.8 11.6 37.4 3.8 2.8 4.9 4.2 4.9 6.3 0 4.2 4.8 12.7 9.3 16.7 5.6 4.7 16.4 9.9 26.2 12.5 11.8 3.2 37.6 3.2 49 .1 10.3-2.9 20.8-8 26.4-12.8 4.6-4 9.1-12.1 9.1-16.4 0-1.9 1.4-3.7 5.5-6.8 6.8-5.3 10.8-11.1 13-18.6 2-6.7 1.5-10.5-2.2-18.9l-2.6-5.7 2.6-5.8c1.3-3.1 2.8-7.3 3.1-9.3.9-5.4-1.1-13.3-5-19l-3.4-5.1 4.1-4.9c6.2-7.4 12.4-18.9 15.4-28.7 7.1-22.6 9.1-28.4 13.1-37.5 9.5-21.6 22.6-40.5 41.9-60.6 14.1-14.8 21.2-23.4 28.8-35.1 22-34 33-71.2 33-112 0-27.8-4.5-51.5-15-77.5s-24.5-47.5-44.8-68.3c-31.3-32.3-65.8-51.4-109.6-60.8-10.8-2.3-15.2-2.7-34.4-2.9-15.6-.3-24.8.1-31.5 1.1zm56 10c14.9 2.3 28.4 6 42.8 11.8 65.1 26.3 112.6 85.4 124.4 154.5 3.1 18.3 3.1 46.5-.1 64.6-7.1 40.7-23.7 73-53.2 104.1-15.9 16.7-22.8 25-31.2 38-11.8 18-19.6 35.2-26.7 59.1-5.9 19.7-10.4 27.7-21.5 38.9-7.6 7.7-10.5 9.8-18.5 13.7-14.8 7.3-19.4 8.2-41.5 8.2-22 0-26.8-1-41-7.9-20.4-10.1-33.2-26.2-39.9-50.2-6.6-23.6-15.7-43.9-28.2-62.6-8.9-13.3-12.7-17.9-29.1-35.3-20.8-22.1-31.4-37.2-42.3-59.8-13.7-28.7-18.9-50.9-19-80.7-.4-105.3 82.8-193.1 187.5-198.3 9.9-.4 28.2.5 37.5 1.9zm8 511.4c2.4 2.4 2.4 2.9.5 5.7-1.1 1.5-4 2.7-10.2 4.2-14.5 3.4-18.3 2.9-18.3-2.4 0-3.3 1.5-4.1 11-6 4.6-.9 9.3-2.1 10.5-2.5 3.2-1.3 4.3-1.2 6.5 1zm8.2 30.7c4.8 4.3.8 7.8-14.5 12.7-13.2 4.2-24.7 6.3-39.6 7.2-10.4.7-10.9.6-12.3-1.5-1.8-2.6-1.3-5.8 1.1-7 .9-.5 6.3-1.1 12.1-1.4 5.8-.4 14.3-1.4 19-2.2 8.4-1.6 25.1-6.6 28-8.5 2.2-1.4 4.1-1.2 6.2.7zm-126.8-497.6c-37.3 19.9-66.2 53.9-79.4 93.8-7.1 21.2-8.4 29.7-8.4 54.1 0 18.5.3 22.9 2.3 32 6 28.3 17 51.9 34.1 73.5 5.1 6.3 6.5 7.5 9 7.5 2.7 0 5-2.2 5-4.8 0-.5-2.3-3.7-5.1-7.2-20-24.9-31.2-51.2-35.4-83.2-1-7.5-.7-30.6.5-38.8 7-49.2 34.9-90.8 77.3-115.6 11-6.4 11.7-6.9 11.7-9.4 0-2.1-2.5-5-4.4-5-.7 0-4 1.4-7.2 3.1zm72.7 98.4c-6.1 1.7-16.2 6.9-18.6 9.5-1.4 1.5-2 1.6-6.8.3-8.1-2.2-21.2-1.8-28.7.7-16.2 5.5-24.7 16.5-26.5 34.5-.8 7.3 1.3 18.2 4.9 25.2 1.4 2.8 5.2 9.2 8.6 14.4 24.3 37.5 42.8 93.2 51.4 154.4 3.2 23.1 4.7 40.5 6.2 72 .3 7.1 1.1 13.6 1.6 14.2 1.4 1.8 5.3 1.6 6.8-.2 2.4-2.9.4-45.6-3.5-77-8.2-65.3-28.1-128-53-166.5-3-4.7-7.2-11.9-9.2-16-3.6-7.1-3.8-7.9-3.7-17 0-7.8.5-10.4 2.3-14.3 5.3-11 18.4-17.6 32.4-16.3 3.9.3 7.2.8 7.4 1 .3.2-1.2 2.8-3.1 5.8-7.9 11.8-14.5 33.9-13.2 44.2 1.9 16.5 11.7 26.8 25.6 27 16.7.2 29.4-16.7 27.6-36.9-1.2-14.8-7.2-29.9-15.1-38.4l-4.6-4.9 3.3-2c9.9-6.1 25.3-6.9 36.2-1.9l5.7 2.6-3.7 4.8c-4.5 5.9-10.8 18.9-12.9 26.9-4.5 16.9-.1 32.8 11.2 40.3 12.7 8.5 30.3 4.9 36.2-7.3 7-14.4 4.1-35.8-7.4-53.6-2.3-3.6-4.9-7.1-5.8-7.9-.9-.7-1.7-1.7-1.7-2.2 0-1.8 11.6-4.3 19.7-4.2 7.2 0 9.1.4 14.9 3.3 9.3 4.6 14 11.3 16.5 23.9 2 10.3-.3 18.1-12.5 42-44 86.9-70.4 174-71.8 237-.2 10.1 0 11.5 1.7 12.7 1 .8 2.4 1.4 3.1 1.4 3.3 0 4.1-2.9 5.3-20.6.6-9.9 1.4-19.3 1.6-20.9.3-1.7 1.1-7.7 2-13.4 7.7-52.8 31.4-121.2 65.5-189.1 12.5-24.9 15-32 15-42.9 0-18.5-9.8-34.4-24.8-40.2-11.3-4.4-28.4-3.7-39.6 1.6-5 2.4-5 2.4-7.7.4-9.1-6.4-27.7-9.5-38.8-6.4zm46 26.2c5.3 7.2 6.8 9.9 9.6 17.1 2.2 5.6 2.7 8.4 2.7 17.2.1 8.8-.2 11.1-1.9 14-6 10.3-22.6 8.4-28.7-3.3-2.9-5.5-3-16.7-.4-24.7 3.6-10.6 11.9-25 14.5-25 .4 0 2.3 2.1 4.2 4.7zm-59.3.9c7.3 8.9 12.8 26 12 37.6-1.4 18.7-16.8 28.1-27.9 16.9-6.2-6.1-7.4-14.9-4-28.3 3.3-12.8 12.2-29.8 15.6-29.8.7 0 2.7 1.6 4.3 3.6zm184.8 48.6c-.7 1.3-1.9 4.8-2.6 7.8-3.1 13.5-11.9 33-21.5 47.3-11 16.6-26.8 32.6-42.3 42.9-7.3 4.9-8.8 8.1-5.3 10.9 2.9 2.4 5.3 1.4 16.2-6.6 26.5-19.4 48.3-49.5 58.9-81.4 4.7-14 5.7-19.5 4-21.6-1.9-2.2-5.7-1.8-7.4.7zm1550.3-351.7c-11.8 3.2-23.2 12.2-28.3 22.3-15.3 30.2 5.4 65.1 38.9 65.5 13.4.1 23.2-4.1 32.9-14.3 23.4-24.5 11.5-64.8-21.7-73.6-6.3-1.7-15.6-1.7-21.8.1zm21.9 10c2.8.9 7 3 9.4 4.8 21.7 16.6 18.7 48.3-5.8 60.3-5.2 2.5-7 2.9-14.5 2.9-7.3-.1-9.4-.5-14.4-3-7.5-3.6-13.9-10.1-17.3-17.3-2.3-4.8-2.7-7.1-2.7-14.2 0-7.2.4-9.4 2.8-14.5 7.7-16.5 25-24.2 42.5-19zm-9.4 257.7c-12.2 12.5-14.3 15.3-13.7 17.8.8 2.8 3.8 4.3 6.2 3.1 1-.6 6.6-6.1 12.5-12.2 10.5-11.1 12.1-14 9.4-16.7s-5.4-1.1-14.4 8zm-85.2-6c-2.9 2.9-1.2 5.6 9.9 16.5 6.1 5.9 11.7 11.2 12.6 11.7 2.7 1.5 6.3-1 6.3-4.3 0-2.4-1.9-4.7-11.6-13.8-11.4-10.6-14.7-12.6-17.2-10.1zm73.9 71.2c-.7.8-1.1 2.5-.9 3.8.4 3.2 22.9 24.8 25.7 24.8 2.9 0 5.5-4.3 4.2-6.8-1.9-3.6-23.8-23.2-25.8-23.2-1.2 0-2.6.6-3.2 1.4zm-61.5 11.6c-11.6 12.1-13.3 14.9-10.4 17.8 2.6 2.6 5.4 1.1 13.9-7.6 10-10.2 14.9-15.9 14.9-17.2 0-1.5-3.8-5-5.4-5-.7 0-6.6 5.4-13 12zM1908 2491.2c-.6 1.3-15.4 50.9-32.9 110.3l-106.5 360.4c-7 23.7-7.5 25.7-6.1 27.8l1.5 2.3h71c70.2 0 70.9 0 72.3-2 .8-1.2 6.3-21.9 12.3-46.1l10.8-43.9 44.5.2 44.5.3 11.2 44.3c6.2 24.4 11.8 45 12.4 45.8 1.1 1.2 11.5 1.4 72.4 1.4 54 0 71.5-.3 72.4-1.2.7-.7 1.2-2.2 1.2-3.4s-9.6-34.5-21.4-74l-56.1-188.4-52.1-174.9-18.5-59.7c-.9-1.2-12.5-1.4-66.5-1.4H1909l-1 2.2zm126.4 8.5l45.1 151.8 46 154.5 43.5 146 8.7 29.5-46 .3h-46.3c-.1-.2-5.3-20.3-11.5-44.8-6.9-27.4-11.8-45-12.7-45.8-2-1.5-134.8-1.8-137.2-.2-1 .6-5.4 16.7-12.6 45.7l-11.1 44.8-46.3.3c-36.8.2-46.1 0-45.7-1l28.6-96.8 68.7-232.5 43-145.3 2.5-8.2h41.4c38.5 0 41.4.1 41.9 1.7zm-45.3 128.7c-1 1.2-44.1 172.2-44.1 175.1 0 .7.7 2.1 1.6 2.9 1.4 1.4 6.9 1.6 45.5 1.6 28.5 0 44.7-.4 46-1 1-.6 1.9-2 1.9-3 0-3.3-43-174.3-44.2-175.7-1.4-1.7-5.3-1.7-6.7.1zm-4.4 133.3l9.1 36.3h-19c-14.8 0-18.9-.3-18.6-1.3.3-.6 4.5-17.3 9.4-36.9 4.9-19.7 9.1-35.4 9.5-35 .3.4 4.7 17 9.6 36.9zM914.4 2600c2.6 11.3 2.8 19 2.3 69.5-1 79.7-4.2 128.3-11.3 169.5l-4.4 25.5-6.5 38-5.1 28.7c-.4 1.4.6 2 4.8 3.2l47.2 12.6c.2 0-2.8 7.3-6.6 16.2-17.9 41.7-29.4 77.8-35.2 110.3-3.2 18.3-4.2 28-5.2 51l-.9 18.5-.9 13.5-1.1 15c-.3 2.7-1.1 13.1-2 23L884 3253l-1.4 13.5-11 103.5-10.6 102-3.4 34-5.1 51.5-2 20.5-4.5 49c-8.5 92.4-16.6 153.5-30.9 234-21.7 121.7-56.6 258.9-93 366-9.4 27.7-12.8 36.7-21 55.3-5.6 12.9-12.1 29.2-28.7 72.7-7.7 20.3-8.4 25.8-4.3 34.5 4.7 10.2 22.4 24.4 39.8 32 32.6 14.4 101.1 30.7 184.6 43.9 56.8 9 61.5 9.4 71 4.7 11.3-5.6 18.3-17.3 19.3-32.2.9-14.3-5.2-26.4-21.3-42.4-11.6-11.5-26.3-22.9-60.5-46.8-26.4-18.5-66.3-47.8-67.3-49.4-.3-.4 8.6-20.8 19.8-45.3l117.4-258.7c5.5-12.2 12.5-27.1 15.5-33 27.7-55.5 58.8-135 79.6-203.8 9.9-32.9 13.1-45.1 51.1-197.5l31.3-125.5h2.8c2.5 0 2.8.4 3.7 5 1.3 6.4 4.5 24.4 12.7 70.2l8 45.3 2.4 13.5c5 29.8 14.6 81.5 16 87.1 13.8 51.7 23.1 117.5 25.5 180.9l1 22 1 19 5 94.5 1 18.5 1 20 1 19 1 18.5 1 19 2 37 1 18 4 76.5 1 20 1 18.5c.3 3.6.7 11.2 1 17l3.1 58.2c.3 4.9.1 7.8-.5 8.3-2.6 1.5-4.2 7.4-6.5 23.7-5.2 36.4-7.4 65.5-5.6 74.3 3.7 17.9 16.5 29.7 35.6 33 50.4 8.6 143.2 14.4 209.9 13.1 46.5-.9 53.9-1.5 60.7-5.3 6.2-3.5 12-10.6 14.5-17.8 2.7-7.6 2.4-23.3-.6-30.7-4.9-12.4-15.3-22.7-34.5-34.2-14.5-8.7-34.8-17.4-82.1-35.1l-67.2-25.9c-.3-.2 2.7-21 6.6-46.3l33.1-215.8 17.5-114.8c.3-1.6 2.3-14.9 4.5-29.5l8-52.2 8.5-55.5 6.5-42c3.2-19.6 4.3-41.5 3.7-70-.8-33.3-1.6-41-12.7-112.5l-2-13-5.1-34-4.9-32.5-13-85.5-14.1-92.5-4.4-29-15-99-13.5-88.5-6-39.5-6-39.5-9.3-62.8c-.2-1.9.9-2.8 6.3-5.5 9.2-4.5 10.3-6.8 10.8-22.1.3-7.8-.4-22.1-1.9-40.2l-2.3-28-16.1-1.8c-42.1-4.6-85.3-13.8-124-26.3-37.9-12.2-93.8-35.9-122.9-51.9-52-28.7-103.4-74-146.1-128.9-7.8-10-29.2-41.3-37.3-54.6-2-3.3-3.1-4.4-2.8-2.9zm73.8 359.4c37.1 9.9 61.3 14.6 103.8 20.1 48.1 6.2 59.7 7 98.5 6.9 35.3 0 51.8-1.3 82.7-6.5 18.8-3.1 43.2-8.9 58.6-13.7 5-1.7 9.2-2.7 9.2-2.3 0 .3 5 33.2 11 73.1l19.5 128.5 7.9 52 13 85.5 20.6 135.5 14.6 96 6.9 45.5c9.3 61.3 10.2 67.8 12 90 .9 11.2.6 53-.5 65.8-.7 9.2-41.9 283-48 319.7-1.1 6.3-9.6 61.7-18.1 118l-6.4 42-14.5 95.6c0 .5-1.7.7-4 .3-3.9-.6-4-.6-14.7 9.8-12.4 12-17.2 15.4-24.4 16.9-7.9 1.7-13.2.1-37.1-11-11.8-5.6-22.1-10.1-22.9-10.1-1.3 0-1.8-5.8-3.3-35.7l-2.1-38.8c-.2-1.7-.6-9.1-1-16.5l-3-59-1-18.5-1.5-28.5-1.5-29-1-19-3-57-2-35.5-1-19.5-1-20-1-17.5-4-77-1.1-23.8c-.3-8.2-.7-15.8-.9-17s-.6-6.5-1-11.7c-2.4-36.9-11.2-90.7-21.1-130.2-1.9-7.5-5.2-24-7.5-36.5l-19.5-109.8-17-95.5-1.5-8.5 13.5-65.5 19.1-93.5c10.8-53.2 22.5-85.9 39.8-111.5 5.1-7.6 5.8-10 3.6-12.6-4.2-5.1-11.3 3.5-23.9 29.1-11.1 22.7-21.3 53.5-26.5 80.5l-21 102.8-10.5 51.7c0 .3-.8.5-1.9.5-1 0-2.3.6-2.9 1.3s-19.1 73.3-41.1 161.3l-46.6 182.9c-20.9 72.5-53.3 157.2-82.5 215.5-3.2 6.3-14.6 31.1-25.5 55l-54 119-54 119-20 43.8c-.2.2-2.4-1.3-5-3.3-5-3.8-5.8-3.8-12.5-.5-12.5 6.2-25.6 7.1-39.5 2.6-9.8-3.1-14.7-6.5-29.5-20-7.7-7.2-12.5-10.8-14.6-11.2l-3.1-.6 5.4-15.1c10.2-29 25.6-78.2 38.2-122.2 42.2-148.1 74-314.6 87.6-459.5l1-9.5 1-11c.3-3.9.7-8.6 1-10.5.2-1.9.7-7.1 1-11.5s.8-9.8 1.1-12l4.4-46.5 9.4-96.5c.3-2.2.8-6.7 1.1-10l1-10c.3-2.2 2-19.3 4-38l5-47.5 9-84 3-29 4-43.5 1-10.5c.2-1.4.6-6.3 1-11l1-14c.3-3 .7-9.6 1-14.5l1-13.5c.2-2.5.7-11 1-19 1.7-40.8 9.4-75.7 27.2-123 6.9-18.5 19.3-47 20.3-47 .5 0 16.7 4.2 36.2 9.4zM735.7 4280.6c13.7 12.5 21.8 17.3 33.9 20.4 13.9 3.6 30.4 2.1 41.7-3.7 2.7-1.4 2.9-1.2 16.7 9.9 7.7 6.2 14 11.5 14 11.8s-6.5 3.8-14.5 7.8-14.8 7.9-15.1 8.7c-1 2.6.5 6.2 2.7 6.8 1.5.4 7.3-2 18.7-7.9 9-4.6 16.9-8.4 17.4-8.4s6.4 3.9 13 8.7l12.1 8.6-14.6 7.4c-13.7 6.8-14.7 7.5-14.7 10.1 0 3.1 1.6 5.2 4 5.2 1.9 0 29.8-13.6 32-15.6 1.4-1.2 3.9.3 19 10.9 34 23.8 50.1 37 59.4 48.5 5.4 6.8 9.8 14.5 11 19.4l.6 2.8h-6.4c-18 0-62.4-4.6-91.6-9.6-38.8-6.5-85-19.8-128.3-36.8-26.4-10.4-62.7-28.9-62.7-32.1 0-2.7 17.1-46.9 27.3-70.5 5.2-11.9 7.6-15.3 10.4-14.3 1 .4 7.3 5.7 14 11.9zm651.1 53.9l21.3 8.3-18 18.5c-10 10.2-18.1 19-18.1 19.6 0 1.7 3.8 5.1 5.7 5.1.9 0 10.2-8.8 20.6-19.5s19.7-19.5 20.6-19.4c.9 0 6.6 1.9 12.8 4.2l11.2 4.2-15 18c-8.2 9.8-14.9 18.7-14.9 19.6 0 2.2 3.5 5.1 5.7 4.7 1.4-.3 20.4-21.9 31.7-36.1l2.2-2.7 15.4 6.1c19.4 7.6 41.5 18.2 51.1 24.4 12.6 8.1 25.2 22.7 23.5 27.1-.9 2.5-112.7 1-164.1-2.1l-65.5-5c-2.5-.3-13.3-1.4-24-2.5l-33.5-3.8c-13.8-1.7-14-1.8-13.9-4.2.8-20.1 6.8-66.2 9-69.8.8-1.2 2.3-2.2 3.3-2.2s11.5 4.5 23.2 10c23 10.7 28.5 12.3 38.5 10.9 9-1.2 16.7-5.8 28.4-16.7l10.4-9.9 5.6 2.5c3 1.3 15.1 6.2 26.8 10.7zm-698.5 34.1c41.6 24 108.4 48 167.7 60.3 13 2.7 41.1 7.1 54.5 8.5 18.2 2 34 3.3 49.1 4.2l12.1.6-.9 4.2c-2.2 10.1-9.4 15.6-21.3 16.4-16.6 1-125.9-18.2-178.7-31.4-40.9-10.2-63.3-18.8-78.3-30.1-13.2-9.8-18.2-17-17.2-24.5.5-3.9 3.6-12.8 4.5-12.8.3 0 4.1 2.1 8.5 4.6zm575.2 45.4l22.5 2.5c2.5.2 6.5.7 9 .9 16.6 1.9 56.7 5.2 79.5 6.5 47.6 2.9 71.5 3.6 122.8 3.6h47.7v3.2c0 4.5-2.7 12.1-5.7 16.1-4.7 6.2-7.8 7-31.4 8.2-23.1 1.2-82.1 1.1-106.4-.1-68.1-3.4-130.9-10-142.5-15-8.9-3.8-16.2-14-17.7-24.4-.6-4.5-.5-4.6 1.8-4.1 1.3.3 10.5 1.5 20.4 2.6zm-218.1-1366.5c-1.2.8-4.2 5.1-6.8 9.7-7.6 13.5-20.1 29.4-34 43.4-24.2 24.1-48.6 39.5-77.6 48.9-9.8 3.2-11 4-11 6.9 0 5.6 4.2 5.9 18.1 1 41.8-14.5 80.3-45.1 106.2-84.4 11.9-18.1 13.6-22.7 9.2-25.6-1.8-1.2-2.4-1.2-4.1.1zm546.8-278.3c-2.2 5-1.9 5.2 5.3 6.2 9.7 1.4 30.1 5.8 38 8.3 14.3 4.5 60.3 29.2 66.3 35.6 4.7 5 .4 8.7-10.2 8.7-7 0-12.3-1.6-29.6-8.9a366.07 366.07 0 0 0-19.8-7.7l-8.3-2.7-2.7 2c-1.8 1.3-2.8 3.1-3 5.4-.3 3.1.5 4.1 11.2 14.6 14.8 14.3 24.2 20.4 44.1 28.8 22.2 9.3 35.5 16.7 43.1 24 7.9 7.6 9.7 12.4 6.7 18.2-7.5 14.5-45.6 14.7-89.8.6-15.2-4.9-24.5-9.9-37.7-20.6-14.5-11.7-32.8-25.1-39.6-28.9-2.8-1.7-5-3.3-4.8-3.6 1-1.8 19.6-50.5 19.3-50.8-.2-.2-3.6 7.9-7.7 17.9l-12.1 29.7c-2.6 6.3-4.5 11.8-4.3 12.2.2.3 2.8 2 5.7 3.6 5.7 3.2 23.6 16.4 38.6 28.4 16.1 13 25.9 17.8 50 24.4 33.5 9.2 61.2 10.4 77.7 3.3 13.2-5.6 19.2-19.5 13.4-30.8-6.4-12.7-21.9-22.9-57.8-38-15.1-6.4-23.4-11.6-33-20.7l-5.7-5.4 5.5 2.1c3 1.1 9.1 3.6 13.5 5.6 20.1 8.8 35.5 9.6 44 2.2 9.9-8.7 5.6-18.6-13.2-30.2-7.3-4.6-31.4-17.2-42.8-22.5-11.7-5.4-24.1-9-42-12.2l-13.7-2.6c-2.4-.5-2.9-.1-4.6 3.8zm-8.6 20.3c-.9 2.6-.7 3.2.5 1.2.6-1 .9-2.1.6-2.3-.2-.3-.7.2-1.1 1.1zm-2 5c-.9 2.6-.7 3.2.5 1.2.6-1 .9-2.1.6-2.3-.2-.3-.7.2-1.1 1.1z"/></svg>