<svg xmlns="http://www.w3.org/2000/svg" xmlns:xlink="http://www.w3.org/1999/xlink" viewBox="0 0 750 500" xmlns:v="https://vecta.io/nano"><style><![CDATA[.U{fill:#263238}.V{fill:#e8505b}.W{fill:#e0e0e0}.X{fill:#fff}.Y{fill:#f5f5f5}.Z{opacity:.3}.a{fill:#455a64}.b{fill:#fafafa}.c{fill:#b78876}.d{fill:#ebebeb}.e{fill:#aa6550}]]></style><path d="M466.8 299.2h42v5.6h-42z" class="W"/><g class="b"><path d="M472.5 299.4c.1 0 .3 1.2.3 2.6 0 1.5-.1 2.6-.3 2.6s-.3-1.2-.3-2.6l.3-2.6zm-.9-.1c.1 0 .3 1.2.3 2.6 0 1.5-.1 2.6-.3 2.6s-.3-1.2-.3-2.6.2-2.6.3-2.6zm34 .1c.1 0 .3 1.2.3 2.6 0 1.5-.1 2.6-.3 2.6s-.3-1.2-.3-2.6.1-2.6.3-2.6z"/><ellipse cx="504.7" cy="301.9" rx=".3" ry="2.6"/><path d="M499.2 302.2c0 .1-4.8.3-10.8.3-5.9 0-10.8-.1-10.8-.3s4.8-.3 10.8-.3 10.8.1 10.8.3z"/></g><path d="M466.6 324.5h42v11.2h-42z" class="W"/><path d="M509.2 332.5s-.1.1-.2.1c-.2.1-.4.2-.7.3-.6.3-1.6.6-2.9.8s-3 .2-4.6-.7c-.8-.4-1.6-1.1-2.2-2s-1-2-.8-3.2c.1-.6.4-1.2.8-1.7s1.1-.8 1.8-.8 1.3.4 1.8 1c.4.5.8 1.2.8 1.9.2 1.4-.4 2.9-1.5 4-1 1.1-2.5 1.8-4 2-1.6.2-3.2-.1-4.7-.6s-3-1.4-4.1-2.8c-.5-.7-.9-1.5-1-2.4s.2-1.9.9-2.5c.3-.3.8-.6 1.3-.6s1 .1 1.4.4c.8.5 1.3 1.4 1.5 2.3.4 1.8-.3 3.8-1.7 4.9-1.3 1.2-3.1 1.7-4.7 1.9-1.7.2-3.4 0-4.9-.5s-2.9-1.5-3.7-2.9c-.8-1.3-1.1-3-.5-4.5.3-.7.9-1.3 1.7-1.5.8-.1 1.5.1 2.1.5 1.2.9 1.4 2.6 1 3.8-.4 1.3-1.2 2.2-2.1 3-1.8 1.5-3.9 2.2-5.8 2.2-1.9.1-3.4-.4-4.6-1s-1.9-1.3-2.4-1.8c-.2-.2-.4-.4-.5-.6-.1-.1-.2-.2-.1-.2.1-.1.8 1.2 3.1 2.4 1.1.5 2.7 1 4.5.9s3.8-.8 5.5-2.2c.8-.7 1.6-1.7 2-2.8.3-1.1.1-2.6-.9-3.3-.5-.4-1.2-.5-1.8-.4s-1.1.6-1.4 1.2c-.5 1.2-.3 2.8.5 4 .7 1.3 2 2.2 3.5 2.7s3.1.6 4.7.4 3.2-.7 4.4-1.8 1.8-2.8 1.5-4.4c-.2-.8-.6-1.5-1.3-1.9s-1.5-.4-2 .1-.8 1.3-.7 2.1c0 .8.4 1.5.8 2.1 1 1.3 2.4 2.1 3.8 2.6 1.5.5 3 .7 4.5.6 1.5-.2 2.8-.8 3.8-1.8.9-1 1.5-2.3 1.4-3.6-.1-1.2-1-2.4-2.2-2.5-.6 0-1.1.2-1.5.7-.4.4-.6.9-.7 1.5a3.89 3.89 0 0 0 .7 3c.5.8 1.3 1.5 2.1 1.9 1.6.9 3.2.9 4.5.7s2.2-.5 2.8-.7c.7-.1 1-.3 1-.3z" class="b"/><path d="M470.4 305h38.3v19.5h-38.3z" class="d"/><path d="M476.7 305.6c.1 0 .3 4.2.3 9.4l-.3 9.4c-.2 0-.3-4.2-.3-9.4l.3-9.4zm2.9-.2c.1 0 .3 4.2.3 9.3l-.3 9.3c-.1 0-.3-4.2-.3-9.3l.3-9.3zm24.7-.6c.1 0 .3 4.4.3 9.8l-.3 9.8c-.2 0-.3-4.4-.3-9.8l.3-9.8zm-3.4.2c.1 0 .3 4.3.3 9.6l-.3 9.6c-.2 0-.3-4.3-.3-9.6l.3-9.6zM242.4 83.1h258.1v171.2H242.4z" class="W"/><path d="M36.2 95.6c-.4-24.2 18.9-44.3 43-44.6s44 19 44.4 43.2-18.9 44.3-43 44.6c-24.1.4-44-19-44.4-43.2zm64.7-1.1c-.2-11.6-9.7-20.9-21.2-20.7-11.6.2-20.8 9.8-20.7 21.4s9.7 20.9 21.2 20.7c11.6-.2 20.8-9.8 20.7-21.4z" class="Y"/><path d="M36.2 95.6c-.4-24.2 18.9-44.3 43-44.6l.4 22.9C68.1 74 58.9 83.6 59 95.2s9.7 20.9 21.2 20.7l.4 22.9c-24.1.4-44-19-44.4-43.2z" class="W"/><path d="M75.3 47.4c28.2-.5 50.7 21.4 51.2 49.8l-26.7.4c-.2-13.6-10.5-22.1-24-21.9l-.5-28.3z" class="d"/><path d="M245.5 448c-1.1-1-3.6-4-1.7-7.6.7-1.3 2.2-1.9 3.6-2.5s2.8-1.1 3.9-2c2.1-1.8 2.7-4.8 4.1-7.2 1.6-2.8 4.6-4.8 7.8-4.7 3.7.2 6.7 3.2 8.1 6.6s1.4 7.2 1.5 10.9c0 2-.1 4.3-1.6 5.7-1.4 1.3-3.5 1.3-5.3 1.2l-20-.6" class="Y"/><path d="M283.7 393h-52.6l9.5 56.5c.4 2.5 2.2 4.4 4.5 5h.2c.2 0 .3.1.5.1.3.1.7.1 1.1.1v.1h.3 23.4c.4 0 .9 0 1.3-.1 2.8-.4 5-2.6 5.3-5.5l4.6-38.9.2-1.5h0l1.8-15.4-.1-.4zm-9.9 36h-5.4l.5-16.4h6.3l-1.4 16.4zm1.9-16.4h5.2L279 429h-4.6l1.3-16.4zm-15.4 34.6L260 433h7.8l-.5 14.2h-7zm-8.4-14.3h7.6l.3 14.2H253l-1.1-14.2zm.6 14.3h-6.3L244 433h7.5l1 14.2zm-.9-18.2l-1.3-16.4h8.7l.4 16.4h-7.8zm8.3 0l-.4-16.4h8.9l-.5 16.4h-8zm-.5-20.3l-.4-15.2h10l-.5 15.2h-9.1zm-.5 0H250l-1.2-15.2h9.7l.4 15.2zm-9.4 0h-9.4l-.9-5.9-1.6-9.3h10.7l1.2 15.2zm.3 3.9l1.3 16.4h-7.8l-.8-5-1.8-11.4h9.1 0zm-7 16.4h-5.1l-2.8-16.4h5.2l2.7 16.4zm.6 3.9l2.2 14.2h-4.9l-2.4-14.2h5.1zm24.4 14.3l.5-14.2h5.2l-1.2 14.2h-4.5zm1.3-38.5l.5-15.2h7.3l-1.3 15.2h-6.5zm-32-15.2c.2 1.1 1.2 7.1 2.5 15.2h-5.3l-2.5-15.2h5.3zm39.7 53.7h-4.1l1.2-14.2h4.5l-1.6 14.2zm4.5-38.5H276l1.3-15.2h5.8l-1.8 15.2zm371.7-299h11.3v45.2H653zm16.7 9.9H681V155h-11.3zm16.9 8.1h11.3V155h-11.3zm15.6 11.1h11.3V155h-11.3z" class="W"/><path d="M695.3 211.2c-15.7-14.6-40.4-13.7-55.1 1.9s-13.8 40.2 1.9 54.8 40.4 13.7 55.1-1.9 13.8-40.2-1.9-54.8zm-13 41c-7 7.5-18.8 7.9-26.3.9s-7.9-18.7-.9-26.2 18.8-7.9 26.3-.9a18.33 18.33 0 0 1 .9 26.2z" class="Y"/><path d="M640.2 213.1c14.7-15.6 39.4-16.4 55.1-1.9L681.4 226c-7.5-7-19.3-6.6-26.3.9s-6.6 19.2.9 26.2l-13.9 14.8c-15.7-14.6-16.5-39.2-1.9-54.8z" class="d"/><path d="M693.7 204.9c19.2 17.9 21.5 46.9 3.6 66L677.8 254c8.6-9.1 10.5-21.4 1.3-29.9l14.6-19.2z" class="b"/><path d="M272.6 306.5h-104c-1.8 0-3.2-1.4-3.2-3.2v-24.6c0-1.8 1.4-3.2 3.2-3.2h104c1.8 0 3.2 1.4 3.2 3.2v24.6c.1 1.7-1.4 3.2-3.2 3.2z" class="W"/><path d="M188.7 296.1c-2.3 2.9-6.6 3.4-9.5 1s-3.4-6.6-1-9.5c2.3-2.9 6.6-3.4 9.5-1a6.8 6.8 0 0 1 1 9.5z" class="Y"/><path d="M187.2 289.6c.1.1-1.5 1.9-3.6 3.9l-.9.9-.2.2-.2-.2-2.7-3.1c.1-.1 1.4 1.1 3.1 2.7h-.4l.9-.9c2.1-2.1 3.9-3.6 4-3.5z" class="W"/><path d="M265 288.5c0 .1-14.8.3-33.1.3s-33.1-.1-33.1-.3 14.8-.3 33.1-.3l33.1.3zm.3 5.7c0 .1-14.8.3-33.1.3s-33.1-.1-33.1-.3 14.8-.3 33.1-.3l33.1.3z" class="b"/><path d="M614.1 298.3l-2.1 157h90.4V300.4z" class="Y"/><path d="M662.7 299.4l-.8 155.9h40.5V300.4zm-45.8 1.7v32.1h42.8v-30.6z" class="W"/><path d="M631.7 309.9v4.8h13.1v-5.2zm0 8.7h13.5v1.9h-13.5z" class="Y"/><path d="M616.9 413.6v32.1h42.8v-30.6z" class="W"/><path d="M631.7 422.4v4.8h13.1V422zm0 8.8h13.5v1.9h-13.5z" class="Y"/><path d="M616.9 337.3v32.1h42.8v-30.6z" class="W"/><path d="M631.7 346.1v4.8h13.1v-5.2zm0 8.7h13.5v1.9h-13.5z" class="Y"/><path d="M616.4 375.7h42.8v32.1h-42.8z" class="W"/><path d="M631.4 390.2v4.5h12.3v-4.9zm0 8.2h12.7v1.8h-12.7z" class="Y"/><path d="M705.8 453.9c0 .1-148.1.3-330.8.3s-330.8-.1-330.8-.3 148.1-.3 330.8-.3l330.8.3z" class="U"/><path d="M226.9 87.4h267.3v175.3H226.9z" class="b"/><path d="M494.2 262.7L494 87.4l.2.2-267.3.1h0l.3-.3v175.3l-.2-.2 267.2.2-267.3.2h-.2v-.2V87.4v-.3h.3 0l267.3.1h.2v.2l-.3 175.3z" class="U"/><path d="M308.6 184.2l26.3.4c-.2 14-12 25.4-26.3 25.4h-.2l.2-25.8z" class="a"/><g class="U"><path d="M352.1 219.8h-.6-1.6l-5.9.1h-.1v-.1c-2.3-3-5.4-6.8-8.7-10.9l-7-8.9.1.1c-3.2 0-5.8-.1-7.7-.1h-2.2c-.5 0-.8 0-.8-.1s.3 0 .8-.1h2.2l7.7-.1h.1l.1.1 7 8.9 8.6 11-.1-.1c2.4 0 4.4.1 5.9.1h1.6c.4.1.6.1.6.1z"/><use xlink:href="#B"/><use xlink:href="#B" y="3.2"/></g><path d="M304.5 180.4l-.4 25.8c-14.3-.2-25.9-11.8-25.9-25.8 0-14.2 11.9-25.8 26.3-25.8s26.3 11.6 26.3 25.8h-26.3z" class="V"/><g class="U"><path d="M294.2 172s-.2.1-.5.1c-.4.1-.8.1-1.3.2l-4.7.7h-.1l-.1-.1-6.3-6.1-7.7-7.6c-.9-1-1.7-1.7-2.3-2.3l-.8-.9a14.82 14.82 0 0 0 .9.8l2.4 2.3 7.8 7.6 6.2 6.2h-.1l4.7-.5c.5 0 1-.1 1.3-.1.4-.3.6-.3.6-.3z"/><use xlink:href="#B" x="-97.7" y="-68"/><use xlink:href="#B" x="-97.7" y="-64.9"/></g><use xlink:href="#C" class="V"/><g class="Z X"><use xlink:href="#C"/></g><use xlink:href="#D" class="V"/><g class="Z"><use xlink:href="#D"/></g><path d="M397.5 135.3l-19.3 4.3c2 8.8 9.9 15.5 19.3 15.5 9.5 0 17.4-6.7 19.3-15.6l-19.3-4.2" class="V"/><g class="U"><use xlink:href="#E"/><use xlink:href="#E" y="-5.1"/><use xlink:href="#E" y="-10.2"/><use xlink:href="#E" y="4.7"/><path d="M458.9 142.2c0 .1-6.9.3-15.3.3-8.5 0-15.3-.1-15.3-.3 0-.1 6.9-.3 15.3-.3l15.3.3z"/></g><path d="M381.3 179h4.6v51.3h-4.6zm8.9 17.5h4.6v33.9h-4.6zm8.8-11.1h4.6v45.2H399zm8.9-4.4h4.6v49.3h-4.6zm8.9 16.5h4.6v32.8h-4.6zm8.8 6.5h4.6v26.4h-4.6zm8.9-19.7h4.6v46h-4.6zm8.9 8.3h4.6v37.7h-4.6zm8.8-6.6h4.6v44.4h-4.6zm8.9 14.1h4.6v30.2h-4.6zm8.9-5.7h4.6v36H470z" class="V"/><g class="U"><path d="M476.5 233.9c0 .1-21.8.2-48.7.2s-48.7-.1-48.7-.2 21.8-.2 48.7-.2l48.7.2zm-88.7 4.1c0 .1-1.5.2-3.4.2s-3.4-.1-3.4-.2 1.5-.2 3.4-.2 3.4.1 3.4.2z"/><use xlink:href="#F"/><use xlink:href="#F" x="9.7"/><use xlink:href="#F" x="19.3"/><use xlink:href="#F" x="29"/><use xlink:href="#F" x="38.6"/><use xlink:href="#F" x="48.3"/><use xlink:href="#F" x="57.9"/><use xlink:href="#F" x="67.6"/><use xlink:href="#F" x="77.2"/></g><g class="Z X"><path d="M390.2 196.5h4.6v33.9h-4.6z"/></g><g class="Z X"><path d="M407.9 181h4.6v49.3h-4.6z"/></g><g class="Z X"><path d="M425.6 204h4.6v26.4h-4.6z"/></g><g class="Z X"><path d="M443.4 192.6h4.6v37.7h-4.6z"/></g><g class="Z X"><path d="M461.1 200.1h4.6v30.2h-4.6z"/></g><path d="M259.4 120.3c0 2.4-2 4.4-4.4 4.4s-4.4-2-4.4-4.4 2-4.4 4.4-4.4 4.4 2 4.4 4.4zm76-3.5c0 .1-14.9.3-33.3.3s-33.3-.1-33.3-.3c0-.1 14.9-.3 33.3-.3l33.3.3zm-39.8 5.4s-.4.1-1 .1l-2.8.1-9.3.1c-3.6 0-6.9 0-9.3-.1-1.2 0-2.1-.1-2.8-.1s-1-.1-1-.1.4-.1 1-.1l2.8-.1 9.3-.1 9.3.1 2.8.1c.6 0 1 0 1 .1z" class="V"/><path d="M81.6 103.2h139.9v159.7H81.6z" class="b"/><path d="M221.5 262.9v-.8-2.2-8.6l-.1-32.6-.1-115.5.2.2H81.6h0l.3-.3v159.7l-.2-.2 101.5.1 28.4.1h7.5a40.04 40.04 0 0 0 2.4.1H219h-7.4l-28.3.1-101.6.1h-.2v-.2-159.7-.2h.3 0 139.9.2v.2l-.1 115.7-.1 32.5v8.6 2.2c-.2.5-.2.7-.2.7z" class="U"/><path d="M209.4 184.8c0 .1-1.5-.8-4.5-1.7-2.9-.9-7.4-1.8-12.9-1-2.7.4-5.6 1.3-8.5 2.7s-5.6 3.6-8.4 6c-2.7 2.4-5.5 5.2-8.6 7.7s-6.7 4.9-11 5.9c-2.1.5-4.3.7-6.4.4s-4.1-1-5.9-1.8c-3.7-1.7-6.8-4-10-5.9-3.1-1.9-6.2-3.5-9.4-4.2-3.1-.8-6.2-.9-8.9-.7-5.5.5-9.7 2.4-12.3 4s-3.9 2.8-4 2.7l.9-.9c.6-.6 1.6-1.3 2.9-2.2a28.13 28.13 0 0 1 12.4-4.4c2.8-.3 5.9-.2 9.2.6 3.3.7 6.5 2.3 9.6 4.2 3.2 1.9 6.3 4.2 9.9 5.8 3.5 1.7 7.7 2.5 11.7 1.4 4-1 7.5-3.3 10.6-5.8s5.8-5.2 8.6-7.6 5.6-4.6 8.6-6.1 6-2.3 8.8-2.7c5.6-.8 10.2.2 13.1 1.3 1.5.5 2.6 1 3.3 1.4.9.6 1.3.8 1.2.9zm-89.3 21.4H132v32.2h-11.9zm50.4 0h11.9v32.2h-11.9zm16.9-18.9h11.9v51.1h-11.9zm-82.7 40.9h11.9V239h-11.9zm32.2-7.5h11.9v17.6h-11.9zm16.8-4h11.9v21.7h-11.9z" class="V"/><g class="U"><path d="M132.4 242.2c0 .3-2.9.5-6.4.5-3.6 0-6.4-.2-6.4-.5s2.9-.5 6.4-.5c3.6 0 6.4.2 6.4.5zm-14.8 0c0 .3-2.9.5-6.4.5-3.6 0-6.4-.2-6.4-.5s2.9-.5 6.4-.5c3.6 0 6.4.2 6.4.5zm84 0c0 .3-3.3.5-7.3.5s-7.3-.2-7.3-.5 3.3-.5 7.3-.5c4.1 0 7.3.2 7.3.5z"/><ellipse cx="176.7" cy="242.2" rx="7.3" ry=".5"/><path d="M165.6 242.2c0 .3-2.9.5-6.4.5s-6.4-.2-6.4-.5 2.9-.5 6.4-.5 6.4.2 6.4.5zm-17.4 0c0 .3-2.9.5-6.4.5s-6.4-.2-6.4-.5 2.9-.5 6.4-.5c3.6 0 6.4.2 6.4.5z"/></g><path d="M104.4 126.5h97.2v40.4h-97.2z" class="W"/><path d="M124.6 139.3a4.5 4.5 0 1 1-9 0 4.5 4.5 0 1 1 9 0zm4.5-3.2h31.6v1.8h-31.6z" class="U"/><path d="M129.1 140.1h61.4v1.8h-61.4z" class="X"/><path d="M124.6 153.2a4.5 4.5 0 1 1-9 0 4.5 4.5 0 1 1 9 0zm4.5-3.1h16.1v1.8h-16.1z" class="V"/><path d="M129.1 154.1h61.4v1.8h-61.4z" class="X"/><path d="M507.4 74.6H661v175.3H507.4z" class="b"/><path d="M661 249.9v-.8-2.4-9.5l-.1-35.8-.1-126.8.2.2H507.4h0l.3-.3v175.3l-.2-.2 111.4.1 31.2.1h8.2a51.07 51.07 0 0 0 2.7.1h-2.8-8.2l-31.1.1-111.6.1h-.2v-.2V74.6v-.3h.3 0H661h.2v.2l-.1 127-.1 35.7v9.4 2.4.9z" class="U"/><path d="M519.7 88.6h124.5v99.8H519.7z" class="W"/><path d="M528.4 170.7h4.1v1.2h-4.1zm9.2 6.3h5.2v1.2h-5.2zm18.2 0h5.2v1.2h-5.2zm18.2 0h5.2v1.2H574zm18.2 0h5.2v1.2h-5.2zm18.1 0h5.2v1.2h-5.2zm18.2 0h5.2v1.2h-5.2zm-100.1-22h4.1v1.2h-4.1zm0-29.6h4.1v1.2h-4.1zm0-14.9h4.1v1.2h-4.1zm.2 29.7h4.1v1.2h-4.1zm105 31.7h-.4-1.3-4.9l-18.2.1-60 .1h-14.2-.3v-.3l.1-50.4.1-14.9v-4-1-.4.4 1 4l.1 14.9.1 50.4-.3-.3h14.2l60 .1 18.2.1h4.9 1.3c.5.1.6.1.6.2zm1.2-31.2c0 .1-21.5.3-48.1.3s-48.1-.1-48.1-.3c0-.1 21.5-.3 48.1-.3l48.1.3zm0-14.7c0 .1-21.5.3-48.1.3s-48.1-.1-48.1-.3 21.5-.3 48.1-.3l48.1.3zm0-14.9c0 .1-21.5.3-48.1.3s-48.1-.1-48.1-.3c0-.1 21.5-.3 48.1-.3l48.1.3zm0 44.4c0 .1-21.5.3-48.1.3s-48.1-.1-48.1-.3 21.5-.3 48.1-.3l48.1.3z" class="U"/><path d="M539.5 168.7v-13.1l8.2-12.7 5.6 4.3 11.4-17.7 6.7 4.7 9.3-16.3 7.6 6.2 11.4-21.7 12.3 24.2 9.9-12.1 11.7-3.3v57.6l-94.1-.1h0z" class="a"/><g class="V"><path d="M634.8 106.4h-.2-.6-2.4l-9 .1.1-.1-9.6 12.6-.1.1h-.1-24.1l.2-.1-10.1 16.8-9.9 16.5-.2.3-.2-.3-13-17.9h.3L544 152.9l-3.3 5.1-.9 1.3s-.3.4-.3.4.1-.2.3-.5.5-.8.8-1.4l3.2-5.2 11.8-18.6.2-.3.2.3 13.1 17.9h-.4l9.9-16.5 10.1-16.8.1-.1h.1H613l-.2.1 9.7-12.5v-.1h.1l9 .1h2.4.6c.1.3.2.3.2.3z"/><path d="M559.7 138.6c0 .5-.4.9-.9.9s-.9-.4-.9-.9.4-.9.9-.9.9.4.9.9zm27.8-15.8c0 .5-.4.9-.9.9s-.9-.4-.9-.9.4-.9.9-.9.9.4.9.9zm21.6-3.8c0 .5-.4.9-.9.9s-.9-.4-.9-.9.4-.9.9-.9c.4 0 .9.4.9.9z"/></g><g class="U"><path d="M638.5 203.3c0 .1-26.3.3-58.7.3s-58.7-.1-58.7-.3c0-.1 26.3-.3 58.7-.3l58.7.3z"/><use xlink:href="#G"/><use xlink:href="#G" y="6.4"/><use xlink:href="#G" y="12.7"/><path d="M592.2 219.8c3.2-5.4 4.1-12.6 5-18.8.4-2.9 1.1-7.1-1-8.9-2.2-2-2.4-5-4.9-6.5s-6-1.7-8.4.1"/></g><path d="M583.3 238.9h0c-4.9.4-9.1-3.4-9.3-8.3l-.3-9.5s-7.1-.7-7.7-7.7c-.5-7.1-.3-23.4-.3-23.4h0c8-4 17.5-3.4 24.9 1.6l-.4 24.9v13.4c-.1 4.4-2.4 8.7-6.9 9z" fill="#ffbe9d"/><path d="M573 204.7c1.2-1.5 3.2-2.1 4.8-1.1 1.6 1.1 2.3 3.4 1.4 5.1-.6 1.2-2 2.3-3.5 2.6-1.3.3-2.3 1.6-2.1 2.9.2 1.8 3.2 2.4 4.5 3.9 2.1 2.3 6.6 3.3 9.7 3.6 3 .4 2.6.4 4.4-2.1 1.3-1.8 1.7-3.5 1.7-5.7l.3-15.6c0-1.9.1-3.8-.4-5.6-.4-1.8-1.4-3.6-3-4.6-1.7-1.1-3.9-1.2-5.9-1.9-2.4-.8-4.5-2.4-6.8-3.6s-5.1-1.9-7.4-.7c-1.7.8-2.8 2.5-4.4 3.4-2.3 1.3-5.4 1-6.5 4.4a5.55 5.55 0 0 0 0 3.6c1.5 4.6 7.2 6.4 11.3 4.4.1.8-.7 2.5.1 4.9.5.9.6 2.1 1.8 2.1" class="U"/><path d="M574.3 209.2c.1 0 .3.4.9.3.6 0 1.3-.7 1.3-1.6.1-.9-.6-1.6-1.2-1.8s-1-.1-1-.2c0 0 .4-.3 1.1-.2.4.1.8.3 1.1.6.3.4.6.9.5 1.5 0 1.2-1 2-1.8 2-.4 0-.7-.2-.8-.4-.2-.1-.2-.2-.1-.2z" fill="#eb996e"/><path d="M581.6 187.8s.2-.3.6-.6 1.2-.7 2.1-.8c1-.1 2.2 0 3.4.5s2.3 1.5 3.1 2.8c1.7 2.5 2 5.3 2.2 7.2l.2 3.1c-.1 0-.3-1.2-.6-3-.3-1.9-.7-4.5-2.3-6.9-.8-1.2-1.8-2.1-2.9-2.6s-2.2-.7-3.1-.6c-1.8.1-2.6 1-2.7.9zm-19.9 7.3h-.3c-.2 0-.4-.1-.7-.3a2.36 2.36 0 0 1-.8-.9c-.2-.4-.4-1-.2-1.6.1-.6.5-1.2 1.1-1.6s1.5-.4 2.2-.4c.8 0 1.5 0 2.1-.5s1.1-1.2 1.7-1.9c1.3-1.4 2.9-2.2 4.4-2.5 1.5-.4 3-.3 4.1-.1 1.2.2 2 .6 2.6 1s.8.6.8.6c-.1.1-1.2-.9-3.5-1.3-1.1-.2-2.5-.2-4 .2-1.4.4-3 1.2-4.1 2.4-.6.6-1.1 1.4-1.8 1.9-.4.3-.8.5-1.2.5-.4.1-.8.1-1.2.1-.8 0-1.5 0-2 .3s-.9.9-1 1.4c-.3 1.1.3 1.9.8 2.3.7.3 1 .3 1 .4zm18.9 19.6s.4-.2.9-.6c.6-.4 1.4-1.1 1.9-2.1.6-1.1.8-2.6.3-4.1-.2-.8-.7-1.5-1.3-2.1s-1.4-1.1-2.2-1.6l-2.4-1.4c-.8-.5-1.4-1.2-2-1.8-1-1.4-1.5-2.9-1.7-4.2a6.81 6.81 0 0 1 .2-3l.3-.8c.1-.2.1-.3.1-.2.1 0-.6 1.5-.3 4 .2 1.2.7 2.7 1.7 3.9.5.6 1.1 1.2 1.9 1.7.7.5 1.6.9 2.4 1.4s1.7 1 2.3 1.7c.7.7 1.1 1.5 1.4 2.3.5 1.7.2 3.3-.5 4.5-.7 1.1-1.5 1.8-2.1 2.1-.5.3-.9.4-.9.3zm12.3-10.3s-.3.1-.9.2-1.5.1-2.5.1c-2.1-.1-5.1-.8-7.9-2.7-2.7-1.9-4.6-4.4-5.2-6.5-.3-1.1-.2-2-.1-2.6s.3-.9.4-.9-.5 1.3.1 3.3 2.5 4.4 5.1 6.2a16.57 16.57 0 0 0 7.6 2.8c2.1.2 3.4 0 3.4.1z" class="a"/><path d="M594 199.5c2.5-2.8 6.1-4.6 9.7-4.4 3.7.2 7.3 2.8 8.2 6.3.7 2.7-.1 5.5-.5 8.3s0 6 2.2 7.6c1.4 1 3.1 1.2 4.7 1.6s3.4 1.2 3.9 2.8c.6 1.8-.7 3.9-2.4 4.6s-3.8.5-5.7.1c.9 2-.2 4.6-2.1 5.7s-4.4.9-6.3-.3-3.2-3.1-3.8-5.2c-1.2 2.1-4.4 2.6-6.4 1.2s-2.9-4-2.6-6.5 1.7-4.6 3.3-6.5c.8-.9 1.7-1.8 2.3-2.9s.8-2.5.1-3.5-2.3-1.5-3.1-.6" class="U"/><path d="M598.3 206.9s-.8.5-2.1 0c-1.3-.4-2.8-1.9-3.1-4-.2-1 0-2 .3-2.9.3-.8.9-1.5 1.4-1.9 1-.9 1.9-1.1 1.9-1s-.7.4-1.6 1.3-1.8 2.5-1.4 4.4c.3 1.9 1.6 3.3 2.7 3.8 1 .5 1.9.3 1.9.3z" class="V"/><path d="M573.4 221c0 .1-.6.1-1.6-.2-1-.2-2.3-.8-3.4-1.9-1.2-1-1.9-2.3-2.3-3.2s-.4-1.6-.4-1.6c.1 0 .3.6.7 1.4.4.9 1.2 2 2.3 3s2.3 1.6 3.2 1.9c.9.4 1.5.5 1.5.6z" fill="#eb996e"/><g class="a"><path d="M600.6 226.8s-.1 0-.3-.1l-.9-.4c-.7-.5-1.6-1.5-2-3.1-.2-.8-.3-1.7-.1-2.6.1-.9.5-1.9.9-2.8.9-1.9 2.3-3.6 3.3-5.7.5-1 .9-2.1 1-3.1.1-1.1 0-2.1-.3-3-.7-1.8-2.2-3.1-3.6-3.5-1.4-.5-2.7-.4-3.5-.2s-1.3.4-1.3.4.1-.1.3-.2l.9-.4c.8-.2 2.1-.4 3.7.1a6.4 6.4 0 0 1 3.9 3.7c.4 1 .5 2.1.4 3.2s-.6 2.3-1.1 3.3c-1.1 2.1-2.5 3.9-3.4 5.7s-1.3 3.6-.9 5.1c.3 1.5 1.1 2.5 1.8 3s1.2.5 1.2.6z"/><path d="M611.3 232h-.4c-.3 0-.7-.1-1.3-.2-1.1-.3-2.5-1.2-3.7-2.9s-1.7-4.1-1.6-6.7.9-5.4 1.4-8.4c.2-1.5.4-2.9.3-4.3s-.4-2.7-.9-3.9-1.3-2.1-2.2-2.8-1.9-1.1-2.8-1.3c-1.9-.4-3.5-.2-4.6 0s-1.6.5-1.6.4c0 0 .1-.1.4-.2s.7-.3 1.2-.4c1.1-.3 2.7-.6 4.7-.2 1 .2 2 .6 3 1.3s1.8 1.7 2.3 3c.6 1.2.9 2.6 1 4s0 2.9-.3 4.4c-.5 3-1.3 5.7-1.4 8.3-.2 2.6.3 4.9 1.4 6.5s2.4 2.5 3.4 2.9c1.1.5 1.7.4 1.7.5z"/></g><path d="M613.4 264.2l-15.1 11.7 6.4 10.4 18.1-13.4zm-40.3-39.5s.1-1.3-3.2-1.4l-3.7-.1s-1.5-1.9-1.6-3c-.1-1.2.7-3.1.7-3.1l3.3-.3-.9-2.3-2.3.2-6.6.8-2.6 11.6-18.1 33.7c-2.9 4.4-1.3 10.4 3.4 12.7h0c4.7 2.3 10.9-2.5 12.7-7.4l10-37.5 3.5-2.7 5-.9M532 449l24.6-141.4h0c.1-.2.1-.4.2-.6h0 0c4.2-16.6 10.6-21.9 10.6-21.9l37.6 2.4c3.2 5.8 3.6 19.5 3.6 19.5.4 1.7-7.9 138.7-7.9 138.7l-12.6-.3-6.8-129.6-36.6 133.9-12.7-.7z" fill="#ffbe9d"/><path d="M531.7 450.3V449l12.9.4-.1 4.2h-.8c-3.6.1-18.1.2-20.5-.5-2.5-.8 8.5-2.8 8.5-2.8z" class="V"/><g opacity=".6" class="X"><path d="M539.9 453.4a3.94 3.94 0 0 1 1.7-2.5c.9-.6 2-.9 3-.8l-.1 3.3h-4.6z"/></g><g opacity=".6" class="X"><path d="M526.3 451.4s-3.9.9-3.4 1.5 15.2 1 21.7.6v-.3l-17.2-.3c0 .1-.4-1.4-1.1-1.5z"/></g><g class="U"><path d="M544.7 453.3h-.2-.6-2.3c-2 0-4.7 0-7.7-.1l-7.7-.3-2.3-.2c-.2 0-.4 0-.6-.1h-.2.2.6l2.3.1 7.7.3 7.7.1h2.3.6l.2.2z"/><path d="M527.4 453.2s-.1-.5-.4-1.1c-.3-.5-.8-.8-.8-.9 0 0 .6.2.9.8.4.6.3 1.2.3 1.2zm3.8-1.7s-.2-.2-.4-.5l-.3-.5a3.61 3.61 0 0 0 .4.5c.3.2.4.5.3.5zm1.1-.5s-.2-.1-.4-.3-.4-.4-.3-.4c0 0 .2.1.4.3s.3.4.3.4zm.7-1.1s-.3.1-.7.1-.7 0-.7-.1.3-.1.7-.1a2.44 2.44 0 0 1 .7.1zm.2-.8s-.3.2-.8.2c-.4 0-.8-.1-.8-.1h.8c.5-.1.8-.1.8-.1z"/><path d="M530.8 450.4h-.8c-.3 0-.6-.1-.9-.2-.2-.1-.3-.1-.5-.2-.1-.1-.2-.1-.2-.2s0-.2.1-.3c.8-.4 1.6.1 1.9.5.2.2.2.4.3.5v.2s0-.3-.4-.7c-.2-.2-.4-.4-.7-.4-.3-.1-.7-.1-1 0-.1.1-.1.2.1.3.1.1.3.1.5.2.3.1.6.2.8.2a4.53 4.53 0 0 0 .8.1z"/><path d="M530.6 450.5s-.1-.2-.1-.5c0-.2.1-.4.2-.6.2-.2.3-.4.7-.4.2 0 .3.2.2.4 0 .1-.1.2-.2.3-.1.2-.3.3-.4.5s-.3.3-.4.3c.1 0 .2-.1.5-.4.1-.1.2-.3.4-.5.1-.2.2-.5 0-.5s-.4.2-.6.3c-.1.2-.2.3-.2.5-.1.4-.1.6-.1.6zm14-.5h-1c-.6 0-1.4.2-2.1.7s-1.1 1.2-1.3 1.7-.2.9-.3.8v-.2c0-.2.1-.4.2-.6.2-.5.6-1.2 1.4-1.8.7-.5 1.6-.7 2.2-.7h.7c.1.1.2.1.2.1zm-6.3 2.2s-.8.1-1.9.1c-1 0-1.9-.2-1.9-.2h1.9c1.1.1 1.9 0 1.9.1z"/><path d="M540.8 452.2s-.1.2-.2.3c-.1.2-.1.3-.2.3 0 0-.1-.2 0-.4l.4-.2zm1-1.1s-.1.2-.2.3-.3.2-.3.2.1-.2.2-.3.3-.2.3-.2zm1.4-.4s-.2 0-.4.1-.3.1-.4.1c0 0 .1-.2.3-.3.3 0 .5 0 .5.1zm1-.2s-.1.1-.2.1h-.2s.1-.1.2-.1c0-.1.1-.1.2 0zm50.7-221.8s4.6.5 10 3.9c11.9 7.7 31.8 24 30.1 31.6-1.4 6.4-16.9 14.2-16.9 14.2L608 266.3l6.2-3.5-15.2-10.2-4.1-23.9z"/><path d="M601.7 253.2l-.5 1.8-1.7 8.4-.4 12.2c9 11.6 9.2 21.4 9.2 21.4l-45.6 5.3c0-9 3.3-20.3 3.3-20.3 2.6-4.5 2.5-17.9 2-18.3-2.8-2.8-3.5-4.9-1.3-8.5l-15.6 16.2c-5 4.6-9.8 3.3-12 1.3-6.2-5.6.2-12.8.2-12.8l23.8-27.3c1.6-1.9 3.8-3.2 6.2-3.8 2.5-.6 5.1-.9 5.1-.9l15.9.1s3 .1 4.7.6c0 0 5.5 1.8 6.9 8.6 1.3 6.9-.2 16-.2 16z"/></g><g class="a"><path d="M602.2 242.3s.1.5.1 1.3l-.1 3.6c-.2 3-.7 7.2-1.6 11.8-.3 1.6-.6 3.1-.9 4.4h0c-.1 3.5-.3 6.6-.4 8.8-.1 1-.1 1.9-.2 2.5 0 .6-.1.9-.1.9s0-.3-.1-.9v-2.6c0-2.2.1-5.2.2-8.8h0 0l.9-4.4c.9-4.5 1.4-8.7 1.7-11.7.1-1.5.2-2.7.2-3.6.2-.8.2-1.3.3-1.3zm.1 12.3c.1-.1 3.8 2.3 8.3 5.4l8 5.9c-.1.1-3.8-2.3-8.3-5.4l-8-5.9zm-29.5-17.9s.1 0 .2.2l.6.6c.4.6 1 1.5 1.2 2.8.3 1.3.2 2.9-.3 4.6-.5 1.6-1.4 3.4-2.6 5-.6.8-1.2 1.5-1.9 2.2s-1.4 1.2-2 1.8c-1.3 1.1-2.3 2.2-3.2 3.1l-2.1 2.2-.8.8s.2-.4.6-.9c.4-.6 1.1-1.4 2-2.3.9-1 1.9-2.1 3.2-3.2.6-.6 1.3-1.1 2-1.8.6-.6 1.3-1.4 1.8-2.2 1.1-1.6 2-3.2 2.5-4.8s.6-3.1.4-4.4c-.3-2.5-1.7-3.6-1.6-3.7z"/><path d="M567.5 277l.6-6.1h31l-.1 4.7zM541 258.7c.1.1-.8.6-1.7 1.8s-1.9 3.2-1.8 5.5 1.2 4.2 2.3 5.3c1 1.1 1.9 1.6 1.9 1.7l-.6-.3c-.4-.2-.9-.6-1.5-1.1-1.1-1.1-2.4-3.1-2.5-5.6s1-4.6 2-5.8c.5-.6 1-1 1.4-1.3.3-.1.5-.2.5-.2z"/></g><path d="M600.6 445.7l3.5 8.2-15.8-.2-.3-8.4z" class="V"/><path d="M588.2 452.3a19.68 19.68 0 0 0 2.2.1h5.3l5.3-.1 2.2-.1s-.8-.1-2.2-.1h-5.3l-5.3.1-2.2.1zm6.6-6.8c-.1 0-.2 1.5-.1 3.3s.3 3.3.4 3.3.2-1.5.1-3.3-.3-3.3-.4-3.3z" class="U"/><path d="M604.1 454l-15.8-.5-.1-1.5 15.1.1.8 1.8" opacity=".6" enable-background="new" class="X"/><path d="M607.1 289.1c11.9 37.5-3.4 82.9.2 126.5.4 4.3 2.1 9.4-1.9 11.9-1.1.7-2.4.9-3.6.9-3.2-.1-5.9-1.8-8.7-2.9-5.4-2.2-11.6-2.4-17.2-.7-3.8 1.2-7.5 3.3-11.5 2.7-5.2-.8-8.6-5.9-13.4-8.1-4.5-2-9.7-1.3-14.6-1.4h-.1c-7.1-.2-12.1-7.1-10.2-14 7.2-26.2 30.9-111.5 41.4-127l31.4-1.3c3 3.4 6.7 8.7 8.2 13.4z" class="V"/><path d="M596.1 306.8c.1 0-.6.9-1.7 2.1-1.1 1.3-2.7 3-4.6 4.7-2 1.7-4 3-5.5 3.8l-2.5 1.2c-.1-.2 3.7-2 7.6-5.3l4.7-4.6 2-1.9z" class="U"/><g opacity=".1"><path d="M582.2 320.9c-9.9 25.3-11.8 53.7-5.3 80.2.6 2.3 1.1 4.9-.2 6.9-1.7 2.5-5.8 2.4-8.1.4s-3.2-5.1-3.8-8.1c-4.3-22.3 3.5-44.8 11.9-65.9"/></g><g class="U"><path d="M344.3 333.5h59.6v2.9h-59.6z"/><path d="M335.1 336.4l-11.2-41.9h46.5l10.2 41.9z"/></g><path d="M377.8 333.3h-41.6l-9.7-36.8h41.8z" class="Y"/><path d="M327.2 299.1H369l-.7-2.6h-41.8l.7 2.6z" class="d"/><path d="M331.7 297.8a.5.5 0 1 0 1 0 .5.5 0 1 0-1 0zm-1.5 0a.5.5 0 1 0 1 0 .5.5 0 1 0-1 0zm-1.6 0a.5.5 0 1 0 1 0 .5.5 0 1 0-1 0z" class="b"/><path d="M358.6 315.2l4.6 5.2c1.8-1.3 2.8-3.2 2.8-5.3 0-3.7-3.4-6.7-7.4-6.6-4.1 0-7.4 3-7.4 6.7h7.4z" class="V"/><g class="U"><path d="M358.1 316.1s.5.4 1.3 1.3l3.4 3.7.2.2-.2.1c-1.9 1.4-4.9 2-7.7.8-1.3-.6-2.4-1.5-3.2-2.6s-1.1-2.3-1.2-3.4v-.2h.2 5.3c1.2 0 1.9 0 1.9.1l-2 .2-5.2.2.2-.2c.1 1 .4 2.2 1.1 3.2s1.7 1.8 3 2.4c2.6 1.1 5.5.6 7.3-.6v.3l-3.2-3.8-1.2-1.7zm-3-4.8c0 .2.2.4.4.4s.4-.2.4-.4-.2-.4-.4-.4c-.3 0-.4.2-.4.4z"/><path d="M346.8 308.3c0-.1 2.2-.3 4.9-.3h.7.1l.1.1 2.9 3.2c-.1.1-1.5-1.1-3.2-2.8l.2.1h-.7l-5-.3z"/><path d="M337.5 313.5l-.5-1.9-1.1-5.4v-.2h.3l10.3-.1c-.1 0 .5.4.3.2h0 0 0 0 0v.1.1.2l.1.5c.1.3.1.6.2 1 .1.6.2 1.3.4 1.9l.7 3.5.1.3h-.3c-3.1 0-5.7 0-7.5-.1-.8 0-1.5 0-2.1-.1-.7.1-.9 0-.9 0s.3 0 .8-.1l2.1-.1 7.4-.1-.2.3-.7-3.5-.4-1.9c-.1-.3-.1-.6-.2-1l-.1-.5v-.2-.1-.1h0 0 0 0 0c-.2-.2.3.3.3.2h-10.3l.2-.3.9 5.3.2 2.1zm16.9 6.1c0 .2.2.4.4.4s.4-.2.4-.4-.2-.4-.4-.4-.4.2-.4.4z"/><path d="M347.4 319.6c0-.1 1.7-.3 3.8-.3s3.8.1 3.8.2-1.7.3-3.8.3c-2.2.1-3.8 0-3.8-.2z"/><path d="M337.5 322.9l-.5-1.4c-.3-.9-.7-2.3-1.1-4l-.1-.2h.3c2.8-.1 6.6-.1 10.7-.1-.2-.2.3.2.3.2h0 0 0 0 0 0v.1.2l.1.4.2.7c.1.5.2.9.4 1.4.2.9.4 1.8.7 2.6l.1.3h-.3c-3.2 0-5.9 0-7.7-.1-.9 0-1.6 0-2.2-.1h-.9s.3 0 .8-.1c.6 0 1.4 0 2.2-.1 1.9-.1 4.5-.1 7.6-.1l-.2.3c-.2-.8-.4-1.7-.7-2.6-.1-.5-.2-.9-.4-1.4l-.2-.7-.1-.4v-.2-.1h0 0 0 0 0 0c-.1 0 .5.4.3.2h-10.7l.2-.2c.4 1.6.7 3 .9 3.9s.3 1.5.3 1.5zm.8-14.5c0-.1 1.6-.3 3.5-.3 2 0 3.5.1 3.5.2s-1.6.3-3.5.3c-1.9.1-3.5 0-3.5-.2zm.1 1.2c0-.1 1.6-.3 3.6-.3s3.6.1 3.6.2-1.6.3-3.6.3-3.6-.1-3.6-.2zm.2 1.1c0-.1 1.5-.3 3.4-.3s3.4.1 3.4.2-1.5.3-3.4.3-3.4-.1-3.4-.2zm-.1 8.8c0-.1 1.5-.3 3.4-.3s3.4.1 3.4.2-1.5.3-3.4.3c-1.9.1-3.4 0-3.4-.2zm.4 1.3c0-.1 1.3-.3 2.9-.3s2.9.1 2.9.2-1.3.3-2.9.3c-1.6.1-2.9 0-2.9-.2zm-65.1 15.5v5.5h3.6V453h7.3V341.8h39.2V453h7.4V341.8h169.9V453h7.4V341.8h3.2v-5.5zm160 41.4c0 .1 2.1.2 4.8.2l4.8-.2c0-.1-2.1-.2-4.8-.2l-4.8.2z"/></g><ellipse cx="363.9" cy="378.7" rx=".3" ry=".1" class="a"/><g class="c"><path d="M410.9 279.9l-27.6-28-.6-3-.3-1.9c-.1-.8-.1-1.7 0-2.5.2-1 .5-2.3.9-2.9.5-.8-.3-1.8-1-1.5-.8.3-2.1 2.5-2.4 5.6-.3 3-2.9-1-3.8-2.4-1-1.4-4.2-5.8-4.8-5.8-1-.1-1.2 1-.2 2.4s3.7 5.9 2.9 6.4c-1.6-.3-3.1.5-3.8 1.9-.7 1.3-1.5 3.2-.8 4.1 1.2 1.6 4.4 4.7 4.4 4.7l.9.8s23.9 34.6 29 35.7c3.2.7 53.2 4.8 53.2 4.8l3.8-13.8-49.8-4.6z"/><use xlink:href="#H"/></g><path d="M370.8 249.6c.1 0 .5.4 1.3 1.2.4.5.8.9 1.3 1.4.2.3.5.6.7 1s.3 1-.1 1.4c-.4.5-1 .5-1.4.3s-.7-.5-1-.7l-1.3-1.4-1.1-1.3c0-.1.6.4 1.4 1.1.5.4.9.8 1.4 1.3.3.2.5.5.8.6s.7.1.8-.2c.2-.2.2-.6 0-.9-.1-.3-.4-.6-.6-.9l-1.2-1.5c-.7-.8-1.1-1.3-1-1.4z" class="e"/><use xlink:href="#H" x="1.9" y="-1.8" class="c"/><path d="M372.6 247.9c.1 0 .5.4 1.3 1.2.4.5.8.9 1.3 1.4.2.3.5.6.7 1s.3 1-.1 1.4c-.4.5-1 .5-1.4.3s-.7-.5-1-.7l-1.3-1.4-1.1-1.3c0-.1.6.4 1.4 1.1.5.4.9.8 1.4 1.3.3.2.5.5.8.6s.7.1.8-.2c.2-.2.2-.6 0-.9-.1-.3-.4-.6-.6-.9l-1.2-1.5c-.7-.8-1.1-1.4-1-1.4z" class="e"/><use xlink:href="#H" x="3.8" y="-3.3" class="c"/><path d="M374.5 246.4c.1 0 .5.4 1.3 1.2.4.5.8.9 1.3 1.4.2.3.5.6.7 1s.3 1-.1 1.4c-.4.5-1 .5-1.4.3s-.7-.5-1-.7l-1.3-1.4-1.1-1.3c0-.1.6.4 1.4 1.1.5.4.9.8 1.4 1.3.3.2.5.5.8.6s.7.1.8-.2c.2-.2.2-.6 0-.9-.1-.3-.4-.6-.6-.9l-1.2-1.5-1-1.4zm2.4 6.2c0-.1.6-.2 1.6.1l-.3.3c-.1-.5-.2-1.1-.1-1.8.1-.9.6-1.7 1-2.1.4-.5.7-.6.8-.6.1.1-1 1.1-1.2 2.8-.1.6-.1 1.1 0 1.6l.1.4-.3-.1c-1-.5-1.6-.5-1.6-.6z" class="e"/><path d="M447 237.9l.1 38.4-15 .7-.6-9.2s-7.2 1.1-8.7-4.3c-1-3.5-.7-30.3-.7-30.3l24.9 4.7z" class="c"/><path d="M418.4 236.9c1.1 2.3 6.4 6.5 6.4 6.5l2.4 6.4c2.1-1.6 4.9-1.5 5.4 2.1.4 2.6-2.9 3.2-2.9 3.2 1.9 3.2 3.2 5.9 6 8.9 3 3.3 4.7 3.7 7.9 3.7h3.6s7.3-6.1 5.9-22.3c-1.5-16.2-16-11.4-19.4-15.5-5.7-6.5-19-.6-15.3 7z" class="U"/><path d="M452.3 259s-.6.1-1.8-.1c-1.1-.2-2.7-.8-4.3-2.2-1.6-1.3-3-3.4-4.3-5.7-1.4-2.3-2.9-4.9-5.5-6.7-2.6-1.7-5.7-2.1-8.3-2.6-2.7-.5-5.1-1.3-6.7-2.5-1.6-1.3-2.4-2.9-2.7-4-.2-1.1-.1-1.8-.1-1.8s-.1.6.2 1.8c.3 1.1 1.1 2.6 2.7 3.9s4 2 6.6 2.5 5.7.9 8.4 2.6c2.6 1.8 4.2 4.5 5.5 6.8 1.4 2.3 2.7 4.4 4.3 5.7 1.5 1.4 3.1 2 4.2 2.2.6.1 1 .1 1.3.2.3-.1.5-.1.5-.1zm.8-13.2s-.3-.1-.8-.2-1.3-.4-2.3-.5-2.3 0-3.5.8c-.6.4-1.1 1-1.2 1.8s0 1.7.7 2.3c.3.3.8.5 1.2.5.5 0 .9-.1 1.3-.4.8-.5 1.5-1.3 1.8-2.3.7-2 .2-4.5-1.6-6.1-.9-.8-2-1.3-3.2-1.4s-2.5.1-3.7.5c-1.2.3-2.5.8-3.8.9-1.3.2-2.7.2-4.1 0s-2.7-.5-3.9-1.1-2.3-1.5-2.7-2.8 0-2.7.9-3.6 2.4-1 3.5-.5a3.04 3.04 0 0 1 1.3 1.2c.3.5.3 1.1.3 1.7-.2 1.1-.8 2.2-1.8 2.7-.9.6-2 .8-3 .8s-1.9-.2-2.8-.4c-1.7-.5-3.1-1.5-4.1-2.5s-1.7-2.1-2.1-3-.6-1.7-.7-2.2-.1-.8-.1-.8.1.3.2.8.3 1.3.8 2.2c.4.9 1.1 2 2.1 3s2.4 2 4.1 2.5c.9.3 1.8.4 2.8.4s2-.2 2.9-.8 1.5-1.5 1.7-2.6-.4-2.3-1.5-2.7c-1-.5-2.4-.4-3.3.5-.9.8-1.2 2.2-.9 3.4s1.4 2.2 2.6 2.7c1.2.6 2.5.9 3.9 1.1s2.7.2 4 0 2.6-.6 3.8-.9 2.5-.6 3.8-.5 2.4.7 3.3 1.5c1.9 1.6 2.3 4.3 1.6 6.3-.3 1-1 1.9-1.9 2.4-.4.2-.9.4-1.4.4s-1-.2-1.3-.5c-.7-.6-.9-1.6-.7-2.4.1-.8.7-1.5 1.3-1.9 1.2-.8 2.6-.9 3.5-.8 1 .1 1.8.4 2.3.5a1.36 1.36 0 0 1 .7 0z" class="a"/><path d="M434.1 443.6l-4.9-6.3 11.7-9.2 7.3 9.1-.7.6c-3.1 2.7-15.9 13.6-18.6 14.7-3 1.2 5.2-8.9 5.2-8.9z" class="V"/><g opacity=".4" class="X"><path d="M430.2 448.7s-2.7 3.8-1.8 4 14.2-10.3 19.7-15.5l-.2-.2-15.5 12.4c.1 0-1.5-1.2-2.2-.7z"/></g><g class="U"><path d="M448.1 436.8l-.2.2c-.2.1-.3.3-.5.5l-2.1 1.8-6.9 5.7-7.1 5.4-2.2 1.6c-.2.2-.4.3-.6.4-.1.1-.2.1-.2.1l.2-.2c.2-.1.4-.3.6-.5l2.2-1.6 7.1-5.5 6.9-5.6 2.1-1.7c.2-.2.4-.3.6-.5 0 0 .1-.1.1-.1z"/><path d="M432.6 449.6s-.5-.4-1.2-.7-1.4-.2-1.4-.2.7-.2 1.4.1c.8.2 1.2.8 1.2.8zm2.1-4.5s-.3 0-.7-.2-.7-.3-.7-.3.3 0 .7.2a2.49 2.49 0 0 1 .7.3zm.5-1.2s-.3.1-.6.1-.6-.1-.6-.1.3-.1.6-.1.6 0 .6.1zm-.3-1.6s-.2.3-.5.6-.6.5-.7.4c0 0 .2-.3.5-.6.4-.3.7-.5.7-.4zm-.4-1s-.2.4-.5.7c-.4.3-.8.5-.8.5s.3-.3.7-.6l.6-.6z"/><path d="M433.5 444.4s-.2.3-.8.6c-.3.2-.6.3-.9.5-.2.1-.4.1-.6.2-.1 0-.3 0-.4-.1s-.2-.3-.1-.4c.4-.9 1.5-1.1 2-.9.3.1.5.2.6.3l.2.2s-.3-.3-.8-.4c-.3-.1-.6 0-1 .1-.3.1-.7.4-.8.8 0 .2.1.3.3.3s.4-.1.6-.2c.4-.1.7-.3.9-.4.5-.4.7-.6.8-.6z"/><path d="M433.3 444.6s-.3-.1-.5-.5c-.1-.2-.2-.4-.2-.7s0-.6.3-.9c.2-.1.4 0 .5.2.1.1.1.3.1.4v.7c0 .5-.1.7-.2.8 0-.1.1-.3.1-.7v-.7c0-.2-.2-.6-.4-.5s-.2.5-.2.7c0 .3.1.5.2.7a1.41 1.41 0 0 0 .3.5zm12-10.8s-.4.2-.8.7c-.5.5-1 1.3-1.3 2.3-.2 1-.1 2 .1 2.6s.5 1 .4 1l-.2-.2c-.1-.2-.2-.4-.4-.7-.3-.6-.4-1.6-.2-2.7.2-1 .8-1.9 1.4-2.3.3-.2.5-.4.7-.5.2-.2.3-.2.3-.2z"/><path d="M440.3 429.9l2 2.3 1.9 2.4-2-2.3-1.9-2.4zm1.2 10.6s-.6.8-1.6 1.5c-.9.8-1.8 1.3-1.8 1.2l1.7-1.4 1.7-1.3zm2.2-1.8c.1 0 .1.2.1.4.1.2.1.4.1.5 0 0-.2-.1-.3-.4 0-.3.1-.5.1-.5zm.1-1.8s.1.2 0 .4c0 .2-.1.4-.1.4s-.1-.2 0-.4c-.1-.2 0-.4.1-.4zm.8-1.4s-.1.2-.3.4l-.2.4s-.1-.2.1-.5.4-.4.4-.3zm.7-1v.3l-.2.2v-.3l.2-.2z"/></g><g class="Z"><path d="M445.1 433.5l-11.9 9-1.1-1.4 12.5-8.4z"/></g><path d="M380.3 449.9v-8l14.9-.1.1 11.6-.9.1c-4.1.2-20.9.9-23.7.1-3-.8 9.6-3.7 9.6-3.7z" class="V"/><g opacity=".4" class="X"><path d="M374.1 451.6s-4.4 1.3-3.9 2 17.6.7 25.1 0v-.3l-19.8.3c0-.1-.5-2-1.4-2z"/></g><g class="U"><path d="M395.5 453.2h-.3-.7l-2.7.1-8.9.2c-3.5 0-6.7 0-8.9-.1-1.1 0-2-.1-2.7-.1h-.7-.3.3.7 2.7l8.9.1 8.9-.1 2.7-.1h.7.3z"/><path d="M375.5 453.7c-.1 0-.1-.6-.5-1.3s-1-1-.9-1c0 0 .6.2 1.1.9.3.7.3 1.4.3 1.4zm4.4-2.2s-.3-.2-.5-.6c-.2-.3-.4-.6-.3-.7 0 0 .3.2.5.6.2.3.3.6.3.7zm1.2-.7s-.3-.1-.5-.3-.4-.4-.4-.5.3.1.5.3a3.61 3.61 0 0 0 .4.5zm.7-1.4s-.3.1-.8.1c-.4 0-.8 0-.8-.1 0 0 .3-.1.8-.1s.8.1.8.1zm.3-1s-.4.2-.9.3c-.5 0-.9-.1-.9-.1 0-.1.4 0 .9-.1s.9-.1.9-.1z"/><path d="M379.3 450.2s-.4.1-1 0c-.3 0-.6-.1-1-.2-.2-.1-.4-.1-.6-.2-.1-.1-.2-.2-.2-.3s0-.3.1-.4c.9-.5 1.8 0 2.2.5.2.2.3.5.3.6v.3s-.1-.4-.4-.8c-.2-.2-.5-.4-.8-.5s-.8-.1-1.1.1c-.2.1-.1.3.1.4s.4.2.5.2l1 .3c.6-.1.9-.1.9 0z"/><path d="M379.1 450.2s-.2-.2-.1-.7a1.08 1.08 0 0 1 .3-.7c.2-.2.4-.5.8-.5.2 0 .3.3.3.4 0 .2-.1.3-.2.4-.1.2-.3.4-.5.6-.3.4-.5.5-.6.5.1 0 .3-.2.5-.5.1-.2.3-.3.4-.6.1-.2.2-.6 0-.6s-.5.2-.6.4l-.3.6a1.36 1.36 0 0 0 0 .7zm16.1-1.1h-1.1a5.37 5.37 0 0 0-2.4 1c-.8.6-1.3 1.5-1.5 2.1s-.2 1.1-.3 1.1v-.3c0-.2.1-.5.2-.8.2-.7.7-1.6 1.5-2.2.8-.7 1.8-.9 2.5-1h.8c.2.1.3.1.3.1z"/><path d="M393.6 442.9l.1 3.1v3.1l-.1-3.1v-3.1zM388 452s-1 .2-2.2.2-2.2-.1-2.2-.2 1 0 2.2 0h2.2zm3 0l-.2.4-.2.4s-.1-.2 0-.5c.1-.2.3-.3.4-.3zm1.1-1.4s-.1.2-.2.3c-.2.2-.3.3-.3.2 0 0 .1-.2.2-.3s.2-.2.3-.2zm1.5-.6c0 .1-.2 0-.4.1l-.4.2s.1-.2.4-.3c.2-.2.4-.1.4 0zm1.2-.3l-.2.2h-.3l.2-.2c.1-.1.2-.1.3 0z"/></g><g class="Z"><path d="M395.3 448.5h-15v-1.7l15-.1z"/></g><path d="M417.1 312.6l-6 18c-1.6 4.9-5.9 5.7-11 5.7H367v-7.4l30.3-4.3 7.2-18.5 12.6 6.5zm-53.8 14.7l-2.6-1.2s-2.8-5.5-3.5-5.3-.8 1.8.3 4.4l-3.5-1s-7.6 3.5-7.2 4c.3.5 1 1.6 2.6.7l3.8-1.8 4.1 1.2-5.3.7-5 4.5s1.6 1.2 3-.1l12.9 2.8 4 .2V329l-3.6-1.7z" class="c"/><path d="M350.1 333.3c.1 0 .3-.3.8-.9.2-.2.5-.5.9-.7s.9-.3 1.4-.4l3.9-.7c0-.1-1.8 0-3.9.3-.5.1-1.1.2-1.5.4-.4.3-.7.6-1 .9-.5.6-.7 1.1-.6 1.1zm2 .5s.1-.3.5-.3c.4-.1 1-.1 1.6-.2l2.3-.2c0-.1-1-.3-2.3-.2l-1.6.3c-.2.1-.4.3-.4.4-.2.1-.1.2-.1.2z" class="e"/><path d="M419.9 308.7l-2.6 8.6-16.2-7.3c.6-1.8 3.3-9.9 8.4-22.7 2.9-7.1 9.2-12.3 16.8-13.5 5.3-.9 11.1-1.6 15.5-1.5 9.1.1 22.5 5.8 24.3 14.7 1.4 6.8 0 18.8 0 33.4l-1.2 27.9-46.5 1.6 1.5-41.2z" class="V"/><g class="Z"><path d="M466.1 313.9c-5.7 1.2-11.5 0-17.3-.4-3.5-.2-7.4-.6-10.1 1.6-2.2 1.7-3.1 4.6-3.7 7.3-2.4 10.3-2.9 17.2-3.4 27.8l28 1.7 6.5-38z"/></g><g class="U"><path d="M418.7 278.5s.5.1 1.2.4c.8.3 1.8 1 2.7 2.2s1.5 2.9 1.6 4.9-.2 4.1-.5 6.4c-.7 4.5-1.8 8.5-2.6 11.4-.4 1.4-.7 2.6-.9 3.4s-.3 1.3-.3 1.3.2-.4.4-1.2c.3-.8.6-2 1.1-3.4.9-2.9 2-6.9 2.7-11.4.3-2.3.6-4.5.5-6.5s-.8-3.8-1.7-5-2.1-1.9-2.9-2.1c-.4-.1-.7-.2-1-.2-.2-.2-.3-.2-.3-.2zm-17 29.3s.8.6 2.3 1.3c1.4.8 3.5 1.7 5.7 2.8l5.9 2.5c1.5.6 2.5.9 2.5.8s-.9-.5-2.4-1.1l-5.8-2.6-5.8-2.7-2.4-1zm-7.5 44.1c-7.9 4.3-10.9 14.2-6.8 22.2l40.5 69.6 18.7-11.3-31.5-62.8 22.8-14.9"/><path d="M443.6 348.5l-55.6 2c-9 .3-16.1 7.8-16 16.8l2.3 79.4 23.4-.1-.8-75.1 46.7-1.2v-21.8z"/></g><g class="a"><path d="M396.9 374.3s0 .3.1.7l.1 2.1.2 7.8.3 25.6.1 25.6v7.8 2.1.7s0-.3-.1-.7l-.1-2.1-.2-7.8-.3-25.6-.1-25.6v-7.8-2.1c-.1-.5 0-.7 0-.7z"/><path d="M467.7 298.1h-16.8c-6.8 0-12.3 5.5-12.3 12.3V369H405c-4.7 0-8.5 3.8-8.5 8.5h76.8c3.7-.2 6.7-3.2 6.7-7v-60.1c-.1-6.8-5.6-12.3-12.3-12.3z"/></g><path d="M443.5 300c.1 0 .3 17.3.3 38.5l-.3 38.5c-.1 0-.3-17.2-.3-38.5l.3-38.5z" class="U"/><path d="M441.3 439.1v-61.6h-5.5v61.6c-3.3 6.6-11.2 11-20.8 14.7h48.8c-9.8-4-18.8-7.1-22.5-14.7z" class="a"/><defs ><path id="B" d="M361.5 222.8c0 .1-3.8.2-8.5.2s-8.5-.1-8.5-.2 3.8-.2 8.5-.2l8.5.2z"/><path id="C" d="M396.5 129.5l-.1-16c-4.7 0-9.5 1.9-13.2 5.2-4.3 3.8-7.1 9.6-6.4 16.6.1.8.2 1.5.4 2.3v.1h0l19.3-4.3v-3.9z"/><path id="D" d="M416.4 124.5c-2.7-5.6-8-10.2-15.6-10.9-.2 0-.4 0-.6-.1h-.4-1.2-.1 0 0l.1 16v3.8l19.3 4.2h0 0c.3-1.4.4-2.8.4-4.2.1-2.9-.6-6-1.9-8.8z"/><path id="E" d="M472.7 132.4c0 .1-10 .3-22.3.3s-22.3-.1-22.3-.3c0-.1 10-.3 22.3-.3l22.3.3z"/><path id="F" d="M399.1 238.2c0 .1-1.8.2-4.1.2s-4.1-.1-4.1-.2 1.8-.2 4.1-.2l4.1.2z"/><path id="G" d="M638.5 209.6c0 .1-26.3.3-58.7.3s-58.7-.1-58.7-.3 26.3-.3 58.7-.3l58.7.3z"/><path id="H" d="M369 251.6l2.5 2.4c.3.3.6.6 1 .7s.8.1 1.1-.2c.2-.3.3-.7.1-1-.1-.3-.4-.6-.6-.9l-2.5-3"/></defs></svg>