<?xml version="1.0" encoding="utf-8"?>
<!-- Generator: Adobe Illustrator 26.0.1, SVG Export Plug-In . SVG Version: 6.00 Build 0)  -->
<svg version="1.1" id="Layer_1" xmlns="http://www.w3.org/2000/svg" xmlns:xlink="http://www.w3.org/1999/xlink" x="0px" y="0px"
	 viewBox="0 0 750 500" style="enable-background:new 0 0 750 500;" xml:space="preserve">
<style type="text/css">
	.st0{fill:#FFFFFF;}
	.st1{fill:#314E52;stroke:#314E52;stroke-linecap:round;stroke-linejoin:round;stroke-miterlimit:10;}
	.st2{fill:#FFFFFF;stroke:#314E52;stroke-linecap:round;stroke-linejoin:round;stroke-miterlimit:10;}
	.st3{fill:#B0BBBD;stroke:#314E52;stroke-linecap:round;stroke-linejoin:round;stroke-miterlimit:10;}
	.st4{fill:none;stroke:#FFFFFF;stroke-linecap:round;stroke-linejoin:round;stroke-miterlimit:10;}
	.st5{fill:none;stroke:#FFFFFF;stroke-width:3;stroke-linecap:round;stroke-linejoin:round;stroke-miterlimit:10;}
	.st6{fill:#314E52;}
	.st7{font-family:'ArialMT';}
	.st8{font-size:17.5428px;}
	.st9{fill:none;stroke:#314E52;stroke-linecap:round;stroke-linejoin:round;stroke-miterlimit:10;}
	.st10{fill:none;stroke:#314E52;stroke-width:3;stroke-linecap:round;stroke-linejoin:round;stroke-miterlimit:10;}
	.st11{fill:none;stroke:#314E52;stroke-width:2;stroke-linecap:round;stroke-linejoin:round;stroke-miterlimit:10;}
	.st12{fill:none;stroke:#314E52;stroke-width:1;stroke-linecap:round;stroke-linejoin:round;stroke-miterlimit:9.9999;}
	.st13{fill:none;stroke:#314E52;stroke-width:0.9999;stroke-linecap:round;stroke-linejoin:round;stroke-miterlimit:9.9995;}
	.st14{fill:#FFB900;stroke:#314E52;stroke-linecap:round;stroke-linejoin:round;stroke-miterlimit:10;}
	.st15{fill:#FFFFFF;stroke:#314E52;stroke-miterlimit:10;}
	.st16{fill:none;stroke:#314E52;stroke-miterlimit:10;}
	.st17{fill:#FFB900;}
	.st18{font-size:29.2197px;}
</style>
<g id="BACKGROUND">
</g>
<g id="OBJECTS">
	<path class="st0" d="M143.2,311.4c-7.7,1-10,11-10,13.4c0,2.4,10.5-2.9,21.5,1.4c11,4.3,7.2,11.5,0.5,13.4
		c-6.7,1.9-12.9-6.2-18.6-6.2c-5.7,0-9.1,3.3-7.7,7.2c1.4,3.8,21.5,3.3,34.4,12c12.9,8.6,10,19.1,3.3,20.1c-6.7,1-10-9.6-18.6-15.8
		s-18.6-7.7-18.6-7.7s8.1,9.1,14.3,18.6s21,14.3,18.6,21.5s-7.7,9.6-12.9,5.3s-9.6-20.6-13.9-28.2s-8.1-10.5-8.1-10.5
		s3.8,11,7.2,26.3s1,23-4.8,21.5c-5.7-1.4-7.2-2.9-7.2-15.3s-0.5-27.3-0.5-27.3s0,0,0-0.1c-2.8,9.2-9.9,35.3-19.1,93.9h-5.7
		c9.9-62.6,17.1-88.5,19.8-96.9c-2.2-0.1-5.2,0.7-9.4,3.5c-11.5,7.7-24.9,10-26.8,1.9c-1.9-8.1,3.8-11.5,11-12
		c7.2-0.5,16.7-0.5,22.5-1.9c5.7-1.4,6.7-1.4,7.2-3.8s-8.1-5.7-13.9-5.3c-5.7,0.5-25.3,0.5-30.1-5.7c-4.8-6.2,3.3-10.5,9.6-9.1
		s21.5,6.2,27.7,7.7c6.2,1.4,10,2.4,10-3.3c0-5.7-10-15.3-16.7-20.1c-6.7-4.8-12.9-21.5-6.7-24.4s14.3,1.9,16.3,8.1
		c1.9,6.2,6.2,21,7.7,23.9c1.4,2.9,4.8-2.4,6.2-4.8c1.4-2.4-1-2.9-3.8-11.5c-2.9-8.6-10-10-15.8-27.7c-5.7-17.7-5.7-27.7,3.8-25.3
		c9.6,2.4,9.6,24.4,10,32.5c0.5,8.1,8.6,22,8.6,22s3.8-7.7,4.3-15.8c0,0-3.3-34,7.2-45c10.5-11,16.7,0.5,13.9,15.3
		c-2.9,14.8-13.4,25.8-15.8,32s-2.9,12.9-2.9,12.9s4.8,2.4,14.3-5.7s24.9-28.2,30.1-18.2s0.5,13.9-9.1,16.7s-22,5.3-22.5,8.1
		c-0.5,2.9,10.5-1.4,20.6,2.4c10,3.8,7.2,16.7,0,17.7C167.6,324.3,150.9,310.4,143.2,311.4z"/>
	<g>
		<g>
			<path class="st1" d="M213.2,371.3h-163c-3.6,0-6.5-2.9-6.5-6.5v-70.7c0-3.6,2.9-6.5,6.5-6.5h163c3.6,0,6.5,2.9,6.5,6.5v70.7
				C219.7,368.4,216.8,371.3,213.2,371.3z"/>
			<path class="st2" d="M217.6,364.9h-163c-3.6,0-6.5-2.9-6.5-6.5v-70.7c0-3.6,2.9-6.5,6.5-6.5h163c3.6,0,6.5,2.9,6.5,6.5v70.7
				C224.1,362,221.2,364.9,217.6,364.9z"/>
			<path class="st3" d="M224.1,295.5v-7.8c0-3.6-2.9-6.5-6.5-6.5h-163c-3.6,0-6.5,2.9-6.5,6.5v7.8H224.1z"/>
		</g>
		<g>
			<circle class="st1" cx="220.7" cy="284.6" r="7.2"/>
			<g>
				<line class="st4" x1="216.7" y1="280.7" x2="224.6" y2="288.6"/>
				<line class="st4" x1="224.6" y1="280.7" x2="216.7" y2="288.6"/>
			</g>
		</g>
		<g>
			<circle class="st1" cx="138.4" cy="311.7" r="13.6"/>
			<g>
				<line class="st5" x1="131" y1="304.3" x2="145.9" y2="319.2"/>
				<line class="st5" x1="145.9" y1="304.3" x2="131" y2="319.2"/>
			</g>
		</g>
		<path class="st6" d="M174.1,355.6h-71.7c-3.3,0-6-2.7-6-6v-12.8c0-3.3,2.7-6,6-6h71.7c3.3,0,6,2.7,6,6v12.8
			C180.1,352.9,177.4,355.6,174.1,355.6z"/>
		<text transform="matrix(1 0 0 1 122.8919 349.7409)" class="st0 st7 st8">OK</text>
	</g>
	<g>
		<g>
			<path class="st1" d="M195.3,437.6h78.2l32.8-0.4c0,0-10.6-38.8-19.5-78.8c-1.7-7.6-12.2-46.8-14.3-50.4
				c-2.7-4.8-7.8-7.7-13.3-7.7l-17.9-1.1c0,0-48.5-0.8-69.5,8.8s-11.4,28.1-11.4,28.1L195.3,437.6z"/>
			<path class="st2" d="M195.3,437.6h23.6c-7.1-22.2-28.3-88.8-34.3-107.6c-6.4-20.3-19.8-16-22.5-14.9c-7.6,9.5-1.7,21-1.7,21
				L195.3,437.6z"/>
		</g>
		<g>
			<g>
				<g>
					<path class="st2" d="M423,371.8c0,0,6-0.8,10.9,2.2s15.3,12.3,20.5,13.7c5.2,1.4,9.6,3,16.1,3c6.6,0,9.6-0.8,8.2,1.9
						c-1.4,2.7-4.1,3.3-7.1,3s-9.6-1.4-9.6-1.4s3,1.1,4.4,8.2c1.4,7.1-1.4,10.9-3.6,12.3c-2.2,1.4-3.8-3-3.8-3s-2.5,3.8-5.2,3.3
						s0-3,0.3-7.1s-3.8-11.2-6-12.3c-2.2-1.1-2.2-1.1-2.2-1.1s-1.4,5.7,0,9s6,9,4.4,11.2c-1.6,2.2-5.2-0.3-7.1-3
						c-1.9-2.7-2.7-8.8-3.3-11.8c-0.5-3-4.1-8.8-5.7-9.3s-3.3-0.5-3.8,0.5s-2.5,1.9,0.5,8.2s6.8,9.3,5.7,11.8
						c-1.1,2.5-4.6,1.6-7.9-3.8c-3.3-5.5-5.2-17-4.6-18.6c0.5-1.6-3.8-3-3.8-3L423,371.8z"/>
					<path class="st9" d="M456.4,394.2c0,0,6,5.2,3.8,13.7"/>
				</g>
				<polygon class="st3" points="424.9,368.5 421.2,396 378.1,409 370.2,372.9 				"/>
			</g>
			<path class="st1" d="M375.2,437.6c-4.6-13.8-41.4-125.4-45.8-129.8c-4.6-4.7-26.8-8.5-26.8-8.5l12.2,138.4H375.2z"/>
			<path class="st1" d="M369.8,252.7c0,0-0.5,26.1,4.3,38.7s5.3,14.7,5.3,14.7s-29.4,0.3-40-3c-10.6-3.3-15.7-6.1-15.7-6.1l3-26.6
				C326.8,270.5,363.5,269.7,369.8,252.7z"/>
			<g>
				<path class="st2" d="M372.8,221.4c0,0,1.8,25.3-4,43s-20.8,18.7-26.3,16.7s-7.8-7.1-13.4-3.3s-7.6,21-7.6,21l-31.9-14.4l9.4-58
					C298.9,226.4,345.5,209.5,372.8,221.4z"/>
				<path class="st10" d="M353.4,226.7c-1.6-0.8-3.4-1.3-5.3-1.3c-3,0-5.7,1.1-7.7,2.9"/>
				<path class="st10" d="M373.2,230.7c-1.7-0.5-3.4-0.6-5.1-0.3"/>
				<path class="st6" d="M350.2,241.6c-0.5,1.5-1.7,2.4-2.7,2.1c-1-0.3-1.4-1.8-0.9-3.2c0.5-1.5,1.7-2.4,2.7-2.1
					C350.3,238.7,350.7,240.1,350.2,241.6z"/>
				<path class="st6" d="M368.2,245.3c-0.5,1.5-1.7,2.4-2.7,2.1s-1.4-1.8-0.9-3.2c0.5-1.5,1.7-2.4,2.7-2.1
					C368.3,242.4,368.7,243.9,368.2,245.3z"/>
				<path class="st9" d="M361,246.2c0,0-0.5,4.4,0.9,7c1.4,2.6,0.7,4.1-1.5,4.8s-5.4,0.5-5.9-2.6"/>
				<path class="st11" d="M342.5,255.4c0,0,3.2,9.5,13.1,9.2"/>
				
					<ellipse transform="matrix(0.7071 -0.7071 0.7071 0.7071 -68.369 316.9783)" class="st12" cx="348.4" cy="241" rx="11.6" ry="11.6"/>
				<ellipse class="st13" cx="372.2" cy="244.3" rx="11" ry="11"/>
				<line class="st9" x1="360" y1="242.1" x2="361.2" y2="242.1"/>
				<line class="st9" x1="372.2" y1="244.3" x2="384.4" y2="244"/>
				<line class="st9" x1="337.7" y1="239.4" x2="330.1" y2="240.3"/>
			</g>
			<path class="st3" d="M368,437.6h31.1c-3.6-8.5-32.7-77.5-36.8-92.1c-4.4-15.6-10.9-31.7-18.1-36.9s-18.9-8.2-17.5,3.3L368,437.6z
				"/>
			<path class="st14" d="M343.2,335.3l12.2,38.6c0.2,0.6,0.8,1,1.5,0.9l0,0c0.9-0.1,1.4-1,1.1-1.8l-12.3-37.1L343.2,335.3z"/>
			<path class="st3" d="M343.9,364.1c0,0,6.3-15.6,7.4-23.2c1.1-7.7,3-13.7,4.4-17.5c1.4-3.8,0.5-9-2.5-13.4
				c-3-4.4-21.1-12.6-24.6-12.6c-3.6,0-5.7,5.7-3.8,10.1C326.7,311.9,343.9,364.1,343.9,364.1z"/>
			<path class="st14" d="M348.2,326.3c1.4-8,2.1-14.3,2.4-18.8c-6-4.4-19-10.1-22-10.1c-3.6,0-5.7,5.7-3.8,10.1
				c1.4,3.1,10.6,30.7,15.7,46.2C342.3,349.6,345.7,340.4,348.2,326.3z"/>
			<path class="st3" d="M319.8,437.6l-1.6-72.5c-0.5-16.4-21.1-58.3-40.2-60.4c-19.1-2.2-35.3,3.6-36.7,7.9
				c-1.3,4.1-19.9,109.3-22.6,125H319.8z"/>
			<path class="st14" d="M297.5,334.8l-0.5,40.4c0,0.7,0.5,1.2,1.1,1.4l0,0c0.8,0.2,1.6-0.5,1.6-1.3v-39.1L297.5,334.8z"/>
			<g>
				<path class="st2" d="M364.7,394.2c0,0,14,0.8,21.1-7.4c7.1-8.2,12.6-18.1,20.2-20.2s13.7,0.5,13.1,4.4s-3.6,1.1-7.4,1.1
					s-11.8,6.6-11.8,6.6s6-1.4,11.2-1.4s9.3,5.2,9,8.5s-3.3,2.7-6.3,1.4c-3-1.4-4.9-3-7.9-2.5s-9.3,3.6-9.3,3.6s11.5-0.8,15.3,1.9
					c3.8,2.7,6.6,8.2,3.3,9.6c-3.3,1.4-4.6-4.6-10.7-4.6s-8.8,1.9-8.8,1.9s7.1,0.5,9,3.8c1.9,3.3,1.9,8.2-0.3,7.9
					c-2.2-0.3-4.4-4.4-7.7-5.7c-3.3-1.4-7.7,0.3-8.8,1.1c-1.1,0.8-4.1,4.4-10.1,4.9s-13.7-3.6-13.7-3.6L364.7,394.2z"/>
				<path class="st3" d="M243.3,309.4c0,0-27.6,20.8-36.1,57.2s11.5,55.8,38,61.8s121.7-5.2,122.5-5.7c0.8-0.5,0.8-31.2,0.8-31.2
					s-55.5-3-69.5-6.3c-14-3.3-16.1-5.2-16.1-5.2s-3-14.8,4.1-29"/>
				<path class="st9" d="M283,380c0,0-8.5-2.5-14.5-5.2"/>
				<path class="st9" d="M225.8,374.5c7.6-2.9,19.5-6.1,31.2-3.3"/>
				<path class="st9" d="M217.6,378.3c0,0,1.8-1,4.8-2.4"/>
				<path class="st9" d="M264.6,364.6c0,0,8.2,2.2,11.8,10.4"/>
				<path class="st9" d="M249.3,378.3c3.5-1.7,8.1-3.3,12.6-2.7"/>
				<path class="st9" d="M242.7,382.4c0,0,1.4-1.2,3.8-2.6"/>
			</g>
			<path class="st3" d="M271.7,290.2c0,0-11.8,3.8-19.7,9.6s-13.7,10.9-10.7,12.9c3,1.9,11.6,2.7,29,8.5c19.6,6.5,35.6,23,39.4,28.4
				c3.8,5.5,7.4,15.9,8.5,15.6c1.1-0.3-1.9-29.5-3.6-44.6c-1.6-15-3.3-19.7-3.3-19.7S289.5,284.8,271.7,290.2z"/>
			<path class="st14" d="M271.7,290.2c0,0-11.8,3.8-19.7,9.6c-1,0.7-2,1.4-2.9,2.2c-0.3,0.9-0.2,1.6,0.6,2.1
				c4,2.4,21.7,0.3,42.7,16.6c13.3,10.4,21,20.4,25,26.4c-0.8-8.9-1.9-19.3-2.7-26.5c-0.9-8-1.7-13.1-2.4-16l-3.6-5.5
				C302.3,295,285.7,285.9,271.7,290.2z"/>
			<path class="st1" d="M331.3,222.6c0,0-5.1,69.8-3.3,82.2c1.8,12.4,3,14.9,3,14.9s-28.3-1.8-48.3-13.2s-26.1-18.5-26.1-18.5
				s24.3-34.9,24.8-53.7C281.5,234.5,311.9,218.6,331.3,222.6z"/>
			<g>
				<path class="st3" d="M365.5,196.4c0,0-6.1-14-13.9-21.6s-26.6-10.9-43.3-6.3c-16.7,4.6-29.1,15.9-28.1,18c1,2,4.8,2.5,4.8,2.5
					s-3.3,6.6-5.1,16.2c-1.8,9.6,0,18,0,18s7.8-12.1,39.5-18.7s44.5-6.3,45.6-5.8C366,199.1,365.5,196.4,365.5,196.4z"/>
				<path class="st3" d="M280,243.9c0,0,19.7-13.7,51.4-19c31.6-5.3,41-1.3,41.8-1.5s2.3-2.3,2.3-5.6c0-1.9-1.2-6.9-2.2-10.7
					c-1.1-4.4-3.8-8.3-7.6-10.7c-1.5-0.9-3.1-1.6-4.6-1.6c-5.1,0-32.9-0.7-60.2,12.9c-19.5,9.7-21.8,15.9-21.8,18.7
					c0,2.8-2,13.4-0.5,15.4C280,243.9,280,243.9,280,243.9z"/>
				<path class="st9" d="M288.7,214.3c0,0-2.5,17.2-1.5,20c0.9,2.8,2.2,0.9,2.2,0.9"/>
				<path class="st9" d="M296.9,225.5c0,1,0,1.8,0.1,2.3c0.3,3.1,2.2,3.1,2.2,3.1"/>
				<path class="st9" d="M297.3,210.3c0,0-0.3,6.3-0.4,11.5"/>
				<path class="st9" d="M308.5,210.2c-0.4,6-0.8,14.6,0.1,15.8c1.5,1.8,3.7,0.9,3.7,0.9"/>
				<path class="st9" d="M309,204.5c0,0-0.1,1.4-0.3,3.5"/>
				<path class="st9" d="M365.9,215c-0.2,3.6-1.2,4.2-1.2,4.2"/>
				<path class="st9" d="M360.9,194.8c0,0,4.6,11.9,4.9,17.7"/>
				<path class="st9" d="M368.8,200.8c0,0,5.1,12.1,3,18.7"/>
				<path class="st9" d="M325,220.8c0.4,0.9,1,1.6,1.6,2"/>
				<path class="st9" d="M323.8,200.1c0,0-1.4,11.3,0.3,18.1"/>
			</g>
		</g>
	</g>
	<g>
		<g>
			<path class="st2" d="M505,356.9h-30.7c-0.9,0-1.7,0.6-1.9,1.5l-6.2,23.5c-0.2,0.8,0.4,1.7,1.3,1.7h32c0.6,0,1.1-0.4,1.3-1
				l6.1-23.2C507.3,358.1,506.3,356.9,505,356.9z"/>
			<path class="st3" d="M506.4,361.5l0.6-2.1c0.3-1.2-0.6-2.5-1.9-2.5h-30.7c-0.9,0-1.7,0.6-1.9,1.5l-0.8,3.1H506.4z"/>
		</g>
		<g>
			<path class="st1" d="M514.1,359.3c0,4-3.2,7.2-7.2,7.2s-7.2-3.2-7.2-7.2s3.2-7.2,7.2-7.2S514.1,355.4,514.1,359.3z"/>
			<g>
				<line class="st4" x1="503" y1="355.4" x2="510.9" y2="363.3"/>
				<line class="st4" x1="510.9" y1="355.4" x2="503" y2="363.3"/>
			</g>
		</g>
	</g>
	<g>
		<rect x="389.9" y="431.8" class="st15" width="204.6" height="5.8"/>
		<rect x="478.5" y="431.8" class="st3" width="116" height="5.8"/>
		<polygon class="st1" points="617.5,343.2 501.9,343.2 478.5,431.8 594.1,431.8 		"/>
	</g>
	<line class="st16" x1="68.9" y1="437.6" x2="687.7" y2="437.6"/>
	<g>
		<g>
			<path class="st2" d="M474.8,315.4h-46.7c-1.4,0-2.5,0.9-2.9,2.2l-9.4,35.8c-0.3,1.3,0.6,2.5,2,2.5h48.7c0.9,0,1.7-0.6,2-1.5
				l9.3-35.3C478.2,317.3,476.8,315.4,474.8,315.4z"/>
			<path class="st3" d="M476.9,322.4l0.9-3.2c0.5-1.9-0.9-3.7-2.9-3.7h-46.7c-1.4,0-2.5,0.9-2.9,2.2l-1.3,4.8H476.9z"/>
		</g>
		<g>
			<circle class="st1" cx="477.6" cy="317.1" r="7.2"/>
			<g>
				<line class="st4" x1="473.7" y1="313.2" x2="481.6" y2="321.1"/>
				<line class="st4" x1="481.6" y1="313.2" x2="473.7" y2="321.1"/>
			</g>
		</g>
	</g>
	<g>
		<g>
			<path class="st2" d="M537.9,308.7h-30.7c-0.9,0-1.7,0.6-1.9,1.5l-6.2,23.5c-0.2,0.8,0.4,1.7,1.3,1.7h32c0.6,0,1.1-0.4,1.3-1
				l6.1-23.2C540.1,309.9,539.1,308.7,537.9,308.7z"/>
			<path class="st3" d="M539.2,313.3l0.6-2.1c0.3-1.2-0.6-2.5-1.9-2.5h-30.7c-0.9,0-1.7,0.6-1.9,1.5l-0.8,3.1H539.2z"/>
		</g>
		<g>
			<circle class="st1" cx="539.8" cy="311.2" r="7.2"/>
			<g>
				<line class="st4" x1="535.8" y1="307.2" x2="543.7" y2="315.1"/>
				<line class="st4" x1="543.7" y1="307.2" x2="535.8" y2="315.1"/>
			</g>
		</g>
	</g>
	<g>
		<g>
			<path class="st1" d="M382.8,140.8H273.4c-3.6,0-6.5-2.9-6.5-6.5V63.6c0-3.6,2.9-6.5,6.5-6.5h109.4c3.6,0,6.5,2.9,6.5,6.5v70.7
				C389.3,137.9,386.4,140.8,382.8,140.8z"/>
			<path class="st2" d="M387.2,134.5H277.8c-3.6,0-6.5-2.9-6.5-6.5V57.3c0-3.6,2.9-6.5,6.5-6.5h109.4c3.6,0,6.5,2.9,6.5,6.5V128
				C393.7,131.6,390.8,134.5,387.2,134.5z"/>
			<path class="st3" d="M393.7,65.1v-7.8c0-3.6-2.9-6.5-6.5-6.5H277.8c-3.6,0-6.5,2.9-6.5,6.5v7.8H393.7z"/>
		</g>
		<g>
			<circle class="st1" cx="390.3" cy="54.2" r="7.2"/>
			<g>
				<line class="st4" x1="386.3" y1="50.3" x2="394.2" y2="58.2"/>
				<line class="st4" x1="394.2" y1="50.3" x2="386.3" y2="58.2"/>
			</g>
		</g>
		<text transform="matrix(1 0 0 1 293.1241 116.6112)" class="st6 st7 st8">Attention</text>
		<g>
			<path class="st6" d="M329.8,73.5l-11.5,19.9c-1.2,2.1,0.3,4.7,2.7,4.7h23c2.4,0,3.9-2.6,2.7-4.7l-11.5-19.9
				C334,71.5,331,71.5,329.8,73.5z"/>
			<g>
				<path class="st17" d="M330.4,92c0-0.3,0.1-0.6,0.2-0.8s0.3-0.5,0.5-0.7c0.2-0.2,0.4-0.3,0.7-0.4c0.3-0.1,0.5-0.2,0.9-0.2
					c0.3,0,0.6,0.1,0.8,0.2c0.3,0.1,0.5,0.3,0.7,0.4s0.3,0.4,0.5,0.7s0.2,0.5,0.2,0.8c0,0.3-0.1,0.6-0.2,0.8s-0.3,0.5-0.5,0.7
					c-0.2,0.2-0.4,0.3-0.7,0.4c-0.3,0.1-0.5,0.2-0.8,0.2c-0.3,0-0.6-0.1-0.9-0.2c-0.3-0.1-0.5-0.3-0.7-0.4c-0.2-0.2-0.3-0.4-0.5-0.7
					C330.4,92.5,330.4,92.3,330.4,92z M334.3,76.2v7c0,0.7,0,1.5-0.1,2.2c-0.1,0.7-0.2,1.5-0.4,2.2h-2.6c-0.1-0.8-0.3-1.5-0.4-2.2
					c-0.1-0.7-0.1-1.5-0.1-2.2v-7C330.8,76.2,334.3,76.2,334.3,76.2z"/>
			</g>
		</g>
	</g>
	<g>
		<g>
			<path class="st1" d="M556.6,284.7H447.2c-3.6,0-6.5-2.9-6.5-6.5v-70.7c0-3.6,2.9-6.5,6.5-6.5h109.4c3.6,0,6.5,2.9,6.5,6.5v70.7
				C563.1,281.8,560.2,284.7,556.6,284.7z"/>
			<path class="st2" d="M561.1,278.3H451.7c-3.6,0-6.5-2.9-6.5-6.5v-70.7c0-3.6,2.9-6.5,6.5-6.5h109.4c3.6,0,6.5,2.9,6.5,6.5v70.7
				C567.5,275.4,564.6,278.3,561.1,278.3z"/>
			<path class="st3" d="M567.5,209v-7.8c0-3.6-2.9-6.5-6.5-6.5H451.7c-3.6,0-6.5,2.9-6.5,6.5v7.8H567.5z"/>
		</g>
		<g>
			<circle class="st1" cx="564.1" cy="198.1" r="7.2"/>
			<g>
				<line class="st4" x1="560.1" y1="194.2" x2="568" y2="202"/>
				<line class="st4" x1="568" y1="194.2" x2="560.1" y2="202"/>
			</g>
		</g>
		<text transform="matrix(1 0 0 1 477.0231 251.8625)" class="st6 st7 st18">ADS</text>
	</g>
	<g>
		<g>
			<path class="st1" d="M636.1,180.3h-163c-3.6,0-6.5-2.9-6.5-6.5v-70.7c0-3.6,2.9-6.5,6.5-6.5h163c3.6,0,6.5,2.9,6.5,6.5v70.7
				C642.5,177.4,639.6,180.3,636.1,180.3z"/>
			<path class="st2" d="M640.5,173.9h-163c-3.6,0-6.5-2.9-6.5-6.5V96.7c0-3.6,2.9-6.5,6.5-6.5h163c3.6,0,6.5,2.9,6.5,6.5v70.7
				C646.9,171,644,173.9,640.5,173.9z"/>
			<path class="st3" d="M646.9,104.5v-7.8c0-3.6-2.9-6.5-6.5-6.5h-163c-3.6,0-6.5,2.9-6.5,6.5v7.8H646.9z"/>
		</g>
		<g>
			<circle class="st1" cx="643.5" cy="93.7" r="7.2"/>
			<g>
				<line class="st4" x1="639.6" y1="89.7" x2="647.5" y2="97.6"/>
				<line class="st4" x1="647.5" y1="89.7" x2="639.6" y2="97.6"/>
			</g>
		</g>
		<text transform="matrix(1 0 0 1 509.7879 142.4237)" class="st6 st7 st8">CLICK HERE</text>
	</g>
	<g>
		<g>
			<g>
				<path class="st1" d="M202.9,241H93.5c-3.6,0-6.5-2.9-6.5-6.5V103.1c0-3.6,2.9-6.5,6.5-6.5h109.4c3.6,0,6.5,2.9,6.5,6.5v131.5
					C209.3,238.1,206.4,241,202.9,241z"/>
				<path class="st2" d="M207.3,234.6H97.9c-3.6,0-6.5-2.9-6.5-6.5V96.7c0-3.6,2.9-6.5,6.5-6.5h109.4c3.6,0,6.5,2.9,6.5,6.5v131.5
					C213.7,231.7,210.8,234.6,207.3,234.6z"/>
				<rect x="117.7" y="155.9" class="st2" width="69.8" height="14.6"/>
				<rect x="117.7" y="181.2" class="st2" width="69.8" height="14.6"/>
				<path class="st3" d="M213.7,149.6V96.7c0-3.6-2.9-6.5-6.5-6.5H97.9c-3.6,0-6.5,2.9-6.5,6.5v52.9H213.7z"/>
			</g>
			<g>
				<circle class="st1" cx="210.3" cy="93.7" r="7.2"/>
				<g>
					<line class="st4" x1="206.4" y1="89.7" x2="214.3" y2="97.6"/>
					<line class="st4" x1="214.3" y1="89.7" x2="206.4" y2="97.6"/>
				</g>
			</g>
			<text transform="matrix(1 0 0 1 113.6602 216.7737)" class="st6 st7 st8">Subscribe</text>
		</g>
		<g>
			<polygon class="st0" points="171.4,113.1 137.5,113.1 154.5,124.3 			"/>
			<polygon class="st0" points="154.5,126.7 135.6,114.3 135.6,137.9 173.3,137.9 173.3,114.3 			"/>
		</g>
	</g>
</g>
</svg>
