<?xml version="1.0" encoding="utf-8"?>
<!-- Generator: Adobe Illustrator 27.5.0, SVG Export Plug-In . SVG Version: 6.00 Build 0)  -->
<svg version="1.1" id="Ñëîé_1" xmlns="http://www.w3.org/2000/svg" xmlns:xlink="http://www.w3.org/1999/xlink" x="0px" y="0px"
	 viewBox="0 0 5950.438 2499.391" style="enable-background:new 0 0 5950.438 2499.391;" xml:space="preserve">
<g>
	<g>
		<rect y="0" style="fill:#FFFFFF;" width="5950.438" height="2499.391"/>
	</g>
	<g>
		<g>
			<g>
				<g>
					<g>
						<path style="fill:#F0F0F0;" d="M2448.745,1583.14c-48.858-0.303-97.364-1.335-144.176-3.066l1.459-12.072
							c46.409,1.715,94.506,2.74,142.959,3.039L2448.745,1583.14z M2592.946,1582.021l-0.84-12.092
							c46.823-0.995,94.905-2.629,142.913-4.853l1.823,12.057C2688.509,1579.374,2640.096,1581.019,2592.946,1582.021z
							 M2160.898,1572.29c-48.923-3.541-96.863-7.988-142.482-13.217l4.435-11.848c45.096,5.168,92.495,9.565,140.88,13.067
							L2160.898,1572.29z M2880.188,1568.795l-2.74-12.006c46.744-3.263,94.432-7.125,141.738-11.476l3.588,11.935
							C2975.181,1561.626,2927.209,1565.511,2880.188,1568.795z M3164.436,1542.698l-4.392-11.854
							c46.267-5.246,93.314-11.07,139.834-17.311l5.154,11.761C3258.259,1531.567,3210.952,1537.424,3164.436,1542.698z
							 M1878.219,1539.468c-47.848-8.008-93.659-17.183-136.168-27.272l8.62-11.119c41.765,9.912,86.808,18.932,133.876,26.811
							L1878.219,1539.468z M3444.421,1505.165l-5.887-11.655c45.637-7.054,91.869-14.674,137.41-22.644l6.591,11.537
							C3536.763,1490.414,3490.293,1498.071,3444.421,1505.165z M1612.929,1475.583c-43.164-14.583-82.491-30.697-116.889-47.896
							l14.663-8.977c33.387,16.693,71.615,32.353,113.622,46.545L1612.929,1475.583z M3719.167,1457.1l-7.282-11.411
							c44.993-8.793,90.189-18.105,134.325-27.672l7.976,11.265C3809.819,1438.9,3764.395,1448.259,3719.167,1457.1z
							 M3987.417,1398.927l-8.677-11.107c43.972-10.522,87.883-21.543,130.513-32.759l9.389,10.926
							C4075.781,1377.264,4031.631,1388.348,3987.417,1398.927z M1399.733,1367.07c-27.839-22.609-49.769-46.945-65.183-72.336
							l20.728-3.852c14.777,24.34,35.814,47.681,62.529,69.374L1399.733,1367.07z M4247.628,1330.416l-10.122-10.725
							c42.608-12.315,84.896-25.118,125.687-38.055l10.876,10.497C4333.031,1305.148,4290.49,1318.028,4247.628,1330.416z
							 M4497.636,1251.041l-11.66-10.237c40.804-14.233,80.982-28.948,119.416-43.734l12.485,9.934
							C4579.173,1221.894,4538.721,1236.709,4497.636,1251.041z M1307.59,1215.215c-0.463-5.154-0.698-10.402-0.698-15.596
							c0-21.086,3.837-42.903,11.4-64.847l21.482,2.269c-7.31,21.195-11.015,42.25-11.015,62.578c0,4.994,0.224,10.04,0.669,14.997
							L1307.59,1215.215z M4734.261,1159.85l-13.36-9.579c38.38-16.389,75.675-33.232,110.856-50.056l14.3,9.154
							C4810.57,1126.338,4772.958,1143.322,4734.261,1159.85z M1379.657,1062.029l-20.344-4.435
							c16.934-23.775,38.171-48.091,63.123-72.273l18.991,5.999C1416.991,1015.004,1396.206,1038.794,1379.657,1062.029z
							 M4952.312,1055.286l-15.318-8.634c34.825-18.918,67.885-38.22,98.265-57.373l16.436,7.982
							C5020.958,1016.636,4987.521,1036.159,4952.312,1055.286z M5142.303,934.894l-17.66-7.137
							c29.006-21.979,55.144-44.19,77.69-66.015l18.984,6.007C5198.372,889.962,5171.786,912.553,5142.303,934.894z
							 M1519.06,925.286l-17.667-7.133c27.358-20.746,57.827-41.736,90.563-62.387l16.436,7.98
							C1576.09,884.125,1546.034,904.829,1519.06,925.286z M1706.628,806.359l-15.325-8.634
							c33.401-18.152,69.141-36.353,106.233-54.1l14.3,9.154C1775.096,770.358,1739.698,788.384,1706.628,806.359z
							 M5284.514,795.496l-20.336-4.443c18.069-25.321,31.526-50.553,39.996-74.995l21.475,2.277
							C5316.926,743.517,5303.085,769.478,5284.514,795.496z M1922.671,702.705l-13.361-9.579
							c37.27-15.923,76.419-31.79,116.359-47.163l12.485,9.934C1998.514,671.156,1959.657,686.903,1922.671,702.705z
							 M5314.667,638.485c-2.303-26.238-10.944-51.904-25.686-76.283l20.308-4.538l0.221,0.36
							c15.585,25.768,24.6,52.528,26.995,79.873L5314.667,638.485z M2157.56,612.146l-11.663-10.237
							c39.996-13.955,81.566-27.784,123.544-41.105l10.876,10.497C2238.602,584.537,2197.3,598.28,2157.56,612.146z
							 M2406.001,533.236l-10.122-10.725c42.018-12.145,85.409-24.117,128.968-35.583l9.396,10.926
							C2490.926,509.257,2447.78,521.162,2406.001,533.236z M5225.908,492.225c-25.565-20.71-56.859-40.359-93.008-58.403
							l14.646-8.984c37.438,18.684,69.878,39.059,96.421,60.561L5225.908,492.225z M2664.745,465.085l-8.684-11.105
							c43.669-10.45,88.491-20.669,133.221-30.368l7.979,11.265C2752.767,444.526,2708.18,454.69,2664.745,465.085z
							 M2931.583,407.192l-7.289-11.409c22.828-4.465,46.029-8.882,68.963-13.128c22.351-4.14,45.114-8.24,67.661-12.187
							l6.598,11.537c-22.432,3.927-45.082,8.006-67.319,12.124C2977.381,398.356,2954.293,402.749,2931.583,407.192z
							 M5019.204,387.331c-38.541-13-81.061-25.037-126.385-35.778l8.606-11.123c46.278,10.968,89.733,23.271,129.16,36.57
							L5019.204,387.331z M3204.92,359.35l-5.887-11.655c46.274-7.159,93.168-13.934,139.386-20.137l5.154,11.757
							C3297.6,345.487,3250.952,352.228,3204.92,359.35z M4758.911,324.777c-43.829-7.324-90.367-13.821-138.321-19.308
							l4.427-11.848c48.591,5.56,95.766,12.143,140.215,19.572L4758.911,324.777z M3483.396,321.992l-4.392-11.852
							c47.129-5.349,94.791-10.249,141.66-14.568l3.594,11.935C3577.653,311.802,3530.261,316.674,3483.396,321.992z
							 M3765.993,296.019l-2.74-12.006c48.036-3.356,96.264-6.168,143.34-8.354l1.829,12.057
							C3861.649,289.891,3813.727,292.683,3765.993,296.019z M4479.702,292.429c-45.904-3.316-93.78-5.902-142.297-7.689
							l1.452-12.072c48.976,1.802,97.314,4.413,143.678,7.763L4479.702,292.429z M4051.331,282.846l-0.847-12.092
							c38.025-0.813,76.11-1.225,113.195-1.225c0.139,0,0.281,0,0.409,0c10.243,0,20.439,0.031,30.597,0.092l-0.235,12.1
							c-10.2-0.063-20.49-0.152-30.732-0.092C4126.896,281.629,4089.088,282.039,4051.331,282.846z"/>
					</g>
				</g>
			</g>
			<g>
				<g>
					<g>
						<path style="fill:#F0F0F0;" d="M3614.14,2159.019c-0.071,0-0.135,0-0.206,0c-15.215,0-30.487-0.057-45.812-0.173l0.299-12.1
							c15.293,0.116,30.458,0.065,45.723,0.173c46.534,0,93.3-0.561,139.012-1.666l0.954,12.088
							C3708.084,2158.456,3660.991,2159.019,3614.14,2159.019z M3382.27,2154.629c-61.119-2.29-123.413-5.518-185.151-9.591
							l2.591-12.013c61.368,4.047,123.288,7.255,184.041,9.532L3382.27,2154.629z M3939.719,2149.686l-2.313-12.033
							c62.023-3.649,123.555-8.435,182.891-14.219l3.794,11.915C4064.268,2141.182,4002.234,2146.005,3939.719,2149.686z
							 M3013.092,2130.353c-60.539-5.664-121.946-12.244-182.521-19.556l4.662-11.822c60.237,7.273,121.306,13.815,181.503,19.448
							L3013.092,2130.353z M4306.174,2113.666l-5.431-11.722c60.735-8.62,120.131-18.565,176.539-29.559l7.264,11.413
							C4427.537,2094.907,4367.525,2104.957,4306.174,2113.666z M2649.911,2086.563c-30.042-4.437-60.493-9.14-90.509-13.981
							c-29.479-4.754-59.094-9.731-88.026-14.792l6.592-11.537c28.775,5.034,58.233,9.985,87.552,14.714
							c29.857,4.813,60.148,9.492,90.029,13.906L2649.911,2086.563z M4657.147,2044.737l-9.325-10.946
							c56.969-14.863,111.323-31.26,161.551-48.737l11.638,10.245C4770.043,2013.031,4714.911,2029.665,4657.147,2044.737z
							 M2295.386,2024.552c-58.243-11.838-116.455-24.539-173.018-37.746l8.499-11.147c56.247,13.132,114.138,25.762,172.058,37.533
							L2295.386,2024.552z M1952.802,1944.508c-56.129-14.932-111.832-30.723-165.562-46.935l10.471-10.623
							c53.403,16.114,108.771,31.81,164.566,46.651L1952.802,1944.508z M4971.812,1934.277l-14.187-9.209
							c47.723-22.508,91.136-46.732,129.043-71.998l16.827,7.728C5064.788,1886.597,5020.485,1911.319,4971.812,1934.277z
							 M1626.322,1845.9c-53.19-18.166-105.514-37.19-155.519-56.548l12.535-9.914c49.663,19.223,101.635,38.122,154.469,56.166
							L1626.322,1845.9z M5208.533,1775.076l-19.24-5.751c29.06-29.775,52.411-61.223,69.397-93.472l0.797-1.518l21.013,3.354
							l-0.83,1.575C5262.263,1712.307,5238.325,1744.55,5208.533,1775.076z M1321.634,1727.757
							c-49.193-21.683-96.852-44.182-141.649-66.867l14.763-8.925c44.431,22.5,91.705,44.816,140.51,66.328L1321.634,1727.757z
							 M1047.386,1588.508c-43.324-25.573-84.214-51.874-121.534-78.173l17.197-7.472c36.928,26.022,77.402,52.053,120.288,77.37
							L1047.386,1588.508z M5312.955,1575.54l-21.817-0.827c1.392-11.216,2.096-22.646,2.096-33.974
							c-0.003-22.077-2.673-44.678-7.94-67.175l21.688-1.554c5.381,23.008,8.115,46.131,8.118,68.728
							C5315.101,1552.342,5314.378,1564.05,5312.955,1575.54z M818.082,1426.127c-34.117-29.85-64.518-60.25-90.36-90.354
							l19.753-5.191c25.465,29.667,55.439,59.638,89.086,89.078L818.082,1426.127z M5245.878,1374.558
							c-17.525-31.313-40.132-63.133-67.191-94.575l19.745-5.203c27.508,31.965,50.499,64.333,68.333,96.197L5245.878,1374.558z
							 M659.588,1239.532c-18.834-33.807-32.288-67.811-39.979-101.066l21.689-1.536c7.534,32.568,20.721,65.89,39.188,99.037
							L659.588,1239.532z M5089.452,1190.95c-31.871-27.832-67.739-55.809-106.607-83.158l17.19-7.48
							c39.324,27.67,75.622,55.986,107.888,84.162L5089.452,1190.95z M635.742,1035.777l-21.81-0.851
							c4.406-34.648,15.428-69.002,32.757-102.112l21.005,3.368C650.794,968.471,640.042,1001.98,635.742,1035.777z
							 M4862.46,1030.466c-41.085-24.222-85.324-48.341-131.484-71.686l14.752-8.933c46.57,23.554,91.21,47.894,132.677,72.34
							L4862.46,1030.466z M4590.395,892.493c-47.271-20.817-97.112-41.377-148.137-61.111l12.528-9.918
							c51.396,19.875,101.603,40.587,149.226,61.56L4590.395,892.493z M736.808,842.645l-19.254-5.731
							c29.035-29.868,64.297-58.74,104.803-85.815l16.841,7.716C799.614,785.277,765.163,813.481,736.808,842.645z M4287.75,775.256
							c-51.713-17.646-105.525-34.908-159.939-51.307l10.456-10.627c54.759,16.504,108.914,33.876,160.957,51.634L4287.75,775.256z
							 M968.066,686.724l-14.208-9.199c45.833-21.671,96.528-42.234,150.675-61.117l11.659,10.237
							C1062.932,645.216,1013.095,665.43,968.066,686.724z M3963.209,677.332c-54.966-14.607-111.7-28.745-168.619-42.021
							l8.492-11.151c57.247,13.352,114.309,27.572,169.594,42.265L3963.209,677.332z M3622.504,597.813
							c-57.382-11.651-116.28-22.764-175.065-33.027l6.581-11.541c59.101,10.32,118.32,21.492,176.015,33.208L3622.504,597.813z
							 M1277.659,577.827l-9.339-10.94c54.517-14.255,112.572-27.422,172.545-39.138l7.282,11.411
							C1388.871,550.738,1331.51,563.748,1277.659,577.827z M3269.84,536.202c-59.528-8.776-119.989-16.872-179.699-24.066
							l4.655-11.824c60.033,7.234,120.822,15.375,180.674,24.198L3269.84,536.202z M1624.646,509.534l-5.445-11.718
							c58.681-8.352,119.936-15.669,182.062-21.746l3.808,11.915C1743.492,494.01,1682.79,501.259,1624.646,509.534z
							 M2908.621,492.725c-60.859-5.682-122.423-10.582-182.977-14.562l2.577-12.017c60.909,4.004,122.829,8.933,184.037,14.648
							L2908.621,492.725z M1987.94,473.711l-2.32-12.033c60.553-3.58,123-6.172,185.599-7.702l0.968,12.088
							C2110.036,467.584,2048.045,470.156,1987.94,473.711z M2541.593,468.671c-61.824-2.302-123.957-3.697-184.678-4.146
							l0.292-12.1c61.112,0.453,123.64,1.857,185.852,4.173L2541.593,468.671z"/>
					</g>
				</g>
			</g>
		</g>
		<g>
			<path style="fill:none;stroke:#E5E5E5;stroke-width:13.3729;stroke-miterlimit:10;" d="M5393.084,961.664
				c3.866,2.552,7.406,5.44,10.563,8.593c19.411-33.584,28.529-70.585,28.131-107.111c-18.662,5.399-39.507,2.877-57.01-8.676
				c-31.741-20.951-40.49-63.679-19.539-95.419c7.734-11.717,18.435-20.303,30.467-25.425c-13.394-16.735-29.58-31.693-48.451-44.15
				c-18.872-12.457-38.988-21.461-59.64-27.199c0.021,13.077-3.669,26.291-11.403,38.008c-20.951,31.74-63.679,40.49-95.419,19.538
				c-17.503-11.553-28.015-29.729-30.385-49.011c-33.743,13.99-64.182,36.917-87.435,67.966c4.141,1.665,8.188,3.785,12.054,6.336
				c31.74,20.951,40.505,63.655,19.538,95.419c-16.434,24.898-46.291,35.662-73.713,29.006
				c0.938,44.535,15.995,88.255,43.703,124.193c22.206-26.121,60.94-32.163,90.304-12.781
				c29.364,19.382,39.033,57.374,23.742,88.059c43.936,11.353,90.056,8.014,131.375-8.628
				c-16.899-22.599-18.736-54.283-2.301-79.181C5318.632,949.438,5361.343,940.713,5393.084,961.664z M5188.052,915.502
				c-27.803-18.352-35.483-55.754-17.115-83.582c18.352-27.803,55.779-35.466,83.582-17.114
				c27.827,18.368,35.466,55.779,17.114,83.582C5253.265,926.215,5215.879,933.87,5188.052,915.502z"/>
		</g>
		<g>
			<path style="fill:#E5E5E5;" d="M826.788,992.021c-0.404,0-0.731-0.054-1.054-0.108c-7.336-1.198-56.826-53.771-85.67-85.002
				c-78.729-85.239-77.832-92.75-77.347-96.783c1.463-12.141,37.077-46.054,57.894-64.942
				c-13.244-9.561-39.719-31.675-40.311-56.063c-0.323-13.325,6.748-25.026,21.015-34.775c10.844-7.412,22.204-9.547,33.734-6.353
				c22.213,6.156,38.97,31.101,46.628,44.618c20.266-21.876,49.805-51.586,61.133-52.039c3.589-0.161,11.163-0.426,47.432,42.465
				c1.4,1.66,34.313,40.661,35.627,48.997l0.866,5.487l-5.24,1.857c-10.22,3.625-39.854,17.421-41.891,32.774
				c-0.951,7.178,4.469,14.9,16.116,22.944c4.029,2.782,7.829,3.769,11.616,3.015c10.714-2.136,20.512-17.318,26.363-26.39
				c3.392-5.258,5.119-7.856,7.192-9.498c1.422-1.126,4.5-2.719,9.031-0.727c13.886,6.106,64.924,68.244,65.795,80.107
				c0.283,3.854-1.651,7.084-13.096,17.56c-21.154,19.364-66.216,54.919-98.376,79.483
				C840.081,987.651,830.422,992.016,826.788,992.021z M829.646,979.311L829.646,979.311L829.646,979.311z M676.265,811.044
				c8.524,18.48,129.925,149.042,151.272,166.679c22.047-12.849,158.298-117.264,174.194-136.314
				c-5.954-11.719-41.832-56.126-54.502-65.956c-0.731,1.104-1.552,2.378-2.293,3.526c-7.003,10.848-18.722,29.01-34.986,32.249
				c-7.412,1.476-14.765-0.242-21.831-5.128c-16.12-11.136-23.447-23.155-21.768-35.722c2.764-20.732,29.826-34.874,43.425-40.729
				c-12.351-18.426-55.848-70.815-66.831-75.598c-7.282,2.499-35.484,29.983-57.827,54.601l-6.797,7.484l-4.231-9.184
				c-0.18-0.395-18.395-39.374-42.631-46.072c-7.672-2.127-15.066-0.646-22.599,4.504c-10.427,7.129-15.398,14.783-15.191,23.402
				c0.484,20.427,29.952,42.99,41.267,49.962l7.641,4.706l-6.694,5.976C709.429,773.029,679.917,802.56,676.265,811.044z
				 M1002.466,843.14L1002.466,843.14L1002.466,843.14z M842.419,653.85L842.419,653.85L842.419,653.85z"/>
		</g>
		<g>
			<g>
				<path style="fill:#E5E5E5;" d="M4058.79,468.754l-359.455-36.314l24.86-246.081l359.455,36.314L4058.79,468.754z
					 M3713.988,420.479l332.841,33.622l22.168-219.467l-332.841-33.622L3713.988,420.479z"/>
			</g>
			<g>
				<polygon style="fill:#E5E5E5;" points="3886.737,374.604 3725.244,198.199 3735.106,189.172 3888.54,356.766 4072.393,223.242 
					4080.254,234.064 				"/>
			</g>
		</g>
		<g>
			<path style="fill:#E5E5E5;" d="M2235.097,528.653c-3.997,0-7.174-0.92-9.641-2.768c-2.194-1.664-8.479-6.429-12.899-34.573
				c-18.888,3.149-38.544,2.979-57.549-0.512c-8.403,32.218-17.628,33.483-21.23,33.976c-7.838,1.171-22.953-2.84-34.434-7.299
				c-17.367-6.757-26.749-14.128-27.888-21.903c-0.431-2.961-1.53-10.476,15.335-33.649c-15.797-11.23-29.355-24.954-40.424-40.926
				c-25.219,14.568-34.035,12.558-38.885,9.004c-9.256-6.941-34.012-50.662-23.509-64.794c2.818-3.715,9.466-8.91,34.573-12.971
				c-3.163-18.65-3.06-37.566,0.309-56.4c-33.658-8.547-35.049-17.946-35.592-21.612c-1.642-11.755,11.436-59.792,29.279-62.407
				c2.997-0.444,10.656-1.584,34.492,15.963c11.804-16.95,26.376-31.302,43.461-42.806c-14.357-21.145-15.151-29.494-14.384-33.99
				c3.015-17.049,49.684-29.88,63.139-27.574c5.954,1.009,13.536,5.981,20.297,34.483c19.184-2.988,38.481-2.593,57.526,1.167
				c5.236-28.104,11.611-32.666,13.814-34.246c13.944-9.7,56.575,14.393,64.18,25.232c3.455,4.868,5.276,13.702-10.027,38.656
				c15.609,11.391,28.996,25.286,39.912,41.433c23.653-16.044,31.038-14.801,33.931-14.299l0,0
				c17.83,3.024,29.557,51.442,27.579,63.121c-1.023,5.936-6.012,13.469-34.497,20.234c3.02,19.516,2.553,39.154-1.395,58.554
				c26.74,5.177,30.984,11.18,32.662,13.549c10.189,14.442-15.743,57.477-25.147,64.121c-4.504,3.185-13.289,5.482-37.866-9.516
				c-10.884,14.639-23.94,27.251-38.929,37.61c14.783,25.56,12.293,34.434,8.964,38.912c-6.927,9.327-34.739,23.586-50.438,25.86
				C2238.134,528.528,2236.559,528.653,2235.097,528.653z M2223.898,475.385l0.924,7.201c3.024,23.554,7.295,31.536,8.69,32.626
				c6.066,2.548,39.8-12.414,46.009-20.764c0.377-1.35-0.848-9.902-12.939-29.463l-3.468-5.613l5.568-3.544
				c17.574-11.167,32.46-25.546,44.255-42.734l3.697-5.384l5.469,3.567c18.668,12.167,26.964,13.518,28.566,13.06
				c8.197-5.842,24.115-39.136,21.531-45.516c-1.14-1.471-9.216-5.581-30.773-9.121l-7.143-1.175l1.736-7.03
				c5.411-21.872,5.98-44.134,1.696-66.167l-1.261-6.474l6.461-1.346c27.206-5.671,30.441-11.095,30.472-11.149
				c1.624-9.87-10.526-44.39-16.861-47.351c-2.346-0.193-11.257,2.907-29.53,16.012l-5.819,4.173l-3.769-6.088
				c-11.705-18.938-26.901-34.762-45.161-47.037l-5.474-3.679l3.598-5.523c15.165-23.262,13.612-29.369,13.594-29.427
				c-5.819-8.219-39.185-24.155-45.556-21.585c-1.144,0.902-5.626,8.807-9.327,32.276l-1.126,7.156l-7.044-1.696
				c-21.535-5.195-43.488-5.684-65.229-1.445l-6.479,1.261l-1.346-6.461c-5.667-27.229-11.131-30.419-11.185-30.445
				c-9.929-1.656-44.784,10.629-47.44,16.973l0,0c0.027,0-0.592,6.115,16.152,29.476l4.186,5.833l-6.12,3.76
				c-19.983,12.275-36.52,28.575-49.145,48.445l-3.944,6.205l-5.806-4.509c-18.731-14.568-27.839-17.897-30.073-17.632
				c-6.178,2.418-19.431,36.911-17.987,47.27c1.054,1.907,10.687,7.291,31.63,11.984l6.492,1.454l-1.422,6.497
				c-4.688,21.441-4.769,43.035-0.238,64.18l1.512,7.057l-7.151,0.969c-28.512,3.854-32.617,8.731-32.657,8.78
				c-2.562,6.061,12.473,39.786,20.786,46.023c1.252,0.323,9.821-0.884,29.449-12.961l5.599-3.446l3.54,5.541
				c11.939,18.695,27.395,34.281,45.942,46.328l6.075,3.948l-4.419,5.738c-14.002,18.188-17.206,27.072-16.946,29.23
				c2.486,6.196,36.879,19.382,47.207,17.897c1.898-1.018,7.075-10.184,11.625-30.069l1.49-6.492l6.497,1.463
				c21.463,4.827,44.035,4.993,65.288,0.458L2223.898,475.385z M2185.323,443.867c-47.373,0-92.297-28.436-110.893-75.033
				c-24.272-61.039,5.613-130.428,66.616-154.686c29.494-11.759,61.847-11.315,91.117,1.261
				c29.257,12.58,51.855,35.757,63.628,65.261c24.259,60.999-5.617,130.423-66.598,154.762l-0.005,0.004
				C2214.8,441.157,2199.94,443.867,2185.323,443.867z M2185.063,219.016c-13.222,0-26.439,2.517-39.069,7.555
				c-54.157,21.535-80.686,83.135-59.141,137.314c21.607,54.13,83.243,80.65,137.391,59.123
				c54.135-21.612,80.654-83.243,59.123-137.391c-10.449-26.179-30.513-46.754-56.49-57.921
				C2213.431,221.915,2199.245,219.016,2185.063,219.016z"/>
		</g>
		<g>
			<g>
				<path style="fill:#F0F0F0;" d="M1406.609,1252.51c-1047.016,137.962-945.365,289.469-1042.141,406.084
					c-96.776,116.615-417.345,303.834,193.552,440.794s896.498-93.574,1158.946-29.742
					c262.448,63.832-95.823,183.649,307.107,278.044c402.93,94.396,856.71-136.174,1125.796-136.174s1526.711,148.983,1965.456,0
					c438.746-148.983,195.318-368.597,314.008-460.981c118.689-92.384,378.774-113.098,318.289-290.743
					s-1122.239-257.352-2330.302-290.217C2209.256,1136.71,1508.077,1239.14,1406.609,1252.51z"/>
			</g>
		</g>
		<g>
			<g>
				<circle style="fill:#E5E5E5;" cx="4737.754" cy="533.236" r="70.339"/>
			</g>
		</g>
		<g>
			<g>
				<circle style="fill:#E5E5E5;" cx="2274.501" cy="787.508" r="30.068"/>
			</g>
		</g>
		<g>
			<g>
				<circle style="fill:#E5E5E5;" cx="3379.616" cy="435.145" r="50.287"/>
			</g>
		</g>
		<g>
			<g>
				<circle style="fill:#E5E5E5;" cx="4563.819" cy="1032.273" r="20.959"/>
			</g>
		</g>
		<g>
			<g>
				
					<ellipse transform="matrix(0.9239 -0.3827 0.3827 0.9239 -343.8437 480.154)" style="fill:#E5E5E5;" cx="1035.026" cy="1104.386" rx="20.959" ry="20.959"/>
			</g>
		</g>
		<g>
			<g>
				<circle style="fill:#E5E5E5;" cx="1306.893" cy="730.085" r="20.959"/>
			</g>
		</g>
		<g>
			<g>
				<circle style="fill:#E5E5E5;" cx="3611.343" cy="444.348" r="20.959"/>
			</g>
		</g>
		<g>
			<g>
				<circle style="fill:#E5E5E5;" cx="2706.37" cy="937.047" r="20.959"/>
			</g>
		</g>
		<g>
			<g>
				<path style="fill:#054659;" d="M741.304,1148.606h113.046l177.871,423.726h3.16l176.29-423.726h113.05v559.701h-75.895v-460.093
					h-1.58l-188.939,460.093h-50.592l-188.939-460.093h-1.58v460.093h-75.892V1148.606z"/>
			</g>
			<g>
				<path style="fill:#054659;" d="M1642.512,1148.606h68.778l239.531,559.701h-88.543l-56.123-138.346H1539.74l-55.34,138.346
					h-88.537L1642.512,1148.606z M1778.481,1503.56l-104.352-256.926h-1.58l-105.932,256.926H1778.481z"/>
			</g>
			<g>
				<path style="fill:#054659;" d="M2027.5,1148.606h196.846c35.829,0,65.344,4.884,88.537,14.627
					c23.187,9.762,41.503,22.136,54.941,37.154c13.438,15.022,22.789,31.895,28.065,50.596c5.263,18.714,7.907,36.756,7.907,54.151
					c0,17.924-3.16,35.176-9.488,51.781c-6.327,16.599-15.417,31.617-27.275,45.055c-11.858,13.445-26.361,24.78-43.482,33.994
					c-17.128,9.226-36.24,14.901-57.312,16.997l158.902,255.346h-94.864l-142.303-246.649h-84.586v246.649H2027.5V1148.606z
					 M2103.389,1395.251H2203c14.744,0,29.371-1.182,43.874-3.552c14.49-2.377,27.399-6.719,38.734-13.047
					c11.329-6.327,20.419-15.417,27.275-27.275c6.843-11.858,10.278-27.275,10.278-46.244c0-18.975-3.435-34.392-10.278-46.25
					c-6.856-11.858-15.946-20.947-27.275-27.268c-11.336-6.327-24.245-10.676-38.734-13.047c-14.503-2.37-29.129-3.559-43.874-3.559
					h-99.611V1395.251z"/>
			</g>
			<g>
				<path style="fill:#054659;" d="M2514.463,1148.606h75.896v241.905h6.321l247.439-241.905h105.932l-270.365,258.503
					l288.55,301.198h-110.679l-260.877-279.852h-6.321v279.852h-75.896V1148.606z"/>
			</g>
			<g>
				<path style="fill:#054659;" d="M3030.68,1148.606h361.279v71.151h-285.383v166.803h265.617v71.148h-265.617v179.451h299.611
					v71.148H3030.68V1148.606z"/>
			</g>
			<g>
				<path style="fill:#054659;" d="M3634.65,1219.757h-180.247v-71.151h436.384v71.151h-180.248v488.55h-75.889V1219.757z"/>
			</g>
			<g>
				<path style="fill:#054659;" d="M3975.36,1148.606h75.896v559.701h-75.896V1148.606z"/>
			</g>
			<g>
				<path style="fill:#054659;" d="M4199.082,1148.606h99.612l308.309,460.096h1.58v-460.096h75.896v559.701h-96.451
					l-311.47-460.093h-1.58v460.093h-75.896V1148.606z"/>
			</g>
			<g>
				<path style="fill:#054659;" d="M5308.991,1395.251v275.902c-13.706,8.436-29.247,15.809-46.642,22.136
					c-17.389,6.321-35.45,11.734-54.151,16.207c-18.714,4.466-37.684,7.764-56.92,9.88c-19.243,2.103-37.292,3.16-54.151,3.16
					c-47.432,0-89.726-7.901-126.88-23.716c-37.154-15.808-68.517-37.154-94.074-64.031c-25.57-26.883-45.062-58.108-58.5-93.682
					c-13.438-35.574-20.157-73.12-20.157-112.651c0-41.627,7.235-80.362,21.737-116.21c14.49-35.829,34.517-66.923,60.081-93.284
					c25.557-26.338,56.254-47.031,92.102-62.049c35.829-15.025,75.099-22.534,117.791-22.534c51.644,0,93.8,6.464,126.481,19.367
					c32.675,12.922,60.086,30.709,82.216,53.361l-53.753,57.707c-23.2-22.136-47.707-37.546-73.519-46.244
					c-25.832-8.698-52.969-13.043-81.426-13.043c-32.153,0-61.145,5.926-86.963,17.784c-25.825,11.858-47.961,27.804-66.401,47.83
					c-18.459,20.033-32.688,43.612-42.691,70.75c-10.017,27.151-15.019,56.006-15.019,86.565c0,31.624,5.531,61.007,16.599,88.145
					c11.068,27.151,26.348,50.73,45.852,70.756c19.491,20.033,42.417,35.711,68.778,47.034
					c26.348,11.342,55.065,16.997,86.167,16.997c26.876,0,52.303-2.494,76.287-7.509c23.977-5.002,44.396-12.256,61.269-21.737
					v-155.741h-124.118v-71.148H5308.991z"/>
			</g>
		</g>
		<g>
			<g>
				<circle style="fill:#F86856;" cx="1690.035" cy="849.653" r="231.198"/>
			</g>
			<g>
				<g>
					<path style="fill:#EC321E;" d="M1690.034,1011.755c-89.382,0-162.1-72.718-162.1-162.103c0-89.382,72.718-162.1,162.1-162.1
						c89.382,0,162.1,72.718,162.1,162.1C1852.135,939.037,1779.417,1011.755,1690.034,1011.755z M1690.034,724.25
						c-69.147,0-125.402,56.255-125.402,125.402c0,69.149,56.255,125.405,125.402,125.405c69.147,0,125.402-56.255,125.402-125.405
						C1815.436,780.505,1759.181,724.25,1690.034,724.25z"/>
				</g>
			</g>
			<g>
				<circle style="fill:#EC321E;" cx="1690.035" cy="849.653" r="72.033"/>
			</g>
			<g>
				<g>
					<path style="fill:#FE87A0;" d="M1918.902,700.525c0,0,10.509-56.276,17.43-71.374c6.92-15.099,108.106-85.484,113.24-78.639
						c3.775,5.033-4.404,67.944-4.404,67.944L1918.902,700.525z"/>
				</g>
				<g>
					<path style="fill:#FE87A0;" d="M1918.902,700.617c0,0,55.883,12.431,72.486,11.994c16.603-0.436,121.065-65.86,116.786-73.269
						c-3.147-5.448-64.217-22.627-64.217-22.627L1918.902,700.617z"/>
				</g>
			</g>
			<g>
				<g>
					<path style="fill:#5C4B43;" d="M1690.04,854.895c-1.713,0-3.392-0.837-4.398-2.381c-1.579-2.427-0.896-5.673,1.531-7.255
						l354.819-231.196c2.424-1.584,5.673-0.896,7.255,1.531c1.58,2.427,0.896,5.673-1.531,7.255l-354.819,231.196
						C1692.013,854.621,1691.02,854.895,1690.04,854.895z"/>
				</g>
			</g>
		</g>
		<g>
			<g>
				<g>
					<path style="fill:#FD9724;" d="M4247.987,905.376l-0.281,87.904c-0.106,33.329-27.211,60.261-60.54,60.154l0,0
						c-33.329-0.107-60.261-27.211-60.154-60.54l0.281-87.904"/>
				</g>
				<g>
					
						<ellipse transform="matrix(0.7071 -0.7071 0.7071 0.7071 706.8198 3176.8303)" style="fill:#FCCE3A;" cx="4188.183" cy="735.208" rx="184.374" ry="184.374"/>
				</g>
				<g>
					<g>
						<path style="fill:#FD9724;" d="M4204.875,919.685c-1.029-12.017-7.294-90.737,0.701-145.315
							c-4.555,0.631-9.481,1.033-14.802,1.168c-8.15,0.191-15.911-0.514-23.199-1.946c11.372,59.02,7.041,141.082,6.776,145.826
							l-9.076-0.515c0.066-1.185,4.749-89.594-7.274-147.666c-28.77-8.55-48.036-28.042-48.652-42.726
							c-0.29-6.926,3.904-14.602,16.544-15.371c7.637-0.415,14.544,2.343,20.521,8.357c8.618,8.681,14.741,23.948,19.07,42.292
							c7.6,1.805,16.016,2.789,25.06,2.555c6.186-0.155,11.71-0.684,16.627-1.511c3.409-17.903,8.69-32.216,16.673-39.08
							c5.128-4.41,11.333-5.839,17.88-4.172c7.552,1.936,12.128,9.599,11.122,18.636c-1.357,12.26-12.313,26.371-37.791,32.395
							c-6.941,45.41-3.833,114.734-1.122,146.276L4204.875,919.685z M4236.514,730.086c-2.474-0.015-4.674,0.864-6.78,2.67
							c-5.835,5.022-10.001,15.799-12.908,29.905c19.315-5.642,26.208-16.414,26.991-23.465c0.488-4.414-1.249-7.913-4.322-8.697
							C4238.455,730.229,4237.467,730.091,4236.514,730.086z M4127.591,722.284c-0.379-0.002-0.763,0.007-1.148,0.029
							c-8.235,0.501-8.075,4.356-8.012,5.805c0.357,8.536,14.017,24.332,37.136,32.711c-3.773-14.355-8.828-26.031-15.57-32.821
							C4136.208,724.191,4132.136,722.312,4127.591,722.284z"/>
					</g>
				</g>
				<g style="opacity:0.7;">
					
						<ellipse transform="matrix(0.9196 -0.393 0.393 0.9196 89.219 1675.804)" style="fill:#FD9724;" cx="4137.733" cy="619.986" rx="84.255" ry="32.42"/>
				</g>
			</g>
			<g>
				<g>
					<path style="fill:#FD9724;" d="M4188.182,507.154c-3.118,0-5.644-2.526-5.644-5.644v-66.365c0-3.118,2.526-5.644,5.644-5.644
						s5.644,2.526,5.644,5.644v66.365C4193.826,504.628,4191.3,507.154,4188.182,507.154z"/>
				</g>
				<g>
					<g>
						<g>
							<path style="fill:#FD9724;" d="M4350.625,566.201c-1.337,0-2.674-0.471-3.751-1.427c-2.329-2.073-2.54-5.64-0.466-7.968
								l44.098-49.599c2.068-2.333,5.635-2.53,7.968-0.467c2.328,2.073,2.539,5.64,0.466,7.968l-44.098,49.598
								C4353.729,565.559,4352.177,566.201,4350.625,566.201z"/>
						</g>
						<g>
							<path style="fill:#FD9724;" d="M4427.43,713.498c-2.818,0-5.258-2.113-5.595-4.984c-0.368-3.096,1.848-5.9,4.944-6.263
								l65.912-7.766c3.028-0.363,5.9,1.844,6.263,4.944c0.368,3.096-1.849,5.9-4.944,6.263l-65.911,7.766
								C4427.874,713.484,4427.654,713.498,4427.43,713.498z"/>
						</g>
						<g>
							<path style="fill:#FD9724;" d="M4441.392,912.609c-1.117,0-2.243-0.328-3.226-1.018l-54.421-37.992
								c-2.557-1.781-3.181-5.299-1.395-7.856c1.781-2.557,5.308-3.19,7.856-1.395l54.421,37.992
								c2.557,1.781,3.181,5.299,1.395,7.856C4444.927,911.766,4443.173,912.609,4441.392,912.609z"/>
						</g>
					</g>
					<g>
						<g>
							<path style="fill:#FD9724;" d="M4025.738,566.201c-1.552,0-3.105-0.642-4.217-1.893l-44.094-49.598
								c-2.073-2.329-1.862-5.9,0.467-7.968c2.329-2.064,5.9-1.862,7.968,0.467l44.094,49.599c2.073,2.328,1.862,5.9-0.467,7.968
								C4028.412,565.73,4027.075,566.201,4025.738,566.201z"/>
						</g>
						<g>
							<path style="fill:#FD9724;" d="M3948.933,713.498c-0.224,0-0.444-0.013-0.668-0.04l-65.907-7.766
								c-3.096-0.363-5.312-3.167-4.944-6.263c0.363-3.1,3.253-5.303,6.263-4.944l65.907,7.766c3.096,0.363,5.312,3.167,4.944,6.263
								C3954.192,711.385,3951.751,713.498,3948.933,713.498z"/>
						</g>
						<g>
							<path style="fill:#FD9724;" d="M3934.976,912.609c-1.781,0-3.535-0.843-4.63-2.414c-1.786-2.557-1.162-6.075,1.395-7.856
								l54.422-37.992c2.553-1.777,6.079-1.158,7.856,1.395c1.786,2.557,1.162,6.075-1.395,7.856l-54.421,37.992
								C3937.219,912.278,3936.093,912.609,3934.976,912.609z"/>
						</g>
					</g>
				</g>
			</g>
		</g>
		<g>
			<g>
				<g>
					<g>
						<g>
							<path style="fill:#FCCE3A;" d="M3183.552,1561.365v60.671c0,4.687-3.845,8.532-8.532,8.532h-317.574
								c-4.687,0-8.532-3.845-8.532-8.532v-60.671c0-4.687,3.845-8.532,8.532-8.532h317.574
								C3179.707,1552.833,3183.552,1556.678,3183.552,1561.365z"/>
						</g>
						<g>
							<g>
								<path style="fill:#FD9724;" d="M2881.739,1623.274c-2.907,0-5.267-2.36-5.267-5.267v-52.613c0-2.907,2.36-5.267,5.267-5.267
									s5.267,2.36,5.267,5.267v52.613C2887.006,1620.914,2884.646,1623.274,2881.739,1623.274z"/>
							</g>
							<g>
								<path style="fill:#FD9724;" d="M2920.166,1623.274c-2.907,0-5.267-2.36-5.267-5.267v-52.613c0-2.907,2.36-5.267,5.267-5.267
									s5.267,2.36,5.267,5.267v52.613C2925.433,1620.914,2923.073,1623.274,2920.166,1623.274z"/>
							</g>
							<g>
								<path style="fill:#FD9724;" d="M2958.593,1623.274c-2.907,0-5.267-2.36-5.267-5.267v-52.613c0-2.907,2.36-5.267,5.267-5.267
									s5.267,2.36,5.267,5.267v52.613C2963.86,1620.914,2961.5,1623.274,2958.593,1623.274z"/>
							</g>
							<g>
								<path style="fill:#FD9724;" d="M2997.02,1623.274c-2.907,0-5.267-2.36-5.267-5.267v-52.613c0-2.907,2.36-5.267,5.267-5.267
									s5.267,2.36,5.267,5.267v52.613C3002.287,1620.914,2999.927,1623.274,2997.02,1623.274z"/>
							</g>
							<g>
								<path style="fill:#FD9724;" d="M3035.447,1623.274c-2.907,0-5.267-2.36-5.267-5.267v-52.613c0-2.907,2.36-5.267,5.267-5.267
									s5.267,2.36,5.267,5.267v52.613C3040.714,1620.914,3038.354,1623.274,3035.447,1623.274z"/>
							</g>
							<g>
								<path style="fill:#FD9724;" d="M3073.874,1623.274c-2.907,0-5.267-2.36-5.267-5.267v-52.613c0-2.907,2.36-5.267,5.267-5.267
									s5.267,2.36,5.267,5.267v52.613C3079.141,1620.914,3076.781,1623.274,3073.874,1623.274z"/>
							</g>
							<g>
								<path style="fill:#FD9724;" d="M3112.301,1623.274c-2.907,0-5.267-2.36-5.267-5.267v-52.613c0-2.907,2.36-5.267,5.267-5.267
									c2.907,0,5.267,2.36,5.267,5.267v52.613C3117.568,1620.914,3115.208,1623.274,3112.301,1623.274z"/>
							</g>
							<g>
								<path style="fill:#FD9724;" d="M3150.728,1623.274c-2.907,0-5.267-2.36-5.267-5.267v-52.613c0-2.907,2.36-5.267,5.267-5.267
									c2.907,0,5.267,2.36,5.267,5.267v52.613C3155.995,1620.914,3153.635,1623.274,3150.728,1623.274z"/>
							</g>
						</g>
					</g>
					<g>
						<path style="fill:#FD9724;" d="M3183.552,1611.609v10.428c0,4.687-3.845,8.532-8.532,8.532h-317.574
							C2889.734,1621.088,3174.546,1625.828,3183.552,1611.609z"/>
					</g>
				</g>
				<g>
					<g>
						<g>
							<path style="fill:#FCCE3A;" d="M3157.008,1639.1v60.671c0,4.687-3.845,8.532-8.532,8.532h-317.574
								c-4.687,0-8.532-3.845-8.532-8.532V1639.1c0-4.687,3.845-8.532,8.532-8.532h317.574
								C3153.164,1630.568,3157.008,1634.413,3157.008,1639.1z"/>
						</g>
						<g>
							<g>
								<path style="fill:#FD9724;" d="M2855.192,1701.007c-2.907,0-5.267-2.36-5.267-5.267v-52.613c0-2.907,2.36-5.267,5.267-5.267
									c2.907,0,5.267,2.36,5.267,5.267v52.613C2860.459,1698.647,2858.099,1701.007,2855.192,1701.007z"/>
							</g>
							<g>
								<path style="fill:#FD9724;" d="M2893.624,1701.007c-2.907,0-5.267-2.36-5.267-5.267v-52.613c0-2.907,2.36-5.267,5.267-5.267
									s5.267,2.36,5.267,5.267v52.613C2898.891,1698.647,2896.531,1701.007,2893.624,1701.007z"/>
							</g>
							<g>
								<path style="fill:#FD9724;" d="M2932.051,1701.007c-2.907,0-5.267-2.36-5.267-5.267v-52.613c0-2.907,2.36-5.267,5.267-5.267
									s5.267,2.36,5.267,5.267v52.613C2937.318,1698.647,2934.958,1701.007,2932.051,1701.007z"/>
							</g>
							<g>
								<path style="fill:#FD9724;" d="M2970.478,1701.007c-2.907,0-5.267-2.36-5.267-5.267v-52.613c0-2.907,2.36-5.267,5.267-5.267
									s5.267,2.36,5.267,5.267v52.613C2975.745,1698.647,2973.385,1701.007,2970.478,1701.007z"/>
							</g>
							<g>
								<path style="fill:#FD9724;" d="M3008.905,1701.007c-2.907,0-5.267-2.36-5.267-5.267v-52.613c0-2.907,2.36-5.267,5.267-5.267
									c2.907,0,5.267,2.36,5.267,5.267v52.613C3014.172,1698.647,3011.812,1701.007,3008.905,1701.007z"/>
							</g>
							<g>
								<path style="fill:#FD9724;" d="M3047.332,1701.007c-2.907,0-5.267-2.36-5.267-5.267v-52.613c0-2.907,2.36-5.267,5.267-5.267
									c2.907,0,5.267,2.36,5.267,5.267v52.613C3052.599,1698.647,3050.239,1701.007,3047.332,1701.007z"/>
							</g>
							<g>
								<path style="fill:#FD9724;" d="M3085.759,1701.007c-2.907,0-5.267-2.36-5.267-5.267v-52.613c0-2.907,2.36-5.267,5.267-5.267
									c2.907,0,5.267,2.36,5.267,5.267v52.613C3091.026,1698.647,3088.666,1701.007,3085.759,1701.007z"/>
							</g>
							<g>
								<path style="fill:#FD9724;" d="M3124.186,1701.007c-2.907,0-5.267-2.36-5.267-5.267v-52.613c0-2.907,2.36-5.267,5.267-5.267
									c2.907,0,5.267,2.36,5.267,5.267v52.613C3129.453,1698.647,3127.093,1701.007,3124.186,1701.007z"/>
							</g>
						</g>
					</g>
					<g>
						<path style="fill:#FD9724;" d="M3157.008,1689.343v10.428c0,4.687-3.845,8.532-8.532,8.532h-317.574
							C2863.191,1698.823,3148.002,1703.563,3157.008,1689.343z"/>
					</g>
				</g>
				<g>
					<g>
						<g>
							<path style="fill:#FCCE3A;" d="M3202.706,1716.775v60.671c0,4.687-3.845,8.532-8.532,8.532H2876.6
								c-4.687,0-8.532-3.845-8.532-8.532v-60.671c0-4.687,3.845-8.532,8.532-8.532h317.574
								C3198.862,1708.244,3202.706,1712.088,3202.706,1716.775z"/>
						</g>
						<g>
							<g>
								<path style="fill:#FD9724;" d="M2900.892,1778.682c-2.907,0-5.267-2.36-5.267-5.267v-52.609c0-2.907,2.36-5.267,5.267-5.267
									s5.267,2.36,5.267,5.267v52.609C2906.159,1776.323,2903.799,1778.682,2900.892,1778.682z"/>
							</g>
							<g>
								<path style="fill:#FD9724;" d="M2939.319,1778.682c-2.907,0-5.267-2.36-5.267-5.267v-52.609c0-2.907,2.36-5.267,5.267-5.267
									c2.907,0,5.267,2.36,5.267,5.267v52.609C2944.586,1776.323,2942.226,1778.682,2939.319,1778.682z"/>
							</g>
							<g>
								<path style="fill:#FD9724;" d="M2977.746,1778.682c-2.907,0-5.267-2.36-5.267-5.267v-52.609c0-2.907,2.36-5.267,5.267-5.267
									c2.907,0,5.267,2.36,5.267,5.267v52.609C2983.013,1776.323,2980.653,1778.682,2977.746,1778.682z"/>
							</g>
							<g>
								<path style="fill:#FD9724;" d="M3016.173,1778.682c-2.907,0-5.267-2.36-5.267-5.267v-52.609c0-2.907,2.36-5.267,5.267-5.267
									c2.907,0,5.267,2.36,5.267,5.267v52.609C3021.44,1776.323,3019.08,1778.682,3016.173,1778.682z"/>
							</g>
							<g>
								<path style="fill:#FD9724;" d="M3054.6,1778.682c-2.907,0-5.267-2.36-5.267-5.267v-52.609c0-2.907,2.36-5.267,5.267-5.267
									c2.907,0,5.267,2.36,5.267,5.267v52.609C3059.867,1776.323,3057.507,1778.682,3054.6,1778.682z"/>
							</g>
							<g>
								<path style="fill:#FD9724;" d="M3093.027,1778.682c-2.907,0-5.267-2.36-5.267-5.267v-52.609c0-2.907,2.36-5.267,5.267-5.267
									c2.907,0,5.267,2.36,5.267,5.267v52.609C3098.294,1776.323,3095.934,1778.682,3093.027,1778.682z"/>
							</g>
							<g>
								<path style="fill:#FD9724;" d="M3131.454,1778.682c-2.907,0-5.267-2.36-5.267-5.267v-52.609c0-2.907,2.36-5.267,5.267-5.267
									s5.267,2.36,5.267,5.267v52.609C3136.721,1776.323,3134.361,1778.682,3131.454,1778.682z"/>
							</g>
							<g>
								<path style="fill:#FD9724;" d="M3169.881,1778.682c-2.907,0-5.267-2.36-5.267-5.267v-52.609c0-2.907,2.36-5.267,5.267-5.267
									s5.267,2.36,5.267,5.267v52.609C3175.148,1776.323,3172.788,1778.682,3169.881,1778.682z"/>
							</g>
						</g>
					</g>
					<g>
						<path style="fill:#FD9724;" d="M3202.706,1767.019v10.428c0,4.687-3.845,8.532-8.532,8.532H2876.6
							C2908.889,1776.498,3193.7,1781.238,3202.706,1767.019z"/>
					</g>
				</g>
				<g>
					<g>
						<g>
							<path style="fill:#FCCE3A;" d="M3144.236,1794.51v60.671c0,4.687-3.845,8.532-8.532,8.532h-317.574
								c-4.687,0-8.532-3.845-8.532-8.532v-60.671c0-4.687,3.845-8.532,8.532-8.532h317.574
								C3140.391,1785.978,3144.236,1789.823,3144.236,1794.51z"/>
						</g>
						<g>
							<g>
								<path style="fill:#FD9724;" d="M2842.423,1856.42c-2.907,0-5.267-2.36-5.267-5.267v-52.613c0-2.907,2.36-5.267,5.267-5.267
									s5.267,2.36,5.267,5.267v52.613C2847.69,1854.061,2845.331,1856.42,2842.423,1856.42z"/>
							</g>
							<g>
								<path style="fill:#FD9724;" d="M2880.85,1856.42c-2.907,0-5.267-2.36-5.267-5.267v-52.613c0-2.907,2.36-5.267,5.267-5.267
									c2.907,0,5.267,2.36,5.267,5.267v52.613C2886.118,1854.061,2883.758,1856.42,2880.85,1856.42z"/>
							</g>
							<g>
								<path style="fill:#FD9724;" d="M2919.277,1856.42c-2.907,0-5.267-2.36-5.267-5.267v-52.613c0-2.907,2.36-5.267,5.267-5.267
									c2.907,0,5.267,2.36,5.267,5.267v52.613C2924.545,1854.061,2922.185,1856.42,2919.277,1856.42z"/>
							</g>
							<g>
								<path style="fill:#FD9724;" d="M2957.704,1856.42c-2.907,0-5.267-2.36-5.267-5.267v-52.613c0-2.907,2.36-5.267,5.267-5.267
									c2.907,0,5.267,2.36,5.267,5.267v52.613C2962.972,1854.061,2960.612,1856.42,2957.704,1856.42z"/>
							</g>
							<g>
								<path style="fill:#FD9724;" d="M2996.132,1856.42c-2.907,0-5.267-2.36-5.267-5.267v-52.613c0-2.907,2.36-5.267,5.267-5.267
									c2.907,0,5.267,2.36,5.267,5.267v52.613C3001.399,1854.061,2999.039,1856.42,2996.132,1856.42z"/>
							</g>
							<g>
								<path style="fill:#FD9724;" d="M3034.559,1856.42c-2.907,0-5.267-2.36-5.267-5.267v-52.613c0-2.907,2.36-5.267,5.267-5.267
									c2.907,0,5.267,2.36,5.267,5.267v52.613C3039.826,1854.061,3037.466,1856.42,3034.559,1856.42z"/>
							</g>
							<g>
								<path style="fill:#FD9724;" d="M3072.986,1856.42c-2.907,0-5.267-2.36-5.267-5.267v-52.613c0-2.907,2.36-5.267,5.267-5.267
									s5.267,2.36,5.267,5.267v52.613C3078.253,1854.061,3075.893,1856.42,3072.986,1856.42z"/>
							</g>
							<g>
								<path style="fill:#FD9724;" d="M3111.413,1856.42c-2.907,0-5.267-2.36-5.267-5.267v-52.613c0-2.907,2.36-5.267,5.267-5.267
									s5.267,2.36,5.267,5.267v52.613C3116.68,1854.061,3114.32,1856.42,3111.413,1856.42z"/>
							</g>
						</g>
					</g>
					<g>
						<path style="fill:#FD9724;" d="M3144.236,1844.753v10.428c0,4.687-3.845,8.532-8.532,8.532h-317.574
							C2850.418,1854.233,3135.23,1858.973,3144.236,1844.753z"/>
					</g>
				</g>
			</g>
			<g>
				<g>
					<path style="fill:#5C4B43;" d="M2806.686,1729.129c0,0-37.475-61.005-32.246-67.106c5.229-6.1,32.246,17.43,41.832,16.559
						c9.587-0.871,20.045-27.888,34.86-26.145c14.815,1.743,21.792,19.173,27.89,23.531c6.098,4.358,22.302,0,27.273,6.972
						c4.971,6.972-25.021,46.19-25.021,46.19s69.993,73.477,62.719,156c-4.523,51.312-201.369,58.098-205.285-4.358
						C2733.479,1797.377,2806.686,1729.129,2806.686,1729.129z"/>
				</g>
				<g>
					<g>
						<path style="fill:#FCCE3A;" d="M2840.929,1734.144c-11.175,0-23.334-0.657-34.66-2.629c-1.317-0.229-2.198-1.484-1.969-2.801
							c0.229-1.314,1.475-2.182,2.802-1.969c33.01,5.754,73.422,0.05,73.829-0.012c1.31-0.189,2.551,0.731,2.742,2.052
							c0.189,1.324-0.728,2.551-2.052,2.742C2881.346,1731.564,2863.069,1734.144,2840.929,1734.144z"/>
					</g>
				</g>
				<g>
					<g>
						<g>
							<path style="fill:#FCCE3A;" d="M2803.862,1847.995c-0.042-1.775,0.56-3.222,1.806-4.342s2.779-1.68,4.596-1.68
								c2.071,0,3.888,1.183,5.452,3.55c2.155,3.212,4.078,5.388,5.768,6.529c3.592,2.367,8.811,3.55,15.657,3.55
								c6.55,0,12.635-1.416,18.256-4.247c7.184-3.634,10.776-8.684,10.776-15.15c0-5.325-3.021-9.529-9.065-12.614
								c-5.113-2.662-11.431-4.099-18.953-4.31c-6.677-0.254-12.361-1.712-17.052-4.374c-6.001-3.423-9.001-8.325-9.001-14.706
								c0-7.522,4.268-14.389,12.805-20.602c8.156-5.874,16.587-8.811,25.292-8.811c4.099,0,8.727,0.697,13.882,2.092
								c6.846,1.817,10.269,4.141,10.269,6.973c0,3.719-1.902,5.578-5.705,5.578c-1.69,0-4.648-0.454-8.875-1.363
								c-4.226-0.909-7.501-1.342-9.825-1.299c-6.593,0.084-12.192,1.711-16.798,4.881c-4.733,3.254-7.1,7.205-7.1,11.854
								c0,3.508,3.127,5.98,9.382,7.417c2.324,0.549,6.825,1.057,13.502,1.521c9.677,0.719,17.242,3.761,22.693,9.128
								c4.987,4.902,7.48,10.882,7.48,17.939c0,10.058-4.648,18.087-13.946,24.088c-8.072,5.198-17.432,7.797-28.082,7.797
								c-7.733,0-14.812-1.479-21.235-4.437C2807.982,1859.321,2803.989,1854.334,2803.862,1847.995z"/>
						</g>
					</g>
					<g>
						<g>
							<path style="fill:#FCCE3A;" d="M2846.686,1779.556c-2.674,0-4.842-2.168-4.842-4.842v-15.688
								c0-2.674,2.168-4.842,4.842-4.842c2.674,0,4.842,2.168,4.842,4.842v15.688
								C2851.528,1777.388,2849.36,1779.556,2846.686,1779.556z"/>
						</g>
					</g>
					<g>
						<g>
							<path style="fill:#FCCE3A;" d="M2846.686,1883.458c-2.674,0-4.842-2.168-4.842-4.842v-15.688
								c0-2.674,2.168-4.842,4.842-4.842c2.674,0,4.842,2.168,4.842,4.842v15.688
								C2851.528,1881.291,2849.36,1883.458,2846.686,1883.458z"/>
						</g>
					</g>
				</g>
			</g>
		</g>
		<g>
			<g>
				<path style="fill:#E07541;" d="M3890.934,1422.551c-12.674-3.783-17.845-41.513,6.841-51.244
					c23.584-9.297,31.604,6.687,31.604,6.687s6.127-30.989,33.855-19.246c33.643,14.248,19.246,39.47,26.096,54.149
					c6.85,14.679,24.139,23.487,10.765,51.394c-12.669,26.435-58.674,15.715-58.674,15.715L3890.934,1422.551z"/>
			</g>
			<g>
				<path style="fill:#F8B396;" d="M3967.254,1446.262c8.079-3.976,17.048,4.608,12.17,14.774
					c-4.878,10.166-13.595,10.432-16.966,6.518C3959.087,1463.64,3967.254,1446.262,3967.254,1446.262z"/>
			</g>
			<g>
				<path style="fill:#CC7459;" d="M3972.015,1450.946c6.921,0.516,1.125,11.476-4.017,11.372
					C3962.856,1462.215,3972.015,1450.946,3972.015,1450.946z"/>
			</g>
			<g>
				<path style="fill:#F8B396;" d="M3931.502,1534.089c9.879,1.79,27.005-8.791,27.005-8.791l-5.323-41.722l-0.664-5.232
					l-16.396,9.055l-9.893,5.455l-2.182,19.863l-1.15,10.718C3922.898,1523.436,3921.623,1532.3,3931.502,1534.089z"/>
			</g>
			<g>
				<path style="fill:#F3936C;" d="M3924.048,1512.718c10.72-0.651,24.565-16.131,29.136-29.141c0,0-9.129,1.691-17.061,3.823
					l-9.893,5.455L3924.048,1512.718z"/>
			</g>
			<g>
				<path style="fill:#F8B396;" d="M3886.836,1450.439c-0.179,2.402-0.271,4.811-0.225,7.142
					c0.414,22.735,7.59,41.363,28.338,42.865c29.399,2.103,60.633-35.753,56.905-55.266c-0.047,0.041-0.05,0.084-0.05,0.084
					c-25.274-3.244-45.827-40.962-45.827-40.962s-19.581,19.972-35.043,18.249
					C3888.613,1432.479,3887.208,1441.903,3886.836,1450.439z"/>
			</g>
			<g>
				<path style="fill:#471200;" d="M3902.801,1442.491c-0.298,3.245-1.651,5.773-3.023,5.647c-1.372-0.126-2.242-2.858-1.944-6.103
					c0.298-3.245,1.651-5.773,3.023-5.647C3902.228,1436.514,3903.099,1439.246,3902.801,1442.491z"/>
			</g>
			<g>
				<path style="fill:#471200;" d="M3926.385,1444.248c-0.298,3.245-1.651,5.773-3.023,5.647c-1.372-0.126-2.242-2.858-1.944-6.103
					c0.298-3.245,1.651-5.773,3.023-5.647C3925.812,1438.271,3926.682,1441.004,3926.385,1444.248z"/>
			</g>
			<g>
				<path style="fill:#E07541;" d="M3935.474,1431.388c0.708,2.049-10.8-2.427-11.143-3.718c-0.344-1.291,1.155-1.709,3.455-1.444
					C3930.085,1426.491,3935.295,1430.869,3935.474,1431.388z"/>
			</g>
			<g>
				<path style="fill:#E07541;" d="M3893.924,1429.584c-0.715,2.047,10.808-2.392,11.155-3.682s-1.15-1.713-3.45-1.456
					C3899.329,1424.704,3894.105,1429.066,3893.924,1429.584z"/>
			</g>
			<g>
				<g>
					<path style="fill:#F86856;" d="M3922.517,1479.662c-0.434,3.375-5.315,5.527-10.903,4.808c-5.588-0.72-9.766-4.039-9.333-7.414
						c0.434-3.375,5.315-5.527,10.903-4.808C3918.772,1472.969,3922.951,1476.288,3922.517,1479.662z"/>
				</g>
				<g>
					<g>
						<path style="fill:#471200;" d="M3915.323,1479.996c-5.231,0.107-10.789-0.675-14.051-2.398
							c-0.265-0.145-0.327-0.41-0.14-0.591c0.199-0.19,0.564-0.251,0.817-0.096c6.008,3.174,20.849,2.968,24.437-0.331
							c0.213-0.164,0.566-0.207,0.831-0.07c0.253,0.154,0.303,0.419,0.104,0.6
							C3925.337,1478.915,3920.492,1479.891,3915.323,1479.996z"/>
					</g>
				</g>
			</g>
			<g>
				<path style="fill:#F08D78;" d="M3946.898,1459.419c0.274,4.31-3.819,8.079-9.144,8.418c-5.324,0.339-9.863-2.88-10.137-7.19
					c-0.274-4.31,3.819-8.079,9.144-8.418C3942.085,1451.89,3946.624,1455.109,3946.898,1459.419z"/>
			</g>
			<g>
				<g>
					<path style="fill:#C07255;" d="M3910.095,1464.218c-1.993-0.26-3.596-1.199-4.53-2.703c-1.007-1.62-1.044-3.647-0.099-5.295
						c1.145-2.003,3.522-3.111,6.515-3.032c0.296,0.016,0.433,0.21,0.426,0.446c-0.008,0.241-0.209,0.428-0.446,0.425
						c-2.664-0.073-4.76,0.876-5.742,2.594c-0.788,1.367-0.753,3.059,0.085,4.405c1.027,1.645,3.044,2.504,5.524,2.349
						c0.227-0.026,0.448,0.165,0.459,0.404c0.015,0.239-0.166,0.448-0.404,0.459
						C3911.259,1464.309,3910.662,1464.292,3910.095,1464.218z"/>
				</g>
			</g>
			<g>
				<path style="fill:#EC321E;" d="M3923.105,1521.502c10.078,13.474,34.753-1.287,34.753-1.287s49.051-0.543,69.602,15.063
					c20.55,15.606,16.019,144.448,0.035,155.539s-185.606,22.181-196.697,6.524c-11.091-15.657,3.67-139.799,27.156-163.047
					C3877.036,1515.404,3923.105,1521.502,3923.105,1521.502z"/>
			</g>
			<g>
				<path style="fill:#0C87B3;" d="M3756.914,1682.988c-31.315,16.147-51.99,90.878,73.615,90.999
					c105.957,0.102,34.52-76.81,9.566-84.149S3756.914,1682.988,3756.914,1682.988z"/>
			</g>
			<g>
				<path style="fill:#54493F;" d="M3896.249,1740.901c-6.933-10.395-20.12-24.986-25.973-23.471
					c-5.853,1.515-49.696,65.811-48.455,69.071c2.626,6.901,33.038-0.578,51.731-17.176
					C3892.245,1752.726,3896.249,1740.901,3896.249,1740.901z"/>
			</g>
			<g>
				<path style="fill:#0C87B3;" d="M4039.238,1685.924c39.375-6.57,68.991-4.105,76.33,27.305s-32.294,63.215-108.624,64.193
					c-76.33,0.979-113.517-5.872-120.367-9.786s-7.462-39.144-0.612-42.569S4025.322,1688.246,4039.238,1685.924z"/>
			</g>
			<g>
				<g>
					<path style="fill:#232625;" d="M3917.754,1727.025c28.518-3.262,92.94-31.255,91.474-37.186
						c-1.173-4.75-195.718-20.877-195.718-20.877L3917.754,1727.025z"/>
				</g>
				<g>
					<path style="fill:#232625;" d="M4009.228,1684.211v5.627c0,0-12.191,2.691-12.803-0.979
						C3995.813,1685.19,4009.228,1684.211,4009.228,1684.211z"/>
				</g>
				<g>
					<path style="fill:#2E302F;" d="M3917.754,1721.398c28.518-3.262,92.94-31.255,91.474-37.187
						c-1.173-4.75-195.718-20.877-195.718-20.877L3917.754,1721.398z"/>
				</g>
				<g>
					<path style="fill:#424443;" d="M3761.611,1713.692c-3.798-3.085-34.193-110.949-27.832-116.331
						c6.361-5.382,173.7,2.936,179.082,10.275c5.382,7.339,12.722,116.453,4.893,119.388
						C3909.925,1729.96,3769.439,1720.053,3761.611,1713.692z"/>
				</g>
			</g>
			<g>
				<path style="fill:#F8B396;" d="M3950.027,1692.189c-2.33-5.926-34.126-17.66-35.635-15.552
					c-1.509,2.108,10.806,12.844,10.806,12.844s-38.157,0.568-38.865,3.052c-0.708,2.484,25.721,5.58,25.721,5.58
					s-29.112,0.529-29.23,3.348s30.385,3.366,30.385,3.366s-27.663,2.054-24.989,5.496c0.985,1.268,25.578,0.517,25.578,0.517
					s-17.335,3.147-16.994,4.745s15.725,1.571,28.213-0.778c12.489-2.348,38.263-7.763,38.806-9.405
					c0.542-1.642,0.512-12.581,0.512-12.581L3950.027,1692.189z"/>
			</g>
			<g>
				<path style="fill:#F7971C;" d="M4023.955,1534.293c34.136,7.786,60.674,110.693,42.081,144.454
					c-18.593,33.761-108.51,36.534-110.957,33.598c-2.447-2.936-8.479-22.018-4.567-28.379c3.912-6.361,67.197-35.229,72.09-42.079
					C4027.495,1635.037,3973.672,1522.825,4023.955,1534.293z"/>
			</g>
		</g>
		<g>
			<g>
				<g>
					<path style="fill:#612D0A;" d="M3697.126,891.787c42.952-26.537,19.725-57.885,22.628-65.933
						c2.903-8.048,17.42-10.204,18.665-27.219c1.244-17.015-19.725-11.788-20.646-20.634c-0.922-8.845,7.197-20.908,0.027-30.557
						c-7.17-9.65-23.997-1.206-27.197-3.217c-3.2-2.01-18.547-36.99-38.871-30.155c-20.324,6.835-20.324,35.784-26.131,36.186
						c-5.807,0.402-19.909-11.258-33.597,0.402c-13.688,11.66-2.903,49.029-11.199,53.463c-8.296,4.435-26.96-3.205-34.841,2.022
						c-7.881,5.227,0,21.049-3.318,21.984c-3.318,0.934-17.452,0.034-29.864,14.203c-16.361,18.678-19.915,69.593,19.903,87.686
						c39.818,18.093,156.376-3.252,160.109-13.706S3697.126,891.787,3697.126,891.787z"/>
				</g>
			</g>
			<g>
				<g>
					<g>
						<g>
							<path style="fill:#F8B396;" d="M3618.999,820.632c-0.255,0.127-0.509,0.255-0.806,0.255
								c-4.666,1.612-11.749-2.248-12.215-12.852c-0.382-8.398,6.065-12.979,11.749-11.876l0.042,0.042c0.042-0.042,0.042,0,0.085,0
								c0.339,0.127,0.679,0.212,1.06,0.297c1.442,0.509,2.842,1.4,3.987,2.757C3622.901,799.255,3623.622,818.384,3618.999,820.632
								z"/>
						</g>
					</g>
					<g>
						<g>
							<g>
								<path style="fill:#CC7459;" d="M3618.078,802.777c-8.15-2.296-6.733,10.587-1.972,12.496
									C3620.867,817.183,3618.078,802.777,3618.078,802.777z"/>
							</g>
						</g>
					</g>
				</g>
				<g>
					<g>
						<g>
							<path style="fill:#F8B396;" d="M3702.64,808.035c-0.509,10.561-7.55,14.421-12.215,12.894
								c-0.297-0.042-0.594-0.17-0.848-0.297c-4.623-2.248-3.902-21.377-3.902-21.377c0.976-1.103,2.078-1.909,3.224-2.46
								c0.042-0.042,0.085-0.042,0.127-0.042c0.552-0.255,1.103-0.425,1.697-0.552c0.042,0,0.085-0.042,0.127-0.042
								C3696.575,795.056,3703.022,799.637,3702.64,808.035z"/>
						</g>
					</g>
					<g>
						<g>
							<g>
								<path style="fill:#CC7459;" d="M3690.508,802.777c8.151-2.296,6.733,10.587,1.972,12.496
									C3687.719,817.183,3690.508,802.777,3690.508,802.777z"/>
							</g>
						</g>
					</g>
				</g>
			</g>
			<g>
				<g>
					<path style="fill:#F8B396;" d="M3670.926,891.67c0,0-4.643,11.021-14.49,11.021c-9.898,0-20.204-9.644-20.204-9.644
						l4.949-35.459l0.561-4.031h24.082l2.602,19.337L3670.926,891.67z"/>
				</g>
			</g>
			<g>
				<g>
					<path style="fill:#F3936C;" d="M3668.426,872.895c-7.755,0.765-21.48-1.02-27.245-15.306c0,0,3.724-2.296,8.878-4.031h15.765
						L3668.426,872.895z"/>
				</g>
			</g>
			<g>
				<g>
					<g>
						<path style="fill:#F8B396;" d="M3691.655,807.272c0,2.756-0.127,5.429-0.424,8.101c-0.212,1.867-0.466,3.733-0.806,5.557
							c-3.181,17.432-12.3,31.387-24.007,37.155c-3.817,1.909-7.889,2.926-12.131,2.926c-4.623,0-9.034-1.188-13.106-3.393v-0.042
							c-11.24-6.065-19.935-19.723-22.989-36.689c-0.339-1.823-0.594-3.648-0.806-5.514c-0.297-2.672-0.424-5.344-0.424-8.101
							c0-1.57,0.042-3.139,0.17-4.708c0.085-2.163,0.339-4.284,0.636-6.362c0-0.042,0-0.042,0-0.042
							c0.042,0.042,0.042,0.042,0.085,0.042c0.339,0.127,0.679,0.212,1.06,0.297c15.651,4.072,42.203-21.589,42.203-21.589
							s13.318,25.236,27.781,21.886c0.042-0.042,0.085-0.042,0.127-0.042c0.552-0.255,1.103-0.425,1.697-0.552
							c0.042,0,0.085-0.042,0.127-0.042c0.297,2.079,0.551,4.241,0.636,6.405C3691.613,804.133,3691.655,805.702,3691.655,807.272z"
							/>
					</g>
				</g>
			</g>
			<g>
				<g>
					<g>
						<path style="fill:#471200;" d="M3639.97,809.016c0.053,3.076,1.15,5.551,2.45,5.529c1.3-0.022,2.312-2.534,2.259-5.61
							c-0.053-3.076-1.15-5.551-2.45-5.529C3640.929,803.429,3639.917,805.94,3639.97,809.016z"/>
					</g>
				</g>
				<g>
					<g>
						<g>
							<path style="fill:#471200;" d="M3668.616,809.016c-0.053,3.076-1.15,5.551-2.45,5.529c-1.3-0.022-2.312-2.534-2.259-5.61
								c0.053-3.076,1.15-5.551,2.45-5.529C3667.657,803.429,3668.669,805.94,3668.616,809.016z"/>
						</g>
					</g>
				</g>
			</g>
			<g>
				<g>
					<g>
						<path style="fill:#612D0A;" d="M3634.437,797.871c-0.811,1.88,10.339-1.528,10.753-2.719c0.414-1.192-0.968-1.691-3.151-1.602
							C3639.855,793.637,3634.643,797.394,3634.437,797.871z"/>
					</g>
				</g>
				<g>
					<g>
						<path style="fill:#612D0A;" d="M3674.149,797.871c0.811,1.88-10.339-1.528-10.753-2.719s0.968-1.691,3.151-1.602
							C3668.731,793.637,3673.944,797.394,3674.149,797.871z"/>
					</g>
				</g>
			</g>
			<g>
				<g>
					<g>
						<path style="fill:#F86856;" d="M3645.541,841.128c0.171,3.208,4.616,5.577,9.928,5.292c5.312-0.286,9.479-3.118,9.308-6.326
							c-0.171-3.208-4.616-5.577-9.928-5.292C3649.537,835.087,3645.37,837.919,3645.541,841.128z"/>
					</g>
				</g>
				<g>
					<g>
						<g>
							<path style="fill:#471200;" d="M3652.292,841.947c4.918,0.468,10.206,0.122,13.399-1.272
								c0.259-0.118,0.337-0.363,0.173-0.546c-0.174-0.193-0.513-0.276-0.762-0.148c-5.88,2.567-19.839,1.332-22.986-2.026
								c-0.189-0.169-0.519-0.234-0.777-0.124c-0.249,0.128-0.315,0.373-0.14,0.558
								C3642.939,840.225,3647.432,841.484,3652.292,841.947z"/>
						</g>
					</g>
				</g>
			</g>
			<g>
				<g>
					<g>
						<path style="fill:#F08D78;" d="M3623,822.656c-0.593,4.034,2.966,7.899,7.95,8.632c4.984,0.733,9.505-1.943,10.098-5.977
							c0.593-4.034-2.966-7.899-7.949-8.632C3628.115,815.946,3623.594,818.622,3623,822.656z"/>
					</g>
				</g>
				<g>
					<g>
						<path style="fill:#F08D78;" d="M3685.586,822.656c0.593,4.034-2.966,7.899-7.949,8.632c-4.984,0.733-9.505-1.943-10.099-5.977
							c-0.593-4.034,2.966-7.899,7.95-8.632C3680.471,815.946,3684.993,818.622,3685.586,822.656z"/>
					</g>
				</g>
			</g>
			<g>
				<g>
					<g>
						<path style="fill:#C07255;" d="M3655.724,829.237c1.895-0.105,3.47-0.877,4.455-2.227c1.062-1.454,1.239-3.361,0.465-4.979
							c-0.938-1.967-3.098-3.177-5.922-3.312c-0.279-0.006-0.422,0.167-0.432,0.39c-0.009,0.227,0.167,0.418,0.39,0.432
							c2.514,0.118,4.42,1.159,5.225,2.845c0.646,1.342,0.494,2.933-0.389,4.142c-1.082,1.477-3.042,2.144-5.366,1.824
							c-0.212-0.041-0.434,0.124-0.46,0.348c-0.031,0.224,0.125,0.433,0.348,0.46
							C3654.621,829.241,3655.185,829.266,3655.724,829.237z"/>
					</g>
				</g>
			</g>
			<g>
				<g>
					<path style="fill:#FECD3D;" d="M3638.708,875.307c17.404,18.32,30.039,0,30.039,0s55.567,4.451,73.89,35.498
						c18.323,31.047-66.036,72.274-87.478,70.238c-21.442-2.036-109.039-37.32-102.369-69.22
						C3560.424,875.307,3638.708,875.307,3638.708,875.307z"/>
				</g>
			</g>
			<g>
				<g>
					<path style="fill:#0071A1;" d="M3742.341,1045.684c0,0,72.062,38.682,59.846,80.418
						c-12.216,41.736-138.865,15.778-138.865,15.778s-37.329-49.625-20.998-74.819
						C3658.656,1041.866,3742.341,1045.684,3742.341,1045.684z"/>
				</g>
			</g>
			<g>
				<g>
					<path style="fill:#0C87B3;" d="M3738.057,1206.519c-3.351,0-10.943-7.125-19.044-15.906c-2.8-3.054-5.684-6.32-8.441-9.543
						c-9.543-11.07-17.941-21.758-18.79-22.819c-0.042-0.042-0.042-0.085-0.042-0.085s-174.621,14.421-197.482-27.484
						c-18.323-33.593,13.743-59.55,66.676-84.999l65.488,33.635l48.692,25.068l31.387,16.117c0,0,1.569-1.018,4.03-2.163
						c0,0,0.042-0.043,0.127-0.085c1.866-0.848,4.241-1.782,6.829-2.46c4.581-1.188,9.798-1.485,13.954,1.145
						C3741.11,1123.048,3746.709,1206.519,3738.057,1206.519z"/>
				</g>
			</g>
			<g>
				<g>
					<path style="fill:#F8B396;" d="M3719.013,1190.614c-2.8-3.054-5.684-6.32-8.441-9.543c-9.543-11.07-17.941-21.758-18.79-22.819
						c-0.042-0.042-0.042-0.085-0.042-0.085c10.434-8.939,13.955-30.03,14.76-37.664c0,0,1.569-1.018,4.03-2.163
						c0,0,0.042-0.043,0.127-0.085c1.866-0.848,4.241-1.782,6.829-2.46C3724.441,1127.289,3731.864,1184.506,3719.013,1190.614z"/>
				</g>
			</g>
			<g>
				<g>
					<path style="fill:#54493F;" d="M3738.057,1206.519c-4.496,0-16.754-12.979-27.485-25.449c9.119-1.951,7.38-38.215-0.042-62.731
						c0,0,0.042-0.043,0.127-0.085c5.217-2.375,14.294-5.429,20.783-1.315C3741.11,1123.048,3746.709,1206.519,3738.057,1206.519z"
						/>
				</g>
			</g>
			<g>
				<g>
					<path style="fill:#0071A1;" d="M3675.113,1104.386c0,0-60.738-15.185-127.541-10.986c0,0,44.578-11.919,78.849-14.082
						L3675.113,1104.386z"/>
				</g>
			</g>
			<g>
				<g>
					<path style="fill:#FEE4AD;" d="M3781.192,895.282c-5.726-3.054-20.232-11.07-25.958-11.07
						c-5.726,0-101.709,59.398-101.709,59.398s-92.21-65.083-96.791-65.485c-4.581-0.402-22.14,13.849-22.14,13.849
						s80.2,86.144,130.188,81.945C3714.771,969.719,3781.192,895.282,3781.192,895.282z"/>
				</g>
			</g>
			<g>
				<g>
					<path style="fill:#B6BF40;" d="M3773.685,1040.085c-2.205,3.097-76.177,41.057-105.951,52.17
						c-4.708,1.739-8.313,2.842-10.349,3.011c-3.478,0.297-11.537-2.375-21.928-6.701c-34.78-14.591-95.687-47.886-98.444-51.024
						c-3.563-4.072-13.403-153.668-6.786-151.166c3.605,1.358,81.648,45.469,112.102,62.731c7.423,4.199,12.003,6.787,12.003,6.787
						s3.945-2.121,10.434-5.557v-0.043c30.369-16.118,116.937-61.671,121.136-58.32
						C3790.99,896.045,3776.23,1036.522,3773.685,1040.085z"/>
				</g>
			</g>
			<g>
				<g>
					<path style="fill:#96A128;" d="M3667.733,1092.255c-4.708,1.739-8.313,2.842-10.349,3.011
						c-3.478,0.297-11.537-2.375-21.928-6.701c-0.254-32.405,6.871-139.459,6.871-139.459c8.504-10.879,21.865-3.054,22.437,1.188
						v0.043C3666.503,954.535,3669.896,1058.959,3667.733,1092.255z"/>
				</g>
			</g>
			<g>
				<g>
					<path style="fill:#FEE4AD;" d="M3785.9,891.973"/>
				</g>
			</g>
			<g>
				<g>
					<path style="fill:#96A128;" d="M3697,968.133c4.25-3.2,65.87-33.592,66.251-30.92c0.382,2.672-1.527,48.48-3.054,50.77
						s-62.325,29.012-63.852,28.248C3694.818,1015.468,3694.588,969.948,3697,968.133z"/>
				</g>
			</g>
			<g>
				<g>
					<path style="fill:#96A128;" d="M3569.841,1024.816c2.698-1.069,42.499,19.595,43.008,20.868c0.509,1.273,1.018,10.943,0,10.943
						c-1.018,0-42.499-20.614-43.008-22.14C3569.332,1032.959,3568.475,1025.356,3569.841,1024.816z"/>
				</g>
			</g>
			<g>
				<g>
					<path style="fill:#F8B396;" d="M3790.986,976.774c0.061-6.042-19.023-28.208-21.502-25.921s8.687,18.437,8.687,18.437
						s-18.239-14.077-20.153-12.334c-1.915,1.742,14.472,17.395,14.472,17.395s-14.145-6.658-15.399-4.604
						c-1.254,2.055,13.47,9.879,13.47,9.879s-9.963-1.86-10.565,0.693C3759.392,982.872,3790.745,1000.766,3790.986,976.774z"/>
				</g>
			</g>
			<g>
				<g>
					<path style="fill:#F8B396;" d="M3516.579,946.719c1.218-5.918,24.556-23.549,26.496-20.789
						c1.94,2.76-12.388,16.184-12.388,16.184s20.802-9.903,22.305-7.795c1.503,2.108-17.822,13.942-17.822,13.942
						s15.233-3.517,16.024-1.244s-15.254,6.808-15.254,6.808s10.131,0.289,10.18,2.911
						C3546.169,959.357,3511.742,970.22,3516.579,946.719z"/>
				</g>
			</g>
		</g>
		<g>
			<g style="opacity:0.5;">
				<path style="fill:#FFFFFF;" d="M4322.832,1601.306c-156.142,55.447-77.631,289.037,80.286,238.938
					C4559.255,1784.799,4480.744,1551.209,4322.832,1601.306z"/>
			</g>
			<g>
				<g>
					<path style="fill:#EC321E;" d="M4238.619,1762.536c55.359,162.367,302.598,79.305,248.682-83.546
						C4429.652,1516.562,4186.54,1598.209,4238.619,1762.536z M4468.559,1685.28c45.818,138.294-164.164,208.866-211.198,70.967
						C4213.111,1616.661,4419.554,1547.281,4468.559,1685.28z"/>
				</g>
				<g>
					
						<rect x="3998.781" y="1785.095" transform="matrix(0.9479 -0.3185 0.3185 0.9479 -358.0507 1408.8087)" style="fill:#EC321E;" width="260.789" height="28.49"/>
				</g>
			</g>
			<g style="opacity:0.8;">
				<path style="fill:#FFFFFF;" d="M4444.988,1684.841c-34.582-11.664-66.908,99.742-31.448,108.393
					C4448.119,1804.896,4480.445,1693.491,4444.988,1684.841z"/>
			</g>
		</g>
		<g>
			<g>
				<path style="fill:#F8B396;" d="M1671.542,1463.951c0.319-6.621,27.754-28.808,29.945-27.234
					c2.191,1.575-6.367,16.273-6.367,16.273s37.815-12.18,39.343-9.967s-23.499,14.091-23.499,14.091s28.882-9.199,29.941-6.458
					c1.058,2.74-28.837,13.464-28.837,13.464s27.963-7.212,26.476-2.924c-0.548,1.579-25.048,9.05-25.048,9.05
					s18.144-2.685,18.342-0.996c0.197,1.689-14.981,6.799-28.08,8.653c-13.099,1.854-40.322,5.122-41.405,3.683
					c-1.083-1.438-4.706-12.234-4.706-12.234L1671.542,1463.951z"/>
			</g>
			<g>
				<path style="fill:#F8B396;" d="M1207.242,1475.375c-0.95-6.56-30.38-26.025-32.411-24.248c-2.031,1.777,7.892,15.59,7.892,15.59
					s-38.805-8.511-40.115-6.162c-1.309,2.349,24.738,11.781,24.738,11.781s-29.629-6.397-30.421-3.568
					c-0.791,2.829,29.992,10.647,29.992,10.647s-28.524-4.507-26.634-0.381c0.696,1.52,25.798,6.615,25.798,6.615
					s-18.318-0.939-18.353,0.761s15.562,5.336,28.778,5.931c13.216,0.594,40.626,1.245,41.567-0.29s3.515-12.628,3.515-12.628
					L1207.242,1475.375z"/>
			</g>
			<g>
				<g>
					<path style="fill:#612D0A;" d="M1462.465,1279.114c15.056-13.462,11.001-57.489-13.818-60.859
						c-23.606-3.205-27.199,15.734-27.199,15.734s-7.64-15.216-20.849-9.777c-13.209,5.439-6.814,21.756-6.814,21.756
						s-22.971-11.655-33.331,10.101c-10.36,21.756,11.655,29.786,11.655,29.786s-19.684,1.366-16.835,21.144
						c2.849,19.777,23.828,18.701,23.828,18.701s-4.555,18.948,12.615,23.609c17.17,4.662,31.459-6.216,31.459-6.216
						L1462.465,1279.114z"/>
				</g>
				<g>
					<path style="fill:#F8B396;" d="M1396.016,1308.055c-7.677-2.783-14.911,5.844-9.506,14.524c5.405,8.68,13.29,8.056,15.94,4.194
						C1405.101,1322.911,1396.016,1308.055,1396.016,1308.055z"/>
				</g>
				<g>
					<path style="fill:#CC7459;" d="M1392.189,1312.749c-6.188,1.151,0.123,10.457,4.749,9.853S1392.189,1312.749,1392.189,1312.749
						z"/>
				</g>
				<g>
					<path style="fill:#F8B396;" d="M1436.952,1383.683c-8.728,2.593-25.215-5.248-25.215-5.248l0.662-38.138l0.08-4.782
						l15.678,6.537l9.458,3.937l3.937,17.689l2.099,9.547C1443.652,1373.226,1445.681,1381.09,1436.952,1383.683z"/>
				</g>
				<g>
					<path style="fill:#F3936C;" d="M1441.553,1363.678c-9.728,0.476-23.744-12.106-29.153-23.381c0,0,8.397,0.62,15.759,1.755
						l9.458,3.937L1441.553,1363.678z"/>
				</g>
				<g>
					<path style="fill:#F8B396;" d="M1468.924,1303.848c0.399,2.148,0.721,4.31,0.911,6.416c1.88,20.536-2.741,38.04-21.296,41.45
						c-26.293,4.81-58.202-26.219-56.776-44.179c0.046,0.032,0.054,0.071,0.054,0.071c22.461-5.43,37.25-41.469,37.25-41.469
						s19.632,16.063,33.399,12.977C1465.541,1287.833,1467.742,1296.19,1468.924,1303.848z"/>
				</g>
				<g>
					<path style="fill:#471200;" d="M1453.744,1298.265c0.59,2.895,2.061,5.04,3.285,4.791c1.224-0.25,1.738-2.799,1.148-5.694
						c-0.59-2.895-2.061-5.04-3.285-4.791C1453.668,1292.821,1453.154,1295.37,1453.744,1298.265z"/>
				</g>
				<g>
					<path style="fill:#471200;" d="M1432.659,1302.187c0.59,2.895,2.061,5.04,3.285,4.791s1.738-2.799,1.148-5.694
						c-0.59-2.895-2.061-5.04-3.285-4.791C1432.582,1296.743,1432.068,1299.292,1432.659,1302.187z"/>
				</g>
				<g>
					<path style="fill:#612D0A;" d="M1423.19,1291.496c-0.435,1.917,9.495-3.259,9.677-4.457c0.182-1.198-1.211-1.426-3.257-0.959
						S1423.3,1291.01,1423.19,1291.496z"/>
				</g>
				<g>
					<path style="fill:#612D0A;" d="M1460.466,1285.75c0.847,1.774-9.98-1.085-10.421-2.213c-0.441-1.128,0.866-1.658,2.966-1.654
						C1455.11,1281.887,1460.252,1285.301,1460.466,1285.75z"/>
				</g>
				<g>
					<g>
						<path style="fill:#F86856;" d="M1439.656,1333.729c0.725,2.999,5.339,4.456,10.305,3.253c4.966-1.203,8.403-4.609,7.678-7.608
							c-0.725-2.999-5.339-4.456-10.305-3.253C1442.368,1327.323,1438.931,1330.729,1439.656,1333.729z"/>
					</g>
					<g>
						<g>
							<path style="fill:#471200;" d="M1446.174,1333.316c4.726-0.422,9.659-1.677,12.429-3.554
								c0.224-0.157,0.254-0.402,0.068-0.546c-0.198-0.152-0.533-0.17-0.746-0.006c-5.101,3.456-18.5,4.742-22.061,2.124
								c-0.208-0.127-0.531-0.13-0.756,0.019c-0.213,0.164-0.231,0.408-0.034,0.552
								C1437.04,1333.334,1441.504,1333.734,1446.174,1333.316z"/>
						</g>
					</g>
				</g>
				<g>
					<path style="fill:#F08D78;" d="M1415.67,1317.897c0.18,3.912,4.244,6.904,9.077,6.682c4.833-0.222,8.605-3.574,8.426-7.486
						c-0.18-3.913-4.244-6.904-9.077-6.682C1419.263,1310.633,1415.49,1313.984,1415.67,1317.897z"/>
				</g>
				<g>
					<g>
						<path style="fill:#C07255;" d="M1449.323,1318.574c1.771-0.432,3.123-1.438,3.815-2.885c0.747-1.56,0.58-3.391-0.436-4.783
							c-1.231-1.692-3.483-2.456-6.174-2.087c-0.265,0.043-0.369,0.232-0.339,0.444c0.031,0.216,0.231,0.365,0.444,0.339
							c2.394-0.33,4.378,0.318,5.433,1.769c0.845,1.154,0.982,2.683,0.36,3.98c-0.763,1.585-2.496,2.559-4.747,2.665
							c-0.207-0.001-0.388,0.193-0.374,0.41c0.01,0.217,0.194,0.387,0.41,0.374
							C1448.282,1318.772,1448.819,1318.697,1449.323,1318.574z"/>
					</g>
				</g>
				<g>
					<path style="fill:#54493F;" d="M1478.425,1898.772c-4.82,11.669-9.64,30.949-5.074,35.008c4.566,4.059,83.2,4.652,85.237,1.776
						c4.313-6.088-19.085-27.398-43.536-33.74C1490.602,1895.474,1478.425,1898.772,1478.425,1898.772z"/>
				</g>
				<g>
					<path style="fill:#54493F;" d="M1356.455,1898.772c4.82,11.669,9.64,30.949,5.074,35.008c-4.566,4.059-83.2,4.652-85.237,1.776
						c-4.313-6.088,19.085-27.398,43.536-33.74C1344.279,1895.474,1356.455,1898.772,1356.455,1898.772z"/>
				</g>
				<g>
					<path style="fill:#86D8D1;" d="M1206.349,1498.49c2.59,3.108,85.47,27.454,106.708,20.202
						c20.719-7.079,55.209-53.57,56.937-55.858c0.043-0.043,0.043-0.086,0.043-0.086s0,87.066,2.029,120.132
						c0.432,7.209,0.95,11.828,1.597,12.475c1.771,1.769,10.878,4.014,24.26,5.611c14.288,1.727,33.367,2.719,53.439,1.64
						c38.721-2.072,51.196-7.727,55.383-11.871l0.043-0.043c4.144-4.144,5.18-130.017,5.18-130.017s37.814,35.742,53.871,40.922
						c16.058,5.18,102.563-11.884,105.154-13.438c2.59-1.554,2.59-31.555-2.072-34.145c-4.662-2.59-83.397-2.664-88.06-3.181
						c-4.661-0.518-59.569-59.57-77.181-69.412c-2.979-1.64-6.605-2.978-10.662-4.014c-10.705-2.849-24.087-3.842-34.231-4.144
						c-8.806-0.302-15.151-0.043-15.151-0.043c-3.151,11.309-31.9,2.158-31.9,2.158s-8.029,0.906-18.648,3.238
						c-11.352,2.417-25.684,6.432-36.389,12.604c-20.72,11.914-52.447,77.225-56.073,79.297s-86.462-5.525-90.52-1.684
						C1206.22,1472.505,1203.76,1495.382,1206.349,1498.49z"/>
				</g>
				<g>
					<g>
						<path style="fill:#B292CA;" d="M1314.87,1896.83c4.144,9.971,41.224,12.346,48.476,8.633
							c7.252-3.755,65.138-257.617,75.584-256.408c10.446,1.252,38.331,90.304,39.886,105.887
							c1.554,15.54-8.288,132.003-4.144,141.37c4.144,9.324,44.029,8.072,49.209,3.065c5.18-4.921,16.058-88.405,11.914-157.514
							s-28.91-151.534-28.91-151.534s-73.135-0.887-110.561,1.833c-12.647,0.906-21.497,2.374-22.662,4.705
							c-1.122,2.244-5.137,19.382-10.576,44.418C1345.82,1720.322,1311.719,1889.276,1314.87,1896.83z"/>
					</g>
					<g>
						<path style="fill:#8A66AA;" d="M1363.087,1641.285c10.274-0.517,26.936-7.985,34.836-38.245
							c0.475-1.9,0.949-3.929,1.381-6.044c0,0-1.079-2.115-2.979-4.834c-12.647,0.906-21.497,0.863-22.662,3.194
							C1372.54,1597.6,1368.526,1616.248,1363.087,1641.285z"/>
					</g>
				</g>
				<g>
					<path style="fill:#BBEFEC;" d="M1370.037,1462.749c0,0,0,87.066,2.029,120.132c0.432,7.209,0.95,11.828,1.597,12.475
						c1.771,1.769,10.878,4.014,24.26,5.611c14.288,1.727,33.367,2.719,53.439,1.64c38.721-2.072,51.196-7.727,55.383-11.871
						l0.043-0.043c4.144-4.144,5.18-130.017,5.18-130.017s-4.748-60.735-18.949-83.268c-10.705-2.849-24.087-3.842-34.231-4.144
						c3.971,17.224-14.029,33.627-35.31,28.188c-14.374-3.669-28.101-16.058-30.389-22.835
						c-11.352,2.417-25.684,6.432-36.389,12.604C1383.764,1416.776,1370.037,1462.749,1370.037,1462.749z"/>
				</g>
			</g>
		</g>
		<g>
			<g>
				<polygon style="fill:#0071A1;" points="3003.926,1099.25 3370.612,707.69 3019.974,979.695 				"/>
			</g>
			<g>
				<polygon style="fill:#76D8D4;" points="2816.972,934.302 3370.612,707.69 2971.954,929.327 				"/>
			</g>
			<g>
				<polygon style="fill:#76D8D4;" points="3370.612,707.69 3056.081,964.939 3144.342,1076.783 				"/>
			</g>
			<g>
				<polygon style="fill:#0C87B3;" points="2971.954,929.327 3003.926,1099.25 3056.081,964.939 3370.612,707.69 				"/>
			</g>
		</g>
		<g>
			<g>
				<g>
					<polygon style="fill:#FE87A0;" points="2221.108,1878.288 1875.952,1878.288 1929.711,1559.544 2012.49,1559.544 
						2012.49,1559.477 2167.348,1559.544 					"/>
				</g>
			</g>
			<g>
				<g>
					<circle style="fill:#EC321E;" cx="2003.848" cy="1618.719" r="10.832"/>
				</g>
				<g>
					<circle style="fill:#EC321E;" cx="2093.212" cy="1618.719" r="10.832"/>
				</g>
			</g>
			<g>
				<g>
					<g>
						<path style="fill:#FCB6C8;" d="M2048.533,1725.652c-17.794,0-31.402-5.684-40.452-16.899
							c-14.189-17.585-16.71-48.115-7.496-90.738c0.385-1.799,2.148-2.971,3.97-2.563c1.809,0.392,2.951,2.171,2.56,3.973
							c-8.639,39.982-6.504,69.418,6.171,85.129c7.718,9.563,19.576,14.411,35.248,14.411c1.848,0,3.343,1.495,3.343,3.343
							C2051.876,1724.156,2050.381,1725.652,2048.533,1725.652z"/>
					</g>
				</g>
				<g>
					<g>
						<path style="fill:#FCB6C8;" d="M2048.533,1725.652c-1.848,0-3.343-1.495-3.343-3.343c0-1.848,1.495-3.343,3.343-3.343
							c15.665,0,27.523-4.848,35.241-14.408c12.674-15.714,14.809-45.15,6.17-85.132c-0.392-1.802,0.751-3.582,2.56-3.973
							c1.815-0.408,3.591,0.764,3.97,2.563c9.213,42.623,6.693,73.153-7.496,90.741
							C2079.928,1719.968,2066.32,1725.652,2048.533,1725.652z"/>
					</g>
				</g>
			</g>
		</g>
		<g>
			<g>
				<g>
					<g>
						<path style="fill:#FD9724;" d="M535.03,1664.5c-8.094,7.065-13.093,16.848-13.093,27.666c0,21.61,20.023,39.13,44.703,39.13
							h376.195v9.938H563.515c-29.735,0-53.848-21.972-53.848-49.069c0-13.561,6.021-25.828,15.762-34.705
							c9.741-8.877,23.203-14.363,38.085-14.363h379.319v9.938H566.64C554.285,1653.035,543.124,1657.409,535.03,1664.5z"/>
					</g>
				</g>
				<g>
					<g>
						<path style="fill:#FEE4AD;" d="M935.678,1653.035v78.261H564.14c-23.317,0-42.204-17.521-42.204-39.13
							c0-10.818,4.715-20.6,12.354-27.666c7.64-7.091,18.176-11.465,29.849-11.465H935.678z"/>
					</g>
				</g>
				<g>
					<g>
						<path style="fill:#FD8821;" d="M564.14,1653.035v78.261c-23.317,0-42.204-17.521-42.204-39.13
							c0-10.818,4.715-20.6,12.354-27.666C541.931,1657.409,552.467,1653.035,564.14,1653.035z"/>
					</g>
				</g>
				<g>
					<g>
						<g>
							<g>
								<rect x="564.14" y="1672.514" style="fill:#FEDE8C;" width="371.537" height="2.588"/>
							</g>
						</g>
					</g>
					<g>
						<g>
							<g>
								<rect x="564.14" y="1684.753" style="fill:#FEDE8C;" width="371.537" height="2.588"/>
							</g>
						</g>
					</g>
					<g>
						<g>
							<g>
								<rect x="564.14" y="1696.991" style="fill:#FEDE8C;" width="371.537" height="2.588"/>
							</g>
						</g>
					</g>
					<g>
						<g>
							<g>
								<rect x="564.14" y="1709.23" style="fill:#FEDE8C;" width="371.537" height="2.588"/>
							</g>
						</g>
					</g>
					<g>
						<g>
							<g>
								<rect x="564.14" y="1721.469" style="fill:#FEDE8C;" width="371.537" height="2.588"/>
							</g>
						</g>
					</g>
					<g>
						<g>
							<g>
								<rect x="564.14" y="1660.275" style="fill:#FEDE8C;" width="371.537" height="2.588"/>
							</g>
						</g>
					</g>
				</g>
				<g>
					<g>
						<rect x="598.029" y="1671.02" style="fill:#EC321E;" width="29.802" height="47.791"/>
					</g>
				</g>
			</g>
			<g>
				<g>
					<g>
						<path style="fill:#B6BF40;" d="M658.289,1770.539c-8.132,9.71-13.154,23.155-13.154,38.022
							c0,29.699,20.117,53.778,44.914,53.778h377.968v13.658H686.909c-29.876,0-54.101-30.197-54.101-67.436
							c0-18.637,6.049-35.497,15.837-47.696c9.787-12.2,23.313-19.74,38.265-19.74h381.107v13.658H690.048
							C677.635,1754.783,666.421,1760.794,658.289,1770.539z"/>
					</g>
				</g>
				<g>
					<g>
						<path style="fill:#FEE4AD;" d="M1060.826,1754.783v107.557H687.537c-23.427,0-42.402-24.079-42.402-53.778
							c0-14.867,4.737-28.312,12.413-38.022c7.676-9.745,18.262-15.756,29.99-15.756H1060.826z"/>
					</g>
				</g>
				<g>
					<g>
						<path style="fill:#96A128;" d="M687.537,1754.783v107.557c-23.427,0-42.402-24.079-42.402-53.778
							c0-14.867,4.737-28.312,12.413-38.022C665.223,1760.794,675.809,1754.783,687.537,1754.783z"/>
					</g>
				</g>
				<g>
					<g>
						<g>
							<g>
								<rect x="687.537" y="1781.553" style="fill:#FEDE8C;" width="373.288" height="3.557"/>
							</g>
						</g>
					</g>
					<g>
						<g>
							<g>
								<rect x="687.537" y="1798.373" style="fill:#FEDE8C;" width="373.288" height="3.557"/>
							</g>
						</g>
					</g>
					<g>
						<g>
							<g>
								<rect x="687.537" y="1815.193" style="fill:#FEDE8C;" width="373.288" height="3.557"/>
							</g>
						</g>
					</g>
					<g>
						<g>
							<g>
								<rect x="687.537" y="1832.013" style="fill:#FEDE8C;" width="373.288" height="3.557"/>
							</g>
						</g>
					</g>
					<g>
						<g>
							<g>
								<rect x="687.537" y="1848.833" style="fill:#FEDE8C;" width="373.288" height="3.557"/>
							</g>
						</g>
					</g>
					<g>
						<g>
							<g>
								<rect x="687.537" y="1764.733" style="fill:#FEDE8C;" width="373.288" height="3.557"/>
							</g>
						</g>
					</g>
				</g>
				<g>
					<g>
						<polygon style="fill:#FCCE3A;" points="783.764,1778.414 783.764,1840.971 754.917,1818.746 726.039,1840.971 
							726.039,1778.414 						"/>
					</g>
				</g>
			</g>
		</g>
		<g>
			<g>
				<path style="fill:#0C87B3;" d="M3139.781,764.806h-723.914c-13.69,0-24.788-11.098-24.788-24.788V529.104
					c0-13.69,11.098-24.788,24.788-24.788h723.914c13.69,0,24.788,11.098,24.788,24.788v210.914
					C3164.57,753.708,3153.472,764.806,3139.781,764.806z"/>
			</g>
			<g>
				<polygon style="fill:#0C87B3;" points="2545.937,756.091 2570.811,844.353 2636.606,744.858 				"/>
			</g>
			<g>
				<g>
					<g>
						<g>
							<path style="fill:#BBEFEC;" d="M2628.033,700.891H2470.23c0.544-35.163,29.212-63.479,64.503-63.479h28.796
								C2598.821,637.411,2627.489,665.727,2628.033,700.891z"/>
						</g>
						<g>
							
								<ellipse transform="matrix(0.9771 -0.213 0.213 0.9771 -69.1811 556.7257)" style="fill:#BBEFEC;" cx="2549.131" cy="599.427" rx="31.196" ry="31.196"/>
						</g>
					</g>
					<g>
						<g>
							<path style="fill:#BBEFEC;" d="M2963.274,643.374c18.776-41.888,24.169-40.259,35.776-51.887
								c12.813-12.837,18.006-23.715,21.567-23.241c6.089,0.811,7.965,14.527,0.19,27.43c-8.183,13.58-13.384,17.16-12.369,19.322
								c1.015,2.162,58.357,0,64.7,0c6.343,0,13.194,6.486,12.179,14.053c-1.015,7.567-12.686,44.59-21.567,48.914
								c-8.88,4.324-100.983,1.622-102.506,0C2959.722,676.343,2963.274,643.374,2963.274,643.374z"/>
						</g>
						<g>
							<path style="fill:#BBEFEC;" d="M2975.774,688.093l-20.063,12.309c-1.944,1.192-4.481,0.096-4.945-2.136l-14.031-67.507
								c-0.435-2.091,1.205-4.036,3.34-3.96l22.932,0.81c1.519,0.054,2.803,1.14,3.109,2.628l11.163,54.388
								C2977.556,685.982,2976.955,687.368,2975.774,688.093z"/>
						</g>
					</g>
					<g>
						<g>
							<path style="fill:#BBEFEC;" d="M2845.111,672.65h-130.05c-4.8,0-8.691-3.891-8.691-8.691v-87.038
								c0-4.8,3.891-8.691,8.691-8.691h130.05c4.8,0,8.691,3.891,8.691,8.691v87.038
								C2853.802,668.76,2849.911,672.65,2845.111,672.65z"/>
						</g>
						<g>
							<polygon style="fill:#BBEFEC;" points="2829.644,664.657 2837.649,700.891 2789.678,664.657 							"/>
						</g>
						<g>
							<g>
								<rect x="2732.544" y="596.736" style="fill:#76D8D4;" width="95.083" height="6.685"/>
							</g>
							<g>
								<rect x="2732.544" y="617.101" style="fill:#76D8D4;" width="95.083" height="6.685"/>
							</g>
							<g>
								<rect x="2732.544" y="637.46" style="fill:#76D8D4;" width="62.183" height="6.685"/>
							</g>
						</g>
					</g>
				</g>
				<g>
					<circle style="fill:#EC321E;" cx="2618.093" cy="687.547" r="25.617"/>
				</g>
			</g>
		</g>
		<g>
			<g>
				<g>
					<path style="fill:#FCB6C8;" d="M4749.141,1375.334c-26.09,9.524-82.874,58.775-82.874,58.775s-63.528-42.298-67.109-41.719
						s-19.805,15.355-18.356,22.887c1.448,7.532,58.522,62.578,86.914,61.999c28.392-0.579,75.905-43.747,75.905-43.747
						L4749.141,1375.334z"/>
				</g>
				<g>
					<g>
						<g>
							<path style="fill:#F8B396;" d="M4827.107,1933.866c-4.443,3.959-81.216,4.539-83.196,1.738
								c-2.655-3.718,5.456-13.375,17.77-21.584c7.194-4.78,15.885-9.029,24.722-11.347c23.901-6.18,35.78-2.994,35.78-2.994
								c0.869,2.173,1.738,4.587,2.607,7.098C4828.314,1917.641,4830.728,1930.63,4827.107,1933.866z"/>
						</g>
					</g>
					<g>
						<path style="fill:#54493F;" d="M4827.107,1933.866c-4.443,3.959-81.216,4.539-83.196,1.738
							c-2.655-3.718,5.456-13.375,17.77-21.584c10.961,3.621,44.229,1.546,63.109-7.243
							C4828.314,1917.641,4830.728,1930.63,4827.107,1933.866z"/>
					</g>
				</g>
				<g>
					<g>
						<g>
							<path style="fill:#F8B396;" d="M5007.182,1812.915c0.831,5.892-41.266,70.098-44.695,70.193
								c-4.566,0.148-8.104-11.958-8.105-26.756c0.012-8.638,1.297-18.226,4.269-26.864c8.113-23.317,17.353-31.433,17.353-31.433
								c2.29,0.481,4.781,1.098,7.353,1.767C4994.351,1802.912,5006.498,1808.107,5007.182,1812.915z"/>
						</g>
					</g>
					<g>
						<path style="fill:#54493F;" d="M5007.182,1812.915c0.831,5.892-41.266,70.098-44.695,70.193
							c-4.566,0.148-8.104-11.958-8.105-26.756c9.092-7.112,25.815-35.947,28.974-56.531
							C4994.351,1802.912,5006.498,1808.107,5007.182,1812.915z"/>
					</g>
				</g>
				<g>
					<path style="fill:#0C87B3;" d="M4979.158,1796.975c0,3.815-2.414,9.995-6.084,15.79c-0.386,0.724-0.87,1.4-1.352,2.124
						c-5.167,7.436-12.168,13.714-18.494,12.796c-11.733-1.739-140.801-66.924-140.801-66.924s13.712,134.91,12.602,138.628
						c-1.738,5.795-39.546,5.939-44.761,1.594c-5.214-4.346-33.752-106.76-33.752-167.021c0-60.26,5.505-170.931,5.505-170.931
						l74.794-4.346l2.511-0.145l19.604-1.159c47.368,35.635,15.21,161.516,15.21,161.516S4979.158,1788.574,4979.158,1796.975z"/>
				</g>
				<g>
					<g>
						<path style="fill:#0071A1;" d="M4973.074,1812.765c-0.386,0.724-0.87,1.4-1.352,2.124
							c-42.733-36.793-76.292-54.031-98.841-65.62c-18.396-9.416-29.454-15.113-33.606-24.674c-3.767-8.692-3.09-27.281-2.27-50.845
							c1.255-36.118,2.752-80.975-10.188-115.064c-0.048-0.289-0.193-0.579-0.29-0.869l2.221-0.869
							c0.193,0.531,0.386,1.062,0.58,1.593c12.844,34.379,11.347,79.189,10.091,115.306c-0.772,22.308-1.448,41.622,2.076,49.783
							c3.767,8.739,14.583,14.292,32.449,23.467C4896.59,1758.734,4930.245,1776.02,4973.074,1812.765z"/>
					</g>
				</g>
				<g>
					<path style="fill:#0071A1;" d="M4783.893,1602.433c10.138,60.84,7.241,110.518,10.138,128.267
						c2.897,17.749,18.396,30.062,18.396,30.062s-21.294-5.939-27.667-28.537
						C4778.387,1709.627,4783.893,1602.433,4783.893,1602.433z"/>
				</g>
				<g>
					<path style="fill:#B5573B;" d="M4747.58,1274.717c-25.326-14.581,4.442-62.166,20.521-61.949s19.773,11.733,19.773,11.733
						s17.89-27.088,45.63-6.229s0.507,67.542,36.432,95.19c35.925,27.648,122.259,62.414,111.25,132.525
						c-11.009,70.111-195.952,62.796-213.572,14.015c-17.62-48.781,25.257-69.64,28.734-115.415S4747.58,1274.717,4747.58,1274.717z
						"/>
				</g>
				<g>
					<g>
						<path style="fill:#F8B396;" d="M4820.734,1301.514c8.059-3.479,16.374,5.315,11.131,14.976s-13.744,9.496-16.835,5.522
							C4811.938,1318.036,4820.734,1301.514,4820.734,1301.514z"/>
					</g>
				</g>
				<g>
					<g>
						<path style="fill:#CC7459;" d="M4825.142,1306.305c6.713,0.839,0.538,11.228-4.464,10.877
							C4815.676,1316.832,4825.142,1306.305,4825.142,1306.305z"/>
					</g>
				</g>
				<g>
					<g>
						<path style="fill:#F8B396;" d="M4781.655,1385.286c9.532,2.223,26.72-7.246,26.72-7.246l-3.154-40.88l-0.392-5.126
							l-16.405,8.019l-9.896,4.83l-3.091,19.233l-1.641,10.379C4773.796,1374.495,4772.123,1383.063,4781.655,1385.286z"/>
					</g>
				</g>
				<g>
					<g>
						<path style="fill:#F3936C;" d="M4775.437,1364.116c10.469-0.112,24.702-14.511,29.784-26.956c0,0-8.971,1.203-16.797,2.893
							l-9.896,4.83L4775.437,1364.116z"/>
					</g>
				</g>
				<g>
					<g>
						<path style="fill:#F8B396;" d="M4742.234,1301.671c-0.291,2.33-0.497,4.67-0.566,6.942
							c-0.702,22.156,5.378,40.642,25.506,43.113c28.521,3.477,60.772-31.862,58.091-51.042c-0.048,0.037-0.053,0.08-0.053,0.08
							c-24.449-4.388-42.626-42.11-42.626-42.11s-20.036,18.493-35.006,16.064
							C4744.838,1284.27,4743.012,1293.378,4742.234,1301.671z"/>
					</g>
				</g>
				<g>
					<g>
						<path style="fill:#471200;" d="M4758.164,1294.708c-0.447,3.145-1.888,5.54-3.217,5.351c-1.33-0.189-2.044-2.892-1.597-6.036
							c0.448-3.144,1.889-5.54,3.218-5.351C4757.897,1288.861,4758.612,1291.563,4758.164,1294.708z"/>
					</g>
				</g>
				<g>
					<g>
						<path style="fill:#471200;" d="M4781.041,1297.565c-0.448,3.145-1.888,5.54-3.218,5.351c-1.329-0.189-2.044-2.892-1.596-6.036
							c0.448-3.145,1.889-5.54,3.218-5.351C4780.774,1291.718,4781.488,1294.421,4781.041,1297.565z"/>
					</g>
				</g>
				<g>
					<g>
						<path style="fill:#B5573B;" d="M4790.516,1285.486c0.59,2.029-10.397-2.888-10.669-4.162
							c-0.271-1.274,1.208-1.608,3.434-1.238C4785.507,1280.456,4790.367,1284.972,4790.516,1285.486z"/>
					</g>
				</g>
				<g>
					<g>
						<path style="fill:#B5573B;" d="M4750.149,1281.71c-0.795,1.958,10.639-1.803,11.04-3.042c0.401-1.239-1.036-1.724-3.288-1.585
							C4755.649,1277.222,4750.351,1281.214,4750.149,1281.71z"/>
					</g>
				</g>
				<g>
					<g>
						<g>
							<path style="fill:#F86856;" d="M4775.554,1331.858c-0.586,3.265-5.443,5.123-10.849,4.151
								c-5.405-0.972-9.313-4.407-8.727-7.672c0.586-3.265,5.443-5.123,10.849-4.151
								C4772.233,1325.158,4776.14,1328.593,4775.554,1331.858z"/>
						</g>
					</g>
					<g>
						<g>
							<g>
								<path style="fill:#471200;" d="M4768.533,1331.833c-5.099-0.15-10.472-1.181-13.564-3.018
									c-0.25-0.154-0.298-0.415-0.107-0.582c0.203-0.176,0.561-0.217,0.8-0.054c5.695,3.382,20.155,3.903,23.808,0.866
									c0.215-0.149,0.562-0.173,0.812-0.028c0.239,0.162,0.274,0.423,0.072,0.59
									C4778.335,1331.267,4773.571,1331.982,4768.533,1331.833z"/>
							</g>
						</g>
					</g>
				</g>
				<g>
					<g>
						<path style="fill:#F08D78;" d="M4800.276,1313.334c0.058,4.21-4.111,7.68-9.312,7.751c-5.2,0.071-9.463-3.284-9.521-7.493
							c-0.058-4.21,4.111-7.68,9.312-7.751S4800.218,1309.124,4800.276,1313.334z"/>
					</g>
				</g>
				<g>
					<g>
						<g>
							<path style="fill:#C07255;" d="M4764.209,1316.217c-1.928-0.35-3.443-1.343-4.279-2.851
								c-0.901-1.626-0.839-3.602,0.161-5.161c1.212-1.895,3.58-2.858,6.491-2.635c0.287,0.029,0.412,0.225,0.393,0.455
								c-0.02,0.234-0.225,0.407-0.455,0.392c-2.59-0.201-4.677,0.621-5.717,2.246c-0.833,1.292-0.881,2.942-0.131,4.293
								c0.92,1.652,2.842,2.586,5.265,2.556c0.222-0.015,0.428,0.183,0.427,0.416c0.003,0.234-0.183,0.428-0.416,0.427
								C4765.339,1316.362,4764.758,1316.316,4764.209,1316.217z"/>
						</g>
					</g>
				</g>
				<g>
					<g>
						<path style="fill:#F8B396;" d="M4737.915,1534.607c-2.361-5.835-33.907-17.129-35.378-15.031
							c-1.471,2.098,10.806,12.593,10.806,12.593s-37.716,0.93-38.392,3.393c-0.676,2.463,25.481,5.269,25.481,5.269
							s-28.774,0.804-28.864,3.592c-0.09,2.788,30.07,3.034,30.07,3.034s-27.328,2.297-24.651,5.675
							c0.986,1.244,25.291,0.265,25.291,0.265s-17.107,3.278-16.755,4.855c0.353,1.576,15.561,1.401,27.884-1.041
							c12.324-2.442,37.752-8.043,38.272-9.672c0.52-1.629,0.385-12.442,0.385-12.442L4737.915,1534.607z"/>
					</g>
				</g>
				<g>
					<path style="fill:#FE87A0;" d="M4774.311,1371.238c0.02,11.302,33.729,2.458,33.729,2.458s25.645,9.12,35.206,18.68
						c9.561,9.561,7.859,160.226,5.687,165.006c-2.173,4.78-33.462,10.864-56.06,11.299s-37.373-1.738-40.85-5.649
						c-3.477-3.911,4.824-40.85-10.408-61.709c-15.231-20.859-27.139-31.635-23.923-57.363c2.607-20.859,7.967-46.065,20.063-60.405
						C4749.85,1369.213,4774.311,1371.238,4774.311,1371.238z"/>
				</g>
				<g>
					<path style="fill:#FCB6C8;" d="M4739.621,1528.266c7.884-5.231,93.231-31.869,93.231-31.869s-32.576-105.924,3.477-105.89
						c28.331,0.026,45.977,99.424,35.345,127.619c-9.995,26.509-121.637,39.024-126.025,36.938
						C4738.028,1551.443,4735.063,1531.291,4739.621,1528.266z"/>
				</g>
			</g>
			<g>
				<g>
					<path style="fill:#FD8821;" d="M4568.232,1355.72c0.788,36.053-14.688,78.013-10.479,81.842
						c4.209,3.829,45.074,8.591,53-69.517C4619.175,1285.035,4568.232,1355.72,4568.232,1355.72z"/>
				</g>
				<g>
					<g>
						<path style="fill:#FCCE3A;" d="M4589.162,1261.352c-120.124-10.681-146.831-62.012-146.831-62.012
							s-24.925,99.236-8.371,109.815c16.555,10.579,174.292,14.797,174.292,14.797L4589.162,1261.352z"/>
					</g>
					<g>
						<path style="fill:#FCCE3A;" d="M4414.352,1386.048c0.291-0.129,0.585-0.288,0.879-0.446c1.293-1.078,3.952-3.185,8.039-5.814
							c19.401-12.506,70.994-37.005,161.67-21.811l20.932-34.094l1.572-2.57l11.738-19.107c0,0-7.274-1.685-18.859-4.265
							c-34.983-7.798-109.207-23.715-140.731-25.794c-6.01-0.397-10.468-0.293-12.808,0.465
							c-6.119,1.987-11.714,14.87-16.463,31.308C4421.038,1335.972,4414.941,1381.521,4414.352,1386.048z"/>
					</g>
				</g>
				<g>
					<path style="fill:#FD8821;" d="M4371.361,1283.809c-7.002,54.686,6.675,101.486,30.555,104.543
						c4.142,0.53,8.32-0.286,12.436-2.304c0.291-0.129,0.585-0.288,0.879-0.446c2.719-1.434,5.408-3.39,8.039-5.814
						c13.18-12.167,24.829-36.082,31.23-65.585c1.353-6.21,2.475-12.676,3.326-19.323c0.996-7.774,1.569-15.386,1.766-22.734
						c0.71-27.725-4.089-51.72-12.785-66.463c-1.392-2.362-2.882-4.481-4.467-6.329c0.002-0.019,0.002-0.019-0.009-0.011
						c-4.356-5.13-9.425-8.286-15.061-9.007C4403.391,1187.279,4378.362,1229.132,4371.361,1283.809z"/>
				</g>
				<g>
					<path style="fill:#FD9724;" d="M4374.405,1284.198c-6.731,52.567,4.874,97.358,25.941,100.056
						c3.651,0.468,7.35-0.361,11.001-2.341c0.261-0.123,0.525-0.276,0.779-0.429c2.422-1.403,4.82-3.309,7.167-5.662
						c9.103-9.154,17.473-25.05,23.543-44.932c1.77-5.795,3.35-11.937,4.689-18.345c1.265-5.977,2.315-12.197,3.133-18.583
						c0.958-7.475,1.541-14.783,1.788-21.84c0.19-5.459,0.164-10.759-0.054-15.868c-0.832-19.806-4.582-36.627-10.571-47.812
						c-1.21-2.25-2.507-4.276-3.889-6.03c0.002-0.019,0.002-0.019-0.008-0.011c-3.791-4.881-8.236-7.859-13.207-8.496
						C4403.651,1191.209,4381.134,1231.641,4374.405,1284.198z"/>
				</g>
				<g>
					<path style="fill:#FCCE3A;" d="M4400.26,1287.509c-2.714,21.193,12.271,40.578,33.463,43.292
						c3.092,0.396,6.145,0.415,9.114,0.09c1.77-5.795,3.35-11.937,4.689-18.345c1.265-5.977,2.315-12.197,3.133-18.583
						c0.958-7.475,1.541-14.783,1.788-21.84c0.19-5.459,0.164-10.759-0.054-15.868c-2.792-1.062-5.75-1.813-8.842-2.209
						C4422.359,1251.332,4402.973,1266.317,4400.26,1287.509z"/>
				</g>
				<g>
					
						<ellipse transform="matrix(0.1054 -0.9944 0.9944 0.1054 2842.3276 5792.4946)" style="fill:#FCCE3A;" cx="4640.517" cy="1316.538" rx="28.684" ry="28.684"/>
				</g>
				<g>
					<g>
						<path style="fill:#FD9724;" d="M4577.297,1260.131c5.945-7.879,50.484-3.338,58.427,3.423
							c7.31,6.223,18.729,20.727,11.88,58.622c-7.152,39.565-66.765,26.357-62.128-4.783
							C4591.766,1275.152,4577.297,1260.131,4577.297,1260.131z"/>
					</g>
					<g>
						<path style="fill:#FD9724;" d="M4565.211,1355.208c3.769,9.123,48.015,15.95,57.404,11.408
							c8.642-4.18,23.347-15.339,26.267-53.737c3.048-40.09-57.97-42.328-61.329-11.025
							C4582.998,1344.317,4565.211,1355.208,4565.211,1355.208z"/>
					</g>
				</g>
			</g>
			<g>
				<g>
					<path style="fill:#F8B396;" d="M4559.384,1387.125c2.916-5.292,30.429-15.22,31.464-12.009s-16.625,11.789-16.625,11.789
						s22.802-3.298,23.613-0.839s-21.152,8.039-21.152,8.039s15.591,1.152,15.674,3.557c0.082,2.406-16.586,1.984-16.586,1.984
						s9.591,3.276,8.862,5.795C4583.904,1407.96,4547.804,1408.139,4559.384,1387.125z"/>
				</g>
			</g>
		</g>
		<g>
			<g>
				<g>
					<path style="fill:#F86856;" d="M3736.907,1929.79c-20.059,9.06-42.793,18.539-42.793,18.539l-250.437,39.665l-21.811,3.441
						l-46.49,7.373l-20.454,3.238l-21.771,3.453c-12.197,1.922-23.677-5.583-27.109-17.06c-0.342-1.182-0.604-2.34-0.763-3.554
						c-1.89-13.182,7.177-25.41,20.314-27.443l21.263-3.344l20.481-3.186l46.974-7.402l21.85-3.429l250.935-39.302
						c0,0,24.839,3.118,46.761,6.454c17.164,2.618,32.521,5.35,33.099,6.903C3767.52,1915.598,3753.067,1922.514,3736.907,1929.79z"
						/>
				</g>
			</g>
			<g>
				<g>
					<g>
						<g>
							
								<rect x="3355.23" y="1939.068" transform="matrix(0.9886 -0.1503 0.1503 0.9886 -251.6947 552.3589)" style="fill:#EC321E;" width="345.555" height="4.145"/>
						</g>
					</g>
				</g>
				<g>
					<g>
						<g>
							
								<rect x="3358.523" y="1955.582" transform="matrix(0.9886 -0.1503 0.1503 0.9886 -254.1395 553.0416)" style="fill:#EC321E;" width="345.555" height="4.145"/>
						</g>
					</g>
				</g>
			</g>
			<g>
				<g>
					<path style="fill:#FEE4AD;" d="M3694.123,1948.338l-7.01-47.572c0,0,24.811,3.124,46.759,6.476
						c17.136,2.613,32.512,5.358,33.084,6.895c0.547,1.453-13.887,8.396-30.047,15.668
						C3716.843,1938.839,3694.123,1948.338,3694.123,1948.338z"/>
				</g>
			</g>
			<g>
				<g>
					<path style="fill:#EC321E;" d="M3736.909,1929.805l-3.038-22.564c17.136,2.613,32.512,5.358,33.084,6.895
						C3767.503,1915.589,3753.069,1922.533,3736.909,1929.805z"/>
				</g>
			</g>
			<g>
				<g>
					<g>
						<polygon style="fill:#EC321E;" points="3375.377,1998.808 3354.923,2002.045 3346.858,1954.097 3367.34,1950.911 						"/>
					</g>
				</g>
			</g>
		</g>
		<g>
			<g>
				<path style="fill:#424443;" d="M2516.938,2049.203c-21.048-1.696-109.923-69.61-121.963-97.144
					c-2.346-5.37-2.224-9.765,0.368-13.064c13.762-17.502,78.813,22.675,106.145,40.764c2.249,1.488,2.866,4.517,1.378,6.765
					c-1.488,2.251-4.517,2.864-6.765,1.378c-44.432-29.396-87.927-49.393-93.003-43.015c-0.006,0.022-0.469,2.301,4.133,8.93
					c20.817,29.976,96.313,84.509,110.49,85.652c13.735,1.108,31.387-7.656,39.868-16.409c3.272-3.377,5.077-6.615,5.017-8.959
					c-6.861-13.483-120.056-94.61-179.149-101.849c-13.566-1.662-22.961,0.732-27.902,7.115c-3.437,4.436-4.588,9.423-3.523,15.246
					c5.634,30.794,67.521,69.03,68.145,69.412c2.3,1.409,3.02,4.414,1.614,6.714c-1.412,2.304-4.412,3.03-6.714,1.614
					c-2.702-1.654-66.226-40.909-72.648-75.976c-1.575-8.591,0.245-16.327,5.406-22.988c9.474-12.226,27.818-14.627,54.547-7.141
					c63.992,17.94,168.304,92.24,169.904,106.4c0.614,5.434-2.044,11.386-7.684,17.206c-6.749,6.97-18.007,13.741-29.706,17.164
					C2528.84,2048.791,2522.665,2049.666,2516.938,2049.203z M2562.717,2014.335L2562.717,2014.335L2562.717,2014.335z"/>
			</g>
		</g>
		<g>
			<g>
				<g>
					<g>
						<path style="fill:#F8B396;" d="M2433.528,1329.893c6.455,1.368,80.69-40.306,81.056-44.091
							c0.511-5.04-12.611-9.876-28.981-11.006c-9.556-0.645-20.261,0.045-30.043,2.674c-26.412,7.198-36.095,16.799-36.095,16.799
							c0.358,2.57,0.85,5.372,1.394,8.268C2423.441,1314.937,2428.262,1328.771,2433.528,1329.893z"/>
					</g>
				</g>
				<g>
					<path style="fill:#54493F;" d="M2433.528,1329.893c6.455,1.368,80.69-40.306,81.056-44.091
						c0.511-5.04-12.611-9.876-28.981-11.006c-8.561,9.516-41.733,25.818-64.745,27.742
						C2423.441,1314.937,2428.262,1328.771,2433.528,1329.893z"/>
				</g>
			</g>
			<g>
				<path style="fill:#0C87B3;" d="M2443.175,1287.446c-1.243,0.731-2.472,1.405-3.758,2.065
					c-8.446,4.275-18.357,6.602-26.285,3.411c-7.317-2.992-58.599-107.467-77.513-117.277
					c-50.63-26.262-182.629-2.692-199.243-68.797c-16.83-66.967,98.734-42.226,98.734-42.226s111.077,12.567,144.98,30.374
					c33.903,17.808,76.381,171.189,77.012,176.77C2457.563,1275.754,2451.507,1282.369,2443.175,1287.446z"/>
			</g>
			<g>
				<g>
					<path style="fill:#0071A1;" d="M2443.175,1287.446c-1.243,0.731-2.472,1.405-3.758,2.065
						c-9.083-13.789-17.593-36.585-26.997-61.736c-14.98-40.166-32.001-85.758-53.183-92.885
						c-11.826-3.906-33.079-6.032-57.784-8.471c-49.411-4.878-109.331-11.526-126.585-38.124l5.994-0.771
						c15.983,21.463,74.915,29.975,121.057,34.522c24.932,2.491,46.482,4.625,58.736,8.748
						c23.129,7.753,39.778,52.362,55.874,95.473C2425.577,1250.622,2434.311,1274.007,2443.175,1287.446z"/>
				</g>
			</g>
			<g>
				<path style="fill:#0071A1;" d="M2211.85,1080.08c31.276,11.292,22.147,35.19,22.147,35.19s-31.105-2.42-55.051-24.707
					C2174.753,1086.659,2211.85,1080.08,2211.85,1080.08z"/>
			</g>
			<g>
				<path style="fill:#612D0A;" d="M2270.135,811.944c22.029-0.096,23.761-48.551,6.332-60.446
					c-17.429-11.895-28.171-2.814-28.171-2.814s-35.222-34.117-71.507-6.513c-36.284,27.604-13.531,71.628-27.681,97.12
					c-33.823,60.937-103.689,75.123-86.55,133.275c17.601,59.719,89.73,50.25,100.221,31.095
					c10.491-19.154,62.541-185.766,62.541-185.766L2270.135,811.944z"/>
			</g>
			<g>
				<g>
					<g>
						<path style="fill:#F8B396;" d="M2190.715,811.966c-6.496-6.153-17.537-0.649-15.903,10.437
							c1.635,11.085,9.831,13.906,14.182,11.185C2193.347,830.866,2190.715,811.966,2190.715,811.966z"/>
					</g>
				</g>
				<g>
					<g>
						<path style="fill:#CC7459;" d="M2184.817,815.009c-6.72-1.549-4.449,10.56,0.463,11.977
							C2190.19,828.403,2184.817,815.009,2184.817,815.009z"/>
					</g>
				</g>
				<g>
					<g>
						<path style="fill:#F8B396;" d="M2198.775,905.855c-9.904-1.211-23.04-16.299-23.04-16.299l17.343-38.03l2.171-4.77
							l12.895,13.424l7.782,8.091l-3.78,19.495l-2.066,10.511C2210.08,898.278,2208.679,907.066,2198.775,905.855z"/>
					</g>
				</g>
				<g>
					<g>
						<path style="fill:#F3936C;" d="M2212.146,887.767c-9.983-3.775-18.563-22.547-19.068-36.241c0,0,8.166,4.295,15.066,8.654
							l7.782,8.091L2212.146,887.767z"/>
					</g>
				</g>
				<g>
					<g>
						<path style="fill:#F8B396;" d="M2265.809,839.62c-0.538,2.332-1.16,4.645-1.891,6.844
							c-7.09,21.456-19.388,37.022-39.523,32.336c-28.522-6.665-47.014-51.795-37.728-69.216c0.033,0.052,0.023,0.095,0.023,0.095
							c24.943,4.366,55.561-25.378,55.561-25.378s12.701,24.724,27.884,27.643C2269.413,822.05,2267.97,831.409,2265.809,839.62z"/>
					</g>
				</g>
				<g>
					<g>
						<path style="fill:#471200;" d="M2252.999,827.374c-0.673,3.167-0.134,5.965,1.206,6.25c1.339,0.285,2.97-2.052,3.643-5.219
							c0.673-3.167,0.133-5.965-1.206-6.25C2255.302,821.87,2253.671,824.207,2252.999,827.374z"/>
					</g>
				</g>
				<g>
					<g>
						<path style="fill:#471200;" d="M2230.098,822.094c-0.673,3.167-0.134,5.965,1.206,6.25c1.339,0.284,2.97-2.052,3.643-5.219
							c0.673-3.167,0.133-5.965-1.206-6.25C2232.402,816.59,2230.771,818.927,2230.098,822.094z"/>
					</g>
				</g>
				<g>
					<g>
						<path style="fill:#612D0A;" d="M2225.259,807.211c-1.276,1.736,10.965,0.878,11.671-0.246
							c0.706-1.124-0.593-1.963-2.853-2.388S2225.582,806.771,2225.259,807.211z"/>
					</g>
				</g>
				<g>
					<g>
						<path style="fill:#612D0A;" d="M2265.225,817.739c0.075,2.153-9.553-5.454-9.503-6.781c0.05-1.327,1.595-1.287,3.703-0.365
							C2261.532,811.515,2265.206,817.193,2265.225,817.739z"/>
					</g>
				</g>
				<g>
					<g>
						<g>
							<path style="fill:#F86856;" d="M2223.336,856.845c-0.583,3.331,3.416,6.812,8.931,7.775
								c5.515,0.963,10.459-0.956,11.042-4.287c0.583-3.331-3.416-6.812-8.931-7.774
								C2228.862,851.595,2223.918,853.515,2223.336,856.845z"/>
						</g>
					</g>
					<g>
						<g>
							<g>
								<path style="fill:#471200;" d="M2230.066,859.281c4.933,1.643,10.438,2.538,14.042,1.863c0.294-0.06,0.431-0.293,0.307-0.52
									c-0.133-0.239-0.461-0.404-0.747-0.332c-6.637,1.242-20.662-3.325-23.095-7.513c-0.153-0.218-0.476-0.363-0.767-0.311
									c-0.286,0.072-0.411,0.309-0.275,0.539C2220.88,855.305,2225.19,857.658,2230.066,859.281z"/>
							</g>
						</g>
					</g>
				</g>
				<g>
					<g>
						<path style="fill:#F08D78;" d="M2206.159,830.45c-1.53,4.01,1.245,8.793,6.198,10.683c4.953,1.89,10.209,0.172,11.74-3.838
							c1.53-4.01-1.245-8.793-6.198-10.683C2212.945,824.722,2207.689,826.44,2206.159,830.45z"/>
					</g>
				</g>
				<g>
					<g>
						<g>
							<path style="fill:#C07255;" d="M2239.675,845.846c1.969,0.34,3.767-0.079,5.095-1.231c1.433-1.241,2.065-3.154,1.654-4.997
								c-0.497-2.239-2.426-3.991-5.291-4.797c-0.285-0.073-0.473,0.072-0.535,0.298c-0.063,0.231,0.073,0.468,0.298,0.535
								c2.55,0.715,4.259,2.233,4.686,4.153c0.345,1.529-0.187,3.125-1.378,4.156c-1.459,1.259-3.627,1.48-5.935,0.602
								c-0.207-0.092-0.474,0.025-0.554,0.248c-0.085,0.223,0.025,0.474,0.248,0.555
								C2238.543,845.59,2239.115,845.749,2239.675,845.846z"/>
						</g>
					</g>
				</g>
			</g>
			<g>
				<path style="fill:#86D8D1;" d="M2184.872,869.52c14.489,26.85,26.334,23.026,26.334,23.026s38.97,53.17,41.891,70.579
					c2.921,17.409-16.517,30.152-16.517,30.152s22.466,67.066,19.624,74.019c-2.842,6.953-122.759,36.909-123.605,23.969
					C2121.708,924.7,2184.872,869.52,2184.872,869.52z"/>
			</g>
			<g>
				<g>
					<path style="fill:#424443;" d="M2388.678,1102.009l-134.32-30.505c-2.815-0.64-4.579-3.441-3.939-6.255
						c0.639-2.821,3.444-4.583,6.258-3.942l133.808,30.392l63.232-114.026c1.398-2.528,4.583-3.432,7.107-2.04
						c2.529,1.405,3.438,4.583,2.037,7.111l-63.614,114.714c-1.541,2.67-4.241,4.383-7.135,4.755
						C2390.978,1102.358,2389.813,1102.296,2388.678,1102.009z M2391.122,1091.844c-0.014-0.005-0.029-0.01-0.043-0.015
						L2391.122,1091.844z"/>
				</g>
			</g>
			<g>
				<path style="fill:#F8B396;" d="M2334.209,1060.219c3.692-5.481,38.544-10.231,39.6-7.757
					c1.055,2.474-13.833,10.588-13.833,10.588s38.535,9.144,38.695,11.82s-27.315-0.121-27.315-0.121s29.379,7.073,28.866,9.956
					s-31.543-3.412-31.543-3.412s27.569,8.293,24.086,11.18c-1.283,1.064-26.033-5.219-26.033-5.219s16.858,7.081,16.154,8.624
					c-0.704,1.542-16.286-1.94-28.413-7.123s-37.028-16.457-37.208-18.243c-0.181-1.786,2.306-12.863,2.306-12.863
					L2334.209,1060.219z"/>
			</g>
			<g>
				<path style="fill:#BBEFEC;" d="M2183.915,903.471c32.035-0.406,60.149,95.727,65.716,103.574
					c5.566,7.847,83.111,41.059,85.437,44.996c2.772,4.693-1.284,25.854-5.487,29.03c-4.202,3.175-107.743-16.437-128.715-44.697
					C2179.893,1008.113,2138.568,904.045,2183.915,903.471z"/>
			</g>
		</g>
	</g>
</g>
</svg>
