<svg xmlns="http://www.w3.org/2000/svg" xmlns:xlink="http://www.w3.org/1999/xlink" viewBox="0 0 750 446.49" xmlns:v="https://vecta.io/nano"><style><![CDATA[.J,.Y,.n,.p{isolation:isolate}.s{fill:#263238}.t{fill:#fff}.u{fill:#407bff}.v{opacity:.2}.w{opacity:.4}.x{fill:none}.y{opacity:.3}.z{stroke-miterlimit:10}.AA{fill:#fdbbb5}.AB{fill:#fdad6a}.AC{fill:#e6e6e6}.AD{opacity:.6}.AE{stroke:#407bff}.AF{stroke-width:.5}.AG{stroke-dasharray:7.61 7.61}.AH{fill:#e0e0e0}.AI{fill:#ebebeb}.AJ{fill:#f0f0f0}.AK{stroke-linecap:round}.AL{stroke-linejoin:round}.AM{stroke-width:.25}]]></style><path d="M673.73 285.34H493a5.87 5.87 0 0 1-5.86-5.86V16.2a5.87 5.87 0 0 1 5.86-5.86h180.73a5.87 5.87 0 0 1 5.87 5.86v263.28a5.87 5.87 0 0 1-5.87 5.86zM493 10.59a5.61 5.61 0 0 0-5.61 5.61v263.28a5.61 5.61 0 0 0 5.61 5.61h180.73a5.62 5.62 0 0 0 5.62-5.61V16.2a5.62 5.62 0 0 0-5.62-5.61zm-27.69 274.75H284.56a5.87 5.87 0 0 1-5.86-5.86V16.2a5.87 5.87 0 0 1 5.86-5.86h180.75a5.87 5.87 0 0 1 5.86 5.86v263.28a5.87 5.87 0 0 1-5.86 5.86zM284.56 10.59A5.62 5.62 0 0 0 279 16.2v263.28a5.62 5.62 0 0 0 5.61 5.61h180.7a5.62 5.62 0 0 0 5.61-5.61V16.2a5.62 5.62 0 0 0-5.61-5.61zM257 285.34H76.27a5.87 5.87 0 0 1-5.87-5.86V16.2a5.87 5.87 0 0 1 5.87-5.86H257a5.87 5.87 0 0 1 5.86 5.86v263.28a5.87 5.87 0 0 1-5.86 5.86zM76.27 10.59a5.62 5.62 0 0 0-5.62 5.61v263.28a5.62 5.62 0 0 0 5.62 5.61H257a5.61 5.61 0 0 0 5.61-5.61V16.2a5.61 5.61 0 0 0-5.61-5.61zM0 346.41h750v.12H0z" class="AH"/><path d="M653.63 375.78h55.73v.42h-55.73zm-158.59 4.57h14.63v.42h-14.63zm-454.4-17.36h72.67v.42H40.64zm87.66 0h10.66v.42H128.3zm45.29 7.1H331.2v.42H173.59z" class="AI"/><path d="M551 356.85a31.13 31.13 0 0 0-4.51-10.84l3.89-4.69-8.31-8.31-4.69 3.89a31.13 31.13 0 0 0-10.84-4.51l-.54-6.04h-11.78l-.56 6.05a31.1 31.1 0 0 0-10.85 4.51l-4.69-3.89-8.3 8.31 3.88 4.69a31.52 31.52 0 0 0-4.51 10.83l-6.05.57v11.74l6.05.57a31.49 31.49 0 0 0 4.51 10.85l-3.88 4.69 8.3 8.3 4.69-3.88a31.49 31.49 0 0 0 10.85 4.51l.56 6.05H526l.57-6.05a31.52 31.52 0 0 0 10.84-4.51l4.69 3.88 8.31-8.3-3.89-4.69a31.1 31.1 0 0 0 4.48-10.84l6-.57v-11.74zm-15 6.44a15.9 15.9 0 0 1-27.143 11.253A15.9 15.9 0 0 1 520.11 347.4 15.89 15.89 0 0 1 536 363.3z" class="AC"/><path d="M143.68 193.28a34.26 34.26 0 0 0-4.92-11.84l4.24-5.12-9.06-9.06-5.12 4.24a34.26 34.26 0 0 0-11.82-4.92l-.62-6.6h-12.84l-.62 6.6a34.1 34.1 0 0 0-11.84 4.92L86 167.26l-9.07 9.06 4.24 5.12a34.26 34.26 0 0 0-4.92 11.84l-6.6.63v12.81l6.6.63a34.13 34.13 0 0 0 4.92 11.83l-4.24 5.13 9.07 9.06 5.12-4.24a34.1 34.1 0 0 0 11.84 4.92l.62 6.6h12.82l.62-6.6a34.26 34.26 0 0 0 11.84-4.92l5.12 4.24 9.06-9.06-4.24-5.13a34.13 34.13 0 0 0 4.92-11.83l6.6-.63v-12.81zm-16.38 7a17.36 17.36 0 1 1-17.3-17.32c9.563.028 17.3 7.787 17.3 17.35zM452.23 44.04a32.26 32.26 0 0 0-4.65-11.19l4-4.83-8.58-8.55-4.84 4A32.47 32.47 0 0 0 427 18.85l-.59-6.23h-12.1l-.57 6.23a32.43 32.43 0 0 0-11.18 4.64l-4.83-4-8.56 8.56 4 4.83a32.43 32.43 0 0 0-4.64 11.18l-6.23.59v12.1l6.23.59a32.47 32.47 0 0 0 4.64 11.17l-4 4.84 8.56 8.55 4.83-4a32.26 32.26 0 0 0 11.18 4.65l.59 6.23h12.1l.59-6.23a32.29 32.29 0 0 0 11.17-4.7l4.84 4 8.55-8.55-4-4.84a32.29 32.29 0 0 0 4.65-11.17l6.23-.59V44.63zm-15.47 6.64c0 9.046-7.334 16.38-16.38 16.38S404 59.726 404 50.68s7.334-16.38 16.38-16.38 16.38 7.334 16.38 16.38zm71.56-35.38a15.77 15.77 0 0 0-2.26-5.45L508 7.51l-4.17-4.16-2.35 1.94a15.69 15.69 0 0 0-5.44-2.26l-.28-3h-5.89l-.29 3a15.64 15.64 0 0 0-5.43 2.26l-2.35-1.94-4.16 4.16 1.95 2.34a15.58 15.58 0 0 0-2.26 5.44l-3 .29v5.88l3 .29a15.58 15.58 0 0 0 2.26 5.44l-1.95 2.35 4.16 4.16 2.36-1.94a15.64 15.64 0 0 0 5.43 2.26l.29 3h5.89l.28-3a15.69 15.69 0 0 0 5.44-2.26l2.35 1.94 4.16-4.15-1.95-2.35a15.77 15.77 0 0 0 2.26-5.44l3-.29v-5.88zm-7.53 3.23a8 8 0 1 1-16 0 8 8 0 1 1 16 0zm161.4 43.45a15.77 15.77 0 0 0-2.26-5.44l1.94-2.35-4.16-4.16-2.35 1.94a15.77 15.77 0 0 0-5.44-2.26l-.29-3h-5.88l-.29 3a15.77 15.77 0 0 0-5.46 2.26l-2.35-1.94-4.16 4.16 1.94 2.35a15.77 15.77 0 0 0-2.26 5.44l-3 .29v5.88l3 .29a15.77 15.77 0 0 0 2.26 5.44l-1.94 2.35 4.16 4.16 2.35-1.94a15.77 15.77 0 0 0 5.44 2.26l.29 3h5.88l.29-3a15.77 15.77 0 0 0 5.44-2.26l2.35 1.94 4.16-4.16-1.92-2.38a15.77 15.77 0 0 0 2.26-5.44l3-.29v-5.85zm-7.53 3.23a8 8 0 1 1-16 0 8 8 0 1 1 16 0zM82.92 268.43a21.1 21.1 0 0 0-3-7.28l2.59-3.14-5.51-5.58-3.14 2.61a20.73 20.73 0 0 0-7.24-3l-.38-4.06h-7.89l-.35 4.04a20.86 20.86 0 0 0-7.25 3l-3.13-2.61-5.62 5.6 2.6 3.14a20.91 20.91 0 0 0-3 7.28l-4 .38v7.88l4 .38a20.91 20.91 0 0 0 3 7.28L42 287.5l5.55 5.57 3.13-2.61a21.07 21.07 0 0 0 7.25 3l.38 4.05h7.89l.38-4.05a20.94 20.94 0 0 0 7.24-3l3.18 2.61 5.54-5.57-2.59-3.15a21.1 21.1 0 0 0 3-7.28l4-.38v-7.84zm-10 4.32c-.022 5.86-4.787 10.595-10.647 10.58a10.62 10.62 0 0 1-10.593-10.633c.008-5.86 4.76-10.607 10.62-10.607 5.865.028 10.601 4.795 10.59 10.66zm148.92 77.62a21.07 21.07 0 0 0-3-7.27l2.6-3.15-5.55-5.57-3.13 2.6a21 21 0 0 0-7.25-3l-.38-4.06h-7.84l-.38 4.06a21 21 0 0 0-7.25 3l-3.13-2.6-5.53 5.57 2.59 3.15a21.25 21.25 0 0 0-3 7.27l-4 .39v7.87l4 .39a21.25 21.25 0 0 0 3 7.27l-2.59 3.15 5.55 5.57 3.13-2.61a20.8 20.8 0 0 0 7.25 3l.38 4.06h7.84l.38-4.06a20.8 20.8 0 0 0 7.25-3l3.13 2.61 5.55-5.57-2.6-3.15a21.07 21.07 0 0 0 3-7.27l4-.39v-7.87zm-10 4.32c-.022 5.86-4.787 10.595-10.647 10.58a10.62 10.62 0 0 1-10.593-10.633c.008-5.86 4.76-10.607 10.62-10.607 5.862.033 10.596 4.798 10.59 10.66z" class="AJ"/><circle cx="132.22" cy="109.13" r="60.64" transform="matrix(.987359 -.158503 .158503 .987359 -15.63 -10.81)" class="AC"/><circle cx="132.22" cy="75.99" r="51.77" class="AJ"/><circle cx="132.22" cy="109.15" r="40.52" transform="matrix(.992504 -.122216 .122216 .992504 -12.35 -16.18)" class="AC"/><circle cx="132.23" cy="109.14" r="33.21" transform="matrix(.329361 -.944204 .944204 .329361 -14.36 164.9)" fill="#fafafa"/><circle cx="132.22" cy="109.13" r="23.05" transform="matrix(.261347 -.965245 .965245 .261347 -7.68 175.07)" class="AC"/><circle cx="132.23" cy="109.14" r="16.55" transform="matrix(.143493 -.989651 .989651 .143493 5.25 191.19)" class="AJ"/><path d="M139.72 76a7.52 7.52 0 0 1-12.841 5.314 7.52 7.52 0 0 1 5.331-12.834h0a7.5 7.5 0 0 1 7.5 7.5z" class="AC"/><path d="M54.39 25.98l1.64 10.96-11.4 3.83 11.4 5.99 11.38-3.99-2-10.8-11.02-5.99z" class="AI"/><path d="M132.49 77.59a1.59 1.59 0 0 1-.74-.18l-81.6-41.83a1.59 1.59 0 0 1 1.45-2.83l81.6 41.76a1.64 1.64 0 0 1-.71 3.08z" class="AH"/><path d="M622.75 289.31s43.38-44.23 86.75.44c0 0-40.65 53.5-86.75-.44z" fill="#fafafa" stroke="#e0e0e0" class="z"/><circle cx="666.13" cy="324.74" r="15.72" transform="matrix(.707107 -.707107 .707107 .707107 -34.52 532.99)" class="AI"/><path d="M672.4 291.59a6.28 6.28 0 0 1-10.724 4.437 6.28 6.28 0 0 1 4.454-10.717 6.28 6.28 0 0 1 6.27 6.28z" class="AH"/><path d="M701.4 116.1a25.18 25.18 0 0 0-3.63-8.73l3.13-3.78-6.68-6.68-3.78 3.13a25.18 25.18 0 0 0-8.73-3.63l-.46-4.87h-9.45l-.45 4.87a25.18 25.18 0 0 0-8.73 3.63l-3.78-3.13-6.68 6.68 3.13 3.78a25 25 0 0 0-3.63 8.73l-4.87.46v9.45l4.87.45a25 25 0 0 0 3.63 8.73l-3.13 3.78 6.68 6.68 3.78-3.13a25 25 0 0 0 8.73 3.63l.45 4.87h9.45l.46-4.87a25 25 0 0 0 8.73-3.63l3.78 3.13 6.68-6.68-3.13-3.78a25.18 25.18 0 0 0 3.63-8.73l4.87-.45v-9.45zm-12.08 5.18a12.79 12.79 0 1 1-12.79-12.79 12.79 12.79 0 0 1 12.79 12.79zm-15.49 83.12a16 16 0 0 0-2.32-5.56l2-2.41-4.26-4.26-2.41 2a16.24 16.24 0 0 0-5.57-2.31l-.29-3.1h-6l-.29 3.1a16.24 16.24 0 0 0-5.57 2.31l-2.41-2-4.26 4.26 2 2.41a16 16 0 0 0-2.32 5.56l-3.1.3v6l3.1.29a16.06 16.06 0 0 0 2.32 5.57l-2 2.4 4.26 4.26 2.41-2a15.86 15.86 0 0 0 5.57 2.31l.29 3.11h6l.29-3.11a15.86 15.86 0 0 0 5.57-2.31l2.41 2 4.26-4.26-2-2.4a16.06 16.06 0 0 0 2.32-5.57l3.1-.29v-6zm-7.7 3.31a8.16 8.16 0 1 1-8.13-8.16 8.16 8.16 0 0 1 8.13 8.16z" class="AC"/><path d="M638.23 417.68c0 6-120.54 10.88-269.23 10.88s-269.23-4.87-269.23-10.88S220.31 406.79 369 406.79s269.23 4.87 269.23 10.89z" fill="#f5f5f5"/><use xlink:href="#B" class="u"/><g class="t"><use xlink:href="#B" class="w"/><path class="J v" d="M604.35 42.13c0 5.69-6.66 10.32-14.93 10.32s-14.93-4.6-14.93-10.32 6.67-10.34 14.93-10.34 14.93 4.63 14.93 10.34z"/></g><g class="x z"><path d="M567.18 69.9a22.5 22.5 0 0 1 4.09-27.78" stroke="#fff" class="AF"/><path d="M583.14 86a51.29 51.29 0 0 0 1.13-23.85c-.25-1.27-.82-2.8-2-2.83s-1.69 1.23-1.91 2.37c-.78 4 1.3 8.1 4 10.88 1.44 1.5 3.19 2.81 5.14 2.91a7.05 7.05 0 0 0 5.25-2.61 13.36 13.36 0 0 0 3.09-11.72c-.42-1.75-1.66-3.63-3.22-3.29a2.84 2.84 0 0 0-1.87 2.25 9.28 9.28 0 0 0 0 3.24 99 99 0 0 0 5.63 22.62" stroke="#263238"/></g><rect x="570.51" y="90.53" width="37.66" height="3.71" rx="1.6" class="s"/><rect x="570.51" y="90.53" width="37.66" height="3.71" rx="1.6" class="t y"/><rect x="571.12" y="93.91" width="36.43" height="3.59" rx="1.6" class="s"/><rect x="571.12" y="93.91" width="36.43" height="3.59" rx="1.6" class="t y"/><g class="s"><path d="M577.78 102.63c2.31 4.22 7.17 8.67 12 8.39s9.31-4.37 11.11-8.83z"/><rect x="573.35" y="100.39" width="31.99" height="3.59" rx="1.6"/></g><rect x="573.35" y="100.39" width="31.99" height="3.59" rx="1.6" class="t y"/><rect x="571.61" y="97.09" width="35.45" height="3.59" rx="1.6" class="s"/><rect x="571.61" y="97.09" width="35.45" height="3.59" rx="1.6" class="t y"/><path d="M573.22 18.93q3.33 3.33 6.67 6.67a.38.38 0 0 0 .53-.53l-6.67-6.67c-.34-.34-.88.19-.53.53zm17.43 4.03V10.34a.38.38 0 0 0-.75 0v12.62a.38.38 0 0 0 .75 0zm9.25 3.18l7.21-7.21a.38.38 0 0 0-.53-.53q-3.62 3.6-7.21 7.21c-.35.34.18.87.53.53zM143.52 52.22h430.37v299.74H143.52z" class="s"/><g class="t"><path d="M152.86 59.87h413.88v243.57H152.86z" class="w"/><path d="M152.86 59.87h413.88V73.8H152.86z" class="w"/><use xlink:href="#C"/><use xlink:href="#C" x="7.08"/><use xlink:href="#C" x="14.52"/><path d="M143.52 303.1h430.37v48.86H143.52z" opacity=".8"/></g><path d="M450.46 408.46h-174.7l11.65-56.49h148.38l14.67 56.49z" class="s"/><path d="M450.46 408.46h-174.7l11.65-56.49h148.38l14.67 56.49z" opacity=".8" class="t"/><path d="M438.74 363.34H284.97l2.44-11.37h148.38l2.95 11.37z" class="v"/><path d="M211.81 97.77h327.94v179.86H211.81z" class="t"/><path d="M253.5 195.16h-3.43v9.43h-12.63v-37.48h18c10.44 0 17.08 5.46 17.08 14.13a12.55 12.55 0 0 1-7.06 11.78l7.87 11.57h-13.5zm1.18-18.31h-4.61v8.78h4.61c3.48 0 5.14-1.66 5.14-4.39s-1.66-4.39-5.14-4.39zm53.81 18.21v9.53h-31.16v-37.48h30.47v9.53h-18v4.39h15.8v9.1h-15.84v4.93z" class="u"/><path d="M348.17 194.47c0 6.42-4.87 10.12-14.35 10.12h-17.88v-37.48h16.81c8.62 0 13.44 3.64 13.44 9.69a8.88 8.88 0 0 1-5 8.35 9.06 9.06 0 0 1 6.98 9.32zm-26.87-23v12h11c5.46 0 8.57-2 8.57-6s-3.11-6-8.57-6zm21.47 22.6c0-4.34-3.22-6.26-9.16-6.26H321.3v12.44h12.31c5.94 0 9.16-1.87 9.16-6.21zm38.76 10.52l-8.08-11.51-2.36.1h-9.26v11.41h-5.35v-37.48h14.61c9.75 0 15.64 4.92 15.64 13.06a11.84 11.84 0 0 1-8.25 11.84l8.89 12.58zm-.16-24.42c0-5.35-3.58-8.4-10.44-8.4h-9.1v16.86h9.1c6.86 0 10.44-3.1 10.44-8.46zm37.92 15.05h-19.92l-4.13 9.37h-5.51l17-37.48H412l17 37.48h-5.62zm-1.88-4.29l-8.08-18.36-8.09 18.36zm49.43-23.82v37.48h-4.39l-22.49-28v28h-5.36v-37.48h4.4l22.49 28v-28zm11.25 0h15.79c12.05 0 20.24 7.6 20.24 18.74s-8.19 18.74-20.24 18.74h-15.79zm15.47 32.82c9.26 0 15.21-5.68 15.21-14.08s-5.95-14.08-15.21-14.08h-10.12v28.16zm-75.65 25.06h32.93v32.93h-32.93z" class="s"/><path d="M437.71 255.85c-.19 0 10.93-10.93 10.93-10.93v10.93z" class="t"/><path d="M463.04 224.99h32.93v32.93h-32.93z" class="u"/><g class="t"><path d="M463.04 224.99h32.93v32.93h-32.93z" class="AD"/><path d="M482.84 255.85c-.19 0 10.93-10.93 10.93-10.93v10.93z"/></g><path d="M371.86 224.99h32.93v32.93h-32.93z" class="u"/><path d="M392.07 255.85c-.2 0 10.92-10.93 10.92-10.93v10.93z" class="t"/><path d="M166.57 104.21h33.86v161.27h-33.86z" class="u"/><g class="t"><path d="M166.57 104.21h33.86v161.27h-33.86z" class="w"/><path d="M166.57 104.21h33.86v9.63h-33.86z" class="w"/></g><path d="M176.57 123.45l2.67 16.19 3.97-6.05 7.2-1.44-13.84-8.7zm-.51 23.92h14.87v14.87h-14.87zm13.62 26.83v3.74h-.36a5.69 5.69 0 0 0-.73-1.86 2.64 2.64 0 0 0-1.09-.9 3.43 3.43 0 0 0-1.35-.19h-1v10.65a4.17 4.17 0 0 0 .12 1.32 1.08 1.08 0 0 0 .46.47 1.87 1.87 0 0 0 .93.19h.46v.38h-7.23v-.38h.46a2 2 0 0 0 1-.21 1 1 0 0 0 .41-.49 4 4 0 0 0 .11-1.28v-10.65h-1a2.93 2.93 0 0 0-2 .59 4 4 0 0 0-1.12 2.36h-.38v-3.74z" class="u"/><path d="M177.84 208.38l10.91-12.61" class="x AE AK AL"/><path d="M185.89 215.74l4.51 3.61-2.16 2.44-4.51-3.61 2.16-2.44zm-2.75 3.34l-4.61 2.22-2.34 8.83.59.49 5.09-6.13a.87.87 0 0 1 0-1.09.89.89 0 0 1 1.27-.12.88.88 0 0 1 .12 1.26.89.89 0 0 1-1.11.21l-5.07 6.1.54.44 8.28-3.94 1.44-5z" class="u"/><g class="t"><circle cx="171.3" cy="108.84" r="1.76"/><circle cx="176.4" cy="108.84" r="1.76"/><circle cx="181.5" cy="108.84" r="1.76"/></g><path d="M186.62 246.62a5.15 5.15 0 0 1-8.788 3.655 5.15 5.15 0 0 1 3.638-8.795 5.14 5.14 0 0 1 5.15 5.14z" class="x z AE"/><path d="M184.93 250.43l4.45 2.71a.85.85 0 0 0 1.14-.26h0a.84.84 0 0 0-.26-1.19l-4.26-2.62zM418.82 65.21h62.94v63.25h-62.94z" class="u"/><g class="t"><path d="M418.82 65.21h62.94v63.25h-62.94z" class="w"/><path d="M418.82 65.21h62.94v8.63h-62.94z" class="w"/><circle cx="424.18" cy="69.53" r="2"/><path d="M431.82 69.53a2 2 0 1 1-4 0 2 2 0 1 1 4 0z"/><circle cx="435.47" cy="69.53" r="2"/></g><g stroke-width=".75" class="x z AE"><path d="M468.25 111.53v6h-6"/><path d="M454.64 117.53h-11.41" class="AG"/><path d="M439.43 117.53h-6v-6"/><path d="M433.43 103.92V92.51" class="AG"/><path d="M433.43 88.7v-6h6"/><path d="M447.03 82.7h11.42" class="AG"/><path d="M462.25 82.7h6v6"/><path d="M468.25 96.31v11.42" class="AG"/></g><path d="M441.25 109.36a2.11 2.11 0 0 0 1.65-.93 13.12 13.12 0 0 0 1.16-2.39l6.32-15.58h.79l6.35 15a20.89 20.89 0 0 0 1.6 3.24 1.66 1.66 0 0 0 1.5.7v.73h-9.21v-.73a6.43 6.43 0 0 0 1.83-.23c.29-.12.43-.43.43-.92a3.54 3.54 0 0 0-.22-1l-.38-1-.72-1.72H446l-.81 2.21a5.58 5.58 0 0 0-.37 1.6c0 .41.27.7.82.89a5.2 5.2 0 0 0 1.46.16v.73h-5.81zm10.68-6l-2.74-6.58H449l-2.57 6.58zm-21.61-23.13h4.57v4.57h-4.57zm35.37 0h4.57v4.57h-4.57zm-35.37 35.01h4.57v4.57h-4.57zm35.37 0h4.57v4.57h-4.57zM238.78 26.41h90.33v94.78h-90.33z" class="u"/><g class="t"><path d="M238.78 26.41h90.33v94.78h-90.33z" class="AD"/><path d="M238.78 26.41h90.33v11.54h-90.33z" class="w"/><path d="M248.24 32.39a2.41 2.41 0 1 1-2.41-2.41 2.4 2.4 0 0 1 2.41 2.41zm6.76 0a2.41 2.41 0 1 1-2.4-2.41 2.39 2.39 0 0 1 2.4 2.41zm6.83 0a2.41 2.41 0 1 1-2.4-2.41 2.4 2.4 0 0 1 2.4 2.41z"/></g><path d="M309.7 72.31a26.11 26.11 0 0 0-3.76-9l3.24-3.91-6.92-6.92-3.91 3.24a26.11 26.11 0 0 0-9-3.76l-.48-5h-9.78l-.48 5a26.11 26.11 0 0 0-9 3.76l-3.91-3.24-6.92 6.92 3.24 3.91a26.11 26.11 0 0 0-3.76 9l-5 .48v9.78l5 .48a26.11 26.11 0 0 0 3.76 9l-3.24 3.91 6.92 6.92 3.91-3.24a26.11 26.11 0 0 0 9 3.76l.48 5h9.78l.48-5a26.11 26.11 0 0 0 9-3.76l3.91 3.24 6.92-6.92-3.24-3.91a26.11 26.11 0 0 0 3.76-9l5-.48v-9.78zm-12.51 5.37c0 7.318-5.932 13.25-13.25 13.25s-13.25-5.932-13.25-13.25 5.932-13.25 13.25-13.25 13.25 5.932 13.25 13.25z" class="u"/><path d="M645.64 182.03s3.29 30 0 32.74-13.39-1.38-13.39-1.38l9-31.36z" class="AA"/><path d="M639.68 193.56h8.71s.61-11.46-1.93-15.09-6.78 15.09-6.78 15.09z" class="s"/><path d="M640.46 193.85l3.6-8.56c-.1.15-3.15 20.76-5.45 21s-2-1-2-1a89.2 89.2 0 0 1 3.85-11.44z" class="v"/><path d="M614.86 141.21a.45.45 0 0 0 .32-.09.42.42 0 0 0 .06-.59 4.25 4.25 0 0 0-3.52-1.5.41.41 0 0 0-.36.46h0a.41.41 0 0 0 .45.36h0a3.29 3.29 0 0 1 2.79 1.2.35.35 0 0 0 .26.16z" class="s"/><path d="M613 146.49a19.34 19.34 0 0 1-2 4.86 3.05 3.05 0 0 0 2.59.13z" fill="#d7504d"/><path d="M613.53 145.2c.08.7-.22 1.33-.68 1.39s-.91-.46-1-1.16.21-1.32.67-1.39.91.45 1.01 1.16z" class="s"/><path d="M631.11 157.98a1.79 1.79 0 0 1-.28.2 12.64 12.64 0 0 1-4.46 2.19c-4.73 1.09-8 .45-10.07-1.7h0c-2.94-3.2-3.69-8.88-3.28-15.74a25.69 25.69 0 0 1 1.5-8v-.08a1.64 1.64 0 0 1 .12-.3 9.38 9.38 0 0 1 6.87-5.71 19.71 19.71 0 0 1 4-.45c13.49-.18 15.84 22.01 5.6 29.59z" class="AA"/><path class="Y v" d="M630.58 158.4a12.42 12.42 0 0 1-4.46 2c-4.73 1.09-8 .28-10.07-1.89a13.28 13.28 0 0 0 8.48-.7c1.92-.86 4.04-.41 6.05.59z"/><path d="M632.19 170.25c.82 3.81-4.1 5.36-4.1 5.36-8.07-3.45-9.56-7.74-9.56-7.74 6.72-3.5 4.77-13.42 4.77-13.42l1.37.68 9.61 1.87s-2.67 5.12-3 6.28h0c-1.84 6.13.91 6.97.91 6.97z" class="AA"/><g class="s"><path d="M614.52 134.85s-.75 9.37 8.14 13.39c0 0 3.81 9.74 9.43 9.85 7.66.2 14.39-10.7 11.74-21.78-3.43-14.36-25.23-15.55-29.31-1.46z"/><path d="M630.83 124.85s-8.94-2.26-13.88 1.33c-5.77 4.2-8 8.54-1.1 15.32 0 0 15-4.87 20-3.83a54.2 54.2 0 0 1 8.57 2.48c1.02-9.92-8.6-17.3-13.59-15.3z"/></g><path d="M623.85 144.49a6.5 6.5 0 0 1-1.79 4.6c-1.58 1.62-3.49.49-4-1.58-.46-1.87-.18-5 1.86-5.82a2.88 2.88 0 0 1 3.74 1.62 3 3 0 0 1 .19 1.18z" class="AA"/><path d="M620.47 143.92a1 1 0 0 1 .86.55 2 2 0 0 1 .16 1 3.68 3.68 0 0 1-1.61 2.72" stroke="#000" class="x y AF AK AL"/><ellipse cx="639.1" cy="136.24" rx="2.26" ry="3.39" class="u"/><g class="s"><path d="M678.94 172.11c-.89-1.54-2.65-1.56-4.22-1.6-5.6-.14-11.63-1.77-14.94-6.29-2.24-3.06-2.89-7-3.07-10.78s0-7.63-.71-11.34-2.69-7.43-6-9.19a9.26 9.26 0 0 0-10 1.12 2.63 2.63 0 0 0-.73 1.12l-.07.19a2.79 2.79 0 0 0 .07 2c3.66 9.16-1.28 15.7-1.25 22.43 0 6.25.17 12.91 3.66 18.1a17.9 17.9 0 0 0 9.64 7 23 23 0 0 0 12 .21c.44-.1.94-.3 1-.74a1.17 1.17 0 0 0-.4-.89l-3.35-3.82a25 25 0 0 0 14.32-1.17c1.77-.7 3.56-1.68 4.29-3.55a3.26 3.26 0 0 0-.24-2.8zm-66.16-28.04l-1.78-.22s1.05 1.18 1.78.22z"/><path d="M605.44 169.33s10.66-3.59 26.75.79 14.45 10 14.45 10-12.14 21.73-13.74 46.44l-34.53-3.36s2.52-17 1.52-20.53c-3.23-11.32 0-25.82 5.55-33.34z"/></g><path d="M622.73 399.43l-7.93 1.52c-7.6-25.15-15.69-53.55-19.26-79.6-.55-4.08-.53-13.46-.95-17.07l-.61-4.94c-1-7.83-1.62-14-2-17.86l-.43-4.38h28.85l-.27 5.37-.9 17.76-.09 2-.59 11.71-1 20.73c4.74 17.18 5.69 64.98 5.18 64.76z" class="AA"/><path d="M601 419.98a16.69 16.69 0 0 1 4.67-1.85h0s5.1-3.7 7.74-15l6.62-1.21a6.52 6.52 0 0 1 5.89 1.84 2.57 2.57 0 0 1 .41.67 22.65 22.65 0 0 1 .6 3.64 80 80 0 0 1-.17 12.48h-1.26l-.28-7.83c0-2.66-2.89.42-3.72 3.26s-2.54 5.95-10.23 5.94c-8.86 0-12.59-.31-10.27-1.94z" class="s"/><path d="M614.65 399.06a108.29 108.29 0 0 1-3.94 10.9 22 22 0 0 1-5.13 8.17s5.75.85 8.3-2 6.19-12.89 12-12.29l-3.17-5.82c-.92-1.1-8.06 1.04-8.06 1.04zm37.95-.87l-7.71.23-21.2-87-2.48-11.39a1.56 1.56 0 0 0-.11-.51l-3.25-15.86-.81-4.21 25-1.22.55 8.85.87 13 .16 2.54.57 8.85 1.47 23.73c11.6 28.22 6.92 67.97 6.94 62.99z" class="AA"/><path d="M630.13 417.85a16.65 16.65 0 0 1 4.68-1.86h0s5.09-3.69 7.73-15l6.62-1.21a6.51 6.51 0 0 1 5.89 1.84 2.24 2.24 0 0 1 .41.67 23.85 23.85 0 0 1 .61 3.64 81.25 81.25 0 0 1-.18 12.48h-1.23l-.29-7.84c0-2.66-2.89.43-3.71 3.27s-2.55 5.94-10.24 5.93c-8.86-.03-12.59-.33-10.29-1.92z" class="s"/><path d="M644.89 392.77a151.08 151.08 0 0 1-5 15 21.76 21.76 0 0 1-5.13 8.17c0 0 5.75.86 8.31-2s6.18-12.88 12-12.28l-2.45-5.17c-.96-1.08-7.73-3.72-7.73-3.72z" class="AA"/><path d="M597 225.43h0l2.09-7.83 34.42 2.58v7.45h0c13.77 24.38 10.49 52.22 10.49 52.22l3.23 34.86s-1.49 4.54-24.65 6.05c-20.37 1.33-30.3.17-30.3.17-7.28-42.35.17-87.02 4.72-95.5z" class="u"/><path d="M633 270.57c-.63.21-12.67 13.89-12.67 13.89l2.18 28.7 1.53-28.56z" class="v"/><use xlink:href="#D" class="u"/><g class="t"><use xlink:href="#D" opacity=".1"/><use xlink:href="#D" opacity=".5"/></g><use xlink:href="#E" class="s"/><use xlink:href="#E" class="t AD"/><use xlink:href="#E" x="2.291" y="13.163" class="s"/><use xlink:href="#E" x="2.291" y="13.163" class="t w"/><use xlink:href="#E" x="4.583" y="26.326" class="s"/><use xlink:href="#E" x="4.583" y="26.326" class="t v"/><path d="M562.463 156.103l12.822-8.012 25.818 41.317-12.822 8.012z" class="u"/><path d="M562.463 156.103l12.822-8.012 25.818 41.317-12.822 8.012z" class="t y"/><use xlink:href="#F" class="u"/><use xlink:href="#F" class="t AD"/><use xlink:href="#F" x="7.082" y="11.33" class="u"/><use xlink:href="#F" x="7.082" y="11.33" class="t w"/><use xlink:href="#F" x="14.16" y="22.666" class="u"/><use xlink:href="#F" x="14.16" y="22.666" opacity="0" class="t"/><path d="M550.665 170.716l8.84-12.266 42.308 30.491-8.84 12.266z" class="u"/><path d="M550.665 170.716l8.84-12.266 42.308 30.491-8.84 12.266z" opacity=".5" class="t"/><use xlink:href="#G" class="u"/><use xlink:href="#G" class="AD"/><use xlink:href="#G" x="10.857" y="7.82" class="u"/><use xlink:href="#G" x="10.857" y="7.82" class="w"/><use xlink:href="#G" x="21.699" y="15.648" class="u"/><use xlink:href="#G" x="21.699" y="15.648" class="v"/><path d="M594 190.15a2 2 0 0 1-2.358 3.23 2 2 0 0 1 .841-3.603 2 2 0 0 1 1.518.373z" class="s"/><g class="AA"><path d="M564.61 186.98c-.3.45 14.12 20.92 20.22 20.33s23.55-22.33 25.63-27.17c2.28-5.29 1.4-11-3.59-10.88s-8.76 5.88-12.71 12.13a90.39 90.39 0 0 1-9.48 12l-15.62-10.64z"/><path d="M565 187.72s-2.33-1.63-5.51-4.31a17.07 17.07 0 0 1-4.54-6.33l-.12-3.39 4.27 4c.46.38 4.8.07 4.45-.28s-4.68-5.3-3.61-5.74 5.24 2.65 7.53 4.65 2.64 7.59 2.64 7.59z"/></g><path d="M594.89 179.14c.14.87 10.77 11.42 10.77 11.42s11.24-14.42 5.42-20.58-16.19 9.16-16.19 9.16z" class="s"/><path d="M600.67 193.56c-.12.14 1.5 1.35 4.56-1.55.95-.9 5.17-9.1 5.17-9.1l-5.17 6.94-1-.63z" class="v"/><g class="AB"><path d="M273.94 304.97l14.57 2.2 15.78 1.51 17.46-24.59 7.53 2.25s-13.16 35.09-19.92 36.9-39.48-1.39-39.48-1.39z"/><path d="M316.49 270.48a1.29 1.29 0 0 0-.15 1.3l2 4.69 3.36 8c.88 1.19 6.35 3.46 6.35 3.46s5-4.79 5.6-6.91 1.24-4.92.59-5.75-1.4-.38-1.92-.78-.71-1.5-2.47-1.14c0 0-1.26-2.19-2.83-1.31a21.17 21.17 0 0 1 1.26-4.51c1.22-3.26 1.09-3.62 0-4.17s-2.69 3-3.49 4.6-3.2 7.92-3.2 7.92h0c-.48-.67-1.43-2.52-2.44-4-1.15-1.73-2.08-2.1-2.66-1.4z"/></g><path d="M326.75 272.7a16.3 16.3 0 0 0-1.55 5.6 2.38 2.38 0 0 0 .28 1.31 1.13 1.13 0 0 0 1.14.56 1.45 1.45 0 0 0 .85-.71 8.94 8.94 0 0 0 .9-1.93l1.23-3.3m-1.93 5.1a1.52 1.52 0 0 0 1.72.65 3 3 0 0 0 1.29-1.24 12.51 12.51 0 0 0 1.38-2.82m-2.13 3.73c.08.37.45.94.82 1a1.84 1.84 0 0 0 1.08-.16 3.36 3.36 0 0 0 1.78-1.83m-10.95-1.81a6.19 6.19 0 0 1 2.57 6.11" stroke="#fe7f3a" class="x z AF"/><path d="M304.29 308.68a47 47 0 0 1 1.35 5.29s1.17-4.64-.57-6.38z" class="y"/><g class="u"><path d="M273.41 380.08l-.4-14.49.5-49.6-3.63-13.69-17.55-3-12.87-.12-22.75 7.23-.78 11.19.54 53.07c-.21 1.89-6.1 13.67-6.1 13.67 24.49 6.33 63.38-2.55 63.04-4.26z"/><path d="M268.53 302.06s2.23-1.48 3.32-.85a5.93 5.93 0 0 1 1.8 1.72l18.09 3.8-5.48 20c-.23 0-16-1.57-16-1.57z"/></g><path d="M273.42 325.48l.09-12.13c.04.21 5.34 12.66 5.34 12.66z" class="y"/><path d="M238.22 301.68s3.25-6.44 1.15-17.1c1.29-.6-.42-3.27-.37-4.33l13.46 10c-.63 3.29 0 9.82.48 12.6l-5.19 4.71z" class="AB"/><path d="M252.11 292.25l-7.81-.62c1.32 2.31 2.24 4.35 7.95 4.58a33.17 33.17 0 0 0-.14-3.96z" class="v"/><path d="M257.48 260.5c2.39 2.83 3.44 11-2 10.73s-2.12-15.59 2-10.73z" class="s"/><path d="M235.37 275.54c2.86 8.64 4.3 13.57 9.92 16.86 23.62 10.12 21.81-30.69 3.46-33.38a12.56 12.56 0 0 0-13.38 16.52z" class="AB"/><path d="M227.93 264.85c1.23-8.38 14.83-7.95 18.9-6.45.61.22-5.52 5.85-5.13 5.56l-3 2.13c-4.27 2.16 3.44 9.05-.24 16.53-8.16-1.11-11.16-11.72-10.53-17.77zm20.07 9.82c.59 2.12 2.74 1.46 2.12-.62s-2.73-1.46-2.12.62zm9.08-2.36c.58 2.11 2.73 1.46 2.11-.63s-2.73-1.46-2.11.63z" class="s"/><path d="M254 272.63l5.51 5.19c-.92 1.48-3.21 1.57-3.21 1.57z" fill="#fe7f3a"/><path d="M244.82 271.05a.44.44 0 0 0 .4-.18 3.53 3.53 0 0 1 2.78-1.52c1.73-1.15-1.88-1.39-3.47 1a.44.44 0 0 0 .29.7z" class="s"/><path d="M233.6 283.94c2.36 4.39 10.89 5.55 8.67-1.22-1.74-6.66-12.08-6.62-8.67 1.22z" class="AB"/><path d="M234.91 280.96c1.13-2.31 4.16-.31 4.74 1.48" stroke="#000" class="v x AF AK AL"/><g class="s"><path d="M259.81 267.44a.44.44 0 0 0 0-.77 4.26 4.26 0 0 0-3.95-.16.44.44 0 0 0 .41.77c.24-.38 1.94-.34 3.54.16z"/><use xlink:href="#H"/></g><use xlink:href="#H" opacity=".7" class="t"/><path d="M245 265.17a3 3 0 0 0 2-2.68 8.18 8.18 0 0 0-.46-2.27 3.22 3.22 0 0 1 .05-2.27 1.88 1.88 0 0 1 3.27-.11 1.35 1.35 0 0 1 .27-1.47 4.11 4.11 0 0 1 1.31-.87 3.92 3.92 0 0 1 2.72-.57 3.14 3.14 0 0 1 1.81 2.07 5.4 5.4 0 0 1 .1 3.61 5.77 5.77 0 0 1-3.53 3.21 16.81 16.81 0 0 1-4.84.75" class="s"/><path d="M228.09 263.04a10.34 10.34 0 0 1 6.08-5.95z" class="v"/><path d="M230.17 275.24c3-6 9.31-11.74 15.37-14.57" stroke="#000" class="x y z AM"/><path d="M255.63 282.65a26.19 26.19 0 0 0-1.66 3.51l-.68-.15c-3-.68-4.21-2-4.59-3.25a4.07 4.07 0 0 1-.09-1.9 3.87 3.87 0 0 1 .33-1c1.39 1.32 4.16 2.17 5.67 2.56.65.11 1.02.23 1.02.23z" class="s"/><path d="M254.64 282.37l-.52 1c-2.85-.64-4.77-1.47-5.47-2.55a4.11 4.11 0 0 1 .32-1c1.4 1.32 4.16 2.16 5.67 2.55z" class="t"/><path d="M253.33 285.99c-3-.68-4.22-2-4.6-3.25a9.94 9.94 0 0 1 3.21 1.42 3.77 3.77 0 0 1 1.39 1.83z" fill="#d7504d"/><use xlink:href="#I" class="n s"/><use xlink:href="#I" class="Y v"/><path class="Y v" d="M308.61 385.95l-42.16 25.08 5.29 8s-3 4.22-8.18-9.19l26.1-16.17s-8-1-7.75-2.28c.4-2.05 18.12-5.45 26.2-7a.8.8 0 0 1 1.109.918.8.8 0 0 1-.609.592z"/><path class="Y v" d="M265 408.03l6.87 11.82a142.41 142.41 0 0 1-26.87 1.34 25.35 25.35 0 0 1-8.6-1.82l-2.4-4.68 5.75-10.77z"/><path d="M278.87 403.8l-18.75 11.14 3.04 9.03 21.9-9.08-6.19-11.09z" class="AB"/><path d="M249.9 417.63l1.62 6.48a2.51 2.51 0 0 1 1.73 1.69 8.38 8.38 0 0 1-.41 2.84l4.32 17.85a6.83 6.83 0 0 0 1.7-.62 8 8 0 0 0 1.46-1.22c1.35-1.48 1.56-3.66 1.65-5.28.16-2.72 2-10.61 2-10.61a8.84 8.84 0 0 1 2.89-3.8 4 4 0 0 0 1.76-3.05 2.32 2.32 0 0 0-2.84-2.13l-1.77.16a3.07 3.07 0 0 1-.73-4.07s1.16-3.82-.48-3.22c-.93.34-5.05 2-8.34 3.28l-2.13.8h0z" class="s"/><path d="M263.13 432.98a.27.27 0 0 0-.05-.31 3 3 0 0 0-1.36-.75c-.28-.06-.42.38-.14.45a2.53 2.53 0 0 1 1.2.66.21.21 0 0 0 .34-.05zm.4-1.56a.24.24 0 0 0 0-.3 2.85 2.85 0 0 0-1.36-.75c-.27-.07-.41.37-.13.44a2.62 2.62 0 0 1 1.2.66.21.21 0 0 0 .34-.05zm.35-1.57a.26.26 0 0 0-.05-.3 2.94 2.94 0 0 0-1.36-.75c-.28-.07-.42.38-.14.44a2.66 2.66 0 0 1 1.2.66.22.22 0 0 0 .35 0z" class="u"/><path class="J t v" d="M252.29 416.73h0l-2.38.9 1.62 6.48a2.51 2.51 0 0 1 1.73 1.69 8.38 8.38 0 0 1-.41 2.84l4.32 17.85a6.83 6.83 0 0 0 1.7-.62 8.89 8.89 0 0 0 .74-.55l-7-28.73z"/><path d="M263.64 429.72a10.68 10.68 0 0 1 1.84-.51 3.67 3.67 0 0 1 1.89.17.88.88 0 0 1 .61.59.81.81 0 0 1-.43.77 2.23 2.23 0 0 1-1.73.27 8.3 8.3 0 0 1-2.18-1.29m-.02-.08a11.45 11.45 0 0 0 1.46-1.23 3.6 3.6 0 0 0 .94-1.65.86.86 0 0 0-.14-.84.82.82 0 0 0-.88-.07 2.26 2.26 0 0 0-1.21 1.27 8.53 8.53 0 0 0-.17 2.53" class="x z AE AM"/><path d="M296.86 419.07l21.42 4.1 3.71-8.78-22.41-7.72-2.72 12.4z" class="AB"/><path d="M327.71 427.93l3.09-5.93a2.51 2.51 0 0 1-.18-2.41 8.29 8.29 0 0 1 2.19-1.86l8.6-16.22a6.63 6.63 0 0 0-1.68-.67 8.2 8.2 0 0 0-1.9 0c-2 .2-3.6 1.7-4.74 2.85-1.92 1.92-8.5 6.64-8.5 6.64a8.82 8.82 0 0 1-4.69.93 4 4 0 0 0-3.33 1.11c-.95 1.34-.51 2.58.72 3.49l1.43 1a3.08 3.08 0 0 1-2.16 3.53s-3.4 2.1-1.78 2.73c.93.36 5.14 1.82 8.42 3.08l2.13.81h0z" class="s"/><path d="M328 407.67a.27.27 0 0 0-.17.26 2.93 2.93 0 0 0 .52 1.46c.17.24.57 0 .4-.24a2.62 2.62 0 0 1-.46-1.29.21.21 0 0 0-.29-.19zm-1.35.89a.25.25 0 0 0-.16.26 2.86 2.86 0 0 0 .51 1.47c.17.23.57 0 .4-.25a2.65 2.65 0 0 1-.46-1.28.22.22 0 0 0-.29-.2zm-1.31.96a.27.27 0 0 0-.17.26 2.9 2.9 0 0 0 .52 1.46c.17.24.57 0 .4-.24a2.55 2.55 0 0 1-.46-1.29.21.21 0 0 0-.29-.19z" class="u"/><path class="J t v" d="M330.62 419.59a8.29 8.29 0 0 1 2.19-1.86l8.6-16.22a6.63 6.63 0 0 0-1.68-.67c-.33 0-.63-.06-.92-.07L325 426.85l.35.14h0l2.38.91 3.09-5.93a2.51 2.51 0 0 1-.2-2.38z"/><path d="M325.44 409.77a10.89 10.89 0 0 1-1.71-.85 3.66 3.66 0 0 1-1.31-1.37.89.89 0 0 1-.06-.85.82.82 0 0 1 .83-.29 2.26 2.26 0 0 1 1.48.94 8.35 8.35 0 0 1 .77 2.42m-.03.08a11.2 11.2 0 0 0-1.92-.05 3.69 3.69 0 0 0-1.79.61.89.89 0 0 0-.46.72.84.84 0 0 0 .61.65 2.23 2.23 0 0 0 1.75-.15 8.72 8.72 0 0 0 1.81-1.78" class="x z AE AM"/><path d="M216.27 406.85c-4.42-7.53-14.32-27.87 7.09-31.14s91.53 32.62 91.53 32.62L310 421.79l-65.9-12.38s8.7 12.36-2.27 11.48c-15.95-2.04-19.67-5.99-25.56-14.04z" class="s"/><path class="Y v" d="M245.67 409.59l-18.17-5.74s15.24 9.33 20.83 10.44z"/><g class="s"><path d="M289.59 381.23l-17.75.44-18.83.47h0c0 1.4 1.63 2.48 3.55 2.43l18.81-.47 10.76-.27h.06l29.95-.74c1.9-.06 3.4-1.23 3.35-2.62z"/><path d="M316.68 382.94l-33.41.83a1 1 0 0 1-1.06-.82.56.56 0 0 1 .05-.25l14-34.45a2.93 2.93 0 0 1 2.73-1.72l33.43-.83a1 1 0 0 1 1.05.8.71.71 0 0 1-.06.28l-14 34.45a2.93 2.93 0 0 1-2.73 1.71z"/></g><g class="t"><path class="p" d="M332.43 345.7l-33.43.83a2.93 2.93 0 0 0-2.73 1.72l-13.48 33.15-11 .27-18.83.47h0c0 1.4 1.63 2.48 3.55 2.43l18.81-.47 10.76-.27h.06l29.95-.74a4.53 4.53 0 0 0 1.64-.37 2.68 2.68 0 0 0 1.63-1.5l14-34.45a.71.71 0 0 0 .06-.28 1 1 0 0 0-.99-.79z" opacity=".5"/><path d="M312.8 364.35c-.68 1.65-2.11 2.81-3.21 2.61s-1.43-1.69-.76-3.34 2.11-2.8 3.21-2.59 1.45 1.62.76 3.32z"/></g><g class="y"><path d="M296.27 348.25l-13.48 33.15h1.54L299 346.53a2.93 2.93 0 0 0-2.73 1.72z"/></g><path d="M230.05 337.44l3.94-1.06-4.53-12.58 7.63 14.99-6.25 2.43-.79-3.78z" class="v"/><path d="M227.23 322.56s5.33 30.77 8 33.82c4.52 5.16 27.24 19.18 27.24 19.18l11.66-3.71a2.57 2.57 0 0 1 2.35.46l7.71 6.25-.77.61a1.1 1.1 0 0 1-1.19.11l-1.2-.65 1.33 1.39-.45.35a1.77 1.77 0 0 1-1.59.3l-3.5-1.05 3.18 2.23a2.89 2.89 0 0 1-2.68.48l-5.12-1.62a65.78 65.78 0 0 1-10.76 1.22c-6.09.19-34.48-10.68-39.61-18.17s-9.75-38.14-9.75-38.14z" class="AB"/><path d="M212.83 342.09s-6.55-30.34 3.88-35.69c6.78-3.48 17.28 30 17.28 30z" class="u"/><defs ><path id="B" d="M589.81 29.52a29.26 29.26 0 0 0-19.15 51.67c1.24 1 3.12 2.25 3.08 4.81l.13 6.39h30.77l.13-6.64c0-2.25 1.75-3.22 3-4.23a29.22 29.22 0 0 0-18-52z"/><path id="C" d="M161.92 66.52a2.57 2.57 0 0 1-4.384 1.831 2.57 2.57 0 0 1 1.814-4.391 2.57 2.57 0 0 1 2.57 2.56z"/><path id="D" d="M579.057 149.033l14.897-2.589 7.485 43.064-14.897 2.589z"/><path id="E" d="M580.751 150.187l12-2.086 2.086 12-12 2.086z"/><path id="F" d="M564.452 156.518l10.329-6.454 6.454 10.329-10.329 6.454z"/><path id="G" d="M552.982 170.568l7.121-9.881 9.881 7.121-7.121 9.881z"/><path id="H" d="M231.44 278.19s6-8.62 13.4-12.64c8.15-4.44 14.13-3.12 14.13-3.12s1.4-1.37.5-2.15a1.35 1.35 0 0 0-1.74-.09s-8.73-9.34-19.19-6.34-13.92 9.43-13.5 9.9c2.15 2.38 3.38-1.32 3.38-1.32s-2.54 3.39.39 10.31l.86 2.71s-.67 3.16 1.77 2.74z"/><path id="I" d="M245.31 380.71s88.73-18.05 92.38.43c5.22 26.38-58.89 42.13-92.73 40s.35-40.43.35-40.43z"/></defs></svg>